<?xml version="1.0" encoding="UTF-8"?>
<svg id="Layer_1" xmlns="http://www.w3.org/2000/svg" width="748.7" height="500" version="1.1" xmlns:xlink="http://www.w3.org/1999/xlink" viewBox="0 0 748.7 500">
  <!-- Generator: Adobe Illustrator 30.0.0, SVG Export Plug-In . SVG Version: 2.1.1 Build 48)  -->
  <defs>
    <style>
      .st0 {
        fill: url(#linear-gradient2);
      }

      .st1 {
        fill: url(#linear-gradient1);
      }

      .st2 {
        fill: none;
      }

      .st3 {
        fill: url(#linear-gradient7);
      }

      .st4 {
        fill: url(#linear-gradient4);
      }

      .st5 {
        fill: url(#linear-gradient5);
      }

      .st6 {
        fill: url(#linear-gradient3);
      }

      .st7 {
        fill: url(#linear-gradient6);
      }

      .st8 {
        fill: url(#linear-gradient);
      }

      .st9 {
        clip-path: url(#clippath);
      }
    </style>
    <linearGradient id="linear-gradient" x1="0" y1="284" x2="748.7" y2="284" gradientTransform="translate(0 534) scale(1 -1)" gradientUnits="userSpaceOnUse">
      <stop offset=".2" stop-color="#ededed"/>
      <stop offset=".9" stop-color="#fff"/>
    </linearGradient>
    <clipPath id="clippath">
      <rect class="st2" width="748.7" height="500"/>
    </clipPath>
    <linearGradient id="linear-gradient1" x1="474.8" y1="206.4" x2="440.8" y2="-95.6" gradientTransform="translate(0 534) scale(1 -1)" gradientUnits="userSpaceOnUse">
      <stop offset="0" stop-color="#fff"/>
      <stop offset=".4" stop-color="#f2f2f2"/>
      <stop offset=".8" stop-color="#ededed"/>
    </linearGradient>
    <linearGradient id="linear-gradient2" x1="-39" y1="399.5" x2="462.5" y2="399.5" gradientTransform="translate(0 534) scale(1 -1)" gradientUnits="userSpaceOnUse">
      <stop offset="0" stop-color="#fff"/>
      <stop offset=".4" stop-color="#f2f2f2"/>
      <stop offset=".8" stop-color="#ededed"/>
    </linearGradient>
    <linearGradient id="linear-gradient3" x1="170.6" y1="587.7" x2="338.6" y2="392.7" gradientTransform="translate(0 534) scale(1 -1)" gradientUnits="userSpaceOnUse">
      <stop offset="0" stop-color="#fff"/>
      <stop offset=".4" stop-color="#f2f2f2"/>
      <stop offset=".8" stop-color="#ededed"/>
    </linearGradient>
    <linearGradient id="linear-gradient4" x1="353.3" y1="264.5" x2="727.3" y2="642.5" gradientTransform="translate(0 534) scale(1 -1)" gradientUnits="userSpaceOnUse">
      <stop offset="0" stop-color="#fff"/>
      <stop offset=".4" stop-color="#f2f2f2"/>
      <stop offset=".8" stop-color="#ededed"/>
    </linearGradient>
    <linearGradient id="linear-gradient5" x1="836.8" y1="629" x2="483.2" y2="249.3" gradientTransform="translate(0 534) scale(1 -1)" gradientUnits="userSpaceOnUse">
      <stop offset="0" stop-color="#fff"/>
      <stop offset=".4" stop-color="#f2f2f2"/>
      <stop offset=".8" stop-color="#ededed"/>
    </linearGradient>
    <linearGradient id="linear-gradient6" x1="723" y1="321.7" x2="-1" y2="353.7" gradientTransform="translate(-165.7 767.9) rotate(11.7) scale(1 -1)" gradientUnits="userSpaceOnUse">
      <stop offset="0" stop-color="#fff"/>
      <stop offset=".4" stop-color="#f2f2f2"/>
      <stop offset=".8" stop-color="#ededed"/>
    </linearGradient>
    <linearGradient id="linear-gradient7" x1="-1055.6" y1="-910.7" x2="-1779.6" y2="-878.7" gradientTransform="translate(-160.8 -894.3) rotate(-90) scale(1 -1)" gradientUnits="userSpaceOnUse">
      <stop offset="0" stop-color="#fff"/>
      <stop offset=".4" stop-color="#f2f2f2"/>
      <stop offset=".8" stop-color="#ededed"/>
    </linearGradient>
  </defs>
  <g id="BACKGROUND">
    <rect class="st8" width="748.7" height="500"/>
  </g>
  <g id="OBJECTS">
    <g class="st9">
      <g>
        <path class="st1" d="M884.9,340.2c-16.4-20.9-33.1-42.1-54.2-58.3-21.1-16.2-47.3-27.3-73.8-25-51.4,4.5-84.8,54.6-128.2,82.5-48.3,31-109.3,34.1-166.5,28.5-57.1-5.6-113.7-19-171.1-17.3-93.6,2.8-185.1,48-244.1,120.7l418.1,376.7,12.1-13.4,407.7-494.5h0Z"/>
        <path class="st0" d="M378.6,211.8c-32.2-6.8-65.6,5.7-93.5,23.1-28,17.4-52.7,39.7-81.3,55.9-74.5,42.2-173.6,36.4-242.7-14.3V-50h501.5l-83.9,261.8h0Z"/>
        <path class="st6" d="M309.6-94.5c-32.1,7.1-57.4,32.1-75.8,59.5-18.4,27.3-31.7,57.8-51.2,84.4-50.6,69.1-143.4,104.5-227.2,86.6L-178.6-161.8l457.3-205.9,31,273.2h0Z"/>
        <path class="st4" d="M826.5,363c-87.1,57.7-203.3,68.6-299.5,28s-169.7-131.3-189.2-233.9c-7-36.7-7.8-75.5-24.6-108.9-18-35.7-52.6-60.9-89.8-75.5-37.2-14.7-77.3-20.1-116.9-25.4h744l-24,415.8h0Z"/>
        <path class="st5" d="M837.1,272.6c-17.9-39.9-54.4-71-96.7-82.2-30.2-8-62-6.3-93.2-6.5s-63.7-2.9-90.8-18.5c-38.6-22.2-68.9-67.2-80.9-110.1-8.1-29-3.7-58.1-.9-88.1,2.8-30,14.5-59.9,36.7-80.2h349.2l-23.4,385.6h0Z"/>
        <path class="st7" d="M624.1,685.6c4.1-26.3,8.2-52.9,5.7-79.4s-12.3-53.2-32.1-71c-38.4-34.5-97.8-24.8-147.8-37.5-55.6-14.1-99.5-56.7-134.4-102.3-34.8-45.6-63.7-96.1-104-136.9-65.9-66.5-161.4-102.6-254.8-96.1l9.6,562.7,18-.3,639.7-39.2h0Z"/>
        <path class="st3" d="M831.5,127.3c-26.6,1.3-53.5,2.7-78.9,10.5-25.4,7.8-49.7,22.8-63.1,45.8-26,44.6-4.5,100.8-6.9,152.3-2.6,57.3-35.4,108.9-73,152.3-37.6,43.3-81.3,81.8-113.1,129.5-51.9,77.9-67.9,178.8-42.7,268.9l549.2-123.1-3.9-17.6L831.5,127.3h0Z"/>
      </g>
    </g>
  </g>
</svg>