<?xml version="1.0" encoding="UTF-8"?><svg xmlns="http://www.w3.org/2000/svg" width="750" height="500" xmlns:xlink="http://www.w3.org/1999/xlink" viewBox="0 0 750 500"><defs><style>.cls-1{fill:url(#linear-gradient-2);}.cls-2{fill:#fff;}.cls-3{fill:url(#linear-gradient-4);}.cls-4{fill:url(#radial-gradient-5);}.cls-5{fill:url(#radial-gradient);}.cls-6{fill:url(#radial-gradient-3);}.cls-7{fill:url(#linear-gradient-3);}.cls-8{fill:url(#linear-gradient-5);}.cls-9{isolation:isolate;}.cls-10{fill:url(#radial-gradient-4);}.cls-11{fill:url(#linear-gradient-7);}.cls-12{fill:url(#linear-gradient-6);}.cls-13{fill:url(#radial-gradient-2);mix-blend-mode:multiply;}.cls-14{fill:url(#linear-gradient);}</style><radialGradient id="radial-gradient" cx="758.4" cy="446.54" fx="758.4" fy="446.54" r="248.17" gradientUnits="userSpaceOnUse"><stop offset=".15" stop-color="#fff"/><stop offset=".41" stop-color="#fcfcfc"/><stop offset=".57" stop-color="#f3f3f4"/><stop offset=".71" stop-color="#e4e5e6"/><stop offset=".84" stop-color="#cfd0d2"/><stop offset=".95" stop-color="#b5b6b8"/><stop offset="1" stop-color="#a8aaac"/></radialGradient><linearGradient id="linear-gradient" x1="250.75" y1="-28.51" x2="464.46" y2="450.54" gradientUnits="userSpaceOnUse"><stop offset="0" stop-color="#fff"/><stop offset=".38" stop-color="#f4f4f4"/><stop offset="1" stop-color="#d9d9d9"/></linearGradient><radialGradient id="radial-gradient-2" cx="89.17" cy="-42" fx="89.17" fy="-42" r="470.51" gradientTransform="translate(48.6) scale(.94 1)" gradientUnits="userSpaceOnUse"><stop offset=".51" stop-color="#fff"/><stop offset=".64" stop-color="#fcfbfb"/><stop offset=".74" stop-color="#f2f2f1"/><stop offset=".84" stop-color="#e3e2e0"/><stop offset=".93" stop-color="#cdccc9"/><stop offset="1" stop-color="#b8b7b2"/></radialGradient><linearGradient id="linear-gradient-2" x1="274.5" y1="149.5" x2="441.5" y2="316.5" gradientUnits="userSpaceOnUse"><stop offset="0" stop-color="#fff"/><stop offset=".32" stop-color="#f7f7f7"/><stop offset=".8" stop-color="#e3e3e3"/><stop offset="1" stop-color="#d9d9d9"/></linearGradient><linearGradient id="linear-gradient-3" x1="354.01" y1="202.95" x2="482.44" y2="490.83" xlink:href="#linear-gradient-2"/><radialGradient id="radial-gradient-3" cx="453" cy="446.18" fx="453" fy="446.18" r="712.9" gradientTransform="translate(-59.92 461.65) rotate(-29.75) scale(1 .54)" gradientUnits="userSpaceOnUse"><stop offset="0" stop-color="#b8b7b2"/><stop offset=".29" stop-color="#c8c7c3"/><stop offset=".86" stop-color="#f3f3f2"/><stop offset="1" stop-color="#fff"/></radialGradient><linearGradient id="linear-gradient-4" x1="330.76" y1="188.63" x2="430.65" y2="412.52" xlink:href="#linear-gradient-2"/><linearGradient id="linear-gradient-5" x1="425.41" y1="491.5" x2="363.6" y2="297.37" xlink:href="#linear-gradient-2"/><radialGradient id="radial-gradient-4" cx="665.1" cy="539.99" fx="665.1" fy="539.99" r="341.48" gradientTransform="translate(142.65 -108.04) rotate(9.04) scale(.92 1.03) skewX(1.6)" gradientUnits="userSpaceOnUse"><stop offset="0" stop-color="#fff"/><stop offset=".3" stop-color="#fcfcfc"/><stop offset=".5" stop-color="#f3f3f4"/><stop offset=".66" stop-color="#e4e5e6"/><stop offset=".81" stop-color="#cfd0d2"/><stop offset=".95" stop-color="#b5b6b8"/><stop offset="1" stop-color="#a8aaac"/></radialGradient><linearGradient id="linear-gradient-6" x1="514.06" y1="259.7" x2="804.36" y2="497.39" xlink:href="#linear-gradient-2"/><linearGradient id="linear-gradient-7" x1="739.43" y1="379.55" x2="547.97" y2="243.36" xlink:href="#linear-gradient-2"/><radialGradient id="radial-gradient-5" cx="134.43" cy="79.34" fx="134.43" fy="79.34" r="602.88" gradientTransform="translate(-5.45 83.79) rotate(-34.12) scale(.67 .56) skewX(-17.29)" gradientUnits="userSpaceOnUse"><stop offset=".28" stop-color="#fff"/><stop offset=".42" stop-color="#f9f9f9"/><stop offset=".59" stop-color="#eaeaeb"/><stop offset=".77" stop-color="#d1d2d3"/><stop offset=".97" stop-color="#aeb0b2"/><stop offset="1" stop-color="#a8aaac"/></radialGradient></defs><g class="cls-9"><g id="BACKGROUND"><path class="cls-5" d="M749.4,500h-86.46s-56.5-36.78-71.05-99.94c-24.19-105.01,52.25-179.17,157.5-138.79v238.73Z"/><rect class="cls-14" width="750" height="500"/><path class="cls-13" d="M750,500H0v-165.24C257.79,431.58,438.95,267.28,410.6,0h339.4v500Z"/><path class="cls-1" d="M750,500H0v-165.24C257.79,431.58,476.35,267.28,448,0h302v500Z"/><path class="cls-7" d="M750,500H0v-155.83C271.33,482.33,484.67,210.09,521,0h229v500Z"/><path class="cls-6" d="M750,500H0v-132.33C382,547,456.23-13,750,17v483Z"/><path class="cls-3" d="M750,500H0v-124.33C355,554.6,466,15.83,750,75.57v424.43Z"/><path class="cls-2" d="M750,500H0v-114.66C375,537,438.67,48.77,750,130.67v369.33Z"/><path class="cls-8" d="M750,500H0v-29c189,45,278.02-71.13,379-156,116-97.5,224.44-203.09,371-148.66v333.66Z"/><path class="cls-10" d="M750,500h-377.5s111.5-392.33,377.5-312v312Z"/><path class="cls-12" d="M750,500h-259.15s-13.13-58.16-9.7-112.44c8.18-129.65,135.85-242.56,268.85-193.98v306.42Z"/><path class="cls-11" d="M750,500h-101s-66-45.86-83-124.63c-28.26-130.95,61.04-223.44,184-173.09v297.72Z"/><path class="cls-2" d="M299.99,0H0v287.78C196,423.41,352.59,230.54,299.99,0Z"/><path class="cls-4" d="M291.73,0H0v284.33C192.67,417,346,237.67,291.73,0Z"/></g></g></svg>