<?xml version="1.0" encoding="UTF-8"?>
<svg id="Layer_1" xmlns="http://www.w3.org/2000/svg" width="498.9" height="498.9" version="1.1" xmlns:xlink="http://www.w3.org/1999/xlink" viewBox="0 0 498.9 498.9">
  <!-- Generator: Adobe Illustrator 30.0.0, SVG Export Plug-In . SVG Version: 2.1.1 Build 91)  -->
  <defs>
    <style>
      .st0 {
        fill: #fff;
      }

      .st1 {
        clip-path: url(#clippath);
      }
    </style>
    <clipPath id="clippath">
      <path class="st0" d="M250,0C112.6,0,1.1,111.4,1.1,248.9s80.7,215.1,189.5,241.8c5.2,1.1,10.6,1.7,16.1,1.7,41.3,0,75.2-33.5,75.2-74.8v-181.8l85.1,80.7v-72.6l-117-110.5-117,110.5v72.6l85.1-80.4v156.7c0,18.2-14.8,33-33,33s-9.3-1-13.4-2.9c-66.3-29.9-112.4-96.6-112.4-174S144.6,58.1,250,58.1s190.8,85.4,190.8,190.8-64.2,167.7-149.9,186.4c-6,28.4-26,51.7-52.4,62.2,3.8.2,7.6.3,11.5.3,137.4,0,248.9-111.4,248.9-248.9S387.5,0,250,0Z"/>
    </clipPath>
  </defs>
  <path class="st0" d="M250,0C112.6,0,1.1,111.4,1.1,248.9s80.7,215.1,189.5,241.8c5.2,1.1,10.6,1.7,16.1,1.7,41.3,0,75.2-33.5,75.2-74.8v-181.8l85.1,80.7v-72.6l-117-110.5-117,110.5v72.6l85.1-80.4v156.7c0,18.2-14.8,33-33,33s-9.3-1-13.4-2.9c-66.3-29.9-112.4-96.6-112.4-174S144.6,58.1,250,58.1s190.8,85.4,190.8,190.8-64.2,167.7-149.9,186.4c-6,28.4-26,51.7-52.4,62.2,3.8.2,7.6.3,11.5.3,137.4,0,248.9-111.4,248.9-248.9S387.5,0,250,0Z"/>
  <g class="st1">
    <rect class="st0" width="498.9" height="498.9"/>
  </g>
</svg>