<?xml version="1.0" encoding="UTF-8"?>
<svg xmlns="http://www.w3.org/2000/svg" version="1.1" xmlns:svg="http://www.w3.org/2000/svg" viewBox="0 0 130.3 38.8">
  <defs>
    <style>
      .cls-1 {
        fill: #c41230;
      }

      .cls-2 {
        fill: #9fa1a4;
      }

      .cls-3 {
        fill: #9fa617;
      }

      .cls-4 {
        fill: #4f8abe;
      }
    </style>
  </defs>
  <!-- Generator: Adobe Illustrator 28.7.1, SVG Export Plug-In . SVG Version: 1.2.0 Build 142)  -->
  <g>
    <g id="svg1">
      <g id="g1">
        <g id="g2662">
          <path id="path2404" class="cls-1" d="M9.7,25.2c.4,3,2.3,5.1,5.5,5.1s4.6-1.3,4.6-3.9-.8-2.5-1.8-3.2c-1-.6-2.7-.5-3.9-.5h-3.8v-7.8h3.1c1,0,2.8,0,3.7-.4,1.1-.5,1.8-1.7,1.8-2.9,0-2.2-1.8-3.5-4-3.5s-4.2,1.8-4.6,4.3l-9-1.5C3,3.6,9,0,16.1,0s6.2.7,8.6,2.1c2.8,1.7,4.7,4.8,4.7,8.2s-2,6.9-5.5,8c4.3,1.3,6.7,4.1,6.7,8.7,0,8.4-7.6,11.2-14.8,11.2S2,34.5,0,26.4l9.7-1.2Z"/>
          <path id="path2406" class="cls-3" d="M62.9,24.2c-.7,8.6-6.9,14.1-15.5,14.1s-17.1-8.1-17.1-18.7S35.5,0,47.2,0s14.9,5.6,15.7,14.9l-10.6.5c.1-3.2-1.1-7.1-4.9-7.1s-5.3,7.8-5.3,11.3.2,10.1,5.4,10.1,4.9-3.1,5.1-6.2l10.4.7Z"/>
          <path id="path2408" class="cls-4" d="M77.2,29.2c1.5,0,2.5.1,3.9-.7,1-.6,1.8-1.4,2.4-2.4,1.3-2.2,1.7-4.7,1.7-7.2s-.7-5.8-2.3-7.8c-1.8-2.2-3.5-2.1-6.1-2.1h-1.3v20.2h1.6ZM64.1.5h13.7c5.4,0,9.7.7,13.7,4.6,3.9,3.7,5.7,8.8,5.7,14.1s-1.7,10-5.2,13.5c-3.7,3.9-8.3,5-13.5,5h-14.5V.5Z"/>
          <path id="path2410" class="cls-2" d="M130.3,24.2c-.7,8.6-7,14.1-15.5,14.1s-17.1-8.1-17.1-18.7S102.9,0,114.6,0s14.9,5.6,15.7,14.9l-10.6.5c.1-3.2-1.1-7.1-4.9-7.1s-5.3,7.8-5.3,11.3.2,10.1,5.4,10.1,4.9-3.1,5.1-6.2l10.4.7Z"/>
        </g>
      </g>
    </g>
  </g>
</svg>