<?xml version="1.0" encoding="UTF-8"?>
<svg id="Layer_1" xmlns="http://www.w3.org/2000/svg" width="5811.5" height="1083.7" version="1.1" viewBox="0 0 5811.5 1083.7">
  <!-- Generator: Adobe Illustrator 30.0.0, SVG Export Plug-In . SVG Version: 2.1.1 Build 91)  -->
  <defs>
    <style>
      .st0 {
        fill: #14552c;
      }
    </style>
  </defs>
  <path d="M1184.3,442l10.6-50h-115.2l-198.8,315.5-199.7-315.5h-114.9l11.2,49.9v249.8h-131.6V238.3h-91.4L36.9,678.6l14.3,99.6h307.5v118.5l-14.9,67.5h114.4l-12.3-67.8v-118.1h131.6v136.1l-11.2,49.8h110.4l-11.2-49.8v-403.6l211.9,323.3h6.1l211.9-323.3v403.5l-10.6,50h110.1l-10.6-50v-472.2h0ZM358.7,691.7H105.2l253.5-360.2v360.2Z"/>
  <path class="st0" d="M358.7,691.7v-360.2l-253.5,360.2h253.5ZM323.5,656.5h-150.5l150.5-213.8v213.8Z"/>
  <path class="st0" d="M1219.5,445.7l18.9-88.9h-178.1c-46-.3-46.5,3.4-47.8-4.1-.9-5.4,12.7-45.2,15.6-53.2,16.4-44.6,44.6-92.8,76.6-127.9,9.2-10,21.8-19.1,30.2-28.4,1.7-1.9,3.9-2.9,3.3-5.9-87.7,27.4-167,110.8-195.6,197.4-1.9,5.7-2.7,11.8-4.3,17.5-.5,1.7-.4,5.1-2.8,4.7,6.2-54.4,13.2-109,24.2-162.6,10.7-51.9,25-110.7,50.9-156.9,2.3-4.1,19.9-29.3,18.7-30.7-77.6,47.8-126.3,135.6-149,222.2-4.9,18.5-7.8,37.6-12.7,56-18.4-115.5-74.8-247.2-195.3-285-2.3,2.4,19.2,24.4,21.7,27.7,51.4,66.1,82,156.4,101.2,237.4,6.8,28.8,14.4,58.9,14.5,88.5-2.9-.5-2.9-3.3-3.8-5.4-10.2-24-15-41.3-29.7-64.2-39.5-61.6-106.9-118.1-180.2-131.6l-.8,3.3c68,44.4,107.5,123.4,132.3,198.7,0,1.6-4.5,2.4-5.8,2.5h-21.2c0-.1-178.3-.1-178.3-.1l20,89v210.6h-61.2V203.1h-144.6L0,669.6l20.7,143.9h302.8v79.4l-23.5,106.5h200.4l-19.2-106.2v-79.8h61.2v97l-20,89h198.4l-20-89v-281.8l157.7,240.6h44.2l157.7-240.6v281.9l-18.9,88.8h197l-18.9-88.8v-464.8h0ZM1194.9,964.2h-110.1l10.6-50v-403.5l-211.9,323.3h-6.1l-211.9-323.3v403.6l11.2,49.8h-110.4l11.2-49.8v-136.1h-131.6v118.1l12.3,67.8h-114.4l14.9-67.5v-118.5H51.2l-14.3-99.6L354.4,238.3h91.4v453.4h131.6v-249.8l-11.2-49.9h114.9l199.7,315.5,198.8-315.5h115.2l-10.6,50v472.2l10.6,50h0Z"/>
  <g id="LAWN_CARE">
    <path d="M1520.9,932.6v-482.5h145.3v355.2h182v127.3h-327.4,0Z"/>
    <path d="M2233.8,932.6l-18.7-62.2h-184.2l-18.7,62.2h-157.6l177-482.5h182.7l177,482.5h-157.6,0ZM2123,578.8l-54.7,170h109.4l-54.7-170Z"/>
    <path d="M2745.7,932.6l-61.9-273.5-61.9,273.5h-152.5l-137.4-482.5h162.6l61.9,295.2,72.7-295.2h109.4l72.7,295.2,61.1-295.2h163.3l-137.4,482.5h-152.5Z"/>
    <path d="M3406,932.6l-177-259v259h-145.3v-482.5h149.7l166.9,243.1v-243.1h145.3v482.5h-139.6,0Z"/>
    <path d="M3780.8,691.7c0-149,113.7-249.6,260.4-249.6s192.8,73.8,221.6,140.4l-125.2,58.6c-12.2-37.6-49.6-70.2-96.4-70.2-66.2,0-113,53.5-113,120.8s46.8,120.8,113,120.8,84.2-32.6,96.4-70.2l125.2,57.9c-28.1,64.4-92.1,141-221.6,141s-260.4-101.3-260.4-249.6h0Z"/>
    <path d="M4628.3,932.6l-18.7-62.2h-184.2l-18.7,62.2h-157.6l177-482.5h182.7l177,482.5h-157.6,0ZM4517.5,578.8l-54.7,170h109.4l-54.7-170h0Z"/>
    <path d="M5075.7,932.6l-66.2-154.8h-52.5v154.8h-145.3v-482.5h256.1c112.2,0,172.7,75.2,172.7,165.7s-48.2,127.3-86.3,146.1l87,170.7h-165.5ZM5045.5,571.6h-88.5v84.7h88.5c24.5,0,47.5-15.9,47.5-42.7s-23-41.9-47.5-41.9h0Z"/>
    <path d="M5299.4,932.6v-482.5h364.1v121.5h-218.7v56.4h213.7v121.6h-213.7v61.5h218.7v121.5h-364.1Z"/>
  </g>
</svg>