<?xml version="1.0" encoding="UTF-8"?><svg id="Layer_1" xmlns="http://www.w3.org/2000/svg" width="1242.54" height="1205.54" viewBox="0 0 1242.54 1205.54"><defs><style>.cls-1{fill:#14552c;}</style></defs><path d="M1184.28,442.04l10.62-49.95h-115.17l-198.81,315.54-199.72-315.54h-114.93l11.21,49.85v249.76h-131.62V238.33h-91.43L36.86,678.63l14.31,99.64h307.49v118.46l-14.92,67.45h114.39l-12.27-67.8v-118.12h131.62v136.06l-11.22,49.85h110.42l-11.22-49.85v-403.6l211.9,323.32h6.14l211.9-323.32v403.5l-10.62,49.95h110.09l-10.62-49.95v-472.18ZM358.66,691.7H105.18l253.48-360.22v360.22Z"/><path class="cls-1" d="M358.66,691.7v-360.22l-253.48,360.22h253.48ZM323.46,656.5h-150.46l150.46-213.83v213.83Z"/><path class="cls-1" d="M1219.48,445.74l18.88-88.85h-178.07c-45.99-.28-46.55,3.44-47.75-4.09-.86-5.37,12.66-45.19,15.59-53.17,16.37-44.6,44.57-92.81,76.64-127.86,9.15-10,21.8-19.11,30.25-28.41,1.68-1.85,3.95-2.88,3.31-5.9-87.72,27.39-167.05,110.76-195.63,197.43-1.88,5.69-2.71,11.79-4.35,17.46-.5,1.73-.39,5.07-2.82,4.68,6.25-54.43,13.16-108.98,24.23-162.65,10.69-51.85,25.05-110.65,50.9-156.95,2.29-4.09,19.88-29.32,18.71-30.72-77.59,47.79-126.26,135.6-149.04,222.23-4.87,18.53-7.78,37.57-12.7,56.04-18.43-115.47-74.84-247.22-195.26-284.98-2.26,2.4,19.15,24.39,21.73,27.7,51.44,66.11,81.95,156.43,101.16,237.44,6.83,28.8,14.43,58.9,14.53,88.54-2.9-.46-2.91-3.34-3.79-5.41-10.25-23.95-14.96-41.27-29.68-64.19-39.52-61.56-106.86-118.11-180.21-131.57l-.84,3.34c67.99,44.4,107.54,123.35,132.33,198.69-.1,1.56-4.49,2.38-5.79,2.49l-21.23-.15h-178.31l20.01,88.96v210.65h-61.22V203.13h-144.64L0,669.57l20.66,143.9h302.8v79.41l-23.55,106.5h200.37l-19.21-106.16v-79.76h61.22v96.95l-20.01,88.96h198.43l-20.02-88.96v-281.76l157.68,240.59h44.18l157.68-240.59v281.87l-18.88,88.85h197.03l-18.88-88.85v-464.78ZM1194.9,964.18h-110.09l10.62-49.95v-403.5l-211.9,323.32h-6.14l-211.9-323.32v403.6l11.22,49.85h-110.42l11.22-49.85v-136.06h-131.62v118.12l12.27,67.8h-114.39l14.92-67.45v-118.46H51.17l-14.31-99.64L354.44,238.33h91.43v453.37h131.62v-249.76l-11.21-49.85h114.93l199.72,315.54,198.81-315.54h115.17l-10.62,49.95v472.18l10.62,49.95Z"/><g id="LAWN_CARE"><path d="M231.05,1203.42v-117.82h35.48v86.73h44.44v31.09h-79.93Z"/><path d="M405.12,1203.42l-4.57-15.19h-44.97l-4.57,15.19h-38.47l43.21-117.82h44.62l43.21,117.82h-38.47ZM378.07,1117.04l-13.35,41.51h26.7l-13.35-41.51Z"/><path d="M530.11,1203.42l-15.11-66.77-15.11,66.77h-37.24l-33.55-117.82h39.7l15.11,72.07,17.74-72.07h26.7l17.74,72.07,14.93-72.07h39.88l-33.55,117.82h-37.24Z"/><path d="M691.34,1203.42l-43.21-63.24v63.24h-35.48v-117.82h36.54l40.75,59.35v-59.35h35.48v117.82h-34.08Z"/><path d="M782.85,1144.6c0-36.39,27.75-60.94,63.59-60.94,31.62,0,47.08,18.02,54.1,34.27l-30.57,14.31c-2.99-9.18-12.12-17.13-23.54-17.13-16.16,0-27.58,13.07-27.58,29.5s11.42,29.5,27.58,29.5c11.42,0,20.55-7.95,23.54-17.13l30.57,14.13c-6.85,15.72-22.49,34.44-54.1,34.44-35.84,0-63.59-24.73-63.59-60.94Z"/><path d="M989.78,1203.42l-4.57-15.19h-44.97l-4.57,15.19h-38.47l43.21-117.82h44.62l43.21,117.82h-38.47ZM962.72,1117.04l-13.35,41.51h26.7l-13.35-41.51Z"/><path d="M1099.03,1203.42l-16.16-37.8h-12.82v37.8h-35.48v-117.82h62.54c27.4,0,42.16,18.37,42.16,40.45,0,20.31-11.77,31.09-21.08,35.68l21.25,41.69h-40.4ZM1091.65,1115.28h-21.61v20.67h21.61c5.97,0,11.59-3.89,11.59-10.42s-5.62-10.24-11.59-10.24Z"/><path d="M1153.65,1203.42v-117.82h88.89v29.67h-53.4v13.78h52.17v29.68h-52.17v15.01h53.4v29.67h-88.89Z"/></g></svg>