<?xml version="1.0" encoding="UTF-8"?><svg id="Layer_1" xmlns="http://www.w3.org/2000/svg" width="243.72" height="44.75" viewBox="0 0 243.72 44.75"><defs><style>.cls-1{fill:#b9945a;}.cls-2{fill:#353d4a;}</style></defs><path class="cls-2" d="M61.8,10.33h1.55l4.04,10.94h-1.5l-1.16-3.34h-4.36l-1.18,3.34h-1.41l4.03-10.94ZM60.76,16.82h3.58l-1.25-3.67c-.21-.61-.49-1.55-.49-1.55h-.03s-.29.92-.5,1.55l-1.3,3.67Z"/><path class="cls-2" d="M67.71,17.34c0-2.63,1.52-4.16,3.47-4.16,1.12,0,1.97.55,2.48,1.3h.03v-4.15h1.24v10.94h-1.24v-.96h-.03c-.6.77-1.33,1.19-2.45,1.19-2.16,0-3.5-1.62-3.5-4.16ZM73.77,17.36c0-1.84-.89-3.12-2.53-3.12-1.5,0-2.27,1.35-2.27,3.12s.77,3.11,2.28,3.11c1.76,0,2.51-1.32,2.51-3.11Z"/><path class="cls-2" d="M81.47,20.17h-.02c-.47.61-1.29,1.25-2.63,1.25-1.5,0-2.68-.7-2.68-2.2,0-1.87,1.47-2.25,3.44-2.56,1.12-.17,1.9-.28,1.9-1.13s-.64-1.39-1.78-1.39c-1.29,0-1.93.55-1.97,1.74h-1.19c.05-1.53,1.06-2.68,3.15-2.68,1.68,0,2.92.63,2.92,2.51v3.77c0,.64.15.99.84.84h.05v.9c-.15.06-.35.12-.67.12-.81,0-1.24-.37-1.36-1.18ZM81.5,18.35v-1.35c-.41.26-1.13.46-1.81.58-1.24.23-2.23.44-2.23,1.61,0,1.06.83,1.29,1.64,1.29,1.65,0,2.4-1.21,2.4-2.13Z"/><path class="cls-2" d="M84.43,13.36h1.24v1.13h.03c.49-.77,1.33-1.32,2.33-1.32s1.73.49,2.07,1.41h.03c.5-.9,1.45-1.41,2.42-1.41,1.41,0,2.4.9,2.4,2.54v5.56h-1.24v-5.49c0-.98-.66-1.56-1.45-1.56-1.03,0-1.94.89-1.94,2.13v4.93h-1.24v-5.49c0-.98-.55-1.56-1.36-1.56-.96,0-2.04.89-2.04,2.13v4.93h-1.24v-7.91Z"/><path class="cls-2" d="M96.08,18.7h1.27c.17,1.38,1.09,1.76,2.27,1.76,1.3,0,1.84-.57,1.84-1.3,0-.89-.61-1.12-2.07-1.42-1.56-.32-2.95-.64-2.95-2.37,0-1.32,1.01-2.17,2.85-2.17,1.96,0,2.92.93,3.11,2.48h-1.27c-.12-1.04-.69-1.5-1.87-1.5s-1.59.51-1.59,1.13c0,.86.77,1.03,2.13,1.3,1.59.32,2.92.67,2.92,2.49,0,1.59-1.3,2.4-3.12,2.4-2.17,0-3.38-1.03-3.5-2.8Z"/><path class="cls-2" d="M106.52,10.33h5.11c1.93,0,3.23,1.21,3.23,3,0,1.33-.58,2.28-1.9,2.71v.05c1.12.4,1.47,1.16,1.58,2.79.12,1.76.31,2.2.51,2.34v.06h-1.48c-.23-.2-.28-.61-.4-2.45-.11-1.61-.75-2.17-2.22-2.17h-3.05v4.62h-1.38v-10.94ZM107.9,15.54h3.24c1.53,0,2.3-.77,2.3-2,0-1.33-.61-2-2.22-2h-3.32v4.01Z"/><path class="cls-2" d="M115.83,17.33c0-2.3,1.5-4.16,3.75-4.16,2.37,0,3.64,1.84,3.64,4.45h-6.12c.09,1.61.96,2.83,2.56,2.83,1.15,0,1.91-.55,2.19-1.62h1.21c-.37,1.7-1.61,2.66-3.4,2.66-2.42,0-3.83-1.87-3.83-4.16ZM117.13,16.68h4.76c-.08-1.58-.89-2.54-2.31-2.54s-2.27,1.1-2.45,2.54Z"/><path class="cls-2" d="M129.28,20.17h-.02c-.47.61-1.29,1.25-2.63,1.25-1.5,0-2.68-.7-2.68-2.2,0-1.87,1.47-2.25,3.44-2.56,1.12-.17,1.9-.28,1.9-1.13s-.64-1.39-1.78-1.39c-1.29,0-1.93.55-1.98,1.74h-1.19c.05-1.53,1.06-2.68,3.15-2.68,1.68,0,2.92.63,2.92,2.51v3.77c0,.64.15.99.84.84h.05v.9c-.15.06-.35.12-.67.12-.81,0-1.24-.37-1.36-1.18ZM129.31,18.35v-1.35c-.41.26-1.13.46-1.81.58-1.24.23-2.23.44-2.23,1.61,0,1.06.83,1.29,1.64,1.29,1.65,0,2.4-1.21,2.4-2.13Z"/><path class="cls-2" d="M132.28,10.33h1.24v10.94h-1.24v-10.94Z"/><path class="cls-2" d="M137.87,10.33h7.73v1.21h-6.35v3.46h5.77v1.16h-5.77v3.84h6.54v1.27h-7.91v-10.94Z"/><path class="cls-2" d="M146.55,18.7h1.27c.17,1.38,1.09,1.76,2.26,1.76,1.3,0,1.84-.57,1.84-1.3,0-.89-.61-1.12-2.07-1.42-1.56-.32-2.95-.64-2.95-2.37,0-1.32,1.01-2.17,2.85-2.17,1.96,0,2.92.93,3.11,2.48h-1.27c-.12-1.04-.69-1.5-1.87-1.5s-1.59.51-1.59,1.13c0,.86.77,1.03,2.13,1.3,1.59.32,2.92.67,2.92,2.49,0,1.59-1.3,2.4-3.12,2.4-2.17,0-3.38-1.03-3.5-2.8Z"/><path class="cls-2" d="M153.72,13.36h1.15v-2.49h1.24v2.49h1.53v1.01h-1.53v5.14c0,.55.29.73.8.73.24,0,.52-.06.66-.11h.05v1.07c-.29.06-.63.11-.99.11-1.01,0-1.75-.41-1.75-1.53v-5.42h-1.15v-1.01Z"/><path class="cls-2" d="M163.77,20.17h-.02c-.47.61-1.29,1.25-2.63,1.25-1.5,0-2.68-.7-2.68-2.2,0-1.87,1.47-2.25,3.44-2.56,1.12-.17,1.9-.28,1.9-1.13s-.64-1.39-1.78-1.39c-1.29,0-1.93.55-1.97,1.74h-1.19c.05-1.53,1.06-2.68,3.15-2.68,1.68,0,2.92.63,2.92,2.51v3.77c0,.64.15.99.84.84h.05v.9c-.15.06-.35.12-.67.12-.81,0-1.24-.37-1.36-1.18ZM163.8,18.35v-1.35c-.41.26-1.13.46-1.81.58-1.24.23-2.23.44-2.23,1.61,0,1.06.83,1.29,1.64,1.29,1.65,0,2.4-1.21,2.4-2.13Z"/><path class="cls-2" d="M166.07,13.36h1.15v-2.49h1.24v2.49h1.53v1.01h-1.53v5.14c0,.55.29.73.8.73.24,0,.52-.06.66-.11h.05v1.07c-.29.06-.63.11-.99.11-1.01,0-1.75-.41-1.75-1.53v-5.42h-1.15v-1.01Z"/><path class="cls-2" d="M170.75,17.33c0-2.3,1.5-4.16,3.75-4.16,2.37,0,3.64,1.84,3.64,4.45h-6.12c.09,1.61.96,2.83,2.56,2.83,1.15,0,1.91-.55,2.19-1.62h1.21c-.37,1.7-1.61,2.66-3.4,2.66-2.42,0-3.83-1.87-3.83-4.16ZM172.06,16.68h4.76c-.08-1.58-.89-2.54-2.31-2.54s-2.26,1.1-2.45,2.54Z"/><path class="cls-2" d="M185.13,10.33h1.55l4.04,10.94h-1.5l-1.16-3.34h-4.36l-1.18,3.34h-1.41l4.02-10.94ZM184.09,16.82h3.58l-1.25-3.67c-.21-.61-.49-1.55-.49-1.55h-.03s-.29.92-.5,1.55l-1.3,3.67Z"/><path class="cls-2" d="M191.04,17.34c0-2.63,1.52-4.16,3.47-4.16,1.12,0,1.97.55,2.48,1.3h.03v-4.15h1.24v10.94h-1.24v-.96h-.03c-.6.77-1.33,1.19-2.45,1.19-2.16,0-3.5-1.62-3.5-4.16ZM197.1,17.36c0-1.84-.89-3.12-2.53-3.12-1.5,0-2.27,1.35-2.27,3.12s.77,3.11,2.28,3.11c1.76,0,2.51-1.32,2.51-3.11Z"/><path class="cls-2" d="M199.14,13.36h1.33l1.64,5.02c.23.7.52,1.67.52,1.67h.03s.29-.98.52-1.67l1.67-5.02h1.29l-2.85,7.91h-1.38l-2.77-7.91Z"/><path class="cls-2" d="M207,10.33h1.24v1.53h-1.24v-1.53ZM207,13.36h1.24v7.91h-1.24v-7.91Z"/><path class="cls-2" d="M209.42,18.7h1.27c.17,1.38,1.09,1.76,2.26,1.76,1.3,0,1.84-.57,1.84-1.3,0-.89-.61-1.12-2.07-1.42-1.56-.32-2.95-.64-2.95-2.37,0-1.32,1.01-2.17,2.85-2.17,1.96,0,2.92.93,3.11,2.48h-1.27c-.12-1.04-.69-1.5-1.87-1.5s-1.59.51-1.59,1.13c0,.86.77,1.03,2.13,1.3,1.59.32,2.92.67,2.92,2.49,0,1.59-1.3,2.4-3.12,2.4-2.17,0-3.38-1.03-3.5-2.8Z"/><path class="cls-2" d="M216.95,17.33c0-2.3,1.47-4.16,3.83-4.16s3.81,1.87,3.81,4.16-1.44,4.16-3.81,4.16-3.83-1.87-3.83-4.16ZM223.32,17.33c0-1.74-.86-3.14-2.54-3.14s-2.56,1.39-2.56,3.14.87,3.12,2.56,3.12,2.54-1.38,2.54-3.12Z"/><path class="cls-2" d="M227.07,14.68h.03c.47-.77,1.3-1.41,2.36-1.41.23,0,.35.03.5.09v1.19h-.05c-.18-.06-.31-.08-.55-.08-1.22,0-2.3.92-2.3,2.4v4.39h-1.24v-7.91h1.24v1.32Z"/><path class="cls-2" d="M230.58,18.7h1.27c.17,1.38,1.09,1.76,2.26,1.76,1.3,0,1.84-.57,1.84-1.3,0-.89-.61-1.12-2.07-1.42-1.56-.32-2.95-.64-2.95-2.37,0-1.32,1.01-2.17,2.85-2.17,1.96,0,2.92.93,3.11,2.48h-1.27c-.12-1.04-.69-1.5-1.87-1.5s-1.59.51-1.59,1.13c0,.86.77,1.03,2.13,1.3,1.59.32,2.92.67,2.92,2.49,0,1.59-1.3,2.4-3.12,2.4-2.17,0-3.38-1.03-3.5-2.8Z"/><path class="cls-2" d="M63.29,29.85c-.16-.93-.95-1.74-2.26-1.74-1.77,0-2.74,1.39-2.74,3.22s.99,3.2,2.72,3.2c1.45,0,2.28-1.02,2.42-2.24h.27c-.06.65-.3,1.25-.72,1.71-.45.5-1.14.81-1.98.81-1.85,0-3.03-1.39-3.03-3.47s1.17-3.48,3.06-3.48c1.45,0,2.36.87,2.56,2h-.3Z"/><path class="cls-2" d="M65.28,31.33c0-2,1.26-3.48,3.09-3.48s3.11,1.48,3.11,3.48-1.28,3.46-3.11,3.46-3.09-1.46-3.09-3.46ZM71.18,31.33c0-1.78-1.08-3.21-2.8-3.21s-2.78,1.41-2.78,3.21,1.06,3.19,2.78,3.19,2.8-1.42,2.8-3.19Z"/><path class="cls-2" d="M73.69,28.41h0v6.29h-.28v-6.74h.42l2.71,6.36h0l2.67-6.36h.44v6.74h-.29v-6.29h0l-2.67,6.29h-.3l-2.69-6.29Z"/><path class="cls-2" d="M82.11,28.41h0v6.29h-.28v-6.74h.42l2.71,6.36h0l2.67-6.36h.44v6.74h-.29v-6.29h0l-2.67,6.29h-.3l-2.69-6.29Z"/><path class="cls-2" d="M90.54,31.08h3.81v.26h-3.81v3.08h4.23v.27h-4.53v-6.74h4.43v.26h-4.14v2.86Z"/><path class="cls-2" d="M96.97,34.7h-.29v-6.74h2.7c1.24,0,1.98.64,1.98,1.79,0,.88-.41,1.46-1.26,1.66h0c.77.19,1.08.75,1.11,1.73.04,1.26.17,1.45.27,1.54v.03h-.32c-.1-.08-.22-.29-.25-1.57-.04-1.1-.45-1.58-1.53-1.58h-2.4v3.14ZM96.97,31.29h2.3c1.2,0,1.78-.55,1.78-1.53s-.59-1.54-1.71-1.54h-2.38v3.06Z"/><path class="cls-2" d="M108.34,29.85c-.16-.93-.95-1.74-2.26-1.74-1.77,0-2.74,1.39-2.74,3.22s.99,3.2,2.72,3.2c1.45,0,2.28-1.02,2.42-2.24h.27c-.06.65-.3,1.25-.72,1.71-.45.5-1.14.81-1.98.81-1.85,0-3.03-1.39-3.03-3.47s1.17-3.48,3.06-3.48c1.45,0,2.36.87,2.56,2h-.3Z"/><path class="cls-2" d="M110.92,34.7h-.29v-6.74h.29v6.74Z"/><path class="cls-2" d="M116.92,32.4h-3.15l-.89,2.3h-.31l2.6-6.74h.34l2.6,6.74h-.31l-.89-2.3ZM113.87,32.14h2.95l-1.46-3.83h0l-1.48,3.83Z"/><path class="cls-2" d="M120.05,34.43h3.88v.27h-4.17v-6.74h.29v6.47Z"/><path class="cls-2" d="M128.48,34.7h-.29v-6.74h2.7c1.25,0,1.98.64,1.98,1.79,0,.88-.41,1.46-1.26,1.66h0c.77.19,1.08.75,1.11,1.73.04,1.26.17,1.45.27,1.54v.03h-.32c-.1-.08-.22-.29-.25-1.57-.04-1.1-.45-1.58-1.53-1.58h-2.4v3.14ZM128.48,31.29h2.3c1.2,0,1.78-.55,1.78-1.53s-.59-1.54-1.71-1.54h-2.38v3.06Z"/><path class="cls-2" d="M135.13,31.08h3.81v.26h-3.81v3.08h4.23v.27h-4.53v-6.74h4.43v.26h-4.14v2.86Z"/><path class="cls-2" d="M145.08,32.4h-3.15l-.89,2.3h-.31l2.6-6.74h.34l2.6,6.74h-.31l-.89-2.3ZM142.03,32.14h2.95l-1.46-3.83h0l-1.48,3.83Z"/><path class="cls-2" d="M148.21,34.43h3.88v.27h-4.17v-6.74h.29v6.47Z"/><path class="cls-2" d="M156.64,31.08h3.81v.26h-3.81v3.08h4.23v.27h-4.53v-6.74h4.43v.26h-4.14v2.86Z"/><path class="cls-2" d="M162.6,32.56c.07,1.19.87,1.97,2.35,1.97,1.23,0,2.02-.62,2.02-1.6,0-1.05-.68-1.38-2.24-1.66-1.39-.25-2.16-.67-2.16-1.74s.87-1.68,2.18-1.68c1.38,0,2.16.76,2.3,1.89h-.3c-.13-1.03-.87-1.62-1.99-1.62-1.18,0-1.89.56-1.89,1.4,0,.9.63,1.23,2,1.48,1.45.26,2.4.63,2.4,1.9,0,1.12-.88,1.9-2.31,1.9-1.74,0-2.58-.96-2.67-2.24h.31Z"/><path class="cls-2" d="M170.75,34.7v-6.47h-2.4v-.27h5.11v.27h-2.41v6.47h-.3Z"/><path class="cls-2" d="M178.26,32.4h-3.15l-.89,2.3h-.31l2.6-6.74h.34l2.6,6.74h-.31l-.89-2.3ZM175.21,32.14h2.95l-1.46-3.83h0l-1.48,3.83Z"/><path class="cls-2" d="M182.32,34.7v-6.47h-2.4v-.27h5.11v.27h-2.41v6.47h-.3Z"/><path class="cls-2" d="M187.07,31.08h3.81v.26h-3.81v3.08h4.23v.27h-4.53v-6.74h4.43v.26h-4.14v2.86Z"/><path class="cls-2" d="M195.99,31.05h3.48v.26h-3.48v3.39h-.29v-6.74h4.34v.26h-4.05v2.83Z"/><path class="cls-2" d="M202.16,34.7h-.29v-6.74h.29v6.74Z"/><path class="cls-2" d="M209.36,34.7h-.31l-4.39-6.25h0v6.25h-.28v-6.74h.33l4.38,6.25h0v-6.25h.28v6.74Z"/><path class="cls-2" d="M215.34,32.4h-3.15l-.89,2.3h-.31l2.6-6.74h.34l2.6,6.74h-.31l-.89-2.3ZM212.28,32.14h2.95l-1.46-3.83h0l-1.48,3.83Z"/><path class="cls-2" d="M223.17,34.7h-.31l-4.39-6.25h0v6.25h-.28v-6.74h.33l4.38,6.25h0v-6.25h.28v6.74Z"/><path class="cls-2" d="M230.39,29.85c-.16-.93-.95-1.74-2.26-1.74-1.77,0-2.74,1.39-2.74,3.22s.99,3.2,2.72,3.2c1.45,0,2.28-1.02,2.42-2.24h.27c-.06.65-.3,1.25-.72,1.71-.45.5-1.14.81-1.98.81-1.85,0-3.03-1.39-3.03-3.47s1.17-3.48,3.06-3.48c1.45,0,2.36.87,2.56,2h-.3Z"/><path class="cls-2" d="M232.94,31.08h3.81v.26h-3.81v3.08h4.23v.27h-4.53v-6.74h4.43v.26h-4.14v2.86Z"/><path class="cls-2" d="M49.11,24.89v14.17L20.64,10.58l7.08-7.08,21.39,21.39Z"/><path class="cls-1" d="M41.89,39.05h-14.17l-10.69-10.69-10.69,10.69v-14.17l10.69-10.69,24.86,24.86Z"/></svg>