<?xml version="1.0" encoding="UTF-8"?><svg id="Layer_1" xmlns="http://www.w3.org/2000/svg" width="800" height="270.59" viewBox="0 0 800 270.59"><defs><style>.cls-1{fill:#563e2d;}.cls-2{fill:#98714e;}.cls-3{fill:#4c8f8b;}</style></defs><path class="cls-2" d="M267.47,223.14h5.31l5.89,8.62,5.89-8.62h5.31v20.39h-4.9v-13.31l-6.31,8.71h-.13l-6.24-8.62v13.22h-4.83v-20.39Z"/><path class="cls-2" d="M306.15,222.99h4.55l9.6,20.54h-5.15l-2.05-4.57h-9.48l-2.05,4.57h-5.03l9.6-20.54ZM311.34,234.99l-2.98-6.61-2.98,6.61h5.95Z"/><path class="cls-2" d="M326.96,223.14h4.55l10.5,12.55v-12.55h4.87v20.39h-4.19l-10.85-12.96v12.96h-4.87v-20.39Z"/><path class="cls-2" d="M355.46,223.14h4.93v8.07h9.09v-8.07h4.93v20.39h-4.93v-8.19h-9.09v8.19h-4.93v-20.39Z"/><path class="cls-2" d="M390.67,222.99h4.55l9.6,20.54h-5.15l-2.05-4.57h-9.48l-2.05,4.57h-5.03l9.6-20.54ZM395.86,234.99l-2.98-6.61-2.98,6.61h5.95Z"/><path class="cls-2" d="M413.82,227.28h-6.82v-4.14h18.57v4.14h-6.82v16.25h-4.93v-16.25Z"/><path class="cls-2" d="M437.77,227.28h-6.82v-4.14h18.57v4.14h-6.82v16.25h-4.93v-16.25Z"/><path class="cls-2" d="M461.3,222.99h4.55l9.6,20.54h-5.15l-2.05-4.57h-9.48l-2.05,4.57h-5.03l9.6-20.54ZM466.49,234.99l-2.98-6.61-2.98,6.61h5.96Z"/><path class="cls-2" d="M482.11,223.14h4.55l10.5,12.55v-12.55h4.87v20.39h-4.19l-10.85-12.96v12.96h-4.87v-20.39Z"/><path class="cls-2" d="M523.41,223.14h4.93v8.07h9.09v-8.07h4.93v20.39h-4.93v-8.19h-9.09v8.19h-4.93v-20.39Z"/><path class="cls-2" d="M558.63,222.99h4.55l9.6,20.54h-5.15l-2.05-4.57h-9.48l-2.05,4.57h-5.03l9.6-20.54ZM563.82,234.99l-2.98-6.61-2.98,6.61h5.96Z"/><path class="cls-2" d="M579.44,223.14h10.24c2.85,0,5.06.73,6.53,2.07,1.25,1.14,1.92,2.74,1.92,4.66v.06c0,3.29-1.95,5.36-4.8,6.32l5.47,7.28h-5.76l-4.8-6.52h-3.87v6.52h-4.93v-20.39ZM589.37,233.04c2.4,0,3.78-1.17,3.78-2.88v-.06c0-1.92-1.47-2.91-3.87-2.91h-4.9v5.86h4.99Z"/><path class="cls-2" d="M605.79,223.14h10.4c2.56,0,4.58.64,5.86,1.81,1.03.93,1.54,2.07,1.54,3.47v.06c0,2.3-1.34,3.58-2.95,4.4,2.59.9,4.19,2.27,4.19,5.01v.06c0,3.73-3.33,5.59-8.39,5.59h-10.66v-20.39ZM618.69,229.17c0-1.34-1.15-2.1-3.23-2.1h-4.87v4.31h4.55c2.18,0,3.55-.64,3.55-2.16v-.06ZM616.29,235.11h-5.7v4.49h5.86c2.18,0,3.49-.7,3.49-2.21v-.06c0-1.37-1.12-2.21-3.65-2.21Z"/><path class="cls-2" d="M631.12,233.39v-.06c0-5.8,5.03-10.54,11.94-10.54s11.88,4.69,11.88,10.49v.06c0,5.8-5.03,10.54-11.94,10.54s-11.88-4.69-11.88-10.49ZM649.78,233.39v-.06c0-3.5-2.82-6.41-6.79-6.41s-6.72,2.85-6.72,6.35v.06c0,3.5,2.82,6.41,6.79,6.41s6.72-2.85,6.72-6.35Z"/><path class="cls-2" d="M662.17,234.79v-11.65h4.93v11.54c0,3.32,1.83,5.04,4.83,5.04s4.83-1.66,4.83-4.89v-11.68h4.93v11.51c0,6.18-3.81,9.21-9.83,9.21s-9.7-3.06-9.7-9.06Z"/><path class="cls-2" d="M689.93,223.14h10.24c2.85,0,5.06.73,6.53,2.07,1.25,1.14,1.92,2.74,1.92,4.66v.06c0,3.29-1.95,5.36-4.8,6.32l5.47,7.28h-5.76l-4.8-6.52h-3.87v6.52h-4.93v-20.39ZM699.86,233.04c2.4,0,3.78-1.17,3.78-2.88v-.06c0-1.92-1.47-2.91-3.87-2.91h-4.9v5.86h4.99Z"/><path class="cls-1" d="M291.86,83.67l-.03.54-.07.89-.1.51-.24.72-.2.48-.34.65-.31.44-.55.65-.37.37-.85.61-.44.27-.48.24-.51.24-.55.17-.51.17-1.53.31-.78.1-.54.03-.82.07h-.55l-1.87.07h-2.96l-1.91-.1h-.54l-1.87.07h-.51l-1.29-.03-.54-.07-.48-.07-.27-.1-.17-.17-.07-.37-.03-.48.03-.51v-.54l.03-.27v-.58l.1-1.81-.03-.54-.03-.85-.03-.51-.03-.48v-.51l.03-.85v-1.5l.14-1.81v-.54l-.07-1.81v-.54l-.03-1.81.03-.54.1-1.81.03-.54-.14-1.8-.03-.55-.1-1.02v-.78l.14-.44.34-.21.48-.07.54-.03,3.71-.1,2.96.17,1.84-.07h.54l1.87.03h.54l1.98.14.58.07.58.1,1.29.41.51.24.65.34.44.31.58.48.34.38.48.58.24.44.37.65.2.48.17.51.1.54.14.89.03.54-.03.58-.1.58-.21.78-.2.48-.37.65-.34.37-.55.51-.27.27-.1.24.1.27.31.34.41.37.41.44.51.72.31.51.24.54.14.27.17.55.14.58.07.58.03.31ZM276.36,74.37l.03.27.03.54.07.37.14.21.27.14.41.03h1.36l.58-.03h.58l.78.07,1.16.07h.75l.44-.1.41-.21.34-.24.24-.27.2-.34.1-.48v-.58l-.1-.44-.31-.44-.48-.34-.2-.07-.51-.14-.24-.03-.58-.07h-.31l-1.33-.17h-.51l-.85.03-.55.03h-.72l-.34.07-.31.03-.2.1-.14.17-.1.44-.1.82-.03.55ZM284.2,85.34l.27-.24.14-.21.24-.51.1-.55.03-.2-.03-.48-.1-.48-.27-.48-.2-.24-.44-.44-.55-.31-.51-.17-.24-.07-.48-.03-1.53.07-.58.03h-2.01l-.51.03-.61.1-.31.1-.1.17-.03.41v.58l.03.54v.75l-.07.58v.68l.07.38.14.2.24.14.44.07,4.8-.1,1.16-.07.54-.1.37-.17Z"/><path class="cls-1" d="M314.56,89.57l-.03.54v.31l-.1.41-.2.24-.24.1-.34.07h-.27l-.48.03-3.78-.2h-2.56l-3.07.2-1.98-.14h-2.52l-1.57.1h-.51l-.48-.03-.37-.07-.24-.14-.17-.2-.07-.41v-.54l.17-1.29.03-.51-.14-1.81v-.54l.07-1.81v-.54l.07-4.16v-.54l-.14-4.16v-.54l-.03-1.81v-2.9l-.07-1.02v-.51l.03-.3.1-.44.14-.21.24-.1.37-.07h.27l.51-.03,1.67.1h.54l2.42-.03h.34l.24.14.17.24v2.96l.07,1.98v.55l-.1,1.98v.54l.07,1.98v.54l.1,1.98v.55l-.2,4.5.03.34.03.17.07.17.17.14.41.07,1.16.07,1.02-.07h.54l4.91-.07.54-.03,1.16-.14.55-.03h.51l.41.1.24.2.1.24.03.37.03,1.91.03.54.07,1.06Z"/><path class="cls-1" d="M339.06,75.53l-.14,2.11.1,1.53.07,1.09-.03.51-.03.78-.07.51-.14.82-.1.54-.14.78-.14.51-.27.72-.17.48-.31.72-.24.48-.44.68-.34.44-.41.44-.44.38-.68.54-.44.31-.68.41-.44.24-.72.34-.51.17-.75.27-.51.14-.78.14-.51.1-1.06.07h-1.57l-.78-.07-.51-.03-1.87-.2-.54-.1-.31-.03-.54-.17-.27-.1-.54-.24-.75-.34-.51-.31-.51-.34-.89-.75-.37-.37-.44-.58-.31-.41-.55-.89-.31-.48-.27-.51-.24-.55-.2-.51-.14-.48-.14-.51-.14-.75-.1-.58-.07-.58-.07-1.16-.03-.55.1-2.08v-.54l-.07-2.08v-.54l.1-2.08v-3.17l-.07-1.09v-.58l.03-.58.1-.54.24-.31.44-.1,1.12-.07,1.29.1h.55l1.12-.03.51.03.78.03.44.1.27.27.1.44.03.48v.51l-.07,1.33v.54l.1,2.08v.54l-.03,2.08v.54l-.1,2.08v.54l-.03,2.08.03.55.07.85.1.54.2.75.2.51.34.78.34.41.55.58.44.27.75.27.51.14.89.07h.54l.89-.17.51-.14.65-.31.44-.27.55-.48.34-.41.37-.72.24-.51.17-.55.1-.54.14-1.02.03-.54-.14-2.08v-.54l.1-2.11v-.55l.07-2.08v-.55l-.07-2.11-.03-.54-.1-1.43v-.85l.14-.48.31-.27.44-.1h.72l1.74.14h.54l1.36-.1h.54l.51.03.44.1.27.24.03.41.03,1.02v.51l-.03.78v.54l.1,2.11v.55l-.07,2.08v.55Z"/><path class="cls-1" d="M346.97,66.57l2.08-.03h.54l2.04.14h.55l2.04-.14h.54l4.63.07.58-.03,1.16-.1h.85l.48.1.2.17.07.24.07.44v.92l-.07.85v.58l.03.85.03.51-.03.51-.07.41-.14.24-.17.14-.41.07h-.27l-.55.03-3.2-.07h-.55l-1.74.07h-.54l-1.77-.07-1.53-.1h-.51l-.27.03-.34.07-.17.17-.03.2-.07.38-.07.82v.54l.03.58.03.38.07.24.14.17.37.1,1.09.07,1.09-.07h3.24l3.82-.21,1.06.07.37.07.21.17.1.21.03.37.07.58.03.58v1.13l.07.78-.07,1.02-.07.41-.14.24-.24.17-.34.07h-.68l-1.53-.17-.55-.03-2.73.17-2.18-.07h-.54l-1.36-.1-.58.03-.41.03-.17.1-.1.24-.03.51-.1.85-.03.55v.75l.03.34.1.24.14.14.37.03,1.87.07h.55l1.84-.14,2.42.14h.54l2.42-.14h.51l.51.03,1.23.14.2.1.14.21.03.37.1,1.87-.03.54-.14,1.84-.03.34-.14.24-.17.14-4.46.14h-.55l-1.8-.14-.55.03-1.77.14-.55.03h-2.35l-1.77-.14h-.55l-2.93.17-1.16-.07-.41-.07-.24-.17-.1-.24-.07-.38-.07-.78-.03-.54.03-.51v-.51l.14-1.81v-.54l.03-1.81-.03-.54-.1-1.81-.03-.54.07-1.84v-2.9l.14-1.81-.03-.54-.1-1.81-.03-.54v-.82l.07-1.02v-.51l.1-1.77.03-.48.1-.27.17-.14.27-.03.44-.07,2.21.14Z"/><path class="cls-1" d="M395.23,195.25l-.93,1.46-1.46.66-1.72.27h-1.85l-3.04-.27-1.99-.13h-5.96l-8.2.53-1.72-.53-.79-1.06-.66-1.46-4.1-11.12-.93-1.32-1.19-.26-1.59-.13-7.94-.53h-2.12l-9.93-.27-7.94-.13h-1.99l-1.99.13h-6.09l-1.72.27-1.06.66-.79,1.59-3.04,9-.79,2.12-1.46,1.72-1.99.79-2.12-.13-7.68-.4h-2.12l-8.2.53-1.72.13-1.59-.79-1.06-1.46.13-1.72.26-1.06.79-2.12,1.85-4.1.79-1.98,3.31-7.41.8-1.85,3.44-7.41.8-1.99,3.04-7.15.79-1.99,3.57-7.41.79-1.85,4.76-10.85,3.71-7.94.93-2.12,2.91-5.95.93-2.12,2.52-6.09.79-1.98,2.38-5.43.66-1.46,1.32-.79,1.99-.4,6.09-.26h10.32l6.09.13,2.25.4,1.46,1.06.66,1.72,1.85,5.16.8,1.99,3.31,6.22.79,1.85,2.91,6.48.8,1.85,2.38,6.75.79,1.85,2.91,6.35.79,1.85,2.91,6.48.8,1.85,2.65,6.62.79,1.85,4.1,8.2,3.18,6.22.93,1.85,3.57,8.34,2.65,6.62.4,1.85ZM301.4,178.97l-.53-.26-.27.13v.27l.27.26.53-.13v-.27ZM318.47,173.28l.4.27v.13l.4.26.79-.4v-.27l-.26-.26-.4.26h-.13l-.13-.53-.53-.53v-.4l.4-.53h.53l.66-1.32-.4-.27-1.46.4.27-.53-.13-.26-.53.13-.53.53.4.26.53-.13.27.4v.13l-.53.13-.66.66-1.72-1.85-.27,1.06.8,1.72-.27.79-1.46-2.38.13-1.72-.4-.79h-.79l-1.59-.93-1.99,1.32.53,2.38-.13.13-1.59-1.85-1.99-.13-1.99-1.72v-1.32l1.06-.66.26.66.66.27.53-.4-.93-1.32,1.32-.79-.26-.13-.26-.53-.53-.26-.13-.53-.66-.13-.13.4.13.4-1.72,1.72-.13,1.72-.79,1.06,1.06,1.19-.13.13v-.13h-.53l-2.12,1.46.8.66,1.32-1.06.79.13.93-.66,2.12.93.26,1.06,1.06.27-.13.13v.13l2.65.93.53-.53v-.79l.13.13.13-.13,2.12.26.53.93-.66.93-.66-.27-.26-.53h-.4l1.19,3.97-.26.13-.13.27-.4-.4-.53-.13-.13.13v-.13h-1.59l-2.12-2.91-.4.93-.93.4-.13.79.4.66.79.13.53-.4-.13-.4.26-.4,1.99,1.99.93-.13.66.79,1.06.13.66-.53.4.93.13-.13h.13l-.13-.66-.4-.4.26-1.06.8-.53.53-1.32h.79l-.13.53.13.13.4-.26.13-.4h-.26l1.32-1.19ZM302.33,185.72l-.79.79.26.4.4-.4.13-.79ZM302.59,182.94l-.13-.26-.26-.13h-.27l-.26.27.13.26.26.13.53-.26ZM304.84,171.29l.27-.26-.13-.4h-.4l-.79,1.32-.66-.13-.4.4v1.32h.66l.27-.4,2.25.26-1.06-2.12ZM307.49,178.44l-.53-.66-.79-.13-2.51-1.32-.66.13v.4l3.44,1.32.53,1.19.53-.93ZM305.64,179.9l-1.59-.4-.53,1.19-.13.4.27.27.93-1.06h.53l.53-.4ZM304.45,174.34l-.27.26v.4l.4.53.4-.13v-.53l-.53-.53ZM307.22,182.81l-.27-.66h-.13l-.13.66.4.13.13-.13ZM307.09,160.84l.4,1.32.93,1.06,1.06-.66v-1.19l-2.25-.93-.13.4ZM308.02,159.65l.13.93.26-.79,1.19.53.93-.13-1.32-1.72-1.19,1.19ZM310,165.21l.66-.27.26-.4-.53-.4h-1.06l-.4-.4-.53.13v.66h.66l.93.66ZM309.61,166.26h-.4l-.27.4v.26l.66.27.4-.13v-.4l-.4-.4ZM310.27,179.5l-.26-.4-.53.13-.4.4-.13.53.4.26h.53l.4-.93ZM310.14,185.19l-.66-.26-.4.4.13.27.4.13.4-.13.13-.4ZM310.27,158.85l.66-.4.13-.53-.13-.4h-.26l-.4,1.32ZM311.19,162.96l.13,1.72.79.66.4-.13-1.19-3.44-.53-.13-.4.13-.13.26.13.53h.4l.4.4ZM310.93,155.28l.93.53.27-.53-.53-.53-.66.26v.27ZM311.33,160.44h.26l.26-.26-.13-.53-.26-.13-.27.66.13.26ZM311.46,174.6h.4l.27-.26v-.53l-.66-.4-.27.27v.53l.27.4ZM311.99,153.43l.66.66h.8v-.53l-.66-.4-.79.26ZM314.24,155.15l-1.19.93.13.26-1.06.79.4,1.46,1.72-3.44ZM318.34,165.87l-.4.4-.26-1.06-.53-.4.93.13.93-1.32-.13-.8-2.65,1.32.4.53-.13,1.06.93-.27.4.93-.27.13-1.72-.53-1.72-1.85-.26-1.46-.79.13-.66.66.79,1.59.66-.4.66.53-.79,1.46.66,1.32h.66l.26-.4-.26-.53.13-.4.4-.13,2.25.66.26-.27.93,1.06-.13-.79.27-.27v-.13l.66.13.4-2.51.27.53.13-1.19h-.4l-1.85,2.12ZM313.31,162.29l.4-.27-.13-.4h-.66l-.27.53.66.13ZM315.3,159.25l-1.19.4,1.19.26.4-2.12-.79.4.4,1.06ZM316.36,162.16l.93-1.06-.26-1.06-.79-.13-.13.66-1.32,1.32,1.59.27ZM315.03,155.54l1.46,1.59,1.06,1.19-.66-3.18-.79-.53-.93.4-.13.53ZM315.56,153.69l.26.13.4-.13-.4-.66-.26.26v.4ZM316.49,168.38v-.26h-.4l-.26.26v.4l.66-.4ZM316.22,169.7l.26.27h.26v-.4l-.26-.13-.26.26ZM316.36,151.71l1.19-.27.4-.53v-.4l-.26-.13-1.32,1.32ZM317.55,159.91l-.13.4.13.26.53,1.59h.13l.13-.13.27-1.99-1.06-.13ZM317.68,155.01h.4v-.4h-.53l.13.4ZM317.94,148.93l.13.53h.26l.13-.13v-.66l-.53.27ZM318.08,157.53l.26.66h.53l.4-.4-.13-.79h-.53l-.53.53ZM321.65,175.4l-.26-.66v-.26l-1.59.66-1.06-.53-.13.13v.13l.4.4.8.13.66.66.93-.13.26-.53ZM319.14,171.95l.4.27.4-.13v-.27l-.79.13ZM328.27,171.29h1.06l-.26-.66h-.79l-.13-.13h-.13l.13-.66.66-.4.66.4-.13-.66-.66-.13.4-.66h.66v.13l.79.8v.66l.53.13.13-.27-.13-.53,1.32-.93.4.53.53-.13-.93-.66h-.4l-.53.53-.26-.13-.13.8h-.53l-.13-.53-.4-.13,1.32-.79.13-.53-.26-.13-.79.53v-.66h-.4l-.26.4-.4-.4h.13l.4-.66,1.72.13.4.4.66-.13-.79-.4.13-1.06-.79-.66-.4.13-.4-.26h.13l.13-.27-.26-.26-1.59.66.27.93-.53.66-.13.93h-.27v.4l-2.38.27-.4.4.4.26h.53v.4l-.27.26-.53-.13-.4.27v.66l-1.32.53-.26-.26h-.4l-.26-.4-.66-.13-.13-.26.13-.4.66-.26-.13-.13h-.13v-.53l1.32-.26v-.66l-.79-.13v-.13l-.13-.13.13-1.85-.53-.66v-.26l-.66-.26-.27.4.79,3.31-.66.93h-.26l-.53.4h-.53l-.27.53.53,1.59-.53.79,1.06.26v1.19l1.06-1.59.93.13,1.19,1.32-.13.13v.26l-.4.13-.13.4,1.46.27.79,1.85.4-1.19-.93-.8-.13-.53-.53-.4v-.4l.26-.4v-.4l-.26-.4.26-1.06,1.32,1.72h1.32l.26-.79h.13l.13-.13ZM320.33,157.93l.66.4.13-.66-.26-.53-.26.13-.27.66ZM320.46,145.88l.26.27.53-.4.26-.66-1.06.79ZM322.71,174.07l.4-.79-.4-.79-.4.79.4.79ZM323.37,175.4l1.19-.26-.53-.4-1.32.27v.53l.4.13.27-.27ZM323.24,129.74l.27.26h.26l.27-.53-.13-.13-.53.13-.13.27ZM325.22,176.72l-.26-.4-.66-.27-.79.27,1.19.93.4-.13.13-.4ZM324.96,166.53l.26.53.27-.4.4-.26.53.13.53.53.66.13-.27-.79.4-.93-.13-.26h-.4l-.4.79-1.06-.4-.79.93ZM325.09,127.09l.93,1.06v.53l-.26.26.53.53.53-.66-.93-1.46v-.66l-.4-.66h-.27l-.13,1.06ZM326.41,163.88v-.13l-.26-.13-.27.26v.53l.4.4.93-.66-.13-.4-.66.13ZM327.61,163.09l.26-.4-.26-.4-.53-.13-.4.13.27.53.66.27ZM326.81,133.58l.66.26.66-.13.13-.66-.4-.4v-.93l-.66.4-.4,1.46ZM328.13,177.38l-.26-.4-.4-.13-.13.27.13.4-.13.27.13.13.4-.13.26-.4ZM327.61,174.47l.4-.53-.4-.4-.13.53.13.4ZM327.61,164.41l.4.13.27-.27-.27-.26-.4.4ZM330.78,173.68l-1.06-.4-.66.27.13.66,1.59-.53ZM350.63,156.07l-.53-1.72-2.91-9-.66-1.99-2.65-7.81-.66-1.72-1.32-.93-1.72-.4-1.46.4-1.32,1.32-3.57,9-.79,1.99-3.44,8.87-.4,1.99.4,1.59,1.46.66,1.85.26h8.34l6.22.4,1.72-.53,1.06-1.06.4-1.32ZM330.25,161.5l-.66,1.06.66-.4v-.66ZM330.12,162.43l.66.26.66-.79-1.32.53ZM333.69,174.07l-.26-.4-.4-.13-.26-1.32-.13-.13.26-1.72-.13-.26-.26-.13-1.59,2.65.13.66.8.13-.13-.4-.4-.13v-.13l.79.27v.13h.13v.26l.27.27v.4l-.13.13v.13l.27.13,1.06-.4ZM331.84,163.48l.66.66.66-.26.4.66.53-.4h.26l.13-.13-2.65-.53ZM332.1,119.55l.13.27.4.13h1.99l.4-.4.13-.66-.93-.79h-.66l-1.46,1.46ZM332.77,162.56l.4.13.66-.4-.66-.4-.4.13-.13.27.13.26ZM333.16,165.6h.26l-.13-.4-.4-.27v.4l.27.26ZM338.06,170.63l-.4-.27.13-1.06-4.1-.4-.79.53,3.04-.13.4.53v.4l-.53.26.13.79,1.06-.13.93.4.13-.93ZM333.03,167.19l.66.79.13-.93v-.66l-.26-.13-.53.93ZM333.56,171.29h.4v-.26l-.27-.26h-.13l-.13.26.13.26ZM335.15,172.22l-.26-.27h-.53l-.53.53.66.26.53-.13.13-.4ZM334.35,127.22v.13h.27l-.27-.26v-.13l-.4-.4v.26l.26.4h.13ZM334.75,167.46l-.13.79,1.19.26.4-.13-.13-.26h-.53l-.79-.66ZM335.28,170.1l-.13-.27-.13.13-.13.4h.26l.13-.26ZM335.54,166.93l.4.13-.13-.4-.26-.26h-.13l.13.53ZM336.07,128.42l.13.4h.4v-.26l-.4-.53v-.26l-.13.13v.53ZM337.26,173.94l-.13-.26-.4-.13-.27.13-.13.26.13.4h.66l.13-.4ZM337.4,165.6l-.13.4.4.13-.26-1.19-.8-.13.8.79ZM337.26,113.46l.13.13h.26l.26-.27-.26-.26h-.26l-.13.4ZM338.06,122.59l-.53.66.66.8.4-.8-.13-.4-.4-.27ZM339.25,167.72v-.26l-.79-.26-.4.4.66-.13.27.26h.26ZM339.78,170.1l-.27-.4-.26.27.26.26.13-.13h.13ZM339.51,116.9l.4.13.53-.27-.53-.13-.4.26ZM341.63,126.03l-1.32-.26.4.79v1.32l.66.13.53-.53-.26-1.46ZM342.69,165.87l-.26-.4v-.53l-.53.8.26.53h.4l.13-.4ZM342.56,168.78l-.27-.27h-.26v.27l.4.13.13-.13ZM343.88,165.47l.26-.26v-.27h-.4l.13.53ZM344.94,169.57l-.13-.4h-.79l-.13.13.13.13h.26l.13.26.4.13.13-.26ZM346.26,128.68l.93-.13.4.26h.4v-.4l-.53-.13-.66-.13-.53.53ZM350.76,124.97l-.13-.53h-1.32l.4.66.79.4.26-.53ZM353.01,145.75l-1.06-1.06-.4.13-.13.79,1.06,1.06.53-.27v-.66ZM353.28,142.44l.4.79.4-.93-.13-.79-.53.13-.13.8ZM355.66,152.77l-1.59-.13-.66,1.32,1.32-.13.93-1.06ZM359.76,160.18l1.46-.13.53.4.13.93.66.66.79-.93-.66-1.59,1.19-.27.93.53v1.32l.79-.53v-1.19h1.19l.53,1.06-.26.13v.4l-.53.66v.79l-.93.53-.13.79h.66l.66-.53,2.52,1.46-.66.79.66.79.4-1.72-.4-.66-.66-.13-.4-.4v-.4l-1.46.13-.26-.66.66-.53-.13-.93,2.12,1.59,1.06-.13-.13-.53-.4-.4-.53-.13-.26-.26.79-.66-.26-.53-.66-.13.26-.79,1.32.4,1.46,4.37.13-1.59,1.72-.53.26-1.72-.26-.53.13-.66.4.26.26-.66-2.12-1.99-.53.27-.26.53-3.57.27v-.13l-.66.26-2.12-3.71-.93-.13-.13.79.4.79-.66.26-.53-.13-.26-.93-.79-.4-.93.53-1.72-1.85.13-.53-.26-.66.4-.66-.13-.8-.26-.26.53-.53h.53l.93.79.13-.66.79-.13,2.91,2.91,1.46.27.79.66v3.18l.79-1.06,1.85-.13.4-.4-.27-.66-1.59.13.13-1.59-.26-.4-2.12-.53-1.19.53v-.13l-.4-.26-.53-2.52,1.85-1.59h1.46l.53-1.32.4-.26.13-1.19-.93-.13-4.63,3.71-3.04-1.32-.4-.79h-1.06l-.53.79.4,1.06h-3.44l.26,1.72-1.85.93v.13l1.85-.27,1.46.66.53,1.46-1.19,2.65.53.79,3.84-1.32.13.66-1.72,2.52.79,1.99ZM353.81,146.81l-.13.79.53.4h.27l.13-.13-.79-1.06ZM354.47,136.89l1.32.26-.4-.66-.66-.13-.26.26v.27ZM355.13,141.52h.4l.27-.26-.27-.53-.26-.13-.4.66.27.26ZM354.87,146.15l.4.79,1.32.4,1.06-.53.13-.66-1.32-1.19-.79-.13-.4.53-.4.79ZM355.66,142.58v.93l.53.66h.93l.4-.4-.66-.93-1.19-.26ZM359.37,162.03l-1.72-3.31,1.46-1.99-.79-.27-1.46.8-.13.93.53.93-.13,1.99,2.25.93ZM357.25,135.96l.26.27h.26l.27-.27-.27-.66-.26-.13-.26.27v.53ZM357.51,141.52l.79,1.06-.13.53.4,1.32,1.32.27-.93-1.46v-.13l.79-.4,4.23,1.19-.93-1.85-.79,1.32-4.76-1.85ZM358.57,139.13l-.53-.66-.4.66.13.79.4.13.26-.26.13-.66ZM359.5,131.72l-.53,1.85.93,1.32h.93l.66-.93.53-.13-1.98-2.12.26-.93-.4-.93-.26-.13-.26.13-.27.79.4,1.06ZM361.22,163.22l.27-.93-1.46.66,1.19.26ZM360.69,138.47l-.53,2.52.66.53.53-.13.53-.66v-1.32l-1.19-.93ZM364.13,151.84l-1.06-.27-2.38-1.32.53,1.46h1.32l.13,1.32,1.59-.27.26-.26-.4-.66ZM367.97,166l-.13-.4h-4.5l-.26-.4-.53-.13-.93.53.53,1.46.53-1.19h.13l.13,1.19-.13.13v.4h-.13l-1.06.93-.4-.13-.26.27,1.59,1.72.4-.66-.27-.79,1.99-1.32.13-.4,3.18-1.19ZM362.94,144.96h-.53l-.53.53h-.53l-.13.26.53.66.93-.13.4-.66-.13-.66ZM362.15,136.22l-.66.53.13.4,1.85,2.12.27-1.06-1.59-1.99ZM364,163.09l-.93-.79-.93.66.4,1.19,1.59.93-.13-1.99ZM365.32,171.82l.26-.66-.53-.93-1.06-.4v1.19l.66.93.66-.13ZM365.98,169.17l.4-.13.26-.53-.4-.26h-.26l-.4.26v.4l.4.26ZM366.91,175.13l-.66-1.46-.66,1.06.13.79.79.13.4-.53ZM365.85,143.63l1.72-.79v-.4h-1.19l-.53,1.19ZM366.51,149.32l-.53.27.13.79.13.26.4-.13.26-.66-.4-.53ZM370.22,175.66l.26-.66,1.59-.53-2.38-6.88-1.32-.66,2.38,4.76-.4.79-.79.4-.66-.66-.79.26-.4.53,1.19,3.31,1.32-.66ZM367.97,150.12l.4.53h.79l.93.79.13-.93-.66-.79v-.66l-.4-.26-1.19,1.32ZM368.23,170.37l.53.13.4-.53h-1.06l.13.4ZM371.54,184.66l-.26-1.72h-.66l-.27.4v.66l.53.53.66.13ZM373.39,164.94l-1.72-.13-.79,1.46,2.65-.93-.13-.4ZM372.07,169.31l.4-1.72-1.46.53.53,1.99.4.4.53-.4-.4-.79ZM372.47,176.59l-.26-.13h-.27l-.26.66h.26l.13.13.4-.27v-.4ZM374.72,177.12l-.4-.53-.66.13-.4.4.53,1.06.66.13.26-1.19ZM374.45,167.85l-.26.13-.27.53.13.53.53-.26.13-.66-.26-.26ZM374.98,162.96l-.66.26-.27.53.27.4.66-1.19ZM375.38,174.87l.53-.27v-.66l-.26-.93-1.06-.27.79,1.06-.26.66.26.4ZM376.31,180.69l.13-.27-.13-.66h-.4l-.13.53.26.4h.27ZM377.23,184.53l-.4-1.06-.13-.27h-.4l.26.66-.4.53v.53l.53.13.53-.53ZM378.29,169.84l-.4-1.46-.27,1.06-.4.93h-.66l.13.79,1.59-1.32ZM382,177.64l-1.46-.13-.66.66.4.66.53-.13.26-.66.93-.4ZM383.19,179.9l-.13-.27h-.26l-.53.66.66.13.26-.13v-.4ZM463.32,112l-.13,1.99.13,3.97-.13,2.12-.13,1.06-.27,1.59-.4.93-.79.66-1.59.26h-2.12l-3.97-.4-2.12-.13-6.09.4h-2.12l-3.31-.26h-1.99l-.93.13-1.32.4-.53.8-.13,1.72-.53,7.81v2.12l.53,7.94-.13,2.12-.53,7.94-.13,2.12.27,7.81v12.17l-.27,7.81.13,1.99.66,5.95.13,2.12-.4,1.59-.66.66-1.72.27-2.52-.13-3.31-.4-2.25-.13-5.95.4h-2.12l-5.96-.4-1.59-.13-.79-.4-.26-1.46v-2.25l.4-5.56.13-2.12v-9.93l.13-7.94v-2.12l.13-7.81v-2.12l-.53-7.94-.13-2.12v-10.06l-.27-7.81v-1.85l-.4-1.06-1.32-.26h-1.99l-4.23.26h-2.38l-3.57-.26-2.25-.13-2.25.13-3.04.13h-1.99l-1.06-.13-1.46-.27-.79-.53-.53-.79-.27-1.32v-.93l-.13-2.12.27-3.97v-1.98l-.4-5.03.13-2.12.4-1.72.53-.93.79-.4,1.32-.26h3.04l4.9.4h2.12l7.68-.53h2.12l7.81.66h2.12l9.79-.66,7.67.13h2.12l9.93-.13h9.79l4.37-.27,2.25.13,1.06.13,1.59.26.93.53.66.93.26,1.59v.93l.13,1.98-.26,4.23ZM411.97,156.21l.66-1.46-.13-.4-.26-.13-.8,1.72.53.26ZM411.84,118.89l.26.27.27-.27v-.26l-.27-.27-.26.53ZM414.35,186.51l-.66-.26-.66.4v-.13h-.53l-.26.26.26.66.53.4.53-.26.13-.53.66-.53ZM412.37,148v.27l.13.13.66-.13.53-.53-1.32.26ZM413.43,181.75l-.26.4.13.13.53-.13.13-.13-.53-.27ZM430.89,148.13l-.4-.66h-.13v.4l-2.78.53v-1.06h.66l1.46-1.46-.26-1.06-.53-.53v-1.46l-.4-.4-.27.13v.26l-.66.79-.13-1.06-.53-.53-.13-.79,1.46-1.06.4-.93-1.19-.26-.4-.53-2.52-.53-.26.4.26.26h.4l.53.4h.66l.66,1.85-1.99-.4-1.19-1.32-.4,1.46,4.1,3.44-.26.53-4.76,1.72.93-1.32.79-.13.27-.66-1.06.26-1.06-1.06-.8.79.4.66h-.13l-.13.13h-.13l-.13.13-.13-.13h-.13l.13-.13-.4-.53-1.19-.13-.26-3.18,1.59.93.13-1.59-1.19-.13-.26.27-1.19-.4-.53-.79-.93-.26-.4.4-.13.66-1.46.93h.93l.4.66-.13.93.4.93.79-2.78h.93l.13.13-.93,4.76-1.06.4,1.06.79.13.66-1.06.4-.27.4.53.4-.66.93h-.93l-.27-1.46-.4.4-.27,1.72,1.59,1.46-.13.53-1.19-.13-1.06.66.13.53-.26.53.13.53.53-.13.53-1.06.93-.4,3.04,1.72.66-1.32-.93-2.78,1.59-.53v-.4l.53-.4-.53-.53v-1.19l.93-.13.53.53.93-1.32.13.79.53.4.53-.53h1.19l.13.53-.53,1.19-1.98.26-.8,1.85-.13.26v-.13l-1.59,1.99.4.79h1.98l1.32,2.12.13-.93.13-.13.53.13.53-.26-1.72-3.84.66-.53,2.78,3.31,3.57-3.71.66-.53.26-1.32ZM413.29,141.38l.13.53.27.13.26-.13.13-.27-.13-.26-.4-.13-.26.13ZM413.82,145.22v.13l.66.26v-.26l-.66-.13ZM413.95,158.32l-.13.53.13.26.26.13.27-.26v-.4l-.27-.26h-.26ZM414.22,156.34l.27-.13.13-.26-.13-.27-.53.13v.27l.26.26ZM414.35,162.82l.79.27.66-.66,4.1-2.12-.13-.13h-.13v-2.12l-.4-.27-.8.27-.26,1.85-1.06.66-1.06-.66-.13-.53-.53-.27-.4.4-.13.66h-.13v1.06l-.66.66.27.93ZM414.22,126.43l.53.53.66-.27.53-2.25-1.46.4-.27,1.59ZM415.94,128.42l-.13-.13h-.66l-.66.79.13.13.53.13.53-.4.93.13.4-.4-.26-.4-.79.13ZM414.75,120.47l.53,1.85.53-.66-.66-.53.66-.93-1.06.26ZM417.4,181.48l-.13-.27h-.13l-.79.53-.26,1.32-.4.27h-.4l-.26.26.13.4.4.13.4-.13.53-1.59.66-.4.27-.53ZM415.41,155.54l.4-.26-.4-.27-.26.27v.26h.26ZM415.28,161.63l-.13-.13v-.13l.13-1.06.66-.27.53,1.46-1.19.13ZM415.28,136.36l.13.79,1.32.26.53-.4v-.53l-1.46-.66-.53.53ZM415.54,117.43l.66,1.06v-.8l.4-.4-.13-.53h-.66l-.27.66ZM417.26,190.61l-1.06-.27-.53.53.4-.13,1.19.26v-.4ZM416.07,119.81h.4l.13-.4-.4-.4-.26.66.13.13ZM416.07,114.52l.26.13.27-.13.13-.66-.26-.13-.4.13v.66ZM417,155.68l-.53.13-.4.8.4.93.53-1.85ZM416.6,157.79l-.4.53.4,1.06h.53l.27-1.06-.27-.4-.53-.13ZM417.93,129.87l-.66.53-.27.8h-.66l2.38.79v-.27h-.13l.4-1.98-.26-.66-.66.13-.13.66ZM420.57,166.13l-.79-.93v1.46l-.13.13-.66-.13-.93-1.99-1.19-.79-.4,1.72,1.19-.53,2.25,3.31.66-2.25ZM417,126.03l-.26.13-.13.27.53.66.4-.53-.13-.4-.4-.13ZM417.53,135.43l.66-.4,1.06-1.72-.66-.4-1.32.53-.27,1.32.53.66ZM417.66,167.99v-1.59l-.26-.13-.27.13-.13.79.66.79ZM418.06,173.28l.66-.13-.66-.4h-.53v.27l.53.26ZM418.06,127.22l.53.4.13.53,2.12-1.72v-.27l-2.25-.13-.53,1.19ZM418.19,112.67l1.19,1.06.4-.4.79.13-.26,1.46.93.93.53-.26.13-.4-.4-.26v-.4l.13-.13.13.4.53.13.93-.53-.26-.27h.93l.26-.53,1.19-.13-.53-2.38-.53,1.32-1.72,1.32h-.79l-.79-.79-.53-.13,1.85-.4h1.19l.53-.4-1.32-.79-.4.93-1.06-.4-.79,1.06-.53-.13-.66-1.06-1.06,1.06ZM419.38,119.15l-.66-.8-.4.8.66.66.4-.66ZM428.64,114.26l-.66.53v-2.25l-.53-.26-.79.4.13.53h.53l-.93,2.52h-.53l-.4-.27h-.53l-.4-1.19-.26,1.19-1.59.93-.13,2.25-.53.4.13.66-.66,1.06,1.72,5.03.93-.13.4.93-.26.93.4.53-.13.53h-.79l-1.85,1.59-.79-.53h-.53l-.13.13.79.79,1.06.26v1.19l-.93.13-1.19-.66-.4.66,1.32,1.46v.26l-.93.27-.4.93-1.19.79.13,1.85.4.13.53.79.53-.13.26-.4-.79-.93.4-.79h.13l.53.53,1.59.13.66.93v1.72l.79-1.99-.53-.27.93-1.85.53-.13-.53-.66h-1.72l-.4-.79-.66-.4,1.99-1.99.79.4,1.99-1.19.27-.53-1.19-.66,1.32-1.46-.13-1.06.4-.66-.26-.66h-.53l-.53.4-.4-.26-.27-.66.79-1.99-.93-.93v-.53l1.06-.13.13-.13.26.66,1.06.26-1.06-1.06.27-.27v-.26h-.13l-.13-.4-2.25-1.59,1.19.4.53-.53-.93.13-.4-.4h-.4v.4l-.53-.4h-.13v-1.72l1.72-.26,1.85,1.19,1.32-2.65,1.06-.27-.53-.53ZM419.91,187.31l-.13-.53h-1.19l.53.8.53.13.26-.4ZM418.98,163.75v.4l.53.4h.66l-1.19-.79ZM419.65,117.17l.26.26.4-.4v-1.19l-.26-.26-.66.26.26,1.32ZM419.38,123.12l.66.27.4-.53-.13-.27h-.93v.53ZM421.63,155.28l.26-.27-.26-.26-1.06-.26-.79.79v2.25l1.59.93.13.66-.27.27.13.26.4.13.26-.4h.53l.4-.27h1.19l.13.93,1.46.8,1.59-.66.13.13.53-1.59-.26-.53h-.13v-.13l-.13.13-.93-.4,1.06-.53-1.06-.27-.93.53v.66l-.4.4-1.19-.4-.66.26-1.06-.93h-.53l-.13-2.25ZM421.1,163.22l.93-.93-.13-.53-.79.26-.66.79.66.4ZM421.5,139.4l.26-.13v-.26l-.26-.27-.27.27v.26l.27.13ZM421.36,142.05l1.59.53.53.79.26-.93-1.59-.93-.8.53ZM422.29,175.92h-.53l-.4.13.53.13.4-.26ZM422.03,128.15l.27-.79.4-.13v-.26l-.93-.53-.26.13v2.38l.53-.79ZM421.76,110.15l.13.53.4-.4.13-.53h-.26l-.4.4ZM421.89,107.64l.79,1.19.4-.13-.4-2.25-.79,1.19ZM422.82,164.54h.66l.66-.79.13-1.06-.53-.26-1.32.53-.4.53.8,1.06ZM422.29,146.28l-.13.13v-.13h.13ZM422.95,121.67l-.27.13-.13.27v-.4l-.26-.4v-.13l.4-.66.13.27.26.13v.26l-.13.13v.4ZM423.09,122.86l.79.4-.13.13h-.13l-.27.26-.26-.13-.26.13.26-.79ZM423.75,188.1l-.13-.26h-.27l-.4.26v.4l.4.26.4-.66ZM423.88,129.87h.13v1.19l-.26-.66v-.66l.13.13ZM423.75,171.16l1.46-1.32,1.46.8.93.13-.53-.93.53-1.46-.13-.26-.26-.13-.27.13-.53,1.06-1.46-.53-1.19,2.51ZM425.6,191.14l-.4-.53h-.26l-.27.26h-.4l-.27.4.4.26.93-.4h.26ZM424.14,105.26l1.99,2.51h.79l.66-.66-.13-.53-3.31-1.32ZM426.92,135.43v-3.44l-.4-.27-.53.8.13.26-.26.66-.66.13-.4-.26h-.4v.4l.26.13.79,1.46,1.46.13ZM426.66,166h-1.32l-.26.26.53,1.32.66-.13.27-.66.4-.13-.26-.66ZM425.47,108.57l-.26.26.26.53.53-.13.13.13,1.19-.27.13-.4-.53-.27-.93.4-.53-.26.4-.27v-.53l-.4.13-.26.4v.27h.26ZM426.53,146.15l.13.4-.53.66-.79-.13.66-1.06.53.13ZM425.6,136.62l-.13.53v.4l.4-.13.13-.4-.4-.4ZM427.98,180.03l-.53-.4-.26-.4-1.46,1.85v.27l.4.13,1.06-.53.53.13.26-1.06ZM426.53,186.11l-.13-.53-.4-.13-.26,1.06.4.26.4-.66ZM426.13,104.2l.13.4.4.13.13-.13-.13-.53-.53.13ZM427.32,165.07l.4-.53-.27-.53h-1.32l.4.66.79.4ZM429.57,121.93v-.4l-.26-.13-2.52,2.51,1.19.93v-1.59l1.59-1.32ZM427.72,109.09l.4.53-1.19,1.06v.13h.13l.13.26.4.13.4-.13.4-2.12-.66.13ZM427.59,137.28l-.53.53.13.4.26.13.4-.93-.27-.13ZM428.12,146.28l-.79-.13-.26-.27v-.4l.13-.13v-.13l.93,1.06ZM428.25,128.15l-.53-.26-.53.13v.4l.53.13.53-.4ZM427.45,166.93l.79.13.13-.26-.4-.4-.53.53ZM429.97,118.09l-1.46-.4-.53.13.13.53,1.19.27.4.53.27-1.06ZM429.7,190.22l-.4-1.46-1.19-.26.53,1.99.53.13.53-.4ZM428.64,120.47h.13l.13-.26-.26-.4-.4-.13v.53l.4.26ZM428.64,117.56h.26l.13-.13.13-.4-.4-.13-.26.53.13.13ZM428.64,127.75l1.06.79.13-.13v-.27l-.4-.4h-.79ZM429.57,135.43l.53-1.06-.79-1.06-.27,3.71.66-1.19-.13-.4ZM429.44,115.45l-.26.27.13.4.26-.13.13-.53h-.26ZM430.1,130l-.13-.53-.53-.13-.13.26.53.53.27-.13ZM430.89,174.21l-.26-.27h-.53l-.27.4.27.26.79-.4ZM430.76,106.84l.4.27-.13,1.32,5.29.93.93-.66-3.97-.13-.4-.53v-.66l.66-.13.13-.66-.26-.53-2.52-.4-.13,1.19ZM431.16,120.74l.27-.27.4-.79-.66-1.06-.26,2.12h.26ZM431.03,114.39v.53l.27.13.26-.13.13-.27-.26-.4-.4.13ZM431.95,122.06l-.27-.4h-.4l.66.93v-.53ZM435,111.87l-1.06-.13.53.79v.13l-1.19-.66.13-.13-.4-.53.13-.53.27-.13-.13-.27-.4-.13-.27.26-1.06.27.26.53.66.13.13,1.72.27.26-.53,2.12.13.4.27.13,1.72-2.78v-.26l.53-.26v-.93ZM434.34,106.45l.53.4.66-.26,1.19-.13-.79-1.46.4-.26-.79-.4-.8.13-.13.4.27.4-.4.4-.13.8ZM437.51,111.74l-.13-.79-.93-.13-1.19.66,1.32.66.93-.4ZM437.11,119.81l-.53-.8-.26.8.13.66.26.13.27-.13.13-.66ZM439.5,110.55l-.66.66.53.53.13-.53v-.66ZM439.89,106.71l.13-.26-.13-.27-.66.13-.27.66.27.53.53.13.26-.4-.13-.53ZM441.08,120.61l-.53-.13h-.27l-.13.27.4.4.53-.53ZM444.66,117.03l-.66.79-.66.4-2.25-1.19.53.93-.66,1.32.13.26.53.13.53-1.06,1.06.66,1.46-1.19v-1.06ZM444.92,108.43l-1.06-.93-.4-.26-.79.66.26.53.93.53,1.06-.53ZM448.36,110.55h.93v-.26l-.4-.53-1.06-.13-.79-.93-1.19.13-.4.66.4.66-.13.26,2.12-.4.53.53ZM450.61,112.4l-.53-.4-.66.13-.4.26v.26l.4.4,1.06-.4.13-.26ZM450.22,114.39l-.53-.27-.53.13-.13.13.13.26,1.06-.26ZM451.01,106.98l-.53-.13-.4.27-.4,1.98.79-.4.53-1.72ZM452.6,111.48l.53-.13.4-.4-.13-.26h-.13l-.66.79ZM452.6,112.93l.53.66h.66l-.4-.66-.53-.13-.26.13ZM454.19,117.43l-.53-.4-.53.13-.4.53.13.53.79-.13.53-.66ZM457.49,111.08l-.27-.13-.26.13-.13.27.13.26h.4l.13-.13v-.4ZM458.55,107.77h.27l.13-.13-.27-.4h-.26l-.13.26.26.26ZM459.61,111.74l-.13-.26-.53-.13-.13.26.4.26h.26l.13-.13ZM557,112l-.13,1.99.13,3.97-.13,2.12-.13,1.06-.27,1.59-.4.93-.8.66-1.59.26h-2.12l-3.97-.4-2.12-.13-6.09.4h-2.12l-3.31-.26h-1.98l-.93.13-1.32.4-.53.8-.13,1.72-.53,7.81v2.12l.53,7.94-.13,2.12-.53,7.94-.13,2.12.27,7.81v12.17l-.27,7.81.13,1.99.66,5.95.13,2.12-.4,1.59-.66.66-1.72.27-2.52-.13-3.31-.4-2.25-.13-5.95.4h-2.12l-5.96-.4-1.59-.13-.79-.4-.26-1.46v-2.25l.4-5.56.13-2.12v-9.93l.13-7.94v-2.12l.13-7.81v-2.12l-.53-7.94-.13-2.12v-10.06l-.27-7.81v-1.85l-.4-1.06-1.32-.26h-1.99l-4.23.26h-2.38l-3.57-.26-2.25-.13-2.25.13-3.04.13h-1.99l-1.06-.13-1.46-.27-.8-.53-.53-.79-.27-1.32v-.93l-.13-2.12.27-3.97v-1.98l-.4-5.03.13-2.12.4-1.72.53-.93.8-.4,1.32-.26h3.04l4.9.4h2.12l7.68-.53h2.12l7.81.66h2.12l9.79-.66,7.67.13h2.12l9.93-.13h9.79l4.37-.27,2.25.13,1.06.13,1.59.26.93.53.66.93.26,1.59v.93l.13,1.98-.26,4.23ZM505.66,156.21l.66-1.46-.13-.4-.26-.13-.8,1.72.53.26ZM505.52,118.89l.26.27.27-.27v-.26l-.27-.27-.26.53ZM508.04,186.51l-.66-.26-.66.4v-.13h-.53l-.26.26.26.66.53.4.53-.26.13-.53.66-.53ZM506.05,148v.27l.13.13.66-.13.53-.53-1.32.26ZM507.11,181.75l-.26.4.13.13.53-.13.13-.13-.53-.27ZM524.58,148.13l-.4-.66h-.13v.4l-2.78.53v-1.06h.66l1.46-1.46-.26-1.06-.53-.53v-1.46l-.4-.4-.27.13v.26l-.66.79-.13-1.06-.53-.53-.13-.79,1.46-1.06.4-.93-1.19-.26-.4-.53-2.52-.53-.26.4.26.26h.4l.53.4h.66l.66,1.85-1.99-.4-1.19-1.32-.4,1.46,4.1,3.44-.26.53-4.76,1.72.93-1.32.79-.13.27-.66-1.06.26-1.06-1.06-.79.79.4.66h-.13l-.13.13h-.13l-.13.13-.13-.13h-.13l.13-.13-.4-.53-1.19-.13-.27-3.18,1.59.93.13-1.59-1.19-.13-.26.27-1.19-.4-.53-.79-.93-.26-.4.4-.13.66-1.46.93h.93l.4.66-.13.93.4.93.79-2.78h.93l.13.13-.93,4.76-1.06.4,1.06.79.13.66-1.06.4-.27.4.53.4-.66.93h-.93l-.27-1.46-.4.4-.27,1.72,1.59,1.46-.13.53-1.19-.13-1.06.66.13.53-.26.53.13.53.53-.13.53-1.06.93-.4,3.04,1.72.66-1.32-.93-2.78,1.59-.53v-.4l.53-.4-.53-.53v-1.19l.93-.13.53.53.93-1.32.13.79.53.4.53-.53h1.19l.13.53-.53,1.19-1.98.26-.79,1.85-.13.26v-.13l-1.59,1.99.4.79h1.98l1.32,2.12.13-.93.13-.13.53.13.53-.26-1.72-3.84.66-.53,2.78,3.31,3.57-3.71.66-.53.26-1.32ZM506.98,141.38l.13.53.27.13.26-.13.13-.27-.13-.26-.4-.13-.26.13ZM507.51,145.22v.13l.66.26v-.26l-.66-.13ZM507.64,158.32l-.13.53.13.26.26.13.27-.26v-.4l-.27-.26h-.26ZM507.9,156.34l.27-.13.13-.26-.13-.27-.53.13v.27l.26.26ZM508.04,162.82l.79.27.66-.66,4.1-2.12-.13-.13h-.13v-2.12l-.4-.27-.79.27-.26,1.85-1.06.66-1.06-.66-.13-.53-.53-.27-.4.4-.13.66h-.13v1.06l-.66.66.27.93ZM507.9,126.43l.53.53.66-.27.53-2.25-1.46.4-.27,1.59ZM509.63,128.42l-.13-.13h-.66l-.66.79.13.13.53.13.53-.4.93.13.4-.4-.26-.4-.79.13ZM508.43,120.47l.53,1.85.53-.66-.66-.53.66-.93-1.06.26ZM511.08,181.48l-.13-.27h-.13l-.8.53-.26,1.32-.4.27h-.4l-.27.26.13.4.4.13.4-.13.53-1.59.66-.4.26-.53ZM509.1,155.54l.4-.26-.4-.27-.26.27v.26h.26ZM508.96,161.63l-.13-.13v-.13l.13-1.06.66-.27.53,1.46-1.19.13ZM508.96,136.36l.13.79,1.32.26.53-.4v-.53l-1.46-.66-.53.53ZM509.23,117.43l.66,1.06v-.8l.4-.4-.13-.53h-.66l-.27.66ZM510.95,190.61l-1.06-.27-.53.53.4-.13,1.19.26v-.4ZM509.76,119.81h.4l.13-.4-.4-.4-.26.66.13.13ZM509.76,114.52l.26.13.27-.13.13-.66-.26-.13-.4.13v.66ZM510.68,155.68l-.53.13-.4.8.4.93.53-1.85ZM510.29,157.79l-.4.53.4,1.06h.53l.26-1.06-.26-.4-.53-.13ZM511.61,129.87l-.66.53-.27.8h-.66l2.38.79v-.27h-.13l.4-1.98-.26-.66-.66.13-.13.66ZM514.26,166.13l-.79-.93v1.46l-.13.13-.66-.13-.93-1.99-1.19-.79-.4,1.72,1.19-.53,2.25,3.31.66-2.25ZM510.68,126.03l-.26.13-.13.27.53.66.4-.53-.13-.4-.4-.13ZM511.21,135.43l.66-.4,1.06-1.72-.66-.4-1.32.53-.27,1.32.53.66ZM511.35,167.99v-1.59l-.26-.13-.26.13-.13.79.66.79ZM511.74,173.28l.66-.13-.66-.4h-.53v.27l.53.26ZM511.74,127.22l.53.4.13.53,2.12-1.72v-.27l-2.25-.13-.53,1.19ZM511.88,112.67l1.19,1.06.4-.4.79.13-.26,1.46.93.93.53-.26.13-.4-.4-.26v-.4l.13-.13.13.4.53.13.93-.53-.26-.27h.93l.26-.53,1.19-.13-.53-2.38-.53,1.32-1.72,1.32h-.79l-.79-.79-.53-.13,1.85-.4h1.19l.53-.4-1.32-.79-.4.93-1.06-.4-.79,1.06-.53-.13-.66-1.06-1.06,1.06ZM513.07,119.15l-.66-.8-.4.8.66.66.4-.66ZM522.33,114.26l-.66.53v-2.25l-.53-.26-.79.4.13.53h.53l-.93,2.52h-.53l-.4-.27h-.53l-.4-1.19-.26,1.19-1.59.93-.13,2.25-.53.4.13.66-.66,1.06,1.72,5.03.93-.13.4.93-.26.93.4.53-.13.53h-.79l-1.85,1.59-.79-.53h-.53l-.13.13.79.79,1.06.26v1.19l-.93.13-1.19-.66-.4.66,1.32,1.46v.26l-.93.27-.4.93-1.19.79.13,1.85.4.13.53.79.53-.13.26-.4-.79-.93.4-.79h.13l.53.53,1.59.13.66.93v1.72l.79-1.99-.53-.27.93-1.85.53-.13-.53-.66h-1.72l-.4-.79-.66-.4,1.98-1.99.79.4,1.99-1.19.27-.53-1.19-.66,1.32-1.46-.13-1.06.4-.66-.26-.66h-.53l-.53.4-.4-.26-.27-.66.8-1.99-.93-.93v-.53l1.06-.13.13-.13.26.66,1.06.26-1.06-1.06.27-.27v-.26h-.13l-.13-.4-2.25-1.59,1.19.4.53-.53-.93.13-.4-.4h-.4v.4l-.53-.4h-.13v-1.72l1.72-.26,1.85,1.19,1.32-2.65,1.06-.27-.53-.53ZM513.6,187.31l-.13-.53h-1.19l.53.8.53.13.26-.4ZM512.67,163.75v.4l.53.4h.66l-1.19-.79ZM513.33,117.17l.26.26.4-.4v-1.19l-.26-.26-.66.26.26,1.32ZM513.07,123.12l.66.27.4-.53-.13-.27h-.93v.53ZM515.32,155.28l.26-.27-.26-.26-1.06-.26-.79.79v2.25l1.59.93.13.66-.27.27.13.26.4.13.26-.4h.53l.4-.27h1.19l.13.93,1.46.8,1.59-.66.13.13.53-1.59-.27-.53h-.13v-.13l-.13.13-.93-.4,1.06-.53-1.06-.27-.93.53v.66l-.4.4-1.19-.4-.66.26-1.06-.93h-.53l-.13-2.25ZM514.79,163.22l.93-.93-.13-.53-.79.26-.66.79.66.4ZM515.18,139.4l.26-.13v-.26l-.26-.27-.27.27v.26l.27.13ZM515.05,142.05l1.59.53.53.79.27-.93-1.59-.93-.79.53ZM515.98,175.92h-.53l-.4.13.53.13.4-.26ZM515.71,128.15l.27-.79.4-.13v-.26l-.93-.53-.26.13v2.38l.53-.79ZM515.45,110.15l.13.53.4-.4.13-.53h-.26l-.4.4ZM515.58,107.64l.79,1.19.4-.13-.4-2.25-.79,1.19ZM516.51,164.54h.66l.66-.79.13-1.06-.53-.26-1.32.53-.4.53.8,1.06ZM515.98,146.28l-.13.13v-.13h.13ZM516.64,121.67l-.27.13-.13.27v-.4l-.26-.4v-.13l.4-.66.13.27.26.13v.26l-.13.13v.4ZM516.77,122.86l.79.4-.13.13h-.13l-.27.26-.26-.13-.26.13.26-.79ZM517.43,188.1l-.13-.26h-.27l-.4.26v.4l.4.26.4-.66ZM517.57,129.87h.13v1.19l-.26-.66v-.66l.13.13ZM517.43,171.16l1.46-1.32,1.46.8.93.13-.53-.93.53-1.46-.13-.26-.26-.13-.27.13-.53,1.06-1.46-.53-1.19,2.51ZM519.29,191.14l-.4-.53h-.26l-.27.26h-.4l-.27.4.4.26.93-.4h.27ZM517.83,105.26l1.99,2.51h.79l.66-.66-.13-.53-3.31-1.32ZM520.61,135.43v-3.44l-.4-.27-.53.8.13.26-.26.66-.66.13-.4-.26h-.4v.4l.26.13.79,1.46,1.46.13ZM520.35,166h-1.32l-.26.26.53,1.32.66-.13.27-.66.4-.13-.26-.66ZM519.15,108.57l-.26.26.26.53.53-.13.13.13,1.19-.27.13-.4-.53-.27-.93.4-.53-.26.4-.27v-.53l-.4.13-.26.4v.27h.26ZM520.21,146.15l.13.4-.53.66-.79-.13.66-1.06.53.13ZM519.29,136.62l-.13.53v.4l.4-.13.13-.4-.4-.4ZM521.67,180.03l-.53-.4-.26-.4-1.46,1.85v.27l.4.13,1.06-.53.53.13.27-1.06ZM520.21,186.11l-.13-.53-.4-.13-.26,1.06.4.26.4-.66ZM519.82,104.2l.13.4.4.13.13-.13-.13-.53-.53.13ZM521.01,165.07l.4-.53-.26-.53h-1.32l.4.66.79.4ZM523.26,121.93v-.4l-.26-.13-2.52,2.51,1.19.93v-1.59l1.59-1.32ZM521.4,109.09l.4.53-1.19,1.06v.13h.13l.13.26.4.13.4-.13.4-2.12-.66.13ZM521.27,137.28l-.53.53.13.4.26.13.4-.93-.27-.13ZM521.8,146.28l-.79-.13-.26-.27v-.4l.13-.13v-.13l.93,1.06ZM521.93,128.15l-.53-.26-.53.13v.4l.53.13.53-.4ZM521.14,166.93l.79.13.13-.26-.4-.4-.53.53ZM523.65,118.09l-1.46-.4-.53.13.13.53,1.19.27.4.53.27-1.06ZM523.39,190.22l-.4-1.46-1.19-.26.53,1.99.53.13.53-.4ZM522.33,120.47h.13l.13-.26-.26-.4-.4-.13v.53l.4.26ZM522.33,117.56h.26l.13-.13.13-.4-.4-.13-.26.53.13.13ZM522.33,127.75l1.06.79.13-.13v-.27l-.4-.4h-.79ZM523.26,135.43l.53-1.06-.79-1.06-.27,3.71.66-1.19-.13-.4ZM523.12,115.45l-.26.27.13.4.26-.13.13-.53h-.26ZM523.79,130l-.13-.53-.53-.13-.13.26.53.53.26-.13ZM524.58,174.21l-.26-.27h-.53l-.26.4.26.26.79-.4ZM524.45,106.84l.4.27-.13,1.32,5.29.93.93-.66-3.97-.13-.4-.53v-.66l.66-.13.13-.66-.26-.53-2.52-.4-.13,1.19ZM524.84,120.74l.27-.27.4-.79-.66-1.06-.26,2.12h.26ZM524.71,114.39v.53l.27.13.26-.13.13-.27-.26-.4-.4.13ZM525.64,122.06l-.26-.4h-.4l.66.93v-.53ZM528.68,111.87l-1.06-.13.53.79v.13l-1.19-.66.13-.13-.4-.53.13-.53.27-.13-.13-.27-.4-.13-.27.26-1.06.27.26.53.66.13.13,1.72.27.26-.53,2.12.13.4.27.13,1.72-2.78v-.26l.53-.26v-.93ZM528.02,106.45l.53.4.66-.26,1.19-.13-.79-1.46.4-.26-.79-.4-.8.13-.13.4.27.4-.4.4-.13.8ZM531.2,111.74l-.13-.79-.93-.13-1.19.66,1.32.66.93-.4ZM530.8,119.81l-.53-.8-.26.8.13.66.26.13.27-.13.13-.66ZM533.18,110.55l-.66.66.53.53.13-.53v-.66ZM533.58,106.71l.13-.26-.13-.27-.66.13-.27.66.27.53.53.13.26-.4-.13-.53ZM534.77,120.61l-.53-.13h-.27l-.13.27.4.4.53-.53ZM538.34,117.03l-.66.79-.66.4-2.25-1.19.53.93-.66,1.32.13.26.53.13.53-1.06,1.06.66,1.46-1.19v-1.06ZM538.61,108.43l-1.06-.93-.4-.26-.79.66.26.53.93.53,1.06-.53ZM542.05,110.55h.93v-.26l-.4-.53-1.06-.13-.79-.93-1.19.13-.4.66.4.66-.13.26,2.12-.4.53.53ZM544.3,112.4l-.53-.4-.66.13-.4.26v.26l.4.4,1.06-.4.13-.26ZM543.9,114.39l-.53-.27-.53.13-.13.13.13.26,1.06-.26ZM544.7,106.98l-.53-.13-.4.27-.4,1.98.79-.4.53-1.72ZM546.28,111.48l.53-.13.4-.4-.13-.26h-.13l-.66.79ZM546.28,112.93l.53.66h.66l-.4-.66-.53-.13-.26.13ZM547.87,117.43l-.53-.4-.53.13-.4.53.13.53.79-.13.53-.66ZM551.18,111.08l-.27-.13-.26.13-.13.27.13.26h.4l.13-.13v-.4ZM552.24,107.77h.27l.13-.13-.27-.4h-.26l-.13.26.26.26ZM553.3,111.74l-.13-.26-.53-.13-.13.26.4.26h.27l.13-.13ZM636.27,101.42l6.62.4h2.12l7.68-.4h2.12l7.54.53,1.59.27.66.26-.13.53-.79,1.19-9.53,14.03-1.32,1.72-4.5,6.09-1.19,1.72-3.71,6.48-1.19,1.85-4.1,6.09-1.32,1.85-4.23,6.09-1.32,1.72-4.37,6.09-.53,1.06v10.72l.53,7.15-.13,2.12-.53,7.15v2.12l.53,5.56.13,1.85-.4,1.06-.53.53-1.19.27h-8.74l-15.48-.53-.53-.4-.27-1.32v-16.28l-.13-2.12-.53-7.15-.13-2.12.53-7.15-.26-1.19-.93-.93-3.57-6.35-1.19-1.85-4.23-5.95-1.19-1.85-3.84-6.35-1.06-1.85-9.26-14.03-1.06-1.85-3.97-6.22-1.06-1.85-3.84-6.35-.4-1.19.13-.66.79-.53h17.73l2.12.13,7.68.4,1.46.13.53.4,3.84,6.62,1.06,1.72,3.97,5.95,1.06,1.72,3.44,6.09,1.19,1.85,3.57,5.69.93,1.19.79.26.93-.93,3.31-6.35,1.19-1.72,4.1-5.82,1.19-1.72,3.31-6.22,1.06-1.85,3.71-6.09,1.06-1.32,1.06-.27,1.46.13ZM580.02,123.12v.4h.53l.13-.13-.4-.27h-.27ZM582.67,114.78l-.4.53.13.27h.26l.27-.27v-.4l-.13-.13h-.13ZM583.73,124.58l.53.93v-.66l-.4-.4-.13.13ZM596.3,116.9v1.46l-.4.4v1.06l-1.72.93-.79-.27-.66.66-.13-.13v-.13l-1.32.53-.53.79v.66l.53.4h-.13v.13l-1.99,1.32-.4-.79.53-.4h.4l.26-.27-3.31-1.06-.13-.53h.53l.27-.4h.13v-.13l.79-.93.66-.13,1.06.4,1.19-.4-.4-.79.13-.79-1.06-.53-.53.53v.66h.4l.13.4-.53.27-.53-.27-3.18,1.99.13.66-.4-.27-.4.13v.13l.4.26.53-.13,1.19,2.38-.26,2.38-.4.13-.13.4.66.26.66-.13.4.66-.13.4.13.4.79-1.19-.13-.79,1.06.13,1.06-.4-.66-.66-1.59-.4-.4-.53,4.23,1.19,1.85-1.19v-2.12l-1.98-.66v-.26l1.98-.13.27-.53.53-.26.26-.53,2.12-.66.26.26h.27l.4.4v1.06l-1.06.27v.53l1.06-.13.13.13h.27l-.27,1.32,1.19-.4.53.26.26-.4-.13-.4h-.26l-.4-1.99-1.19-.93-.4-1.19-.13.27h-1.19v-.13h.13l.27-.4v-2.12l-.79.26ZM586.11,117.3l-.13.4.4.66h.4l.13-.4-.4-.79-.4.13ZM587.7,110.95l-.13.4.27.13.26-.13.13-.53-.53.13ZM589.42,115.84l-.27.53-.53-.27h-.53l.26.79h.79l2.65-1.59.13-.53-.26-.26-2.25,1.32ZM588.23,112.93l.26,1.06-.26,1.06,1.06-.93-.8-1.19h-.26ZM589.15,121.53l-.13.26.4.66.66-.4v-.27l-.4-.26h-.53ZM590.61,130.14l.13.4h.53l.27.26-.13.4-1.59,1.32.13.53-.79.93,1.72,1.59v-.93l-.4-.53.66-2.12,2.65-.66,1.06.53.27-.66-.13-.8-1.46-.13v.53l-.66.26-.66-1.19-1.19-.13-.4.4ZM591.14,137.55h-.4l-.53.4-.13.79.13.13,1.59-1.06.13-.4-.53-.26-.27.4ZM590.74,112.27l.26.26.13-.13.27-.13v-.27l-.27-.13-.4.4ZM591.14,128.02h.13l.13.13.13-.26-.13-.4-.27-.13v.66ZM591.8,116.51v.26l.66.13.26-.13v-.26l-.4-.27-.53.27ZM592.33,128.42l.79.4.66-.13,1.06.66h.4l.53-.53-.13-.4h-.4l-.26.26-1.59-.66-1.06.4ZM593.78,116.37l.13.53-1.19,1.32h.93l1.06.27v.4h.4l.13-.26-.26-.27v-.53l-.27-.4.4-.4-.13-.53-.93-.53-.26.4ZM593.78,135.96l.26,1.19h.13l.66.4.53-.53-.79-1.99-.79.93ZM595.11,139.93l-.79.93.53,1.06.66.4.27-2.38h-.66ZM594.71,132.25l-.13.13,1.32,1.06.53-.4-.13-.53-1.59-.4v.13ZM595.24,123.78l-.13.27.4.26h.4l.13-.26-.26-.53-.53.26ZM596.03,135.96l.13.27.66.26v-.53l-.26-.26-.53.26ZM596.96,128.68l-.13.53h.4l.26-.4-.26-.53-.27.4ZM597.62,131.33l1.19,1.19.13-.66-.79-.27.26-1.06-.79.79ZM600.14,133.18l-2.52.27,2.52,1.19.79-.26.13-.79-.26-.4h-.66ZM599.08,128.28l-.13.13.27.53h.26l.26-.26-.4-.4h-.27ZM598.95,138.08l.93.66,1.19-.66h-2.12ZM600.27,130.93l-.13-1.06-.53-.53.66,1.59ZM599.87,135.3l-.27.27.4.13.13-.13.13-.27h-.4ZM602.25,125.37l-1.32,1.32,1.85-.13-.27-1.46-.66-.26.4.53ZM601.59,139.13l.4.4v-.53l-.53-.53.13.66ZM601.59,134.5v.4l.26.13.27-.13v-.27l-.27-.26-.26.13ZM602.12,130.8l.26.53.53-.27.13-.53-.13-.13-.79.4ZM602.52,129.08l.4.4.53.13.93-.79h.4l.26-.26-.13-.26-2.38-.27v1.06ZM602.92,132.12l-.4.53.13.26.27.13.53-.4.26-.66-.79.13ZM602.52,136.89l.13.53.27.13.26-.13-.26-1.46-.4.93ZM603.58,138.21l-.13.13v.13l.53.26v-.4l-.13-.13h-.26ZM603.58,125.11l.4.4h.27l.13-.27-.79-.79v.66ZM605.17,141.52l-.26.4.4.66.4.13.26-.4-.13-.53-.26-.27h-.4ZM605.17,153.3l-.13.13.13.66.53.53-.27-1.46-.26.13ZM607.68,138.47v-1.06l-.4-.26v-1.06l-1.19-.4,1.59,2.78ZM608.61,133.97l-.4.26h.53l.4-.26h-.53ZM608.47,184.92l.13.4-.4.4.13.4h.4l.27-1.19-.66-.53.13.53ZM608.61,172.35l.26.53-.13.13v.26l-.4.4.13.53.26.13.66-.66v-.66l-.13-.13.13-.66-.4-.27-.4.4ZM609.93,178.7h-.53l-.26.66.66.53,1.46-.4.26-1.32-1.59.53ZM610.72,166l.53.53.4-.13-.13-.66-.4-.13-.4.4ZM610.99,157.79l-.13.79,1.99.53-.13-.79-.79-.93-.4-.13-.53.53ZM612.18,187.84l-.4.93.4.4.53-.27v-1.19l-.53.13ZM613.5,176.06l.66.4.53-.13.13-.4-.53-.53-.79.66ZM615.36,147.34l-.53.4-.13.66.26.66,1.06-.66.13-.66-.4-.4h-.4ZM616.02,158.46l-.26.27v.4l.4.4h2.12l.79.66.79.13.13.13.26-.13v-.27l-.66-.4-1.85-.66-.53.26-.79-.79h-.4ZM616.41,155.81l.26.66.27-.13v-.4l-.27-.27-.26.13ZM618.4,152.5h-.53l-.4.26.13.53.66.13.79-1.19-.27-.26-.4.53ZM617.87,170.5l-.13,2.12.4.4.66.13.93-.66-.66-1.19-.93-.79h-.26ZM618.8,139.4l.4.66h.66l.79-1.32-.79-.13-1.06.79ZM624.75,141.12l-.79.13-.79-.4.13-.93-.66-.4h-.66l-.66,1.59-.93.53-.27.66,1.19.66.53-.26,1.46,1.06,1.59-2.65,2.38-3.04-.13-1.46-2.38,4.5ZM621.05,149.72l-.4.53.13.26h.27l.53-.53-.26-.26h-.26ZM620.65,178.04l.4.4v-.53l-.27-.4-.13.53ZM621.44,135.43l-.4,1.06.53.4.66-.13.4-.93-.27-1.06-.93.66ZM621.05,144.83v.53l.66-.13.13-.27-.13-.13h-.66ZM623.56,131.72l.53.13.53-.27v-.13h.13l.13.13-.93.79-.27-.13-.26.27v-.13l-.79.13-.53-.4-.13-.4h-.26l-.4.27-.13,1.99.66-.13.53-.53,2.12.79.4-.27,2.25,1.85h.53l.26-.26-2.65-3.57.13-.4-.13-.4-.93-.53-.79,1.19ZM621.31,147.21l.26.53,1.19-.53v-.53l-.4-.4-.53-.13-.53,1.06ZM621.71,153.96l.53.26.66-.13.79.53-.13-.79-.53-.53-.93-.13-.4.79ZM621.84,156.34l.26.66.53-.13.13-.26-.13-.27h-.79ZM624.09,135.43l-.13.53.4.27.53-.13v-.4l-.53-.4-.26.13ZM624.35,175.26l-.13.13.4.53.26-.26v-.27l-.4-.13h-.13ZM624.35,138.47l.13.4h.66l-.53-.79-.27.4ZM625.81,145.36l-.13.53-.66.27-.13.4.4.27,1.06-1.06-.26-1.06-.27.66ZM627.4,122.59l-.4.93-1.59.93.4,2.25.93-1.59.79-1.59h2.38l-.93-1.19-.79-.26-.79.53ZM625.94,128.81l.93-.26-.53-.53-.79-.26.4,1.06ZM626.08,130.4l.13,1.85.79-.79.66-.4.13-1.32-1.06-.27-.66.93ZM626.47,140.72l-.13.66.53.26,1.06-1.32.93-.13-1.19-.79-1.19,1.32ZM633.09,116.9l-1.72-1.06h-.13l1.59,2.91-2.25,1.85h-1.46l-.13.93h.13l3.04,2.25-3.57.53-1.06,1.72.93,1.06v.53l-.66.66-.13.93,1.19.13.66-1.19h.13l.13-.13.79.66.13,1.06-1.06.79.93.26.93-.66.66.93-.53,1.06-.27-.13-1.85.53-.93-.4-.66.4.4.53.79.27.26,2.65h-1.06l-.13,1.06,1.59-.79.26-.66-.26-.66.4-.66-.93-1.06.27-.53.93.13.66-.53-.4,1.19.53,1.72.4.27.4-.27v-1.46l.93.27.27-.53-.27-.66.8-.13.4,1.19-.53.66-.13,1.06-1.59.93-.4,1.06,1.32-.79,1.32,1.06,1.59-.79.27-.53.53-.26v.26l.13.13.66-.13.26-2.78-1.46-.4-.53-1.32-1.19-.93v-.13l.13-.13-.66-.4,1.72-3.71-.4-.79-.66.26-.4.8-.66-.27-.26-.66.66-.53-.13-.93-.93-.53.4-2.38.66-.13.26-.53.79-.13.66-.79h.53l.4.53-.13,1.19.53-.4.66.66-.53,1.99.93.53,1.19-1.19,1.72.66.93,1.19,2.78-.79-.4-.66-3.31-1.06-2.25-.53-.8-1.72.13-.13.4-2.12-.53-.79-2.65-.4-.93-1.32-1.19,1.19ZM629.38,145.49l-.4-.53-.53.53,1.99.53.93-1.06-1.99.53ZM628.99,141.78l-.4.4.66.27.53-.27v-.26l-.13-.13h-.66ZM628.86,117.43l.93,1.19h1.32l-.79-1.32-1.46.13ZM628.99,138.21l2.25,1.46.26-.27-.79-1.46-1.72.27ZM632.82,139.27l-.13.4.53.13.79-.27-.66-.4-.53.13ZM634.02,114.12l-.13.66.26.27.13-.13.4-.53v-.66l-.66.4ZM634.28,111.21l-.26,1.59.53.13.53-.27.27-1.46-.4-.26-.66.26ZM634.94,122.33l.79,1.06-.93.79.93.79.13.4h.4l.26-.66-.66-3.57-.93,1.19ZM637.06,126.56l.4.66v.93l-2.52,1.85h1.32l1.19,1.46h.4l.4-.53-.93-1.19,1.32-.8.13-.53-.79-1.85h-.93ZM635.87,114.26l-.4.79.4,1.19,1.06.66.53-.4.26-1.72-.4-.66-1.46.13ZM637.85,110.95l-.4.79,1.46-.79-.13-.26-.27-.13-.66.4ZM638.25,113.33l.4,1.59.53.13.27-1.06-.4-1.06-.79.4ZM638.78,125.77l.26.26.93-.79-.66-.26-.53.79ZM640.63,114.92l-.53.26-.8,1.06.53,1.19.66-1.72h.26l.8,1.19v1.85l1.06,1.46.79-.79.27-1.06-1.59.13-1.19-4.76-.27,1.19ZM639.71,119.02l-.26.8.66.66h.79l.4-.53-.26-.4-.66-.26-.4-.27h-.26ZM639.71,111.48l-.13.4.66.4.26-.27-.13-.53-.4-.13-.26.13ZM640.1,126.69l-.27.79.4.53v1.19l.79-.4.79-1.46-.13-.4-.79-.4-.79.13ZM642.88,112.53l-.53.53v.4l.4.13.66-.4.27-.66h-.79ZM642.88,115.58l-.13.66.53.53h.79l1.06-.79v-1.46l-2.25,1.06ZM642.88,108.7l.53,1.32.27-.8-.4-.53h-.4ZM643.94,121.4l1.59.93.27-.26v-.27l-.66-.53-1.19.13ZM645.53,110.15l-.53.53.27.4h.26l.53-.53-.13-.4h-.4ZM646.59,114.52l-.53,2.65.93-.53.66-2.25-.66-.13-.4.26ZM650.29,108.83l-.66.93v.13l-1.59.53-.53,1.46.53.79,1.46.27.53-2.78.93-.4.53-.79-.13-.13-.13-.26-.93.26ZM696.6,103.53l-.13,1.99-.93,3.18-.66,2.12-1.46,2.91-.8,2.12-1.19,3.04-.79,2.12-1.06,3.18-.66,2.12-.93,3.18-.66,2.12-1.19,2.91-.79,1.59-.93.79-1.59.26-1.85.13-3.71-.26-3.84.26h-1.85l-1.85-.13-1.72-.53-1.06-1.32-.13-1.85.4-3.04.4-2.12.93-3.04.53-2.12.66-3.18.53-2.12.66-3.04.4-2.12.27-3.18.4-2.12.66-3.04.66-1.72,1.06-.79,1.59-.13,3.04-.13h4.9l1.85-.13,3.04-.13h1.85l3.04.27,1.85.53,1.06,1.46ZM673.58,114.92l-.4-.13-.26.13-.4-.13v.53l.4.13.4-.13.27-.4ZM673.84,112.93l.4-.13.4-.66-.26-.79-.79.79-.13.66.4.13ZM685.62,111.87l.4-.53-.4-.27h-2.52l-.66.4-1.32-2.38-.53.27-.13.53-1.59-.93v.53l-.26.4-1.19-.26v.13l.93.4.4.66-.13.93-1.46.79-.66-.66-.27,1.32-1.99.53,1.19.53.79-.8.53-.13.26-.4,1.19.4.26-.13,1.06.4-.13.26-1.59.66-.13,1.19.66.26v.13l.13.13-.26.53.13.53.66-.26.13-.8.66.13.27.53-.4.66.53-.13.26-.4v-.13l.53.4v.53l-.93.79-.66-.13-.27.4.79.13.66,1.32-.4.27v.53l.4-.26.27-.93-.27-.27v-.26l.13-.13-.4-.27h-.4l.13-.4.4-.13.27-.4v.66l.66.79h.26l.13-.26-.26-.4v-.26h.53v-.4l-.27-.26.4-.27v.13l.53.4-.66,2.38.53-.66.93.26.79-1.32.13.27.4-.13-.53-1.59-.79.13-1.32-.79v-.13h-.4l.13-2.25-.4-.4-.27.27v.53h-.4l-.27-.26.13-.53-.27-.4h-.53l-.26-1.32.26-.27v-.26l.4-.26.13-.53.4-.13.26.26.13.53.27-.26.4.13.4,1.85.79-1.46.4.13.53-.13.66.4.66-.4h.27ZM675.56,123.78l-.13-.26-.26-.13h-.27l-.13.66.27.13.53-.4ZM674.9,108.7l.13.93.4.26.66-.26.13.13-.4-1.59.4-.4.13-.53h-.13v-.13l-.4.4-.13.66-.79.53ZM675.56,110.81h-.4l-.13.26.26,1.46.4-.4.13-.79-.27-.53ZM677.28,120.21v-.13l.66.13.93.4.26-.13v-.13l-2.25-1.72h-.53l-.13.66h.27l.26-.27-.26.53h-.13v.13h-.26l-.26.27-.4-.13v-.13h-.26l.26,1.32.4-.26v-.4h1.32l.13-.13ZM675.96,115.71l.53-.27-.93-.13.4.4ZM675.56,117.43l.53.93.26-1.59h-.53l-.27.66ZM676.22,105.52l.13.4.4.13-.4-.66-.13.13ZM677.28,110.68l-.79.4.66.27.79-.27-.66-.4ZM677.15,122.33l-.27-1.19-.4.66v.53l.4.13.27-.13ZM677.02,107.77l.27.93h.26l.13-.27-.13-.79-.26-.13-.27.26ZM680.06,121.4l-.4-.66-.13.66-.13,2.12-.4.26-.53-.13v-.4l-.53-.13-.27.13v.93l-.4.53v.4l.79.13.26-.26.93.13.79-3.71ZM677.68,105.92l.13.13h.26l.26-.26v-.4l-.53.13-.13.4ZM677.94,121l-.13.13.26.4.26-.26v-.13l-.4-.13ZM678.74,130.8l-.13-.13v.13l-.13.26-.26.13-.13.26.13.13.4-.13.13-.66ZM678.74,126.56l-.13-.13h-.13l-.13.13h-.13l.13.13v.13h.27l.13-.26ZM678.47,108.3l.27.4.13-.13-.13-.66-.27.4ZM678.87,122.46h-.26l.13.4.4-.13-.26-.27ZM679.53,129.08h-.26l-.13.13v.26l.13.13.26-.26v-.26ZM679.4,108.43l.4.53.66.13.27-.4-.27-.79.13-.53.4.26h.26v-.53l-.4-.53-.4.4.13.4-1.19.53v.53ZM679.66,106.31l.66-.79h-.26l-.27.27-.13.53ZM681.25,122.59l-.79-.13-.13.53-.13.79.4-.13v-.4l.66-.66ZM681.12,125.9l-.4-.4.13.4v.26l-.27.27v.26h.27l.26-.79ZM680.85,105.92l.13.13h.26v-.4l-.13-.13h-.13l-.13.4ZM682.31,121.8l.13-.13-.79-.53-.79.4,1.46.26ZM682.05,123.25l-.4.13-.13.26h.4l.27-.26-.13-.13ZM682.71,129.74l-.66-.4-.4.13-.13.4,1.19-.13ZM682.57,131.06l-.13-.13-.4.13.26.27h.26v-.27ZM683.5,124.44l-.93.79-.26-.26-.13.4,1.06-.13.27-.79ZM683.1,114.65l-.79,1.46.66-.26.79.53.4-.27v-.13l-.79-.53.53-.66v-.26l-.79-.79-.66-.13.13.4.4.27.13.4ZM682.44,108.17h.66l.79.66.66-.4-.93-.13v-.13l-.13-.13,2.25-1.46-.53-.4h-.53l.13.79-2.38,1.19ZM683.77,121.14l-.66.13v.26l.66-.4ZM683.37,104.2l.13.13h.26v-.53h-.26l-.13.4ZM685.09,120.34l-.66.53.26.66-.66.26.27.79h.13l.26-.26v-.4l.13-.13.27-1.46ZM685.62,115.05l-.13-.13h-.53l-.4.26v.4l.4.13.13.66h-.27l-.13.4v.13l.13.13.27-.27v-.4l.4-.4-.13-.53h.13l.13-.4ZM685.62,109.49l-.53.4.93.13.13-.13-.53-.4ZM686.41,121.4l-.27-.27-.26.13-.13.66.26.27.27-.27.13-.53ZM686.55,120.21l-.26-1.32-.4.66.66.66ZM686.28,115.98l-.27.53.27.26.4-.13.13-.79-.53.13ZM687.21,119.15l-.93-.66.26.53.66.13ZM780.3,167.46l-.13,2.25-.27,2.25-.4,2.12-.66,2.91-.66,1.85-1.19,2.65-.93,1.72-1.59,2.38-1.32,1.59-1.59,1.59-1.59,1.46-2.65,1.72-1.72,1.19-1.99,1.06-1.85.93-3.04,1.06-3.97,1.32-2.12.4-3.31.53-1.99.26-2.91.27-1.85.13-3.04.13-6.35.4h-2.91l-1.85-.13-3.04-.26-1.99-.26-2.25-.4-1.99-.66-2.91-.93-1.85-.93-1.98-.93-1.85-.93-1.72-1.06-4.23-2.91-1.59-1.32-2.38-1.85-1.59-1.32-1.46-1.46-1.06-1.19-.13-.93.66-1.19.53-.66,1.32-1.46,3.71-3.44,1.19-1.46,2.25-3.44,1.19-1.46,1.32-1.46,1.46-.79,1.46.26,1.46,1.06,4.23,2.91,1.99,1.06,1.85.93,3.04,1.46,1.99.66,2.12.66,2.12.4,3.04.13,2.12.13,8.34-.53,2.12-.26,1.06-.27,1.98-.79,1.72-1.06,1.32-1.32.66-.93.79-1.98-.13-2.25-.27-1.06-1.06-1.85-.66-.79-1.72-1.32-1.06-.4-1.99-.79-2.25-.53-2.25-.4-12.57-1.19-3.97-.79-2.12-.53-2.91-1.06-1.99-.66-1.99-.93-4.5-2.25-1.72-1.19-1.99-1.19-1.72-1.19-2.25-1.85-1.19-1.72-1.19-1.99-.79-1.99-.93-2.78-.4-1.99-.4-2.91-.26-4.23.13-2.12.26-3.18.4-1.99.53-1.72.66-1.98,1.32-2.91.93-1.85,1.06-1.59,1.32-1.46,2.12-1.99,1.72-1.32,1.72-1.19,1.85-.93,2.51-1.46,3.97-1.59,1.99-.66,3.04-.53,2.12-.4,3.97-.53,2.91-.53,2.12-.27,1.99-.13h2.12l3.97.4,1.99.26.93.27,2.12.26,4.5.79,2.25.53,2.12.66,2.25.66,2.12.79,1.99.93,1.99.79,2.51,1.46,1.85.93,1.72,1.19,1.19,1.19v1.32l-.79,1.46-1.46,2.65-1.06,1.59-5.03,6.62-1.46,1.85-1.59,1.32-1.06.4-.93-.13-1.32-.66-1.99-1.19-1.98-.8-.93-.4-1.98-.66-1.06-.26-2.25-.53-3.04-.66-2.12-.13-3.44-.27h-3.44l-2.25.13-2.25.4-2.12.66-.79.4-1.59,1.19-.66.79-.93,1.85-.27,2.12.4,1.72,1.06,1.72,1.46,1.32,1.59.79.93.4,1.99.4,3.31.4,4.5.26,2.25.4,4.5,1.06,4.23,1.32,3.04.66,1.99.53,3.71,1.32,2.65,1.19,1.85.93,1.85,1.06,1.72,1.06,3.84,3.18,1.46,1.59,1.32,1.59,1.59,2.38,1.06,1.72.93,1.99.53,1.99.53,2.91.27,1.99.13,2.25ZM708.18,175l-.13.13h-.13l-.13.53.4.53v-1.19ZM709.63,135.69l-.4.13-.26,1.06.53.26-.13-.79.27-.4v-.26ZM709.63,127.89h.4l.13-.13v-.27l-.13-.13h-.26l-.13.53ZM709.77,117.83l.13.26h.4l-.27-.53h-.26v.27ZM710.43,139.53l-.27-.26-.26.26.13.4h.27l.13-.4ZM710.69,115.98l1.19,2.65.26-2.52-.4-.53-.79-.13-.27.53ZM710.69,131.59l.4.4.93-.13.13-.27-.4-.4-1.06.13v.26ZM712.41,139l-.66-.79-.4-.13-.26.27.53.79v.53l.8-.66ZM711.49,127.89l-.13.13v.27l.26.13h.27l.13-.13-.13-.27-.4-.13ZM711.49,113.99l.53.27v-.13l.13-.26,1.46-.13-.93-.53-1.19.79ZM711.62,124.71l.27.13v-.4l-.4-.26v.4l.13.13ZM713.47,180.56l-.53-.4v-.53l-.26-.13-.79.93,1.59.79v-.66ZM712.68,116.37l.4-.27v-.13l-.53-.13-.13.4.26.13ZM715.72,129.74l-.53.13-.4-.13-.4.4h-1.06l-.26,4.37.66.27-.27-2.52.4-.4.53-.13.27.53.93-.13.13-2.38ZM713.47,118.75l1.19-.26.13-1.06-.26-.13-.53.66-.53.79ZM727.76,109.62l-.26-.79.79-.4h.79l.27-.26.53-.13v.79l1.46.93.13.4-.27.66v.4h.13l.13.13.53-1.85,1.06-.13v1.59l-.13.13v.27l.4.26.4-.93.66-.4.13.13h.13l.27.79,1.46,1.32,1.46-.13.79-.93-.4-.66-.79.66-.66-.13v-.27l.53-.4.13-1.32,2.12-.66-1.59-.66-.27.53-.93-.27-.53-.53h-.66v1.46l-1.19.93v-.13l-1.85-1.46.4-.8-.66-.79-.4-.13v-.13l-.79-.4-.53,1.06-1.32-.93-.79.4-.53-.26-.66.26.13.53.4.26-.13.53h-2.78v.26l-.4.66-.93.4-1.19-.79-.4.26-.4,2.78-1.32.66-.4-.26-.4-.79.13-1.85-1.85.13-.13.13-.93-.13-.8-.53-.4.66.93.27-2.38,1.98v.53l.26.27h.27l.66-.53-.13-.4.66-.93,2.38-.4.26.27-.13.4.26.4-1.19,1.06,1.46-.53,1.32.93,1.85-.79.4.26.53-.4.4.26,1.32-.4.53-.93,2.65-1.46ZM715.46,136.09h-.13l-.27.26v.26l.27-.26v-.13l.13-.13ZM716.51,116.77l-.93.13v.13l.13.13h.4l.4-.4ZM718.63,181.88l-.53-.26-1.19.26-.4-.66-.4-.13-.27.27.13.66,2.51.13v-.13l.13-.13ZM718.5,116.37l-1.32-.93-.66-.53-.53-.13.26,1.19.79-.4.4.93,1.06-.13ZM717.97,143.1l-1.32,1.32.53.13.8-.4v-1.06ZM716.91,179.5l.13.13h.27l-.13-.66-.26.27v.26ZM718.37,190.22l-.4-.13h-.53l-.27.26.27.53.93-.4v-.27ZM718.9,114.65l.4-.26-.26-.4-.79-.4-.26.53.26.53h.66ZM718.1,107.9l.4.4h.27v-.4h-.27l-.13-.13-.26.13ZM719.69,136.22l-.53.4-.26.66.13.13h.26l.4-.4v-.79ZM721.94,114.65l-.4-.13-1.06.66.4.53,1.06-1.06ZM723.53,146.55l-.4-2.51-.13-.13.13-.93-.13-.13-.13.53-.79.4-.13-.13v-.4l.13-.13-.13-.13h-.13l-.93,1.06.53.13.13-.13.53,1.06h.27l.66,1.46.26.13.26-.13ZM721.28,118.36v.13h.13l.13.13.13-.27v-.4h-.4l-.13.26.13.13ZM721.41,106.18l.4.4,3.57.53.93-1.19-4.37-.13-.53.26v.13ZM721.54,139.66l.66-.13-.27-.26-.26-.13-.13.13v.4ZM723,151.84l-.79-1.19.4-.4h-.26l-.13-.13h-.27l.13,1.32.93.4ZM724.06,117.17l-.4.26-.53-.13-.4.26.13.53.66-.13.4-.4.13-.4ZM724.06,114.65l-.53-.26-.4.4v.53h.66l.26-.26v-.4ZM725.51,184.92l-.4-.4v-.4l-1.99,1.06v.26l1.72.4.53-.4.13-.53ZM724.06,111.08h.53l-.4.27-.53.26-.4-.13.13-.13v-.13l.53-.13.13-.13v.13ZM725.38,193.39l-.4-.4-.66-.13-.13.13-.53-.13-.27.26.27.4.66-.13.53.4h.4l.13-.13v-.26ZM725.25,116.77l-.27-.4-.26.13-.13.4h.53l.13-.13ZM725.65,109.75l.13.13v.27l-.66.26v-.4l.53-.27ZM725.51,120.08l.13.13.53.13-.26-.53-.4.26ZM727.37,116.51l-.53-.27-.79.53h-.4l.66.66,1.06-.93ZM726.04,113.33l.26-.26v-.53l-.53-.13v.53l.26.4ZM727.76,188.76l-.4-.13-.27.13-.13.27.13.53.27.27.4-.53v-.53ZM733.98,147.6l-.26-1.06-.66,1.19-1.72.93-2.12-1.19-.4-1.06-1.06.93.93.93.4-.27.53.27-.26,1.19.66.93.53-.13.13-.4-.27-.26v-.4h2.12l.26-.4h1.06l.13-1.19ZM729.88,116.51l-.26-.53-1.46.13-.26-.26.13.53.79.66h.66l-.13-.13.53-.4ZM728.56,180.29l-.26-.26h-.26l-.13.4.13.13h.26l.26-.27ZM730.28,113.06l-1.59-1.46h-.27l-.13.26.26.4v1.19l1.06.27.26-.53.4-.13ZM728.42,104.2l.13.53.4-.4.13-.53-.13-.13h-.13l-.4.53ZM730.54,110.55l-1.32-.53-.13-.27-.66,1.06.53.13,1.59-.4ZM728.42,144.03l.53.13.53-.79.79.66h.4l1.19-1.72-.66.66-.66.13-1.72-1.19.26.79-.66,1.06v.27ZM728.95,115.05l.26-.13.4-.53-.13-.13-.66.26.13.53ZM729.09,105.12l-.13.4v.4l.26.13.13-.13v-.53l-.27-.26ZM730.28,193.26l-.26-1.19-1.06-.4.13,1.85.53.26.53-.4v-.13h.13ZM730.28,183.73l-.4-.13-.4.13.4.13.4-.13ZM729.75,103.8l.27.26.4-.66-.13-.13-.4.26-.13.27ZM731.87,115.84l-.4-.4-.13-.26-.13-.13.27-.53-.4-.26-.4.4.26,1.19.66.53.26-.53ZM733.45,113.99l-.13-1.46-2.25.27.13.53,1.85.66.13.4.26-.4ZM732.26,105.92l.79.26h.26l1.19.13v.66l-.26.27v.26l.26.13.26-.4h.27l1.19-1.06-.13-.66h-3.44l-.13.27-.26.13ZM735.44,194.98l-.4-.26-.66-.13-.53.4h.93l.53.4.13-.4ZM735.97,113.33l-1.72-1.46-.27.53.27,1.06,1.19.27.53-.4ZM734.38,103.53l1.85-.13.53.4.66-.13-2.12-.79-.93.66ZM737.56,113.99l-.26-.53-.4.13-.53.66-.13.53.4.53.79-.13.13-1.19ZM737.42,106.31l-.26.27.13.13.53-.13v-.4l-.4.13ZM738.35,192.33l-.13-.53-.66-.13h-.4l.13.53.13.13v.13l.53.27.4-.4ZM737.69,104.99l.13.13.26.13h.26l.13-.27-.13-.26-.53-.13-.13.4ZM738.62,106.31l-.53,1.06.4.26.26-.13.4-1.32.53-.53h.93l-.27,1.59-1.19,1.06,1.19.27,1.19-1.06v-.4l2.38-1.85.53.4.13.66-.4.8.93,2.78-.66-.53-.26-1.19-.53-.26.26.93-1.19.66.66.79.53-.26.13.66-.66.13-.27.79-.93.53-1.59-.27.93-1.32-1.32-.13-.26,1.06h.13l.13.13-1.32,2.25,1.72,1.72v-.8l1.59-.53-1.72-.66v-.79l.13-.13h.13l.26.27.26-.13v.13l2.25.4.53.53.13.66.93-.66.53.13.53,1.06.27-.4.66.4-.13.93-.13.13v-.13h-1.06l.4.4.66.13.13.13v.13l.4-.53.13-.13.13-.26.26.53-.4.93.27.53,1.19-.13-.53-.4v-1.06l1.59-.66.66-1.06-.27-.26v-.13l-1.46-.79-.13.13-.53.27-.4-.13v-1.19l-.53-.66v-.13l-.53.53-1.06-.27v-.79l.53-.26-1.19-.93h.79l.53-.4-.4-.53.13-1.06h.53l.27.4.66.27.13.53-.27,1.06h.13l1.46,1.19-.13-.13v-.13l1.19,2.12.66-.13.66-1.32v-.13l2.38-.13-.13-.4h-.4l-.13-.13-.13.13-.13-.13v-.13l.4-.4v-.53h-4.1l-.13-.66,3.71-.93-5.03-5.42-.53.13v.13l.13.13h.13l.4,1.19-.26,1.19h-.4l-.53-.13.13-.66-1.06-1.19h-.93l-.53.4-.79.13-.4-.26-.66.13.27.4h.4l.53.79-.26-.27-.66.13-.13-.13-1.59.53-.93-1.19-.79-.4-.13.53v.53l-.53.27v1.06ZM739.01,148l.66.13.53-.27.13-.4h-1.19l-.13.13-.4-.27-.4.13.27.4h.4l.13.13ZM739.01,110.28h.13l.13-.4-.27-.13-.26.27.26.26ZM740.73,148.93l-.4-.13-.66.4.13.4.8.13.13-.79ZM741.4,116.77l-.13-.53h-.13l-.26.13v.53l.53-.13ZM741.53,110.15l.53-1.32.93-.4h-.13l-.93-.26-.79,1.19.4.79ZM741.79,153.69l-.26-.13-.27.27.13.4.4-.53ZM743.51,152.9l-.27-.13h-.26l-.13.27.26.4.27-.13.13-.4ZM743.64,116.11h-.26l-.13.13.13.4h.13v-.13l.13-.4ZM745.89,105.39l-.53.4v-.66l.53-.27v.27l-.13.13v.13h.13ZM746.29,107.24l-.93-.66.27-.4h.4v.13l.13.27.27.13-.13.53ZM745.89,118.22l-.13-.53-.4-.66.13,1.19h.4ZM746.56,146.15l.4.26,1.06-.26.53.13-.66-1.46-.53-.13-.66.66-.13.79ZM748.94,150.25l-.93-.27-1.06.53,1.06.66.93-.13v-.79ZM748.67,187.57h-1.06l-.13.13v.26h.53l.66-.4ZM750.13,144.16l-.93-.4h-.93l-.13.4.27.4,1.72-.4ZM750.92,186.11l-.13-.79h-.26l-.27.27.4.53h.26ZM751.05,116.11l-.4-.4-.13.4.13.4.4.13v-.53ZM751.32,150.52l-.79.4.4.53v.13l.4-1.06ZM754.23,116.64l-1.06-1.59h-.4l-.4.53.53,1.32-.4.79-1.85.13.13,1.32-.13.13.13.13v.13l3.44-2.91ZM751.05,116.9l.13.4h.26l.53-.53-.27-.4h-.13l-.53.53ZM752.78,154.88l-.4-.53h-.93l-.13.27.26.4,1.19-.13ZM754.1,113.33l-.27-.4-.13-.13-1.32-.53v-.13h-.4l-.53.79.13.93,1.46.79,1.32-.26.4.4v.27h.26l.66-.93v-.26l.93-.53v.13h.13l.4.53.79-.4v.13l.66.26.79-1.85-1.32-1.72v.13l-.93.13.13-1.32-.66.53-.26,1.06.53.66v.66l-1.06.26-.13.66-1.19-.13-.4.26ZM753.04,147.21l-.13-.26-.93-.13-.4.4.13.27.13.4.66.27.27-.27v-.4l.26-.27ZM754.36,186.11l-.93-.79-.13-.13v-.13l-.8.4-.13.53.13.13h.4l.4-.26,1.06.26ZM756.09,120.21l-.66-.79.13,1.46h-.53l-.79-.93v-.27l-1.32-.53-.13,1.06.93-.66,2.38,2.65v-1.99ZM754.1,192.73l-.27-.4h-.79l-.13.27.13.4h.27v.13l.66-.13.13-.26ZM770.25,180.42l-.8-.13-1.46.53-1.46-1.85-.4,1.06.66,1.72-.53.93-1.06-5.03-.79-.13-.13-.13h-.13l-1.19-.79-1.99,1.06.53,1.19-.26,1.19-1.06-1.32v-.13l-.26-.4-2.91-1.19-.93-1.46.66-1.06.66-.13.27.66.53.26.53-.26-.79-1.19v-.26l1.32-.53-1.19-.93-1.06.26-1.19,1.19-.26,1.72-1.46,1.59-.93.27.53.79,1.59-.66.66.26.93-.26,1.85,1.32v.93l.93.53-.27.26,2.25,1.32.66-.26.27-.53-.13-.26,1.85.26.93,1.19-1.06,1.06-.66-.4-.13-.53-.27-.13-.13.13v3.97l-.26.13-1.59-1.06h-.66l-.4-2.12-.93-1.06-1.46.93v.13l-.27.4.13.79.66.4.66-.26-.13-.4.4-.4,1.32,2.51.79.13.4.93,1.06.26,2.91-2.78h.13v-.13h1.19l1.46-1.19v-.13h.13v-.13l.27-.26.4.26.4-.13v-.66l-.53-.53v-.26l1.19-1.06ZM756.48,185.06l-.53-.53-1.46-2.38-.66-.13-.26.4,1.59,2.38.66.26-.26.66.13.53.79-.4v-.79ZM754.23,188.76l-.13-.13-.27.13-.26.53.53.13.13-.66ZM756.61,181.09l-.53-2.12.4-.26-.13-.4-.4-.13-.13.4-.79.66-.66-.27-.4.27-.26.79.13.26.27.13.53-.13,1.99.79ZM754.76,119.02h.4l.66-.13-1.19-.26.13.4ZM754.76,149.19l.66,1.19h1.06l-.93-1.46h-.53l-.26.26ZM755.16,182.15l.53.13v-.26l-.26-.4-.4-.13.13.66ZM756.75,116.64l-.26-.4-.66.66.13.53-.13.13.53.13.4-1.06ZM756.75,151.97l-.13.13,2.25.53.4.66,1.06.4.26-.13-3.44-2.65-.53.4.13.66ZM758.33,187.57l-.53-.27-.79.66.13.4.4.13.79-.4v-.53ZM759,117.43l-.27-1.19h-.53l-1.06,1.46.66.93.53-.27.66-.93ZM758.2,163.48l-.26.4,1.32.53v-.66l-.4-.4-.66.13ZM759,159.52l-.27-.4h-.26l-.13.13v.13h.13l.53.53v-.4ZM758.6,171.95l1.32.93.79-.27-.4-.93-1.06-.13-.66.4ZM759.26,161.23l-.53-.26.13.66.4-.13v-.27ZM759.39,167.46l-.26.66h.66l.13-.13h.13l.4-.53-.13-.26-.27-.13-.66.4ZM759.39,170.37l-.26.4,1.99.13-1.72-.53ZM759.79,168.91l.53-.26v-.13l-.8.13.27.26ZM760.19,164.01l.4-1.06-.26-.66h-.27l-.26.13.4,1.59ZM759.92,119.68l.26.66.4.4.53-.13.13-.66.26-.13-.26-.53-1.06.13-.26.26ZM761.38,174.34h.4l.13-.13h.13l.26-.27-2.38-.79.66.66h.13l.66.53ZM760.19,169.84l.27.53.4-.26-.13-.27h-.53ZM760.98,175.4h-.4l-.26.27v.26l.53.4.4-.13v-.4l-.27-.4ZM760.58,117.43l.4.79.4.13h.26v.13l.13-.13.13-.53-.4-.79-.93.4ZM760.98,165.21l.27.26.26-.13.13-.4-.4-.13-.27.13v.27ZM761.25,161.5l.4.4.27-.53-.27-.53h-.26l-.13.13v.53ZM761.51,168.25l-.26.93.93.53v-.79l-.13-.13-.13-.93.13-.13-.4-.4-.13.66-.13.13v.13h.13ZM762.3,172.88v.4l1.06,1.46h.26l.13-.13v-.53l-.93-.66-.13-.66-.13-.13v-.4l-.27-.4-.53-.13-.4.13-.13.4.13.13v.26h.53v.13l.4.13ZM761.51,183.47l.4.13.26-.13.13-.53-.53-.53-.4.13-.13.53.26.4ZM761.51,152.77l.93.53,1.06-.13.4-.53-.4-.79-.4-.13-.26.4h-.53l-.4.27-.4.4ZM762.17,170.5l-.13-.13-.4.27v.13l.27.26.4-.26v-.27h-.13ZM762.04,120.08l.66-.13v-.27l-.4-.13-.26.53ZM763.23,165.34l-.8.26-.4.93h.13v.13h.13l.13.26h3.44l-.26-.53-2.38-1.06ZM763.36,159.91l-.4-.13-.53.13.4.4h.4l.13-.27v-.13ZM763.36,164.15l-.27.4h.53v-.13l.13-.13-.13-.13h-.26ZM764.29,171.43h-.26l-.53.53h.66l.4-.26-.27-.26ZM771.04,171.82l-1.59,2.65v.13l-1.72.93-3.04-3.31-.66.26-.4.53v.13h-.13v.13l.93,1.19.66-.26.66.4-.93,1.46.53,1.32.66.13.26-.4-.26-.53.26-.53,2.78.4.53-.79,1.32-.13.13-.93v-2.78ZM765.08,169.31l-.79-1.72-.26.93.4.13-.13.93-.26.13,1.06-.4ZM765.48,163.88l.13.26.13.13.27-.26v-.26l-.13-.13-.4.26ZM766.27,170.37l-.79.93,1.59-.13.26-1.72-.79-.79-.53.4.26,1.32ZM766.14,164.68l-.27-.13-.26.53.13.66.79.53.13-.4h.27l.13-.27-.26-.4h-.13l-.53-.53ZM767.33,178.04v-.4h-.4l-.27.4v.26l.66-.26ZM766.94,163.88l.4.53.53-.13.13-.13-.13-.53-.93-.27v.53ZM767.86,167.72h-.4l-.27.27h-.13v.13l-.13.13,1.72,1.99h.13l.13-.13-1.06-2.38ZM769.58,170.63l-.79.66-1.59,1.85.53.53,1.32-.13.79-1.85-.26-1.06ZM768.92,162.96l.4.13.13-.4-.13-.26-.26.13-.13.4ZM200.08,125.56c2.5,0,4.96-.36,7.5-1.1,7.55-2.2,17.11-11.01,18.61-22.46l-.28.09-2.25.8-3.97,1.85-1.85,1.06-1.72,1.06-4.23,2.91-1.59,1.32-1.72,1.46-1.59,1.46-1.59,1.72-1.46,1.85-1.32,1.72-1.19,1.85-1.19,1.99-1.06,1.99-.19.41c.36.02.73.04,1.1.04ZM282.15,183.07l-.66-.66-1.19-1.59-3.57-4.1-1.32-1.59-2.12-2.65-1.32-1.46-.53-.79-1.46-1.32-1.46-.93-1.19-.27-.79.27-1.32.93-1.72,1.32-2.52,1.59-1.72.93-1.99.93-2.12.93-3.31,1.19-1.99.66-1.06.26-1.85.4h-3.04l-3.18-.13-2.12-.4-2.91-.79-1.98-.79-2.65-1.32-1.72-1.19-2.51-2.12-1.46-1.59-1.99-2.91-1.06-1.99-.93-2.25-.66-1.99-.66-3.04-.13-1.99-.13-3.31v-2.12l.26-3.97.27-1.99.4-2.25.66-2.12.79-1.98.93-1.85.93-1.72,1.19-1.85,1.59-1.72.93-.8,1.85-1.32,2.65-1.32,1.72-.66,1.99-.79,2.91-.93,2.12-.53,2.91-.27h2.12l3.31.27,1.99.4,2.91.79,1.85.66,2.91,1.32,1.72.93,2.51,1.85,1.46.79.93.26.93-.13.93-.4,1.19-1.06.66-.66,1.46-1.59,2.25-2.65,1.46-1.46,1.46-1.19,1.46-1.32,1.46-1.46,1.19-1.46.79-1.06.13-1.06-.27-1.06-.93-.93-.79-.66-1.46-1.06-4.1-2.91-3.44-2.38-1.85-1.06-2.91-1.72-1.85-.79-4.63-1.32-3.04-.53-1.85-.4-4.9-.66-2.91-.13-1.99-.13-2.91.27-4.1.26-2.25.26-.68.12c-.11,4.51-1.12,9.2-2.9,13.21-.77,1.72-1.71,3.34-2.79,4.88l4.51-1,.27,1.19.53.27.26.93-2.38.53-.4-.26-.13-.66.53-.4-.27-.53-.53-.26-2.38.79v.13h-.53,0c-2.98,3.97-6.98,7.2-11.62,9.45l.5.87-.66.4h-.4l-.13-.26-1.75.07c-2.83,1.11-5.84,1.87-8.98,2.22-1.13.12-2.29.19-3.45.19-1.67,0-3.32-.14-4.95-.36l-.05.13-.66,1.85-.66,1.99-.53,1.98-.53,2.91-.4,1.98-.13,2.12-.27,4.5v2.25l-.13,2.12-.13,1.99.13,3.04.26,1.99,1.32,3.97.93,2.65,1.98,5.56,1.32,2.78.93,1.85,1.06,1.85,1.19,1.85,1.46,1.99,1.46,1.72,1.59,1.59,3.44,2.91,1.85,1.19,1.72,1.19,1.59,1.19,2.52,1.46,1.72.79,2.91,1.06,5.95,1.59,1.99.66,2.25.53,2.25.4,2.25.26,2.25.13h6.88l3.31-.26,2.38-.13,4.63-.53,3.31-.66,2.25-.4,2.25-.66,1.99-.66,3.04-1.46,1.72-.93,2.65-1.46,1.59-1.06,2.52-1.85,1.59-1.19,2.38-2.12,1.06-1.06v-.79l-.66-1.19ZM238.08,113.86l.53-.13-.13.53h-.4l-.13-.27.13-.13ZM231.07,116.37l-.26-.13-.4-.93.26-.4h.27l.53.93-.4.53ZM234.25,112.8l.27-.13.4.27-.13.26-.26.13-.27-.26v-.26ZM234.25,114.65l.27-.13.26.13-.13.53-.26.13-.13-.13v-.53ZM221.94,126.16h.26l.79,1.06-.93-.26-.26-.53.13-.27ZM203.41,148.27h-.4l-.26-.4.4-.13.27.13v.4ZM204.6,150.12h-.53l-.13-.26.13-.26.26-.13.26.13.13.26-.13.26ZM205.93,160.44l-.4-.13-.53-.79.13-.53.4-.13.53,1.06-.13.53ZM212.28,151.97h.93l.66.66.13.53-1.06.66-.4.26-.53-1.72.26-.4ZM211.75,156.47l1.19-.13.13.13-.93.13h-.4v-.13ZM212.81,159.38l-.79,1.59-.66-.79.66-1.32.53.13.26.4ZM207.25,135.43l1.06-.66.53.4.66.13.4-.53-.4-.53,1.19-.79.66.53.13.66-1.06.27-1.85,2.91,2.25,1.99-2.25-.13-.13-.13.13-.93-.4-.4.13-2.25h-.4l-.26.27-.4-.27v-.53ZM208.84,156.87l-1.06.13.4-.4.66.26ZM208.44,146.81l-.4.13-.4-.26-.13-.4.27-.4.4-.13.27.27.13.4-.13.4ZM207.51,153.96l.13-.66.79,1.06-.13.8-.66.13-.4-.79.26-.53ZM208.04,171.82l-.93-.13-.53-.66.4-.26h.66l.4.4v.66ZM208.17,167.06l-.4-.26-.13-.53h.26l.4.27-.13.53ZM209.5,163.09l-1.06-.4.79-.53.93.13-.66.79ZM210.03,145.22l-.13.13.26.53-.13.4h-.4l-.27-1.19.13-.13v-.53l.4-.26.26.4-.26.4.13.27ZM210.69,169.44l-.26-1.06.26-.13h.26l.13.66-.4.53ZM211.09,164.81l-.13-.4.27-.13.13-.26-.79-1.72h.26l.53-.53.53.13.4,1.19-.4.66-.13.13v.53l-.4.4h-.26ZM212.68,167.85l-.53-.13-.4-.4,1.06.13-.13.4ZM213.07,164.68l-.53-.13,2.12-.66v.13l-1.59.66ZM214.26,153.69l.4-.27h.53v.79l-.26.79-.66-1.32ZM215.32,172.09l-.53.13-.13-.27.13-.26h.26l.27.13v.27ZM215.98,174.07h-.26l-.13-.53.13-.13h.13l.27.13-.13.53ZM214.79,136.89l.13.79.66.79-.93-.26-.79-1.59.79-.79-.79-.79.13-.4.66.13.79.66.93-.27-1.59,1.72ZM269.05,180.69l-.66,2.65-.4.93.4-1.72-.4-.66h-.13l-1.06.93.27-1.06,1.99-1.06ZM264.29,175.26l1.32-.53.4-.93.66,2.38,1.85.13-.79.66-1.59.13-.27-.27-.26-1.19-1.06.4-.26-.13-.13-.26.13-.4ZM266.67,184l-.4.27-.27-.53v-.79l.53.53.13.53ZM263.89,177.12l.53-.27.53.4-.13.66-.53.53-.26-.13-.13-.4h-.13v-.13l-.53-.4.27-.53.4.27ZM262.7,175.79l.26-.13.4.66h-.66v-.53ZM263.1,180.56l1.06.13.4.4-.26,1.19-1.19-.26-.53-.27-.13-.53.66-.66ZM264.68,183.2v.66l-1.59-.4.27-.53,1.32.26ZM261.51,177.64l.53-.13.13,1.46-.79-.79.13-.53ZM258.73,180.16v-.53h.4l1.72,2.78-.13.27-.26.13.53,1.19.93.66v.27l.13.13-.27.13-.26-.13-.53.4-.4,1.59-2.12.66-.79-.53-.13-1.06.27-.26.26.13,1.99-.66-.13-.66.4-.93-.53-.53-.13-1.19-.26-.27-.4.13-.66-.79-.13-1.06.66.93v-.66l-.13-.13ZM244.04,182.41v-.66l.27-.4,1.06,1.06.13.79h.13l.53-.66,1.06-.13-.79-.53h-.27l-.13-.26.4-.4.53.13.8-.27.4-.53.93-.27,1.06.66.53,1.19.53.13.4-.26-.66-2.52h-.26l-.13-.13.8-.4.4,1.19,3.71,2.12-2.25,3.31.53.4,3.04-2.51.4.26v.66h.4l.4-.26.26.26-1.59,1.59v.13l.13.13.4,1.59-.66.53-1.99-.79-2.12-.53-.26-1.72-1.06-.53-.53.13-.13.66.79,1.06-1.32.66-1.59-3.04h.13l-.26-1.46-.53-.27-2.25,3.84-.66.13-1.06-.53,1.32-.93.26-1.72-.66-.13-.79.53-.53,1.46-.26.13-.4-.26.13-.4.4-.13.13-.66.13-1.19.66-.27ZM247.22,186.25l-.79.53-.4,1.59-.53-.79.53-1.19.26-.4.93.27ZM242.72,181.88l.4.13.26.4-.26.27h-.26l-.27-.13-.13-.53.26-.13ZM240.07,179.5l.93.66.4-.13.93.66-.79.13-.53-.4h-.53l-1.46-.26,1.06-.66ZM242.32,183.73v.4l-.79-.13.4-.4.4.13ZM237.55,182.15l3.18.4-.4,1.32-1.99.79v-.4l.27-.4v-.53l-.8-.27-.66-.53.4-.4ZM231.2,177.64l.26.13-.13.26.13,1.06,1.46.79-1.32.53-.66-1.72.26-1.06ZM227.63,175.66h.26l.13.53-.13.13h-.13l-.26-.13.13-.53ZM224.45,172.75l.66,1.46-.79.93.27-1.59-.53-.27.4-.53ZM223.53,182.68l.13.53-.4.13-1.06-.4v-.66l.4-.13.4.4.53.13ZM223.13,179.9l-.13.13v.26l-.4.27h-.4l-.13-.4.27-.4.93-.4-.13.53ZM220.22,170.23l.27-.13.4.26v.27l-.4.13-.27-.13v-.4ZM219.95,127.75l.26.26h-.26l-.26-.26h.26ZM222.47,171.56l.4.4-.13.79-.66.4-2.78-.79,3.18-.79ZM221.94,173.28l-.13.93-.13-.13v-.4l.26-.4ZM218.63,170.76h.27l.13.13v.26l-.27.27h-.13l-.13-.27.13-.4ZM219.03,184.26v.26h-.27l-.53-.79v-.4h.4l.4.4.13.4-.13.13ZM218.9,175.4v-1.32l.79.8.66.79-.27.26-1.19-.53ZM220.09,176.85l.4-.13v1.06l-.4-.4v-.53ZM220.62,178.97l.93-.26-.13-1.06,1.19-.13.26.13-.26.4v.13l-1.59,1.19-.53.79.13-1.19ZM221.28,190.48h-.26l-.27-.4.13-.13h.27l.13.13v.4ZM221.67,186.78l-.53-.53.4-.53.4.13.13.53.66.4h-1.06ZM223.26,187.04l.66.13v.26l-.13.13h-.27l-.26-.53ZM223.79,184.79l.4-.27h.66l.26.66-.4.26h-.53l-.4-.66ZM224.98,189.42l-.13-.13-1.19-.26.4-1.06.26.93.79-.13.13.4.4.4-.66-.13ZM229.61,191.94l-.93.26-.93-.79.13-1.32,1.32,1.06.53.13-.13.66ZM227.63,186.25l.4-.8h.26l.26.53-.4.53-.53-.26ZM229.88,190.22l-.13-.53.26-.26h.4l.26.53-.79.26ZM230.67,188.89l-.26-.53.93-1.99,1.06,2.65-.66-.13-.13.13-.4.13-.53-.27ZM233.98,186.78l-.26.13-1.85-.93v-.26l.79-.53.26.13v.27l1.06,1.19ZM232.79,192.73l-.26.4h-.53l-.66-.93.53-.79v-.53h.66v.13l.4.27-.53.4.4,1.06ZM235.31,191.81v-.53l-1.99-1.32v-.53l.93-.26,1.85.66v-.13h.13l-.93,2.12ZM238.75,191.67l-1.32-.4-.27-1.19.53-.66,1.06.79.66,1.06-.66.4ZM240.73,193.53h-.8l-.4-.53.79-1.32h.53l.26,1.32-.4.53ZM241.79,190.09l-.13.4-1.85-.13-.53-1.19-.8-.4-.13-.93-.13-.13h-.13l-1.46,1.06-.53-.4.26-.27.4-1.72-1.06-.13-1.06,1.59h-.26l-.13-.13.13-.53.66-.53v-.53h-.27l-.66-1.06.4-1.06-.4-.26-.4.26-.66-.53h-.93l-.13.13-.13.66-3.97-.13-1.19-.93-.13-.53-.66-.27v-.66l-1.85-1.19.26-1.32.13-.13v-.13l-.4-.26v-.13l-.13-.13.26-.13.53.13.93-1.19-.26-.13v-.4l.26-.4-.13-.27-.4.27h-.13l.93-.8.26.13v.26l.66-.93-.79,1.32,1.06,1.59-1.85.93-.53,1.46,1.32.79,2.91-1.32.66.13.13,1.06-.13.13-.13.53.4.26.66-.53,1.46,1.32.66.13.4-.27v-1.19l.79.13.4.53h.13l.13.13h.26l.13.4-.13.27.4.66.66-1.06.4.27.79,1.98-.4.79,1.46,1.99,1.32-.66.13-1.72.79-.4.66,1.19.93.26.4-.4,1.72,1.06-1.32-.13-.13-.13-1.06.53-.4,1.59-.53.26v.4l.66.13.93-.53.4.27.13.53-.53.4h-.4ZM243.64,187.97l-.13.26h-.27l-.26-.26.26-.26.4.26ZM246.02,195.78l-.93.13-.27-.26.79-.53.4.13.13.27-.13.26ZM249.6,194.98l-.13.13h-.13v-.4l.13-.27h.26l-.13.53ZM252.24,196.31h-.13l-.4-.53v-.66l.53.4.13.66-.13.13ZM257.93,194.06l-.93-.79-.13-1.06h-.53l-1.19,1.85-2.78.13-.4-.27.4-.13v-.13l1.59-.13-.13-.79-.26-.27-1.19-.26v.13l-.26.4-.93-1.19-.53.13-.66,1.06-.4-.93-4.9-.66-1.06.53,3.97,1.06-2.91.79-.26.79-.53-.66v-.13l-1.32-1.19.4-.79.93-.53.4-1.19-.13-.13.27-1.06,1.46.13v.13l-.53.66v.27l-.4.4,3.04-.4v-.27l.13-.13v-.66l.53-.4.13.13v-.4l-.13-.13v-.13l-.13-.13-.53.4-.79-.53.93-1.19v-.53l-.4-.4.66.27.53,1.19,2.38,1.06-.4.53v.93l1.32-.13.13-.26.26-.13.66.4.27-.13.93,1.32.66-.27.66-.93.93-.4,1.46.27-.66,3.97h.13l.93-.13.53.13.13.53-1.32.4ZM259.52,191.54v-.26l.4.26v.13l-.13.13h-.27l-.13-.13.13-.13ZM261.38,194.98l-.4-.13-.79.26-.66-.4v-.27l.4-.13,1.46.13v.53ZM260.32,192.6v-.27l.27-.26.4.26v.27l-.13.13h-.4l-.13-.13ZM260.71,190.61l-.79-.13-.27-.27v-.26l.8-.13.93.13-.66.66ZM261.77,189.82l-.13-.53.27-.13.13-.27,1.46-.13.26.53-1.32.66-.66-.13ZM264.42,191.54l-1.19.4-.13-.27.27-.26,1.06-.13v.26ZM265.48,190.22v-.13l-.93.4-.79-.13.27-.53.53-.27.27-1.59-1.06-.4-2.38.53-.4-.66.13-.53,2.12-.8v-.26l4.1,1.46.79.13.4.66-3.04,2.12ZM267.73,185.72l.26-1.32,1.19.53-1.46.79ZM269.98,183.6l-.66.4-.26-.13v-.26l.4-.53.66-.4-.13.93Z"/><path class="cls-3" d="M158.39,50.31c.18.22.92,1.11.74,1.36-2.34-.51-4.73-.38-7.11-.44-1.7-1.62-3.74-3.09-5.76-4.3-1.33-.79-2.99-1.38-4.22-2.17-.13-.09-.24.01-.17-.3.88.22,1.77-.22,2.51-.27,5.49-.38,10.52,1.91,14,6.12ZM130.94,46.92c-.22.08-.34.13-.48.33.29.36.73.14,1.12.24,2.79.76,5.66,2.92,8.24,4.24,2.37-.09,4.72-.47,7.08-.47.52-.47-3.37-2.83-3.71-3.01-4.13-2.24-7.69-2.88-12.25-1.33ZM164.23,45.96c-2.5-2.07-5.69-2.22-8.81-2.16-.34.18-.16.26.05.46.4.38.92.51,1.31.8,2.96,2.18,5.37,4.99,8.14,7.15.27.21,1.24.89,1.55.67.26-.96.88-2.57.63-3.53-.2-.74-2.22-2.86-2.86-3.39ZM171.03,72.47c.61.46,1.38.6,2.05.95.06.48-.58,3.9-.75,4.03-.48.06-1.07-.22-1.54-.39-1.66-.58-6.85-2.57-7.77-3.78-.3-.4-1.44-2.52-1.54-2.95-.17-.73.52-1.3,1.06-1.72.93-.73,2.07-1.31,3.29-1.13,2.56.38,3.51,3.73,5.2,4.99ZM165.56,68.95c-1.43-.43-2.51,2.98-.64,3.24,1.33.19,1.53-2.98.64-3.24ZM149.08,168.09c.55.78,1.49,1,2.39,1.14,1.15.18,2.95.34,3.94-.32.73-.48.73-1.94-.43-2.11-1.85-.26-4.32.33-5.9,1.28ZM168.32,44.99c-.45-.07-3.03-.68-3.21-.53-.06.24.1.27.2.41.77,1.01,2.17,1.76,2.65,2.99.37.27,1.73-2.21,2.17-2.38.12-.53-1.53-.44-1.82-.49ZM161.24,166.66c-3.11,1.83,2.74,3.62,3.66,2.03.63-1.09.14-2.21-1.11-2.41-.94-.15-1.74-.11-2.55.37ZM98.16,73.07c18.59-13.52,41.29-21.44,64.43-17.72,1.17.19,2.43.6,3.58.91l.31.37c.03,1.11,0,2.41.17,3.5.12.75,1.54,5.02,1.33,5.26-1.65-.8-4.39-.05-5.94.79-.41.22-1.64,1.3-1.87,1.26-1.34-2.3-2.55-4.84-4.97-6.2-2.15-1.21-3.14-1.14-5.08.37-1.57,1.22-2.56,2.85-3.15,4.73-1.6-1.74-3.25-3.71-5.36-4.83-2.04-1.08-4.43-1.69-6.74-1.83-.8-.05-5.62.26-5.78.91-.25,1.02,1.91,1.81,2.66,1.79.45-.01,1.14-.6,1.78-.65,1.59-.14,4.52.78,5.79,1.76.93.71,1,.71,2.02,1.28,3.2,1.8,3.43,3.92,5.63,6.33.31.34.98.48.89,1.08-1.24.05-2.5-.07-3.74,0-.68.03-1.49.23-2.17.28-1.71.1-3.42-.06-5.1.41.36-.58,1.28-.69,1.9-.68-.24-.68-1.14-1.14-1.08-1.96.1-1.53,2.46-.63,3.04-1.45.91-1.28-.32-2.57-.77-3.7-.24-.6.17-1.02-.75-.67-.54.2-1.3.88-1.66,1.33-.46.57-1.79,3.44-1.98,3.47-.48.08-.79-.78-1.08-1.1-1.51-1.67-3.53-3.32-5.85-3.53-.67-.06-2.45-.09-3.05.08-2.67.75-4.25,5.69-4.91,8.08-1.68-.79-3.17-1.99-5.1-2.17-1.88-.18-7.63.22-9.21,1.12-.11.06-.44.28-.37.37.56.26,3.37,0,3.51.63-.41,1.59-.46,3.38-.86,4.95-.16.65-.72,2.59-1.64,2.04-.62-.37-1.22-1.1-2-1.53-2.58-1.39-6.65-1.58-9.53-1.32-.52.05-1.39.45-1.85.19-.24-.18-.04-.2.07-.34.86-1.11,3.27-2.74,4.47-3.61ZM158.79,60.72c.66.77,2.02.82,2.86.33.66-1.75-1.34-4.7-2.98-2.71-.75.91-.62,1.53.12,2.38ZM142.76,59.27c.49,1.33,1.86,1.48,2.99.83,1.4-.82.68-2.26-.58-2.55-1.06-.24-2.86.46-2.4,1.72ZM115.3,67.3c.05.11,1.16,1.05,1.25,1.07.73.2,2.44-1.64,2.48-2.37.02-.41-.35-1.03-.78-1.12-.91-.19-3.51,1.1-2.95,2.42ZM103.81,74.57c1.22.56,1.27-1.19,1.61-1.93l-.2-.3c-1.14-.35-2.84,1.57-1.4,2.23ZM187.59,170.65c-.3.29-.86,1.29-.66,1.72.22.47,2.86,1.87,3.37,1.75.45-.11,1.46-1.22,1.61-1.68.28-.85-1.03-1.47-1.66-1.75-.86-.37-1.86-.8-2.65-.04ZM194.01,167.48l-.94-2.67-1.02-3.05c-1.64-.87-3.31-1.65-5-2.29-12.46-4.75-24.77-4.45-37.75-2.18-8.03,1.41-15.67,3.07-23.97,4.82s-21.16,1.91-21.16,1.91c0,0,9.6,3.03,39.88-.78,21.08-3.05,35.8-3.57,50.81,6.66l-.86-2.42ZM171.17,166.54c-.77.14-2.03,1.3-1.54,2.14.22.37,2.6,1.45,3.13,1.36.99-.16,2.07-1.43,1.71-2.47-.24-.7-2.61-1.16-3.3-1.03ZM178.57,64.1c-.02.21-.01.24.21.21,2.7-2.24,5.11-4.7,8.33-6.21,4.22-1.97,12.42-2.86,16.92-1.91.97.2,2.05.79,3.09.72-.87-.72-2.05-1.32-3.1-1.79-6.92-3.1-16.41-1.09-21.85,4.1-.9.86-3.5,3.72-3.6,4.9ZM178.54,169.29c-.14.36.11.72.35,1,.4.45,1.98,1.46,2.59,1.41.65-.06,2.06-1.42,1.99-2.1-.05-.48-1.55-1.5-2.02-1.66-1.17-.42-2.48.2-2.92,1.36ZM157.33,68.36c.25.83.31,1.69.62,2.51.26.71.78,1.47,1.05,2.21l-.33.2c-1.81-.73-4.15-.58-5.95-1.13-.95-.29-2.01-1.67-2.63-2.46-.3-.39-1.28-1.57-1.38-1.95-.42-1.59,1.79-4.2,3.33-4.49,2.48-.47,4.69,3.1,5.3,5.1ZM153.98,67.1c.02-.5-.34-1.64-.73-1.93-1.01-.76-2.32,1.31-2.13,2.33.26,1.43,2.81,1.2,2.86-.4ZM90.77,125.13c-.03-.2-.02-.42-.27-.47-.58,1.35-1.01,3.08-1.09,4.55-.08,1.52.13,4.67.79,6,.87,1.74,2.55.87,2.46-.55-.08-1.24-1.03-3.4-1.32-4.81-.32-1.57-.36-3.14-.58-4.72ZM95.61,143.26c.56.28,2.07.73,2.22-.19.12-.72-.32-.72-.6-1.16-.36-.55-.67-1.13-1.05-1.67-.52-.73-2.12-3.07-3.03-3.03-.46.02-.89.93-.89,1.37,0,1.36,2.18,4.06,3.37,4.67ZM95.08,125.58c-2.15-10.24,1.54-13.99,9.48-19.27,1.08-.72,2.53-1.78,3.59-2.39.26-.15,1.53-.76,1.71-.73.24.03.15.21.1.36-.8,2.27-2.15,4.47-2.84,6.81-2.92,9.95-1.92,20.04,4.06,28.62,1.38,1.98,3.68,4.85,6.23,4.98.27-.26-1.13-1.48-1.35-1.74-3.48-4.16-6.04-9.98-7.36-15.04-1.46-5.61-.93-11.46.04-17.1l2.12-6.7-.38-.2c-.28-.37,6.07-3.48,6.57-3.69,1.41-.61,3.48-1.43,4.98-1.69.39-.07.26.42.22.63-.21.93-.94,2.33-1.25,3.37-2.61,8.7-3.17,19.02-1.93,28.08.67,4.87,3.38,12.07,6.52,15.88.95,1.16,2.49,2.19,3.33,3.23.16.2.36.4.34.68-1.15-.04-2.32.06-3.46,0-14.8-.75-27.54-9.03-30.69-24.09ZM116.86,101.28c-1.92,3.95-3.7,8.14-4.59,12.47-1.05,5.11-.65,11.64,1.13,16.62.1.29.96,2.16,1.09,2.18.68.13.52-1.51.48-1.98-.17-2.04-.88-4.31-1.09-6.39-.49-4.74.04-10.65,1.1-15.21.55-2.39,1.66-4.71,2.13-7.11.05-.27.17-.68-.24-.58ZM103.13,134.52c.41.69,1.03,1.31,1.23,2.11.43.12.28-.46.24-.71-.6-3.22-2.12-6.33-2.68-9.55-1.29-7.5.74-12.59,3.15-19.4.05-.14.23-.41.04-.5-.46.15-.75.67-.99,1.05-1.81,2.81-4.14,8.22-4.38,11.52-.45,6.17.31,10.21,3.4,15.5ZM195.73,176.26c1.04-.43,1.12-1.11.29-1.89-1.71-1.61-3.31.54-2.27,1.66.47.51,1.39.48,1.98.23ZM194.2,51.33c.13.27-.22.19-.34.2-6.49.45-11.86,2.58-16.05,7.67-1.34,1.63-3.08,4.99-3.98,6.96-.23.5-.25,1.11-.63,1.55-.22.05-.94-1.14-1.07-1.38-2.64-4.77-3.3-12.03-.98-16.98.72-1.53,1.81-3.82,3.8-3.52,4.09.62,8.53,2.32,12.55,3.49.91.27,6.48,1.57,6.69,2.01ZM179.01,49.67c-1.44-.37-2.54.25-3.49,1.26-1.96,2.09-1.87,5.4-1.57,8.08.22.01.32.05.47-.14.23-.28.57-1.31.91-1.81.45-.67,1.83-2.22,2.56-2.47,1.07-.37,1.92-.47,2.72-1.5,1.05-1.35-.16-3.05-1.6-3.42ZM127.66,170.61c-.15.31.01,1.01.41,1.09.68.13,3.17.04,3.73-.35.41-.29.41-1.69.06-1.81-.73-.24-3.85.35-4.2,1.07ZM100.24,165.82c-1.55-.6-3.29-.88-4.85-1.47-.08.56.57.78.97,1,2.2,1.22,5.28,2.55,7.64,3.51.61.25,3.09,1.3,3.53,1.17.3-.09.53-.48.23-.72-.51-.4-2.77-.96-3.58-1.31-1.38-.61-2.56-1.65-3.94-2.18ZM111.59,171.12c.16.28,2.49.66,2.86.54.54-.16.71-1.12.64-1.6l-3.31-.25c-.32.1-.29,1.14-.19,1.31ZM119.17,171.9c1.25.3,2.54.46,3.82.27l.13-1.98h-3.19c-.06,0-.79.22-.83.26l.07,1.44ZM97.78,89.37c4.37,4.36-1.83,11.57-6.82,7.97-5.21-3.77,1.11-13.67,6.82-7.97ZM94.71,92.17c-.54-.02-1.03-.08-1.45.32-.53.51-.89,1.81-.05,2.19,1.3.59,1.63-1.64,1.49-2.51ZM106.37,58.37c.04-.21.12-.35-.17-.31-.89.12-4.41,2.75-5.02,3.55-.18.24-.39.47-.35.8h3.47c.81-.18,1.93-3.26,2.08-4.04ZM135.92,169.47c-.2.59.22,1.48.87,1.54,1.02-.29,2.88.1,3.59-.75.41-.49.75-1.49-.1-1.67-.75-.16-4.09.08-4.36.88ZM121.78,55.16c.54-1.06.88-2.77.92-3.97.04-.98-.54-1.98.61-2.11.88-.1,2.45-.04,3.36.04,2.95.26,5.84,1.37,8.3,2.98.16.11.69.35.64.58-.12.2-.29.16-.47.22-.99.29-2.39.34-3.48.6-2.81.66-6.45,1.86-9.1,3-.33.14-1.87,1.02-1.98,1.01-.15,0-.21-.23-.14-.41.25-.57,1-1.32,1.32-1.95ZM126.17,53.04c.1.14,1.84.27,2.08.16.48-.22.59-.96.26-1.36-.67-.83-2.88-.11-2.35,1.19ZM132.55,92.17c-5.4.12-13.4,2.95-18.37,5.15-5.88,2.6-14.42,7.3-18.52,12.23-5.95,7.15-11.62,17.59-8.94,27.11,2.81,9.98,8.99,13.62,18.42,16.51.91.28,1.88.39,2.75.79-2.92.15-6.13-.21-9.01-.78-4.27-.85-9.23-2.95-12.64-5.68-2.26-1.81-4.78-5.68-6.41-8.16-2.42-3.68-3.28-6.86-2.93-11.34.12-1.52.71-3.18.81-4.76.29-4.45-.01-9.82,1.13-14.1.2-.74.59-1.41.78-2.15.35-.03.23-.02.27.21.79,4.45,2.3,9.39,2.45,13.86.08,2.24-1.61,5.13-2.14,7.37-.78,3.33-.36,7.02.57,10.24.2.68.62,1.35.83,2.03.31.1.19-.3.2-.48.24-4.6-.98-8.77,0-13.45.42-2.01,1.46-3.79,2.1-5.65.09-.26.3-1.56.36-1.61.06-.06.41.04.67-.21.39-.37,1.18-3.03,1.09-3.52-1.05-.52-1.6-1.53-2.12-2.53-.74-1.41-1.5-3.26-2.03-4.77-.26-.75-.64-1.51-.62-2.3.79.68,1.56,1.38,2.24,2.17.78.91,3.07,4.36,4.21,4.37.92,0,1.79-2.14,2.26-2.78.73-.99,1.76-1.65,2.87-2.13l.79-.74c0-.28-.41-.52-.65-.58-3.47-.95-7.14.24-9.42-3.36-2.21-3.49-2.85-8.94-1.38-12.8,3-7.9,10.44-11.95,18.68-9.93.75.18,2.78.73,3.29,1.19.3.27.78,1.35.95,1.77,1.32,3.36,1.78,8.02,1.7,11.63-.02,1.15-.31,2.44-.41,3.6.2.04.25,0,.4-.1.39-.25,2.06-1.43,2.23-1.71,1.11-1.8.08-3.25,2.19-5.21,4.61-4.26,11.47-7.71,17.39-9.73,6.77-2.32,19.49-3.45,26.36-1.44.31.09.88.23,1.06.51-2.7.73-5.52.68-8.18,1.68-3.15,1.19-6.12,3.56-9.02,5.25-.33.1-.12-.55-.33-.89-.33-.55-2.55-1.04-3.22-1.13-6.15-.88-15.75,3.14-20.31,7.26-.18.16-1.3,1.23-1.09,1.43.26.06.41-.04.62-.13,4.54-1.85,7.91-4.37,12.94-5.54,3.06-.71,5.04-.76,8.12-.58.88.05,1.77-.04,2.65,0-.92.85-2.58,4.03-3.88,4.09-.49.02-1.15-.17-1.77-.15ZM99.09,85.52c-5.1-3.71-11.59-.04-13.18,5.54-2.29,8.03,6.79,14.5,13.23,9.08,4.9-4.13,5.36-10.69-.05-14.62ZM97.83,65.73c-1.16.26-4.56,3.35-5.12,4.4-.33.61-.48,1.4-.83,2.02-.2.36-.91,1.47-1.39,1.21-.31-.17-.17-.73-.47-.62-.84.8-1.38,3.27-2.62,3.5-.39.07-.76-.04-1.13.09l-2.66,4c-3.06,3.89-5.54,7.48-7.53,12.04-1.13,2.59-2.35,5.43-2.72,8.22,1.03-1.21,1.49-2.92,2.22-4.38,2.76-5.57,5.39-10.54,9.62-15.12,5.9-6.4,12.01-11.82,19.52-16.36,1.71-1.04,3.83-1.83,5.44-2.85.19-.12,1.3-.93,1.13-1.11-.48.05-2.61-1.46-2.17-1.9,2.17.72,3.28,1.22,5.39.02,2.48-1.4,5.02-4.36,4.8-7.36-.59.08-1.41-.11-1.97,0-.2.04-2.32,1.07-2.39,1.18-.38.58.29,1.22.22,1.82-.1.82-1.1,1.84-1.92,1.9-1.14.08.09-2.44-.19-2.72-1.43.11-2.5,1.31-3.11,2.53-.38.76-.58,2.03-.91,2.63-.08.15-.66.63-.85.91-.55.83-2.24,4.03-2.8,4.4-.44.29-.69,0-1.1,0-2.12-.05-3.02-.06-4.91.93-.9.47-.54.4-1.55.63ZM224.46,120.31c.74-.78,1.44-1.59,2.08-2.44,0,0,0,0,.01-.01l.13-.17s.04-.06.06-.08v-.07l.06-.02c.12-.17.23-.34.35-.51.42-.61.82-1.23,1.18-1.85.07-.12.15-.25.22-.37.4-.72.78-1.44,1.1-2.16,0,0,0-.01,0-.02,0,0,0,0,0-.01.37-.84.7-1.72,1-2.61.07-.22.14-.44.21-.66.58-1.86,1.01-3.81,1.26-5.79.02-.15.04-.31.06-.46.12-1.01.2-2.02.22-3.02v-.34c.03-1.39-.04-2.77-.21-4.09-.2-1.6-.77-3.25-1.08-4.83-.38-.38-3.36,1.21-3.67,1.68-.31.47.31,2.23.4,2.88.21,1.46.24,2.89.2,4.31l.15-.05-.34,2.61c-.02.19-.07.38-.1.56-.06.38-.12.76-.2,1.14-.11.54-.24,1.07-.38,1.6-.06.22-.11.45-.18.67-.72,2.43-1.77,4.72-3.05,6.84-.03.05-.07.11-.1.16-.4.66-.83,1.3-1.28,1.92-.05.06-.09.12-.14.19-.46.63-.94,1.25-1.44,1.84-.02.02-.04.05-.06.07-1.59,1.86-3.34,3.5-5.17,4.87-.1.07-.2.14-.3.21-.48.35-.97.69-1.46,1-.16.1-.33.2-.49.3-.43.27-.87.51-1.31.75-.19.1-.37.2-.56.3-.43.22-.87.41-1.3.6-.17.07-.35.16-.52.23-.59.24-1.18.45-1.77.62,0,0,0,0-.01,0-.65.19-1.29.35-1.92.49-.23.05-.47.09-.7.13-.4.08-.8.16-1.18.22-.26.04-.51.07-.77.1-.37.05-.75.09-1.11.12-.24.02-.49.03-.73.05-.4.02-.8.04-1.19.04-.12,0-.25.01-.37.01-.11,0-.21,0-.32,0-.44,0-.87-.02-1.29-.05l-2.08-.09.04-.09c-4.42-.57-8.15-2.05-11.49-3.03,0,0-12.93-4.39-19.19-4-6.26.39-6.95,4.99-6.1,6.85-.59-1.88.79-3.93,2.59-4.72,1.8-.79,3.87-.61,5.8-.27,9.71,1.71,19.02,6.68,28.8,7.98.61.08,1.19.14,1.77.19.27.02.54.05.82.07.42.03.83.04,1.24.05.35,0,.7.01,1.05,0,.99-.01,1.98-.05,2.94-.16.69-.08,1.38-.18,2.06-.3.3-.05.6-.12.9-.18.37-.08.74-.15,1.11-.24.39-.09.78-.2,1.17-.31.26-.07.53-.14.79-.22.46-.14.91-.29,1.35-.45.18-.06.35-.12.52-.19,1.12-.42,2.22-.9,3.29-1.43.82-.41,1.61-.86,2.38-1.33.29-.18.57-.35.86-.54.78-.51,1.53-1.05,2.25-1.62.21-.17.42-.34.62-.51.76-.64,1.5-1.3,2.18-2,.1-.1.2-.22.3-.32ZM83.06,215.9c-3.16-1.89-5,.3-2.31,2.78.49.45,2.21,1.5,2.84,1.39.62-.11,1.54-1.48,1.46-2.07-.07-.51-1.52-1.81-2-2.09ZM75.03,211.27c-.17-.03-.27-.05-.38.11-.37,1.04,2.66,3.43,3.34,2.94.13-.09.14-.27.14-.42,0-.64-2.45-2.53-3.1-2.63ZM87.81,219.44c-.31.25-.92,1.79-.86,2.2.14.82,2.54,1.88,3.3,1.67.89-.24,1.82-1.6,1.47-2.49-.35-.9-3.15-2.01-3.91-1.38ZM108.74,225.01c-1.17-.18-3.96-.29-4.35,1.16-.6,2.21,3.59,1.7,4.78,1.11,1.43-.71,1.11-2.03-.43-2.26ZM98,222.57c-.5-.1-2.1-.34-2.45,0-.63.61-.65,2.04.11,2.6.35.26,2.35.9,2.77.9,1.25,0,2.79-1.97,1.97-2.65-.2-.17-2.05-.78-2.41-.85ZM142.59,226.56c5.43,12.51-2.28,26.53-16.62,24.77-10.11-1.24-15.7-12.98-8.03-20.65,5.29-5.29,15.18-3.33,14.21,4.96-.29,2.43-2.79,4.46-5.22,3.72-.3-.09-1.61-.85-1.38-1.21.26-.41,2.07-.95,2.6-2.03.71-1.44-.19-3.11-1.54-3.77-2.62-1.28-5.41.78-6.35,3.23-1.44,3.78.13,8.09,3.64,10.08,5.71,3.23,12.55.31,15.16-5.41,3.26-7.15-1.17-14.89-7.59-18.33-8.98-4.82-17.35-3.92-26.97-5.38-35.35-5.37-58.61-43.21-52.02-77.41,1.38-7.19,4.46-15.99,7.51-22.67,1.41-3.08,4.03-6.3,5.2-9.35.61-1.59.95-3.85,1.48-5.58,4.33-14.03,11.96-25.76,21.97-36.34,1.37-1.45,3.16-3.07,4.68-4.36,19.15-16.19,43.12-24.21,68.25-22.62,12.65.8,25.83,3.49,37.72,7.96,12.6,4.74,28.25,14.24,35.32,25.98.69,1.15,1.17,2.91,2.34,3.58l-.09.27c-8.5,2.86-15.33,8.65-20.9,15.51-3.4,4.18-7.71,10.63-11.97,13.72-1.07.78-1.66.35-2.86.4-10.2.43-18.03-2.96-24.6-10.73-2.75-3.25-4.41-7.19-5.22-11.37-.1-.54.07-1.21-.29-1.72-.08-.11-.2-.18-.34-.21-1.87-.5-3.79-.81-5.67-1.28-3.18-.8-6.32-1.85-9.56-2.4-14.18-2.42-30.69.42-42.27,9.2-.01,0-.02.02-.04.02l-3.02,1.91.02-.91c0-.18.08-.36.22-.48,5.39-4.78,11.93-8.27,18.79-10.5,12.05-3.92,25.98-3.44,37.8.79.91.33,3.04,1.46,3.73,1.57.4.07,1.93-.01,2.17.13.5.3.5,2.17.64,2.77,1.33,5.93,3.26,9.32,7.65,13.43,5.06,4.73,11.46,7.05,18.33,7.25,1.77.05,3.54.13,5.31.21.49-.07,1.1-.36,1.02-.93-.23-.02-.43-.21-.63-.25-2.04-.38-4.4-.28-6.48-.59-13.02-1.91-22.48-9.81-22.78-23.58-.17-7.9,1.47-11.06,7.83-15.54,4.28-3.01,8.62-4.16,13.84-4.24,8.69-.14,16.8,2.93,23.46,8.5,1.7,1.42,3.15,3.28,4.08,5.3l-.21.21c-2.68-2.03-5.14-4.32-8.07-6.07-7.62-4.55-17.61-6.75-26.05-3.18-17.17,7.27-11.06,31.48,5.61,34.22,4.13.68,9.69-.14,12.81-3.16.17-.17.44-.34.4-.61-1.04.41-2.13.81-3.23,1.05-9.39,2.08-17.35-1.16-21.24-10.09-2.17-4.98-2.43-9.53.9-14.06,7.65-10.44,21.72-6.31,31.07-.64,3.36,2.04,6.59,4.19,9.98,6.2.33.19.56.5.84.66.16.09.24.23.39.03.21-.88-.02-1.77-.25-2.62-2.76-10.29-16.61-18.3-25.86-22.13-15.67-6.49-35.08-10.49-52.07-9.93-8.72.29-18.07,2.65-26.34,5.35-1.02.33-2.65.95-3.62,1.39-12.9,5.87-23.92,13.62-33.03,24.6-2.81,3.39-5.91,7.05-8.27,10.76-5.26,8.27-7.85,15.81-10.19,25.29-.16.65-.19,2.75-.92,3.02l-.6-.4c-1.04,2.56-1.62,5.33-1.9,8.09-1.2,11.58-1.31,25.12,2.24,36.22,5.63,17.59,16.88,29.69,32.24,39.4,14.63,9.25,35.29,13.59,42.84,30.97ZM212.69,83.89c-3.07,1.48-6.88,2.76-10.33,2.44-.42-.04-2.59-.42-1.6-1.06.83-.54,2.07-.79,2.29-1.93.18-.94-.37-1.67-1.18-2.1-2.35-1.25-1.53,1.37-2.37,2.69-.14.22-.41.33-.66.27-2.06-.46-4.14-2.26-5.17-4.01-1.24-2.09-1.64-4.86-1.44-7.27.06-.79.74-2.76.69-3.26-.04-.4-.4-.4-.65-.16-.25.24-1.12,2.39-1.28,2.86-3.34,9.47,5.15,16.88,14.23,16.13,2.28-.19,5.96-2.14,7.41-3.91.13-.15.5-.87.07-.71ZM220.23,79.26c-.79.28-1.39.16-2.17-.07-2.88-.86-4.74-3.81-7.08-5.56-3.83-2.86-9.51-4.11-13.9-1.83-.36.19-1.02.49-1.04.93h2.79c3.44,0,10.14,4.85,13.54,6.44,2.17,1.01,5.91,1.74,7.87.09ZM60.37,125.28c.05.41,1.22,1.16,1.7,1.14.32-.01,1.64-.71,1.88-.94.5-.48-.08-.68-.27-1.2-.21-.55-.29-1.17-.38-1.78-.08-.56-.79-.75-1.15-.31-.09.11-.16.2-.2.24-.59.66-1.69,1.94-1.59,2.85ZM58.1,135.27c.32.27,1.33,1.36,1.94,1.87.21.18.51.21.74.07.82-.52,1.47-1.25,2.3-1.76.27-.17.8-.17.48-.47-.13-.12-.47-.21-.66-.4-.66-.66-1.15-1.7-1.48-2.66-.15-.43-.68-.6-1.03-.3-.47.39-.99.92-1.17,1.06-.31.25-1.98,1.37-2.07,1.53-.32.55.61.78.95,1.07ZM56.6,147.54c.37.11.87.44,1.27.5,1.68.25,2.65-.96,4.06-1.44.41-.14.58-.63.33-.99l-2.85-4.07h-.5c-.94,1.56-3.67,3.4-3.95,5.24-.11.72,1.22.63,1.64.75ZM127.39,216.82c-.57-.56-1.42-.79-2.11-1.22-1.09-.69-2.14-1.63-3.29-2.29-1.72-.99-3.66-1.48-5.35-2.4-1.33-.73-2.58-1.87-3.93-2.59-3.69-1.98-7.8-3.4-11.54-5.45-16.35-8.95-30.57-25.03-36.38-42.87-.63-1.95-.89-4.79-2.13-6.43-.98-1.29-1.42.1-1.85,1.09-.11.26-.06.58.17.74.2.15.31.38.41.65.32.85.41,2.04.64,2.89,5.24,19.17,18.94,36.43,36.53,45.71,5.03,2.65,10.43,4.35,15.67,6.49.47.19.54.82.14,1.12h0c-.15.11-.34.16-.53.12-1.89-.4-3.79-.8-5.66-1.32-20.06-5.65-36.69-20.84-44.99-39.83-2.12-4.85-3.75-9.34-3.79-14.71,0-.65.3-1.28.28-2.04,0-.15-.09-.82-.17-1.3-.06-.34-.38-.6-.72-.54-.94.17-1.98,1.2-2.09,1.99-.25,1.78.38,4.56.7,6.34,2.22,12.5,8.98,25.33,18.13,34.14,1.85,1.79,3.72,3.74,5.7,5.38,9.31,7.69,21.62,12.42,33.57,13.87,2.87.35,5.89.2,8.47,1.35,1.26.56,2.71,1.17,4.1,1.1ZM63.95,198.84c-1-.65-2.88-.87-3.83-.09-1.44,1.17-.99,3.65.07,4.95.91,1.12,3.34,1.63,4.44.57,1.33-1.29.87-4.43-.67-5.43ZM36.72,160.88c-.5.32-1.01,1.6-1,2.18,0,.83.95,2.31,1.83,2.38.87.08,2.03-.84,2.31-1.64.65-1.91-1.36-4.05-3.13-2.93ZM53.38,122.35c-1.05,1.01-2.17,2.24-3.05,3.41-3.47,4.61-6.48,10.32-8.67,15.66-1.06,2.61-2.77,7.01-2.25,9.78.12.63.63,1.18,1.12,1.56.88.07,1.89-3.19,2.08-3.87,1.37-5.04,2.4-9.39,4.49-14.26,1.82-4.23,4.34-8.12,6.28-12.28ZM51.81,177.55c-1.21-1.87-2.55-1.9-3.15-4.46-1.28-5.46-1.29-11.39-1.39-16.95-.05-2.52.18-5.07-.35-7.55-.47.56-.37,1.34-.51,1.94-1.65,7.2-2.12,14.17-1.05,21.5.1.68.55,2.1.55,2.73,0,.89-.96,2.74-1.09,3.82-.29,2.44.28,4.02,1.59,6,2.94,3.69,5.9,7.34,8.46,11.32l.27-.07c-.91-2.21-2.07-4.52-2.43-6.95-.58-3.87,1.45-7.7-.91-11.33ZM29.19,153.82c-.01.2.1.39-.2.34-.63-.31-2.35-5.92-2.61-6.9-4.74-17.78,1.87-37.75,14.97-50.26,6.46-6.17,15.33-11.37,23.84-14.16,1.4-.46,6.57-2.1,7.71-1.94.19.03.24-.08.2.2-1,1.6-2.19,3.09-3.18,4.7-.59.97-1.09,2.44-1.86,3.17-.53.5-1.4.79-1.88,1.25-.28.27-.38.67-.7.93-2.06,1.74-6.18,3.56-8.63,5.24-5.9,4.02-11.6,8.38-16.1,13.97-4.46,5.55-11.04,17.36-10.48,24.57.02.24-.04.44.21.6.71-1.86,1.06-3.83,1.79-5.68,5.63-14.14,15.41-25.51,28.32-33.39,1.58-.96,3.43-2.24,5.36-1.98.45.06,0,.83-.15,1.08-.16.29-1.88,2.76-2.03,2.87-.39.28-1.46.64-2.02.97-8.01,4.73-16.67,12.92-20.17,21.7-.17.43-.48.9-.25,1.38,3.17-3.65,5.63-7.95,8.9-11.49,3.02-3.27,7.06-7.15,10.94-9.31.33-.18,2.05-1.14,2.24-.95.02,1.03-.66,1.86-.94,2.79-.51,1.7-.47,3.54-1.2,5.18-.94,2.11-4.56,3.72-6.48,5.21-12.59,9.73-24.54,23.33-25.63,39.89ZM40.88,104.95c.28.07.37-.09.55-.2,2-1.17,3.85-3.23,5.64-4.69,4.44-3.62,8.65-5.79,13.4-8.75,1.32-.82,2.56-1.88,3.86-2.67,1.1-.67,3.09-1.07,3.06-2.58-.23-.24-3.8,1.35-4.3,1.61-3.54,1.82-6.83,4.08-10.28,6.03-3.12,2.47-7.14,5.09-9.95,7.85-.94.92-1.71,2.09-1.97,3.4ZM93.41,175.21c-.85.05-.81,1.15-.73,1.76,1.77.94,2.21-1.85.73-1.76ZM101.81,180.97c.49.12.99.96,1.54,1.05.52.09,1.08-.22.57-.58-.44-.31-1.31-.58-1.86-.86-.93-.48-2.15-1.79-2.06.36.56.06,1.27-.1,1.8.03ZM140.61,207.28c-11.07-7.83-22.86-10.76-35.45-15.12-1.21-.42-2.47-.7-3.66-1.16-.23.22,1.4,1.34,1.59,1.47,7.25,4.91,16.48,7.13,24.42,10.92,15.91,7.6,29.09,20.41,32.31,38.37l.53,1.71c-.04-1.06.06-2.14,0-3.19-.79-13.25-9.16-25.51-19.75-32.99ZM220.83,197.15l-1.98-.72-.07-.02-.06-.03-.98-.45c.53,1.24,1.03,2.53,1.47,3.91,1.7,5.29,3.88,15.46,2.64,21.03,1.99-8.98,1.07-14.56-.65-22.24-.11-.5-.25-.99-.37-1.48ZM97.97,178.56c.06-.25-1.12-.97-1.32-1-.08-.01-.15-.04-.23-.01l-.2.22c-.28,1.62.69,1.36,1.74.79ZM91.02,174.12c.26-.45-1.06-1.18-1.38-1.32-.15.09-.33.18-.45.3-.67.69-.03,1.47.8,1.41.17-.01.99-.31,1.04-.39ZM215.42,210.78c-.11,14.38-18.54,22.38-28.14,10.73-3.18-3.86-3.37-10.01-.52-14.11,3.03-4.36,9.73-6.36,13.98-2.61,2.57,2.27,3.48,6.92.54,9.25-1.08.86-3.83,1.2-4.76.14-.77-.88.88-1.04,1.56-1.57,2.55-1.97.42-5.11-2.17-5.3-6.07-.44-7.54,9.3-3.36,12.77,8.74,7.27,19.96-1.83,18.41-11.92-1.19-7.75-4.61-12.48-12.37-14.41-7.21-1.79-17.29-.39-23.14,4.52-1.3,1.09-2.27,3.17-4.08,3.33l.07.54c6.76,7.96,10.63,17,9.58,27.67-.96,9.69-7.86,22.98-15.09,29.5-.08.07-.59.58-.68.47-.13-.15.84-1.64.98-1.94,7.7-16.87,2.19-33.94-10.55-46.38-9.65-9.43-23.46-14.47-36.21-18.23-11.66-3.45-21.36-5.41-30.83-13.69-10.07-8.8-16.55-18.99-19.16-32.28-.14-.7-.19-1.53-.2-2.25l1.7,5.5c1.48,2.88,2.62,5.8,3.85,8.79.32.77,1.73,4.05,2.43,4.24l1.67-.12c.08.68-.36.93-.95,1.02.35.68.76,1.3,1.23,1.9,3.98,5.13,10.29,11.5,16.05,14.53,10.15,5.34,22.96,7.19,33.99,10.18,22.54,6.11,41.82,18.02,44.7,43.11.04.32.24.6.26.96.12,1.56-.09,3.25,0,4.83.23-.14.42-.67.5-.93,4.55-13.99-2.15-28-12.67-37.13-11.93-10.35-26.83-14.3-41.76-18.19-4.9-1.27-10.17-2.5-14.67-4.9-10.5-5.62-18.45-10.82-25.68-20.47-2.88-3.85-5.28-7.97-7.05-12.46-2.23-5.67-3.12-11.11-3.89-17.04-.36-2.73-.93-6.93-.5-9.63.07-.45.83-2.11,1.39-2l.74,2.66c.81,10.66,5.41,25.44,14.92,31.43,7.89,4.97,14.33,6.26,23.63,6.13,16.57-.23,30.85-8.25,47.02-10.47,12.57-1.72,23.8-.6,35.34,3.63v.55l-.03.48c-3.14-.86-6.34-1.49-9.57-1.96-6.53-.95-13.46-.85-20.01.03-13.68,1.84-25.85,7.7-39.32,10.3-6.94,1.34-14.01,1.15-21.04,1.52-2.08.11-2.63.39-4.82-.2-6.99-1.85-12.11-6.83-17.34-11.41-.2-.17-.53-.49-.6-.75l-.27.07c-.06.51.81,1.91,1.11,2.42,3.3,5.56,9.83,13.07,15.29,16.52,6.63,4.18,15.19,7.1,22.95,7.36,6.71.23,12.99-.15,19.7-.81,3.03-.3,6.09-.56,9.12-.8,14.01-1.1,27.31-.09,40.52,4.99,13.55,5.21,28.31,15.86,28.19,31.91ZM122.35,179.72c-.38-.07-.77.92-.81,1.21-.06.38.7.32.94.25.65-.19.36-1.21-.13-1.46ZM127.19,180.12c-.7-.4-1.57,1.29-1.35,1.62l1.05.12c.42-.52.3-1.11.3-1.74ZM131.78,180.7c-.82-.67-2.18.81-1.56,1.56.09.11.89.49,1.05.53.73.17.78-1.65.51-2.08ZM136.41,180.97c-.17-.1-.86-.06-1.06.04-.47.22-.71,1.54-.47,1.97.08.14,1.03.67,1.23.68.97.06.84-2.38.3-2.69ZM141.1,181.78c-1.6-.47-2.22,1.47-1.2,2.28.11.09.71.4.83.41.72.07,1.53-2.35.37-2.69ZM147.23,183.52c-.07-.22-.86-1.01-1.07-1.1-1.19-.53-2.1,1.26-1.82,2.22.19.64,1.73,1.23,2.37.86.56-.33.7-1.39.51-1.98ZM154.96,184.64c-.05-.11-.99-1.24-1.11-1.33-.87-.68-2.26-.02-2.95.67-1.99,2,.2,3.97,2.37,4,.42-.99,2.21-2.14,1.69-3.34ZM163.86,184.23c-1.57-.68-3.52-.2-4.81.84-.95.76-1.39,1.73-1.11,2.97.13.56,1.67,1.88,2.25,1.98.39.06,1.38-.76,1.74-1.06,1.46-1.26,2.88-2.66,1.94-4.73ZM181.97,189.97c.05-.23-.25-.33-.4-.41-1.27-.72-3.86-1.71-5.31-2.3-3.77-1.52-6.05-1.6-8.89,1.5-.42.45-.86.93-1.22,1.43-.36.5-1.76,2.46-1.38,2.99,1.76.55,3.23-1.13,4.72-1.83,1.16-.55,2.22-.82,3.53-.57.37.26-.07,1.51,0,1.57h.34s8.63-2.38,8.63-2.38ZM201.13,192.55c-.16-1.02-1.01-1.69-1.77-2.29-12.41-9.63-31.52-13.43-46.86-13.5-4.47-.02-9.23.27-13.69.64-1.39.12-3.33-.11-4.41.89-.11.51,2.35.72,2.78.75,5.1.31,10.5-.22,15.64,0,12.26.52,27.24,3.41,38.27,8.9,2.6,1.3,5.24,3.26,7.92,4.31.36.14,1.99.78,2.13.3ZM82.65,166.28c-.7-.2-1.29,1.02-.86,1.55l1.58-.07c.33-.47-.3-1.37-.72-1.49ZM87.21,170.43c-.06-.23-1.29-1.21-1.53-1.16-.51.1-.8,1.57-.34,1.86.34.21,2.06.06,1.87-.7ZM182.9,108.12c-.51.86-1.3,1.83-1.93,2.62-.19.24-1.95,2.01-1.71,2.23.24.03.45,0,.68-.07,2.09-.54,7.32-3.7,8.41-5.59.1-.18.2-.37.14-.58l-4.07-1.86c-.66.99-.9,2.19-1.52,3.25ZM123.26,75.67c.76-.45,1.82-.23,2.58-.69.06-.33-1.66-1.59-1.83-1.97-.58-1.28.85-4.27,1.89-5.1,1.86-1.49,5.09.06,6.39,1.72.98,1.25.97,1.96,0,3.24-1.45,1.91-5.21,2.51-7.35,3.52-.57.27-1.8,1.29-2.4,1.1-.7-.22.33-1.58.73-1.82ZM128.51,71.61c.93-.75,0-3.98-1.46-2.61-1.32,1.22.22,3.62,1.46,2.61ZM196.23,108.27c-13.01,15.41-28.19,7.07-28.19,7.07,16.11,9.97,35.8-6.05,35.07-7.64-.74-1.59-6.01-.46-6.87.57ZM180.49,102.56c-.32-.25-1.99-1.79-2.14-1.81-.24-.03-.25.16-.33.32-.3.63-.37,1.59-.57,2.28-.52,1.74-1.22,3.42-1.79,5.14-.59,1.78-.72,3.74-2.11,5.16,3.24-.66,6.03-3.25,7.94-5.86.35-.47,1.86-2.82,1.65-3.25-.71-.87-1.77-1.32-2.65-1.99ZM241.29,79c-2.81-.77-7.05,1.35-9.48,2.73-2.92,1.66-5.65,3.68-8.06,6.01-3.64,3.53-6.44,7.83-9.71,11.69-1.19,1.41-2.62,2.64-3.67,4.15,5.61-1.2,11.07-3.56,15.61-7.03.14-.5-.67-1.93-.87-2.49-.36-.08-2.57,1.66-3.07,1.95-.6.35-2.58,1.24-3.17,1.18-.42-.04-.07-.53.07-.75.67-1.07,3.58-3.48,4.69-4.41,4.17-3.5,8.75-6.47,14.19-7.56.9-.18,2.09-.18,2.9-.36,1.4-.31,2.84-4.5.56-5.13ZM244.25,82.24c-.54.36-1.83,3.99-1.65,4.26,3.17,1.83,6.12,4.02,8.58,6.76,1.58,1.76,2.99,3.56,4.26,5.46l.54.12,1.18.21c-2.07-4.74-4.95-9.59-7.92-12.87-1.37-1.51-3.13-3.14-4.99-3.93ZM73.38,119.82c.27,2.03.82,4.04,1.62,5.93.34.31.53-1.14.54-1.29.45-5.49-.2-10.75,1.43-16.24.4-1.35,2-4.21,2.1-5.25.1-1.12-.42-3.59-.54-4.88-.04-.4.02-.82,0-1.22l-.27-.07c-1.09,2.03-2.1,4.1-2.92,6.26-2.2,5.82-2.81,10.52-1.96,16.77ZM108.77,82.12c.33-.7,3.54-.71,3.73-1.32.17-.54-1.52-2.09-1.49-3.51.06-2.52,1.73-4.47,4.39-3.98.67.12,3.86,1.72,4.11,2.28.73,1.6-1.35,3.75-2.43,4.7-1.64,1.44-4.14,3.08-6.02,4.25-.32.2-1.49,1.09-1.75.71-.06-.52-.69-2.82-.55-3.13ZM113.69,78.83c.49.04,1.47-1.36,1.54-1.82.09-.65-.37-1.61-1.05-1.79-2.38-.63-1.81,3.49-.49,3.61ZM227.25,54.34c3.32.06,7.41-2.48,6.95-6.25-.21-1.77-1.72-3.15-3.49-3.31.89.82,1.6,1.89,1.76,3.08.42,3.11-3.06,4.72-5.67,4.12-2.61-.6-4.89-2.96-5.49-5.55-1.08-4.71,2.28-8.73,6.6-10.14,5.03-1.64,10.58-.14,13.65,3.94,3.47,4.61,5.01,12.26,2.51,17.74-1.91,4.17-5.11,8.27-8.77,11.02-.84.63.18,3.55,2.33,5.31.68.55,6.33-7.85,6.75-8.54,3.18-5.29,5.41-11.65,4.26-17.93-1.08-5.89-5.06-11.67-10.54-14.25-.43-.2-.86-.38-1.3-.54-9.65-3.51-22.19,5.42-17.51,16.13,1.33,3.04,4.65,5.1,7.94,5.16ZM135.07,134.66c.06.13.08.32.28.33.58-1.94,2.09-3.7,3.4-5.23,6.94-8.07,15.65-8.84,23.99-14.34,6.16-4.06,10.57-10.17,12.79-17.2l-1.94-2.09c-.53-.14-1.67,1.52-1.95,1.96-1.84,2.88-2.83,5.29-5.23,7.96-.3.33-3.92,3.91-4.28,3.53.29-1.71,1.85-2.94,2.83-4.3,2.5-3.49,4.7-7.22,7.29-10.65.16-1.71-1.1-1.25-2.1-.6-1.25.81-4.09,4.07-5.24,5.36-2.59,2.89-5.42,6.28-7.73,9.39-1.52,2.04-2.8,4.64-4.44,6.54-.34.39-2.37,2.08-2.71,1.74-.01-.24,0-.48.03-.71.36-2.12,3.8-7.32,5.16-9.25,4.19-6,9.76-10.7,15.18-15.54v-.49c-.14-.44-.75-.41-1.13-.36-1.86.27-7.65,4.13-9.44,5.37-9.16,6.36-15.29,14.58-20.47,24.38-.5.94-.87,2.21-1.42,3.07-.16.25-.33.64-.68.61v-2.11c0-2.36,2.82-8.02,4.05-10.22,6.04-10.79,14.85-17.86,26.3-22.36.36-.14,1.6-.4,1.59-.73,0-.65-1.05-.91-1.57-.89-2.47.08-7.06,1.71-9.48,2.62-9.7,3.68-16.77,10.78-21.29,20.03l-.7,1.68c.07-.75-.09-1.64,0-2.38.66-5.27,5.47-11.56,9.45-14.88,6.93-5.77,13.88-6.96,22.26-9.14.26-.07.62-.47.92-.58-.2-.55-.79-.86-1.33-.99-11.42-2.59-25.17,2.59-31.27,12.7-6.44,10.68-4.85,22.43-2.17,33.92.26,1.12.58,2.81,1.05,3.84ZM232.68,89.28c-.19.33.37,1.48.61,1.8.27.36.68.67,1.15.49,1.2-.85,2.68-1.57,3.87-2.39.7-.48,1.36-1.53.8-2.29-1.28.24-5.82,1.32-6.43,2.39ZM44.91,84.45c7.28-5.12,16.87-9.76,25.44-12.22,3.12-.89,6.08-1.07,9.16-1.71.41-.08.8-.14,1.18-.32,1.08-.51,3.74-4.09,4.55-5.23.09-.12.46-.57.35-.67-.79.26-1.58.18-2.38.27-12.78,1.46-24.38,5.58-34.27,13.92-3.97,3.35-8.7,8.52-12.01,12.56-.12.14-.51.52-.35.71,2.72-2.52,5.28-5.18,8.32-7.32ZM59.37,63.57c5.67-2.11,10.26-2.89,16.07-4.19,1.53-.34,4.21-.76,4.31-2.77.02-.48-.21-1.17-.74-1.27-.63-.12-2.69-.06-3.4,0-7.17.61-17.19,5.62-22.85,10.12-.55.44-1.16.9-1.62,1.44-.09.11-.36.27-.14.41,2.65-1.5,5.51-2.67,8.37-3.73ZM86.4,57.97c1.38-.68,2.14-1.57.76-2.77-.94-.82-2.19-1.03-3.15-.09-.78.76-.72,1.47-.18,2.33.71,1.13,1.44,1.09,2.56.53ZM90.21,53.37c2.07.14,4.13.7,6.16.85,3.01-1.61,5.98-3.29,8.79-5.2,0-.09-1.42-.61-1.63-.68-.58-.18-1.84-.54-2.38-.61-2.28-.26-5.29.39-7.47-.28-.19-.06-.24.08-.2-.27,1.31-.34,2.59-.18,3.88-.27,2.33-.16,4.58-.36,6.93-.28,1.49.05,3.9.64,5.28.13,1.44-.53.91-.98-.1-1.51-2.68-1.42-6.15-1.74-9.07-2.48-1.5-.38-2.98-.97-4.47-1.28-.44,1.51-1.65,2.77-2.31,4.15-.67,1.39-1.09,2.82-1.87,4.24-.34.61-1.81,2.66-1.9,3.01-.02.1-.09.18,0,.28l.34.21ZM71.26,75.73c-1.25.49-3.06,1.36-4.21,2.04-.7.41-1.39.87-1.83,1.56.13.2.26.19.47.21,1.16.13,4.24-1.24,5.62-1.6,1.19-.31,3.04-.34,3.98-1.05.34-.26,2.37-2.2,1.4-2.51-1.84.3-3.68.66-5.42,1.35ZM118.04,15.62c1.33.8,2.53,2.02,3.98,2.81,2.82,1.53,6.47,2.29,9.47,3.58,5.89,2.51,12.28,7.38,17.11,11.57.61.53,1.3,1.64,2.17,1.64h1.97l-1.37-2.07c-4.28-4.58-8.9-8.78-14.67-11.46.19-.28.69-.07.95,0,4.17,1.04,15,8.66,17.8,12,.26.32.51.96.81,1.2.61.49,2.15.04,2.93.05,2.29.01,5.45.31,7.72.72.11.02.36.15.37-.1,0-.08-.8-1.09-.94-1.23-10.16-10.56-21.39-15.91-35.65-18.99-4.88-1.05-10.51-1.99-15.54-1.6-.3.02-.87.07-.46.48.26.27,2.64.99,3.35,1.41ZM142.75,35.77c1.18.31,2.23-.59,3.47-.14.11-.1-.45-.72-.55-.84-2.95-3.61-10.18-8.44-14.31-10.73-3.79-2.11-7.98-3.38-11.69-5.71-.26-.17-.74-.8-1.05-.6-.51.86-1.36,2-2.18,2.58-.28.2-3.37,1.56-3.25,1.71l2.58.89c9.86,2.19,18.83,7.05,26.98,12.85ZM131.36,35.47c.59.34,2.48,1.79,2.86,1.89.75.2,2.16-.39,2.97-.5.4-.05,1.54.14,1.69-.22.09-.35-.06-.27-.17-.38-.78-.79-2.41-1.82-3.38-2.46-6.79-4.5-14.62-8.06-22.24-10.93-.14-.05-.26-.22-.4-.29l-.19.05c-.12.16-.19.35-.34.48-.75.68-1.58,1.58-2.31,2.17-.69.55-1.76.91-2.31,1.36-.14.12-.25.2-.2.41,2.96.85,6,1.42,8.97,2.24,5.37,1.48,10.21,3.39,15.04,6.16ZM103.03,32.54c7.72,2.14,14.39,2.56,21.85,6.15.36.17,1.36.86,1.57.89.5.07,1.88-.89,2.63-1.03.46-.09.9-.07,1.36-.06.17-.15-.51-.71-.63-.79-5.46-3.97-12.25-6.07-18.53-8.25-.88-.3-3.88-1.78-4.54-1.54-.22.08-.17.36-.27.48-.62.7-1.51,1.61-2.22,2.22-.35.3-2.09,1.34-2.07,1.71l.22.18c.2.04.42,0,.62.06ZM110.88,43.72c.7.22,1.57.78,2.18.95,1.07.29,1.74-.82,2.72-1.03.06-.28-.14-.31-.31-.43-1.72-1.17-5.86-2.41-7.95-3.06-2.35-.73-5.96-1.33-8.03-2.44-.18-.1-.37.07-.29-.31.24-.04.45.01.68.07,5.65,1.31,11.86,2.03,17.29,3.78.92.29,1.72,1.01,2.73.74.31-.08.73-.57,1.06-.7.54-.22,1.22-.15,1.76-.42,0-.35-1.21-.99-1.54-1.18-4.66-2.61-10.03-3.7-15.07-5.32-.76-.24-3.18-1.36-3.71-1.33-.5.02-.6.67-.95,1.1-.55.68-1.41,1.13-1.97,1.84-.64.81-.77,1.72-1.39,2.55-.65.89-1.86,1.32-2.02,2.4,1.58.29,3.14.77,4.73,1.05,3.28.59,6.91.72,10.08,1.74Z"/></svg>