<?xml version="1.0" encoding="UTF-8"?><svg id="Layer_1" xmlns="http://www.w3.org/2000/svg" width="4.58in" height="1.85in" viewBox="0 0 329.87 133.31"><defs><style>.cls-1{fill:#263237;}.cls-2{fill:none;stroke:#263237;stroke-miterlimit:10;}</style></defs><polyline class="cls-2" points="226.13 89.87 329.37 89.87 329.37 .5 268.1 .5 .5 .5 .5 89.87 103.74 89.87"/><path class="cls-1" d="M10.53,69.54v-.9c.94-.08,1.7-.29,2.27-.65.57-.35,1.08-.9,1.52-1.63.52-.84.87-1.9,1.04-3.18.18-1.28.27-3.28.27-5.98v-28.98c0-2.7-.09-4.69-.27-5.98-.18-1.28-.53-2.35-1.04-3.18-.44-.76-.95-1.31-1.53-1.65-.58-.34-1.34-.55-2.26-.63v-.9h15.95c1.62,0,2.68.03,3.18.08,1.85.24,3.38.94,4.59,2.12,1.05,1.05,1.87,2.42,2.44,4.13.57,1.7.86,3.62.86,5.74,0,3.43-.66,6.25-1.97,8.45-.47.81-1,1.49-1.6,2.03-.6.54-1.46,1.13-2.6,1.79,1.55.42,2.76.88,3.62,1.38.86.5,1.63,1.19,2.33,2.08,1.04,1.36,1.84,3.06,2.42,5.09.57,2.03.86,4.23.86,6.58s-.3,4.57-.89,6.55c-.59,1.98-1.41,3.57-2.46,4.78-.96,1.08-2.09,1.82-3.41,2.24-1.32.42-3.18.63-5.57.63H10.53ZM20.94,17.09v23.35h1.97c.92,0,1.88-.1,2.86-.31.86-.21,1.55-.46,2.08-.75.53-.29,1.01-.68,1.44-1.18.83-1,1.46-2.27,1.91-3.83.44-1.56.67-3.28.67-5.17,0-1.99-.23-3.89-.69-5.68-.46-1.8-1.07-3.19-1.83-4.19-.66-.87-1.42-1.46-2.27-1.77-.85-.31-2.14-.47-3.87-.47h-2.26ZM20.94,41.67v16.2c0,1.97.08,3.55.25,4.76.17,1.21.45,2.23.84,3.07.83,1.76,2.24,2.63,4.25,2.63,2.61,0,4.67-1.15,6.18-3.46s2.27-5.45,2.27-9.44c0-2.28-.23-4.4-.7-6.35-.47-1.95-1.1-3.45-1.89-4.5-1.46-1.94-3.74-2.91-6.85-2.91h-4.35Z"/><path class="cls-1" d="M45.13,43.06c0-4.41.58-8.49,1.75-12.26,1.17-3.76,2.86-7.05,5.1-9.86,1.67-2.07,3.46-3.67,5.39-4.78,1.93-1.11,3.87-1.67,5.83-1.67,2.49,0,4.9.89,7.24,2.66,2.33,1.77,4.37,4.27,6.12,7.5,2.85,5.25,4.27,11.21,4.27,17.9,0,3.36-.37,6.6-1.12,9.72-.74,3.12-1.83,5.97-3.25,8.54-1.75,3.2-3.82,5.68-6.2,7.44-2.39,1.76-4.88,2.64-7.49,2.64s-5.03-.85-7.38-2.56c-2.35-1.71-4.37-4.12-6.07-7.24-1.34-2.44-2.38-5.21-3.1-8.32-.72-3.11-1.08-6.34-1.08-9.7ZM51,43.65c0,7.61,1.28,14.02,3.84,19.24,1.15,2.33,2.37,4.03,3.65,5.09,1.29,1.06,2.77,1.59,4.46,1.59s3.19-.52,4.48-1.57c1.29-1.05,2.51-2.75,3.68-5.12,2.56-5.25,3.84-11.71,3.84-19.4,0-4.22-.35-8.22-1.06-11.98-.7-3.76-1.7-6.96-2.97-9.58-1.04-2.15-2.19-3.72-3.46-4.7-1.27-.98-2.77-1.48-4.5-1.48s-3.2.49-4.46,1.46c-1.25.97-2.42,2.54-3.48,4.72-1.28,2.6-2.27,5.79-2.96,9.56-.7,3.78-1.04,7.83-1.04,12.16Z"/><path class="cls-1" d="M99.49,15.87v.9c-.92.08-1.68.29-2.26.63-.58.34-1.09.89-1.53,1.65-.53.89-.89,1.99-1.06,3.3s-.25,3.56-.25,6.76v22.25c0,3.62.08,6.23.25,7.84s.51,3.1,1.03,4.46c.78,2.07,1.74,3.57,2.88,4.5,1.14.93,2.58,1.4,4.31,1.4s3.29-.41,4.82-1.24c1.53-.83,2.8-1.97,3.82-3.44.63-.92,1.1-1.91,1.4-2.99.3-1.07.5-2.44.59-4.09.06-1.07.1-3.62.1-7.63v-21.98c0-2.7-.09-4.69-.28-5.98s-.53-2.35-1.03-3.18c-.45-.76-.97-1.31-1.54-1.65s-1.32-.55-2.25-.63v-.9h11.19v.9c-.92.08-1.67.29-2.25.63s-1.09.89-1.54,1.65c-.5.84-.85,1.91-1.03,3.2-.19,1.3-.28,3.28-.28,5.96v24.81c0,3.67-.17,6.38-.52,8.12-.35,1.74-1.04,3.34-2.08,4.78-2.36,3.3-5.74,4.95-10.12,4.95s-7.96-1.56-10.12-4.68c-1.41-1.99-2.25-4.61-2.52-7.86-.1-1.15-.15-3.24-.15-6.25v-23.87c0-2.7-.09-4.69-.27-5.98-.18-1.28-.53-2.35-1.04-3.18-.44-.76-.94-1.31-1.52-1.65-.57-.34-1.33-.55-2.27-.63v-.9h15.51Z"/><path class="cls-1" d="M121.75,69.54v-.94c1.63,0,2.9-.75,3.79-2.24.5-.84.85-1.91,1.03-3.21.19-1.3.28-3.28.28-5.96v-28.98c0-2.78-.1-4.83-.3-6.15-.2-1.32-.58-2.4-1.13-3.24-.45-.68-.96-1.18-1.52-1.49s-1.27-.5-2.15-.55v-.9h15.51v.9c-.89.08-1.62.27-2.19.59-.57.31-1.07.81-1.51,1.49-.55.86-.92,1.95-1.12,3.26-.19,1.31-.29,3.34-.29,6.09v22.69c0,3.49.06,6.08.17,7.79s.33,3.09.66,4.17c.57,1.89,1.41,3.27,2.52,4.15,1.12.88,2.6,1.32,4.44,1.32s3.55-.41,4.87-1.24c1.32-.83,2.4-2.1,3.24-3.83.57-1.18,1.03-2.52,1.4-4.01s.7-3.46,1.01-5.9l.58.08-.32,16.12h-28.99Z"/><path class="cls-1" d="M178.18,15.87l.41,12.97-.56.04c-.21-2.2-.56-4.02-1.04-5.46s-1.19-2.71-2.11-3.81c-.76-.92-1.66-1.57-2.7-1.95s-2.41-.57-4.13-.57h-5.56v23.59h1.46c1.47,0,2.58-.16,3.33-.47.74-.32,1.35-.88,1.82-1.69.45-.76.79-1.66,1.01-2.69.22-1.04.4-2.56.55-4.58l.56.04-.1,21.08h-.56c-.15-2.02-.36-3.64-.64-4.88-.28-1.23-.68-2.28-1.18-3.15-.49-.84-1.12-1.46-1.89-1.85-.78-.39-1.76-.59-2.96-.59h-1.38v9c0,3.59.06,6.21.17,7.84.11,1.64.33,3.01.66,4.11.55,1.89,1.39,3.27,2.51,4.15,1.12.88,2.61,1.32,4.46,1.32,1.94,0,3.57-.4,4.88-1.2,1.31-.8,2.38-2.04,3.21-3.72.58-1.13,1.06-2.41,1.42-3.85.36-1.44.7-3.34,1.01-5.7l.56.04-.32,15.65h-28.97v-.9c.92-.08,1.67-.29,2.25-.63.57-.34,1.09-.89,1.54-1.65.5-.84.85-1.91,1.03-3.21.19-1.3.28-3.28.28-5.96v-28.98c0-2.67-.09-4.66-.28-5.96-.19-1.3-.53-2.37-1.03-3.2-.44-.76-.94-1.31-1.52-1.65-.57-.34-1.33-.55-2.27-.63v-.9h26.1Z"/><path class="cls-1" d="M181.04,15.87h16.02v.9c-1.21.18-2.09.49-2.62.9-.5.39-.91,1-1.21,1.83-.31.83-.46,1.72-.46,2.69,0,.68.04,1.28.12,1.81s.32,1.67.73,3.42l7.19,31.65,6.97-27.76c.97-3.91,1.46-6.75,1.46-8.53,0-1-.1-1.93-.29-2.79s-.45-1.53-.78-2c-.32-.45-.68-.76-1.07-.94-.39-.18-.89-.27-1.51-.27v-.9h10.8v.9c-.89.13-1.66.49-2.32,1.06-.66.58-1.28,1.45-1.88,2.63-.41.84-.83,1.99-1.27,3.44-.45,1.46-1.06,3.7-1.83,6.74l-9.96,38.89h-1.02l-9.66-40.18c-1.26-5.27-2.27-8.61-3.04-10.03-.49-.89-1.08-1.54-1.78-1.95s-1.57-.61-2.59-.61v-.9Z"/><path class="cls-1" d="M250.55,69.54h-15.95v-.9c1.44-.21,2.44-.6,3.01-1.18,1-1.02,1.5-2.44,1.5-4.25,0-1.07-.23-2.52-.68-4.33l-.41-1.65-2.33-9.28h-10.68l-1.26,5.43-.61,2.44c-.73,2.88-1.09,5.15-1.09,6.8,0,.97.13,1.87.4,2.71.27.84.63,1.52,1.08,2.04.63.71,1.44,1.13,2.43,1.26v.9h-10.88v-.9c.86-.08,1.61-.42,2.26-1.02.65-.6,1.28-1.57,1.89-2.91.52-1.08,1.02-2.46,1.52-4.15.49-1.69,1.14-4.23,1.95-7.61l8.89-37.08h1.38l10.56,41.32c.79,3.12,1.42,5.35,1.89,6.68.47,1.34.98,2.35,1.53,3.03.39.47.83.83,1.33,1.08s1.25.47,2.26.65v.9ZM235.31,46.35l-5.1-20.37-4.81,20.37h9.91Z"/><path class="cls-1" d="M261.65,43.28v13.92c0,2.67.09,4.66.28,5.96.19,1.3.53,2.37,1.03,3.21.44.73.94,1.28,1.52,1.63.57.35,1.33.57,2.27.65v.9h-15.51v-.9c.94-.08,1.7-.29,2.27-.65.57-.35,1.08-.9,1.52-1.63.52-.84.87-1.9,1.04-3.18.18-1.28.27-3.28.27-5.98v-28.98c0-2.7-.09-4.69-.27-5.98-.18-1.28-.53-2.35-1.04-3.18-.44-.76-.95-1.31-1.53-1.65-.58-.34-1.33-.55-2.26-.63v-.9h11.7c1.96,0,3.25.01,3.86.04,2.51.18,4.48.73,5.9,1.65,1.6,1.05,2.84,2.61,3.73,4.7.88,2.08,1.32,4.5,1.32,7.25,0,4.09-.96,7.37-2.87,9.83-.58.73-1.23,1.34-1.93,1.81s-1.65.92-2.83,1.34c.97.66,1.69,1.34,2.16,2.04.37.55.71,1.24,1.02,2.06.31.83.77,2.29,1.38,4.38,1.44,4.8,2.53,8.3,3.27,10.52.74,2.22,1.36,3.82,1.86,4.82.4.81.8,1.38,1.18,1.69.38.31.9.52,1.57.63v.9h-8.06c-.4-1.44-.66-2.36-.78-2.75l-1.7-6.25c-1.02-3.75-2.05-7.06-3.08-9.95-1.04-2.86-1.98-4.81-2.84-5.86-.44-.52-.91-.9-1.41-1.12-.5-.22-1.12-.33-1.85-.33h-1.19ZM261.65,42.41h.92c2.01,0,3.44-.18,4.31-.55.87-.37,1.68-1.13,2.44-2.28,1.7-2.62,2.55-5.87,2.55-9.75,0-2.07-.25-4.02-.74-5.84-.49-1.82-1.18-3.32-2.05-4.5-.68-.89-1.49-1.51-2.43-1.87-.94-.35-2.27-.53-4.01-.53h-1v25.32Z"/><path class="cls-1" d="M283.43,68.64c.94-.08,1.69-.29,2.26-.63s1.08-.89,1.53-1.65c.5-.84.85-1.91,1.03-3.21.19-1.3.28-3.28.28-5.96v-28.98c0-2.88-.11-4.99-.33-6.33-.22-1.34-.64-2.44-1.28-3.3-.79-1.08-1.96-1.68-3.5-1.81v-.9h13.35c2.96,0,4.85.05,5.66.16,3.42.42,6.31,1.99,8.69,4.72,2.27,2.59,4.03,6,5.29,10.2s1.89,8.79,1.89,13.74c0,3.62-.36,7.03-1.08,10.24-.72,3.21-1.72,5.88-3,8-1.8,2.99-4.04,4.89-6.72,5.7-2.01.6-4.05.9-6.14.9h-17.94v-.9ZM293.84,17.09v39.08c0,2.57.09,4.52.27,5.86.18,1.34.51,2.48,1,3.42,1.04,2.04,2.72,3.07,5.05,3.07,1.99,0,3.69-.53,5.11-1.59,1.42-1.06,2.68-2.79,3.8-5.17,1.1-2.31,1.94-4.95,2.51-7.92.57-2.97.86-6.14.86-9.5,0-3.72-.35-7.26-1.04-10.62-.7-3.36-1.69-6.29-2.99-8.81-1.8-3.49-3.94-5.79-6.43-6.92-1.36-.6-3.09-.9-5.2-.9h-2.94Z"/><path class="cls-1" d="M118.77,98.41v-17.88h11.72v1.98h-9.49v5.76h9.3v1.98h-9.3v8.15h-2.23Z"/><path class="cls-1" d="M138.87,98.41v-17.88h2.23v15.9h8.31v1.98h-10.54Z"/><path class="cls-1" d="M170.75,98.41l-1.58-3.97h-9.06l-1.58,3.97h-2.47l7.19-17.88h2.76l7.21,17.88h-2.47ZM164.63,82.51l-3.89,9.95h7.75l-3.86-9.95Z"/><path class="cls-1" d="M183.53,98.41v-15.9h-5.66v-1.98h13.57v1.98h-5.68v15.9h-2.23Z"/><path class="cls-1" d="M199.91,94.2c1.18,1.31,3.11,2.55,5.63,2.55,3.19,0,4.21-1.72,4.21-3.08,0-2.14-2.17-2.73-4.53-3.38-2.87-.75-6.06-1.56-6.06-5.07,0-2.95,2.63-4.96,6.14-4.96,2.73,0,4.85.91,6.35,2.49l-1.34,1.64c-1.34-1.47-3.22-2.14-5.17-2.14-2.14,0-3.67,1.15-3.67,2.84,0,1.8,2.06,2.33,4.34,2.95,2.92.78,6.25,1.69,6.25,5.44,0,2.6-1.77,5.25-6.6,5.25-3.11,0-5.39-1.18-6.86-2.84l1.31-1.69Z"/><path class="cls-1" d="M17.4,126.33l-1.54-3.77H7.7l-1.54,3.77h-1.47l6.27-15.33h1.63l6.27,15.33h-1.47ZM11.77,112.29l-3.65,9.08h7.33l-3.68-9.08Z"/><path class="cls-1" d="M25.73,126.33v-14.13h-5.01v-1.19h11.35v1.19h-5.01v14.13h-1.33Z"/><path class="cls-1" d="M58.34,126.33v-13.6l-5.58,13.6h-.51l-5.61-13.6v13.6h-1.31v-15.33h1.95l5.22,12.71,5.19-12.71h1.98v15.33h-1.33Z"/><path class="cls-1" d="M76.92,126.33l-1.54-3.77h-8.16l-1.54,3.77h-1.47l6.27-15.33h1.63l6.27,15.33h-1.47ZM71.29,112.29l-3.65,9.08h7.33l-3.68-9.08Z"/><path class="cls-1" d="M93.9,126.33l-9.65-13.24v13.24h-1.31v-15.33h1.33l9.61,13.05v-13.05h1.31v15.33h-1.29Z"/><path class="cls-1" d="M112.33,126.33v-7.28h-9.72v7.28h-1.31v-15.33h1.31v6.85h9.72v-6.85h1.33v15.33h-1.33Z"/><path class="cls-1" d="M130.89,126.33l-1.54-3.77h-8.16l-1.54,3.77h-1.47l6.27-15.33h1.63l6.27,15.33h-1.47ZM125.26,112.29l-3.65,9.08h7.33l-3.68-9.08Z"/><path class="cls-1" d="M139.23,126.33v-14.13h-5.01v-1.19h11.35v1.19h-5.01v14.13h-1.33Z"/><path class="cls-1" d="M154.48,126.33v-14.13h-5.01v-1.19h11.35v1.19h-5.01v14.13h-1.33Z"/><path class="cls-1" d="M175.39,126.33l-1.54-3.77h-8.16l-1.54,3.77h-1.47l6.27-15.33h1.63l6.27,15.33h-1.47ZM169.76,112.29l-3.65,9.08h7.33l-3.68-9.08Z"/><path class="cls-1" d="M192.37,126.33l-9.65-13.24v13.24h-1.31v-15.33h1.33l9.61,13.05v-13.05h1.31v15.33h-1.29Z"/><path class="cls-1" d="M219.04,126.33v-7.28h-9.72v7.28h-1.31v-15.33h1.31v6.85h9.72v-6.85h1.33v15.33h-1.33Z"/><path class="cls-1" d="M237.61,126.33l-1.54-3.77h-8.16l-1.54,3.77h-1.47l6.27-15.33h1.63l6.27,15.33h-1.47ZM231.98,112.29l-3.65,9.08h7.33l-3.68-9.08Z"/><path class="cls-1" d="M252.61,126.33l-4.3-6.34h-3.38v6.34h-1.31v-15.33h5.72c2.64,0,4.67,1.68,4.67,4.48s-1.98,4.32-4.25,4.41l4.43,6.43h-1.58ZM249.23,112.19h-4.3v6.6h4.3c2.02,0,3.4-1.38,3.4-3.31s-1.38-3.29-3.4-3.29Z"/><path class="cls-1" d="M259.57,126.33v-15.33h6.3c2.57,0,4.23,1.49,4.23,3.91,0,1.93-1.31,3.24-2.69,3.52,1.63.25,2.99,1.95,2.99,3.77,0,2.55-1.65,4.14-4.39,4.14h-6.43ZM260.88,117.87h4.83c1.98,0,3.01-1.24,3.01-2.83s-1.03-2.85-3.01-2.85h-4.83v5.68ZM260.88,125.13h4.92c2.02,0,3.22-1.17,3.22-3.03,0-1.56-1.08-3.03-3.22-3.03h-4.92v6.07Z"/><path class="cls-1" d="M282.84,110.75c4.48,0,7.45,3.45,7.45,7.93s-2.96,7.93-7.45,7.93-7.45-3.45-7.45-7.93,2.94-7.93,7.45-7.93ZM282.84,111.94c-3.72,0-6.07,2.83-6.07,6.73s2.34,6.73,6.07,6.73,6.07-2.87,6.07-6.73-2.39-6.73-6.07-6.73Z"/><path class="cls-1" d="M295.82,111h1.33v9.42c0,3.1,1.63,4.99,4.64,4.99s4.64-1.88,4.64-4.99v-9.42h1.33v9.44c0,3.79-2.02,6.16-5.97,6.16s-5.97-2.39-5.97-6.16v-9.44Z"/><path class="cls-1" d="M322.86,126.33l-4.3-6.34h-3.38v6.34h-1.31v-15.33h5.72c2.64,0,4.67,1.68,4.67,4.48s-1.98,4.32-4.25,4.41l4.43,6.43h-1.58ZM319.49,112.19h-4.3v6.6h4.3c2.02,0,3.4-1.38,3.4-3.31s-1.38-3.29-3.4-3.29Z"/></svg>