<?xml version="1.0" encoding="UTF-8"?>
<svg id="Layer_1" xmlns="http://www.w3.org/2000/svg" width="696.3" height="237.6" version="1.1" viewBox="0 0 696.3 237.6">
  <!-- Generator: Adobe Illustrator 30.0.0, SVG Export Plug-In . SVG Version: 2.1.1 Build 48)  -->
  <defs>
    <style>
      .st0 {
        fill: #001123;
      }

      .st1 {
        fill: #0959af;
      }
    </style>
  </defs>
  <path class="st0" d="M5.5,166v-.4c0-8.9,5.9-15.2,14-15.2s7.1,1.2,9.8,3.5l-3.7,4.8c-1.6-1.5-3.3-2.6-6.2-2.6-4.3,0-7.5,3.9-7.5,9.4v.3c0,6.2,3.4,9.6,7.8,9.6s3.3-.4,4.5-1.2v-5.3h-5.4v-5.4h11.4v13.9c-2.7,2.1-6.2,3.7-10.7,3.7-8.1,0-13.9-5.8-13.9-15.2h0Z"/>
  <path class="st0" d="M33,166.1v-.5c0-9,5.7-15.3,13.6-15.3s13.5,6.3,13.5,15.2v.5c0,9-5.7,15.3-13.6,15.3s-13.5-6.3-13.5-15.2ZM53.7,165.9v-.3c0-5.9-3-9.6-7.2-9.6s-7.2,3.7-7.2,9.6v.3c0,5.9,3,9.6,7.2,9.6s7.1-3.7,7.1-9.6h.1Z"/>
  <path class="st0" d="M62.8,150.8h11.3c3.5,0,6.3,1,8.1,2.9,1.6,1.6,2.5,4,2.5,6.9v.2c0,4.5-2.3,7.4-5.6,8.9l6.4,11.1h-7.1l-5.5-9.9h-3.9v9.9h-6.2v-30h0ZM73.6,165.4c3.2,0,4.9-1.8,4.9-4.5h0c0-3-1.8-4.5-5-4.5h-4.5v9h4.6Z"/>
  <path class="st0" d="M88.4,150.8h9.7c8.7,0,14.3,6,14.3,14.8v.4c0,8.8-5.6,14.8-14.3,14.8h-9.7v-30h0ZM94.7,156.4v18.8h3.4c4.7,0,7.9-3.3,7.9-9.3v-.2c0-6-3.2-9.3-7.9-9.3h-3.4Z"/>
  <path class="st0" d="M115,166.1v-.5c0-9,5.7-15.3,13.6-15.3s13.5,6.3,13.5,15.2v.5c0,9-5.7,15.3-13.6,15.3s-13.5-6.3-13.5-15.2h0ZM135.7,165.9v-.3c0-5.9-3-9.6-7.2-9.6s-7.2,3.7-7.2,9.6v.3c0,5.9,3,9.6,7.2,9.6s7.1-3.7,7.1-9.6h0Z"/>
  <path class="st0" d="M144.8,150.8h5.7l11.5,17.5v-17.5h6.1v30h-5.3l-11.9-18.1v18.1h-6.1v-30Z"/>
  <path class="st0" d="M183.2,150.8h11.3c3.5,0,6.3,1,8.1,2.9,1.6,1.6,2.5,4,2.5,6.9v.2c0,4.5-2.3,7.4-5.6,8.9l6.4,11.1h-7.1l-5.5-9.9h-3.9v9.9h-6.2v-30h0ZM194,165.4c3.2,0,4.9-1.8,4.9-4.5h0c0-3-1.8-4.5-5-4.5h-4.5v9h4.6Z"/>
  <path class="st0" d="M208.9,150.8h19.3v5.6h-13.1v6.5h11.6v5.6h-11.6v6.7h13.3v5.6h-19.5v-30h0Z"/>
  <path class="st0" d="M232,150.8h19.3v5.6h-13.1v6.5h11.6v5.6h-11.6v6.7h13.3v5.6h-19.5v-30h0Z"/>
  <path class="st0" d="M254,176.7l3.7-4.6c2,1.8,4.5,3.4,7.5,3.4s3.9-1.2,3.9-3h0c0-1.5-.9-2.5-5.1-4.1-5.3-2.1-8.6-4.1-8.6-9.2h0c0-5.3,4-8.9,9.8-8.9s6.9,1.2,9.7,3.7l-3.5,4.7c-1.9-1.5-4.1-2.8-6.4-2.8s-3.5,1.1-3.5,2.6h0c0,1.8,1,2.6,5.7,4.5,5.2,2.1,8.1,4.3,8.1,9h0c0,5.7-4.2,9.1-10.1,9.1s-7.8-1.3-11.1-4.4h-.1Z"/>
  <path class="st0" d="M286.7,176.7l3.7-4.6c2,1.8,4.5,3.4,7.5,3.4s3.9-1.2,3.9-3h0c0-1.5-.9-2.5-5.1-4.1-5.3-2.1-8.6-4.1-8.6-9.2h0c0-5.3,4-8.9,9.8-8.9s6.9,1.2,9.7,3.7l-3.5,4.7c-1.9-1.5-4.1-2.8-6.4-2.8s-3.5,1.1-3.5,2.6h0c0,1.8,1,2.6,5.7,4.5,5.2,2.1,8.1,4.3,8.1,9h0c0,5.7-4.2,9.1-10.1,9.1s-7.8-1.3-11.1-4.4h-.1Z"/>
  <path class="st0" d="M310.1,166v-.4c0-9.1,5.7-15.2,13.6-15.2s7.3,1.6,9.6,4l-3.7,4.8c-1.8-1.8-3.7-3-6.1-3-4,0-7,3.7-7,9.6h0c0,6.1,3.1,9.7,7.1,9.7s4.2-1.1,6.2-3.1l3.7,4.4c-2.7,2.8-5.6,4.5-10.1,4.5-7.9,0-13.2-6-13.2-15.2h-.1Z"/>
  <path class="st0" d="M336.1,169.1v-18.3h6.2v18.4c0,4.2,2,6.3,5.2,6.3s5.2-2.1,5.2-6.2v-18.5h6.2v18.2c0,8.3-4.5,12.2-11.5,12.2s-11.4-4-11.4-12.1h0Z"/>
  <path class="st0" d="M363.3,150.8h6.2v24.3h12.1v5.7h-18.3v-30h0Z"/>
  <path class="st0" d="M384.5,150.8h6.2v24.3h12.1v5.7h-18.3v-30h0Z"/>
  <path class="st0" d="M407.5,168.9l-9.8-18.2h7l5.9,11.8,6-11.8h6.9l-9.8,18.1v11.9h-6.2v-11.8h0Z"/>
  <path class="st0" d="M436,150.8h6.5l6.7,12.2,6.6-12.2h6.6v30h-6.1v-19.1l-7.1,12.4h-.1l-7-12.3v19.1h-6v-30h-.1Z"/>
  <path class="st0" d="M474.5,150.6h5.9l10.8,30.2h-6.4l-2.2-6.5h-10.3l-2.2,6.5h-6.3l10.8-30.2h0ZM480.7,168.8l-3.3-9.8-3.3,9.8h6.6,0Z"/>
  <path class="st0" d="M492.7,150.8h5.7l11.5,17.5v-17.5h6.1v30h-5.3l-11.9-18.1v18.1h-6.1v-30h0Z"/>
  <path class="st0" d="M518.5,176.7l3.7-4.6c2,1.8,4.5,3.4,7.5,3.4s3.9-1.2,3.9-3h0c0-1.5-.9-2.5-5.1-4.1-5.3-2.1-8.6-4.1-8.6-9.2h0c0-5.3,4-8.9,9.8-8.9s6.9,1.2,9.7,3.7l-3.5,4.7c-1.9-1.5-4.1-2.8-6.4-2.8s-3.5,1.1-3.5,2.6h0c0,1.8,1,2.6,5.7,4.5,5.2,2.1,8.1,4.3,8.1,9h0c0,5.7-4.2,9.1-10.1,9.1s-7.8-1.3-11.1-4.4h-.1Z"/>
  <path class="st0" d="M542.6,169.1v-18.3h6.2v18.4c0,4.2,2,6.3,5.2,6.3s5.2-2.1,5.2-6.2v-18.5h6.2v18.2c0,8.3-4.5,12.2-11.5,12.2s-11.3-4-11.3-12.1h0Z"/>
  <path class="st0" d="M569.8,150.8h6.2v12.9l9.8-12.9h7.3l-10.1,12.7,10.5,17.3h-7.3l-7.5-12.3-2.8,3.5v8.8h-6.2v-30h0Z"/>
  <path class="st0" d="M596.8,150.8h6.2v12h9.8v-12h6.2v30h-6.2v-12.2h-9.8v12.2h-6.2v-30Z"/>
  <path class="st0" d="M631.2,150.6h5.9l10.8,30.2h-6.4l-2.2-6.5h-10.3l-2.2,6.5h-6.3l10.8-30.2h0ZM637.4,168.8l-3.3-9.8-3.3,9.8h6.6Z"/>
  <path class="st0" d="M649.4,150.8h5.7l11.5,17.5v-17.5h6.1v30h-5.3l-11.9-18.1v18.1h-6.1v-30h0Z"/>
  <path class="st0" d="M677.6,150.8h6.2v30h-6.2v-30Z"/>
  <path class="st0" d="M207.9,80.6c17.4-5,29.8-17.4,29.8-38v-.4c0-11-3.8-20.3-10.4-27.1-8.1-7.9-20.4-12.6-36.2-12.6h-56v63.4h-55.1v19.4h16.2v15.3c-7.7,5.7-18.5,9.5-30.3,9.5-25.7,0-42.7-19-42.7-44.8v-.4c0-24,17.6-44.1,40.7-44.1s25.5,5.2,35.2,13.3l14-16.7C100.1,6.5,86.7.4,64.8.4,26.9.4,0,30.1,0,65.3v.4c0,36.6,25.8,64.6,65.1,64.6s40-9,52.4-19.6v-25.4h17.6v42.8h22.1v-43.8h27.6l30.9,43.8h26.2l-33.9-47.5h-.1ZM157.1,64.8V22.6h32.1c16.3,0,26,7.4,26,20.8v.4c0,12.7-10.1,21-25.8,21h-32.3Z"/>
  <path class="st0" d="M242.4,109.8l13.3-15.8c12,10.4,24.2,16.3,39.6,16.3s22.2-6.5,22.2-15.8v-.4c0-9-5-13.8-28.4-19.2-26.7-6.5-41.8-14.3-41.8-37.5v-.4c0-21.5,17.9-36.4,42.9-36.4s32.8,5.6,45.6,15.8l-11.8,16.7c-11.3-8.4-22.6-12.9-34.1-12.9s-20.5,6.6-20.5,14.9v.4c0,9.7,5.7,14,30,19.7,26.5,6.5,40.2,16,40.2,36.8v.4c0,23.5-18.5,37.5-44.9,37.5s-37.3-6.6-52.4-20.1h0Z"/>
  <path class="st0" d="M349.5,2.5h23.5l38.2,59.4L449.5,2.5h23.5v125.6h-22.1V38l-39.6,59.2h-.7l-39.3-58.8v89.7h-21.7V2.5h0Z"/>
  <path class="st1" d="M485.1,111.1l13.7-16c10.1,9.4,20.7,15.1,32.4,15.1s25-8.6,25-21.8v-.4c0-12.8-10.8-20.9-26.1-20.9s-16.7,2.5-23.2,5.6l-13.3-8.8,3.6-61.7h75.4v19.8h-56.3l-2,29.3c5.9-2.2,11.5-3.6,20-3.6,24.5,0,43.9,13,43.9,39.6v.4c0,25.7-18.9,42.7-46.8,42.7s-34.4-7.7-46.3-19.3h0Z"/>
  <path class="st1" d="M586.5,65.5v-.4c0-35.9,22-65.1,55.1-65.1s54.7,28.8,54.7,64.8v.4c0,36-22,65.2-55.1,65.2s-54.7-28.8-54.7-64.8h0ZM673.5,65.5v-.4c0-24.8-12.8-45.2-32.2-45.2s-31.9,20-31.9,44.8v.4c0,24.8,12.6,45.2,32.2,45.2s31.9-20.2,31.9-44.8h0Z"/>
  <path class="st0" d="M15.4,226.6l-9-16.1h5.1l6.2,11.6,6.2-11.6h4.9l-9,16.1v10.7h-4.4v-10.7h0Z"/>
  <path class="st0" d="M31,224.1v-.4c0-7.9,4.9-13.6,11.9-13.6s11.8,5.7,11.8,13.6v.4c0,7.9-4.9,13.6-11.9,13.6s-11.8-5.7-11.8-13.6h0ZM50.1,224v-.3c0-5.7-3.1-9.6-7.3-9.6s-7.2,3.8-7.2,9.6v.3c0,5.7,3.1,9.6,7.3,9.6s7.2-3.8,7.2-9.6Z"/>
  <path class="st0" d="M60.7,227v-16.6h4.4v16.5c0,4.3,2.1,6.6,5.5,6.6s5.5-2.2,5.5-6.4v-16.7h4.4v16.4c0,7.2-3.9,10.8-10,10.8s-9.9-3.6-9.9-10.6h.1Z"/>
  <path class="st0" d="M87.6,210.5h9.7c3.1,0,5.5.9,7.2,2.5,1.4,1.4,2.2,3.4,2.2,5.9h0c0,4.3-2.3,6.8-5.5,8l6.3,10.4h-5.1l-5.7-9.5h-4.6v9.4h-4.4v-26.8h0ZM96.8,223.8c3.4,0,5.3-1.8,5.3-4.6h0c0-3.1-1.9-4.7-5.3-4.7h-4.9v9.3h4.9Z"/>
  <path class="st0" d="M119.8,234.3l2.5-3.3c1.8,1.6,3.5,2.6,5.7,2.6s4.8-1.9,4.8-4.8h0c0-2.9-2.1-4.6-4.9-4.6s-2.9.5-4.1,1l-2.6-1.7.7-13h14.2v4.1h-10.4l-.4,6.4c1.1-.3,2.1-.6,3.6-.6,4.6,0,8.4,2.6,8.4,8.3h0c0,5.6-3.8,9.1-9.1,9.1s-6.1-1.3-8.3-3.4h0Z"/>
  <path class="st0" d="M142.4,224.1v-.4c0-8.1,4-13.6,10.2-13.6s10.1,5.4,10.1,13.6v.4c0,8.1-4,13.6-10.2,13.6s-10.1-5.4-10.1-13.6h0ZM158.1,224v-.3c0-6-2.3-9.6-5.6-9.6s-5.6,3.6-5.6,9.6v.3c0,6,2.3,9.6,5.7,9.6s5.5-3.6,5.5-9.6h0Z"/>
  <path class="st0" d="M175.4,233.7l2.7-3.3c2,1.8,4.2,3.2,7,3.2s4.2-1.4,4.2-3.4h0c0-1.7-.9-2.8-5.1-4.4-5.1-1.9-7.7-3.8-7.7-8.1h0c0-4.5,3.5-7.6,8.5-7.6s6,1,8.4,3.1l-2.5,3.4c-1.8-1.5-3.9-2.5-6-2.5s-3.9,1.3-3.9,3.1h0c0,1.9,1,2.9,5.5,4.7,5,1.9,7.3,4,7.3,7.9h0c0,4.8-3.7,7.8-8.7,7.8s-6.8-1.2-9.7-3.9h0Z"/>
  <path class="st0" d="M204.7,214.6h-7v-4.1h18.5v4.1h-7v22.6h-4.4v-22.6h-.1Z"/>
  <path class="st0" d="M227.1,210.3h4.3l9.8,26.9h-4.6l-2.2-6.3h-10.4l-2.2,6.3h-4.5l9.8-26.9h0ZM232.9,227l-3.8-10.8-3.8,10.8h7.6Z"/>
  <path class="st0" d="M249.2,214.6h-7v-4.1h18.5v4.1h-7v22.6h-4.4v-22.6h-.1Z"/>
  <path class="st0" d="M266.5,210.5h16.9v4h-12.5v7.3h11v4h-11v7.5h12.7v4h-17v-26.8h-.1Z"/>
  <path class="st0" d="M298.5,210.5h4.4v22.7h11.5v4.1h-15.9v-26.8h0Z"/>
  <path class="st0" d="M327.8,210.3h4.3l9.8,26.9h-4.6l-2.2-6.3h-10.4l-2.2,6.3h-4.5l9.8-26.9h0ZM333.7,227l-3.8-10.8-3.8,10.8h7.6,0Z"/>
  <path class="st0" d="M342.8,210.5h4.7l5.2,19.4,5.5-19.5h3.8l5.5,19.5,5.2-19.4h4.6l-7.8,26.9h-4l-5.5-18.9-5.5,18.9h-4l-7.8-26.9h0Z"/>
  <path class="st0" d="M391.5,210.5h16.8v4.1h-12.4v7.5h10.9v4.1h-10.9v11.1h-4.4v-26.8h0Z"/>
  <path class="st0" d="M414.4,210.5h4.4v26.8h-4.4v-26.8Z"/>
  <path class="st0" d="M426.3,210.5h9.7c3.1,0,5.5.9,7.1,2.5s2.2,3.4,2.2,5.9h0c0,4.3-2.3,6.8-5.5,8l6.3,10.4h-5.1l-5.7-9.5h-4.6v9.4h-4.4v-26.8h0ZM435.5,223.8c3.4,0,5.4-1.8,5.4-4.6h0c0-3.1-2-4.7-5.3-4.7h-4.9v9.3h4.8Z"/>
  <path class="st0" d="M451.7,210.5h4.6l6.9,12.3,6.8-12.3h4.7v26.8h-4.4v-18.9l-7.1,12.4h-.1l-7.1-12.3v18.9h-4.3v-26.8h0Z"/>
  <path class="st0" d="M479.4,211.9h-1.9v-1.4h5.2v1.4h-1.9v5.9h-1.5v-5.9h0Z"/>
  <path class="st0" d="M484.1,210.5h1.6l1.6,3,1.6-3h1.6v7.4h-1.5v-4.7l-1.7,3h0l-1.7-3v4.7h-1.5v-7.4h0Z"/>
</svg>