<?xml version="1.0" encoding="UTF-8"?>
<svg id="Layer_1" xmlns="http://www.w3.org/2000/svg" width="536.2" height="83" version="1.1" viewBox="0 0 536.2 83">
  <!-- Generator: Adobe Illustrator 30.0.0, SVG Export Plug-In . SVG Version: 2.1.1 Build 48)  -->
  <defs>
    <style>
      .st0 {
        fill: #5c677d;
      }

      .st1 {
        fill: #0d1a29;
      }
    </style>
  </defs>
  <polygon class="st1" points="76.7 71.5 76.7 48.8 76.7 41.7 69.6 41.7 64.3 41.7 63.6 41.7 63.6 32 56.5 27.9 56.5 36.1 56.5 41.7 48.6 41.7 40.8 41.7 40.8 36.1 40.8 27.9 33.7 32 33.7 41.7 33.7 48.8 33.7 58.4 40.8 58.4 40.8 50.2 40.8 48.8 48.6 48.8 56.5 48.8 56.5 50.2 56.5 58.4 63.6 58.4 63.6 48.8 69.6 48.8 69.6 64.4 48.6 64.4 33.7 64.4 27.7 64.4 27.7 48.8 27.7 41.7 27.7 35.7 27.7 32 27.7 29 48.6 17 69.6 29 69.6 35.7 76.7 35.7 76.7 24.9 48.6 8.8 20.6 24.9 20.6 35.7 20.6 41.7 20.6 48.8 20.6 64.4 20.6 71.5 48.6 71.5 76.7 71.5"/>
  <g>
    <path class="st1" d="M113.1,60c-2.5,0-4.8-.4-6.9-1.2-2.1-.8-3.9-1.9-5.4-3.4-1.5-1.5-2.7-3.2-3.6-5.2-.9-2-1.3-4.2-1.3-6.5s.4-4.5,1.3-6.5c.9-2,2.1-3.7,3.6-5.2,1.6-1.5,3.4-2.6,5.5-3.4,2.1-.8,4.4-1.2,6.9-1.2s5.3.5,7.5,1.4c2.2.9,4.1,2.3,5.6,4l-4.7,4.3c-1.1-1.2-2.4-2.1-3.7-2.7-1.3-.6-2.8-.9-4.4-.9s-2.9.2-4.2.7c-1.3.5-2.3,1.2-3.3,2.1s-1.6,2-2.1,3.2c-.5,1.2-.7,2.6-.7,4.1s.2,2.8.7,4c.5,1.2,1.2,2.3,2.1,3.2s2,1.6,3.2,2.1c1.2.5,2.6.7,4.1.7s2.8-.2,4.2-.7c1.4-.5,2.7-1.3,4-2.4l4.1,5.3c-1.7,1.3-3.7,2.3-6,3-2.3.7-4.5,1-6.8,1ZM119.2,55v-11.8h6.7v12.8l-6.7-.9Z"/>
    <path class="st1" d="M146.6,60c-4.5,0-8-1.2-10.5-3.7-2.5-2.5-3.8-6-3.8-10.7v-17.6h7.3v17.4c0,3,.6,5.2,1.8,6.5,1.2,1.3,3,2,5.2,2s3.9-.7,5.2-2c1.2-1.3,1.8-3.5,1.8-6.5v-17.4h7.2v17.6c0,4.6-1.3,8.2-3.8,10.7-2.5,2.5-6,3.7-10.5,3.7Z"/>
    <path class="st1" d="M168,59.4v-31.5h6l18.6,22.7h-2.9v-22.7h7.2v31.5h-6l-18.6-22.7h2.9v22.7h-7.2Z"/>
    <path class="st1" d="M204.4,59.4v-31.5h6l18.6,22.7h-2.9v-22.7h7.2v31.5h-6l-18.6-22.7h2.9v22.7h-7.2Z"/>
    <path class="st1" d="M240.7,59.4v-31.5h7.3v31.5h-7.3Z"/>
    <path class="st1" d="M255.5,59.4v-31.5h6l18.6,22.7h-2.9v-22.7h7.2v31.5h-6l-18.6-22.7h2.9v22.7h-7.2Z"/>
    <path class="st1" d="M307.1,60c-2.5,0-4.8-.4-6.9-1.2-2.1-.8-3.9-1.9-5.4-3.4-1.5-1.5-2.7-3.2-3.6-5.2-.9-2-1.3-4.2-1.3-6.5s.4-4.5,1.3-6.5c.9-2,2.1-3.7,3.6-5.2,1.6-1.5,3.4-2.6,5.5-3.4,2.1-.8,4.4-1.2,6.9-1.2s5.3.5,7.5,1.4c2.2.9,4.1,2.3,5.6,4l-4.7,4.3c-1.1-1.2-2.4-2.1-3.7-2.7-1.3-.6-2.8-.9-4.4-.9s-2.9.2-4.2.7c-1.3.5-2.3,1.2-3.3,2.1s-1.6,2-2.1,3.2c-.5,1.2-.7,2.6-.7,4.1s.2,2.8.7,4c.5,1.2,1.2,2.3,2.1,3.2s2,1.6,3.2,2.1c1.2.5,2.6.7,4.1.7s2.8-.2,4.2-.7c1.4-.5,2.7-1.3,4-2.4l4.1,5.3c-1.7,1.3-3.7,2.3-6,3-2.3.7-4.5,1-6.8,1ZM313.2,55v-11.8h6.7v12.8l-6.7-.9Z"/>
  </g>
  <g>
    <path class="st0" d="M358.6,59.4h-4.4v-14.5h-17.4v14.5h-4.4v-31.8h4.4v14.2h17.4v-14.2h4.4v31.8Z"/>
    <path class="st0" d="M400.9,43.5c0,2.4-.4,4.6-1.1,6.6-.8,2-1.8,3.7-3.2,5.1-1.4,1.4-3.1,2.6-5,3.3-2,.8-4.1,1.2-6.5,1.2s-4.5-.4-6.5-1.2c-2-.8-3.6-1.9-5-3.3-1.4-1.4-2.5-3.2-3.2-5.1-.8-2-1.1-4.2-1.1-6.6s.4-4.6,1.1-6.6c.8-2,1.8-3.7,3.2-5.2,1.4-1.4,3.1-2.6,5-3.4,2-.8,4.1-1.2,6.5-1.2s4.5.4,6.5,1.2c2,.8,3.6,1.9,5,3.4,1.4,1.4,2.5,3.2,3.2,5.2.8,2,1.1,4.2,1.1,6.6ZM396.4,43.5c0-2-.3-3.7-.8-5.3-.5-1.6-1.3-2.9-2.3-3.9-1-1.1-2.2-1.9-3.6-2.5s-3-.9-4.7-.9-3.3.3-4.7.9c-1.4.6-2.6,1.4-3.6,2.5-1,1.1-1.8,2.4-2.3,3.9-.5,1.6-.8,3.3-.8,5.3s.3,3.7.8,5.3,1.3,2.9,2.3,3.9c1,1.1,2.2,1.9,3.6,2.5,1.4.6,3,.9,4.7.9s3.3-.3,4.7-.9,2.6-1.4,3.6-2.5c1-1.1,1.8-2.4,2.3-3.9s.8-3.3.8-5.3Z"/>
    <path class="st0" d="M427.8,49c.2.4.3.8.5,1.2.1-.4.3-.8.5-1.2s.4-.8.6-1.1l10.9-19.6c.2-.3.4-.5.6-.6s.5-.1.9-.1h3.2v31.8h-3.8v-23.4c0-.3,0-.6,0-1,0-.4,0-.7,0-1.1l-11,19.9c-.4.7-.9,1-1.6,1h-.6c-.7,0-1.2-.3-1.6-1l-11.3-20c0,.4,0,.8.1,1.1,0,.4,0,.7,0,1v23.4h-3.8v-31.8h3.2c.4,0,.7,0,.9.1s.4.3.6.6l11.1,19.6c.2.4.4.7.6,1.1Z"/>
    <path class="st0" d="M477.1,27.5v3.5h-15.5v10.6h12.5v3.4h-12.5v10.9h15.5v3.5h-19.9v-31.8h19.9Z"/>
    <path class="st0" d="M504.4,32.5c-.1.2-.3.4-.4.5-.2.1-.3.2-.6.2s-.6-.1-.9-.4c-.3-.3-.8-.5-1.3-.8s-1.1-.6-1.9-.8c-.7-.3-1.6-.4-2.6-.4s-1.8.1-2.6.4-1.4.6-1.9,1.1c-.5.4-.9,1-1.1,1.6-.3.6-.4,1.2-.4,1.9s.2,1.6.7,2.2c.4.6,1,1.1,1.8,1.5.7.4,1.6.8,2.5,1.1.9.3,1.9.6,2.8.9,1,.3,1.9.7,2.8,1.1.9.4,1.7.9,2.5,1.5.7.6,1.3,1.4,1.8,2.3.4.9.7,2,.7,3.3s-.2,2.7-.7,3.9c-.5,1.2-1.2,2.3-2.1,3.2s-2.1,1.6-3.4,2.1c-1.3.5-2.9.8-4.6.8s-4-.4-5.7-1.1c-1.7-.7-3.2-1.8-4.4-3l1.3-2c.1-.2.3-.3.4-.4.2-.1.4-.2.6-.2.3,0,.7.2,1.1.5.4.3.9.7,1.5,1.1.6.4,1.3.8,2.2,1.1.9.3,1.9.5,3.2.5s2-.1,2.8-.4c.8-.3,1.5-.7,2.1-1.2.6-.5,1-1.1,1.3-1.8s.5-1.5.5-2.4-.2-1.8-.7-2.4c-.4-.6-1-1.1-1.7-1.5-.7-.4-1.5-.8-2.5-1.1-.9-.3-1.9-.6-2.8-.9-1-.3-1.9-.7-2.8-1.1-.9-.4-1.7-.9-2.5-1.6-.7-.6-1.3-1.4-1.7-2.4s-.7-2.1-.7-3.5.2-2.2.7-3.3c.4-1.1,1.1-2,1.9-2.8.8-.8,1.9-1.5,3.1-2,1.2-.5,2.7-.7,4.3-.7s3.4.3,4.9.8c1.5.6,2.8,1.4,3.9,2.4l-1.1,2Z"/>
  </g>
</svg>