<?xml version="1.0" encoding="UTF-8"?>
<svg id="Layer_1" xmlns="http://www.w3.org/2000/svg" width="1299.1" height="338" version="1.1" viewBox="0 0 1299.1 338">
  <!-- Generator: Adobe Illustrator 29.6.0, SVG Export Plug-In . SVG Version: 2.1.1 Build 107)  -->
  <defs>
    <style>
      .st0 {
        fill: #262307;
      }

      .st1 {
        fill: #fff;
      }

      .st2 {
        fill: #231f20;
        stroke: #231f20;
        stroke-miterlimit: 2.6;
        stroke-width: .5px;
      }

      .st3 {
        fill: #eabe31;
      }
    </style>
  </defs>
  <g>
    <path d="M712,152.2c0,16.8-8.7,34.9-25.9,54.4-18.3,20.5-36.6,30.9-55.2,30.9s-21.3-2.8-29.2-8.6c-1.9-1.5-7-5.6-15.5-12.4l-12.2,13.6c-.9,32.4-1.1,48.7-.4,48.7h23.7v4.1h-98.2c-3.1.6-6.2.9-9.3.9-10,0-14.8-3.7-14.4-11.2.5-1.5.9-3.1,1.4-4.8,1.9-2.6,5.3-3.6,10-3.2,4.1.2,6.9,2.2,8.6,6-.2,1.1-.5,2.6-.7,4.5s-1.4,3.3-3.6,4.1l25.8.3v-49c0-12.3-.4-19.8-1.1-22.6-2.1-8-8-12.4-17.6-13-2.4,6.5-5.8,9.9-10.4,9.9s-5.5-1.4-7.9-4.1c-2.4-2.8-3.6-5.8-3.6-8.9,0-6.5,4.7-10.4,14-11.4,6.7-.9,12.5.9,17.6,5.4,4.3,3.8,7.3,8.8,9,14.9v-26.7c0-26.1-6.9-39.1-20.8-39.1s-4.7,1.3-4.7,3.8c.2-2.8.4-.6.4,6.3s-4.4,3.8-13.3,3.8c-5-2.3-7.8-3.8-8.4-4.6-.6-.7-1.3-3.6-2-8.5-.5-3.8,1.4-7.4,5.8-10.8,4.3-3.4,9-5.1,14-5.1,9,0,18.4,6.5,28.2,19.7.7-5.3.9-10.6.7-15.9-.5-9.3-.6-13-.6-11.2,0-5.3-.9-9.3-2.4-11.9-1.6-2.6-5-5.1-10.2-7.5v-2.8c20.3-4.1,37.2-13.6,50.5-28.9l.7,1.6v216l12.5-.3-.4-219.8-10.4-9.5c-18.9,15.1-36.5,22.6-52.7,22.6s-13-1.6-19.7-4.8c-3.8-1.9-9.5-5.3-17.2-10.2-.7,0-1.7.1-3.1.5-1.3.3-2.6.4-3.8.1l-1.1-4.8c6.9-1.1,14.2-3.5,21.9-7.3,11.4-5.8,18.3-9,20.4-9.9,7.7,7.6,12.1,11.9,13.3,12.7,5.5,4.3,11.2,6.3,17.2,6.3s14.2-5,25.4-14.9c2.8,2.6,7.3,6.3,13.3,11.2,1.9,1.5,2.8,3.4,2.8,5.8,0-.2,0,1.8,0,6.2v11.3l1.1,1.9c6.8-3,15.4-8.8,25.8-17.5l24.8-21,3.9,3.5c-4.3,4.7-6.5,9.5-6.5,14.6s7.7,12.4,23.3,20c20.5,10.2,34.8,18.8,42.7,25.7,15.5,13.8,23.3,30.6,23.3,50.5h-.1ZM638.2,106.7c-8.4-3-19.7-8-34.1-15.3-5-3.6-9.7-9.7-14-18.1l-16.1,10.5-.4,103.1,64.5-80.2h0ZM684.4,178.9c0-13.8-1.1-24.1-3.2-30.9-3.1-10.4-9.7-18.6-19.7-24.5-21.5,25.9-43.4,53-65.6,81.5,7.4-2.6,13.2-3.5,17.2-2.8,5.5.9,13.9,4.1,25.1,9.9,10.3,5.5,16.3,8.2,17.9,8.2,7.9,0,14.8-5.2,20.8-15.6,5-8.7,7.5-17.3,7.5-25.7h0ZM655.4,119.1c0-1.5-3.8-4.8-11.4-9.9l-70.2,87.5v25.7c54.5-67.2,81.7-101.7,81.7-103.4h0Z"/>
    <path d="M846.7,156.6l-25.8,24.5c-1.9-1.7-9.8-8.9-23.7-21.6-4.1,1.7-6.3,4.1-6.8,7v114.5c-7.6-.2-19.1-.3-34.4-.3v-105.9c-5.3-7.6-10-12.1-14.4-13.4l-5.8,4.5-4.3-4.8c17.4-15.5,28.3-26.1,32.6-31.8,4.3,5.3,13.2,14.2,26.5,26.7l26.9-26.7c3.6,3.2,13.3,12.4,29,27.4h.1Z"/>
    <path d="M925.3,283c-20-4.3-36.3-12.6-48.8-25.2-13.2-12.9-19.7-28.3-19.7-46.1s4.4-31.9,13.3-43.6c6.5-8.7,18.6-19.3,36.2-31.8,6.5-4.7,11.4-7,15.1-7,15.3,0,29.3,6.9,41.9,20.7,10.5,11.2,17.9,24.4,22.2,39.5,0,0,.3,2.3.9,7,.6,4.7.9,8.2.9,10.8,0,28.4-20.7,53.7-62,75.7h-.1ZM961.5,229.2c.5-5.3-1.6-13.4-6.1-24.2-4.5-10-8.8-17.4-12.9-22.2-12.4-14.4-23.4-22.7-33-24.8-17.4-3.8-26.2,4.9-26.2,26.1s5.4,32.2,16.1,47.7c12.2,17.4,26.9,26.1,44.1,26.1s8.2-2.6,11.8-7.6c3.3-4.5,5.1-8.7,5.4-12.7l.7-8.2h0Z"/>
    <path d="M1149.7,151.6c-7.4,15.9-17.9,23.9-31.6,23.9s-9-2.4-14.7-7.3c-4.8-4.3-10.2-8.8-16.1-13.6-7.4-4.9-15.4-7.3-24-7.3-15.8,0-23.7,6.8-23.7,20.3s2.8,13.4,8.6,22c6.2,9.5,12.4,14.3,18.6,14.3s12.5-2.9,21.7-8.7c9.2-5.8,16.2-10.3,21-13.5,9.5,1.5,17.6,6.3,24.2,14.6,6.5,8.2,9.9,16.8,9.9,25.4,0,12.7-7.2,25.5-21.5,38.5-11,10-24.6,18.5-40.9,25.4-26.3-14.2-46.8-24-61.6-29.3-5,2.3-9,3.1-11.8,2.2l-1.1-2.6,35.1-22.9c11.7,5.5,31.9,16.2,60.6,32.1,8.1-5.3,12.2-12.3,12.2-21s-2.6-17.9-7.9-25.2c-6-8.5-14-12.8-24-13l-35.8,22.2c-19.1-11.4-28.6-25.4-28.6-42s8.1-28.2,24.4-41.2c16.3-13,32.6-19.5,49.1-19.5s16.6,4.8,27.1,14.5c10.4,9.7,15.5,14.5,15.2,14.5,1.7.9,3.6,1.3,5.8,1.3l6.8-7.6,3.2,3.5h0Z"/>
    <path d="M1266.1,135.7l-17.3,21.6h-38.2v82.7c1.2,8.2,6.1,14.5,14.7,18.8l22.6-20.3,5,4.5c0,1.1-7,8.1-21,21.2-14,13-22,20-24.2,20.8-10.3-2.8-20.4-13.4-30.5-32.1v-94.8c-5-.4-9.2-.6-12.5-.6h-7.5l.4-2.8c6.9-5.5,24.5-23.8,52.7-55.1,3.3.6,4.7,1.8,3.9,3.5,0,.2-.4,1.4-1.3,3.6s-1.3,3.6-1.3,4v25.2h54.5Z"/>
  </g>
  <g>
    <path class="st2" d="M422.3,188.6c-5.9-40.4-19.2-70.6-34.4-78.3-7.2-3.6-10.7-3.8-25-.9-7.9,1.6-9.8,1.3-12.2-2-1.2-1.8-1-1.3-1.4-4.3l5.5-1.4c10.3-4.1,14.6-18,10.2-34-4.4-16.3-16-23.3-32.3-19.5-14.7,3.5-19.8,3.3-29.5-1-9.9-4.4-13.9-4.1-23,1.8-10.4,6.8-16.2,8.2-26.9,6.8-15.7-2.1-13.2-1.8-17.4-2,1.3-11.8.8-15.7-2.5-19.9-6.1-7.8-23.6-11.9-40.4-9.4-16.7,2.4-21.9,1.8-30.6-3.5-9.6-5.8-8-5.1-10.9-5.3-1.4-.1-2.6-.2-3.7-.2h-4.9c-2.7.1-4.8.7-7,1.6-11.2,4.5-13.5,4.5-30.3.8-15.5-3.5-26.9,3.5-31.4,19.1-4.2,14.6-.6,29.3,8.2,33.7l7.9,2.4c-.4,1.4-.9,2.3-1.6,3.5-.7,1.3-1.4,2.1-2.6,2.8-2.6,1.4-.4,1.6-14.7-1.3-16.4-3.3-27.1,2.7-36.8,20.9-8.4,15.6-17.1,47.3-17.4,63.1,0,4.2-.1,7.6-.1,10.4,0,7.7.4,10.9,1.1,12.7,2.5,5,4.1,6.6,19,17.6.2.1.1.1.4.3,18.2,13.4,15.6,11.3,18,14.3,2.3,2.8,1.8,1.9,3.6,6.3-3.9,2.2-5.3,4.3-6.6,9.6-2.8,11.7-3.5,20.2-1.8,26.3,6.5,24.5,45.4,43.9,87.6,43.7,28.5,0,46.7-10.4,51.2-29,3.2-13.3,3.6-17.3,2.1-21.3-1.9-5-3.5,4.5,11.2-66.6.6,1.8,1.1,3.2,2,4.9,1.6,3.1,3.9,5.1,6.8,5.8,4.5,1.1,9.1-.5,13.2-4.5l5.5-7.7,2.3,10.8c19.8,95.1,17.6,82.8,16.3,86.2-2.3,6.3-2.4,4.4,1,20.7,2.9,13.9,11,22.4,26,27.4,3.6,1.2,3.6,1.6,8.2,1.6h13.5c33.3,0,28.4.1,34.7-1.4,34.3-7.9,56.9-26.1,57.9-46.6.3-5.3-2.2-19.6-4.1-23.9l-4.7-6.3c.3-1.2.6-2,1.1-3.1,1.3-2.6,4.4-5.8,9-9.2l21.4-15.7c10.7-8.4,12.8-16.2,9.8-36.7h0ZM67,184.4l-1.2,6c-12.1-9-9.1-6.8-21.2-15.7-2.6-2.6-2.6-3.4-1.5-10.3,1.4-8.7,1.1-6.6,2.6-15.4,3.8-17.4,10.7-34.7,16.4-41.2h0c3.6-3.9,3-3.8,14.7-1.5,2.2.4,3.9,1.6,5,3.4.3,1.6,2.4-9.1-14.8,74.7h0ZM378.8,216.8l-5.4,3.9-16.7-82.2c4.3-1.9,2.5-1.4,12.4-3.1,4-.7,5.5-.1,8.3,2.9h0c8.1,9.2,17.9,40,19.3,60.6.4,5.2,1.6,3.9-17.9,18h0Z"/>
    <path class="st0" d="M319.6,139.4c16.7,81.5,12.6,61.1,29,142.8l20.8-13.6-28.9-141.1c-.1-.2-.3-.4-.5-.6l-5.1-27.6-20.3,15.9,5,24.3h0Z"/>
    <path class="st0" d="M278.9,146l29.9,147c6.8-1.4,5.1-1.1,11.9-2.4-6.1-42.3-5.4-37-4.9-37.1,1-.3-.3-3.8,8.8,24.8.4.9.4,1.1.9,1.7.2.3,0,0,.6,2.1,0,.3.1.4.2.4.7-.2,1.7,6.3-6.9-45.2l-8.5-50.9c0-.3.1-.4.3-.4.2,0,.1,0,.4,1.2l.6,1c13.8,54.5,10.3,40.9,24.1,95.4.6,2.3,1.2,2.6,3.3,1.7.4-.1.1,0,1.5-.4,2.1-.6,2.4,2.5-2.5-21.8l-25.2-124.3c-5.3-25.8-4.3-22.7-6.1-22.1-1.8.6,0,.5-12.1.9-6.7.2-8,1.2-8.9,6.8-1.6,9.7-2.5,11.9-5.9,14.5-2.6,1.8-2.3.8-1.4,7.3h0Z"/>
    <path class="st0" d="M263.6,140.8h0c-.4.3-.8.9-.9,1.4-.2,1.7-.8.6,8,15.8.7,1,1.2,1.6,1.3,1.9.7,1.5.6,1.3.8,1.2.4,0,.5-.8.3-2-3.3-19.1-2.9-17.4-4.1-18.1l-2.8-.3c-2.5-.4-2.1-.4-2.7,0h0Z"/>
    <path class="st0" d="M269.1,248.8h0l8,39.9c.6,3.2,1.4,4.1,3.1,3.6.5-.1.7-.6.5-1.4l-13.6-84c-.1-1.4,0-2.1.6-2.1.6,0-1.8-8.6,16.9,60.7,8.7,32.1,7.3,28,9.3,28.1q6.5,0,6.4-1.6c-14.6-71.6-10.9-53.7-25.5-125.3,0,2.2,0,4.1-.2,6.3-.6,7.6-4.6,13.1-11.2,15.2l-6.6,1,12.2,59.6h.1Z"/>
    <path class="st0" d="M238.1,155.6h0c-1-.5-1.6,0-2.2,1.6l23.5,117.6c3,14.8,1.8,12.7,8.1,15,1.6.6,3,.4,3.1-.4-12.2-57.7-9.2-43.3-21.5-101-.8-3.6-.6-3.1-1.3-3.8-5.9-5.9-7.7-10.4-8.6-21.8-.6-7.9-.5-6.9-1.1-7.3h0Z"/>
    <path class="st0" d="M202.7,125.5h0c-.5-.4-1.1-.5-1.5-.3-.4.2-.6.8-.7,2.1-1.1,14.5-1.8,17.4-4.8,22.1l-6.2,7.1c-11.5,57.4-8.7,43-20.2,100.4-.9,3.3-.9,2.8-.4,3.2.6.4,7-1.7,7.9-2.7.6-.6-.9,6.3,10.2-48.3,12.4-61.5,14.5-71.6,15.5-76.8s1-6.1,0-6.8h0Z"/>
    <path class="st0" d="M168.4,128.1c1.4-2.5,3.7-6.5,5.1-9,3.2-5.5,3.7-7.5,2.2-8.3-1.6-.8-5.8-.2-6.5.9-1.8,9.4-1.4,7-3.1,16.4-1.4,3.1-1.8,7.5-.9,7.7.2,0,.3-.1.4-.6.5-2.1,1.8-5.8,2.8-7.2h0Z"/>
    <path class="st0" d="M169.2,223.9h0c7.6-37.2,5.7-27.9,13.3-65.3-1.8,0-3.3,0-5-.4-2.7-.4-5.4-1.8-7.5-3.8-4-3.8-4.9-6.3-5.3-14.9,0-1.2-.4-2.8-.4-2.8v.9c-.1,0-8.6,41.5-8.6,41.5-12.6,61.9-14.6,72.1-15.6,77.3-1,5.2-1.1,6-.7,6.4.5.4,6,.7,7.2.4,1-.3-.3,4,8.9-30.1,18.1-67,15.7-58.6,16.3-58.8.3-.1.6.1.7.4l-13.2,83.5c-.7,3.6-.7,3.8.8,3.8s.5,5.5,9.3-38.1h0Z"/>
    <path class="st0" d="M96.7,252.4c0,1.5.2,1.6,3.6,2.9,2.1.6.6,5.6,10.7-34.5,9.2-36.4,6.9-27.3,16.1-63.7.9.4.8,2.8-.8,11.8l-15,89.8,19.1,4.1,29.6-146c1.6-5.2,1.6-6,0-7.5-4.5-3.7-5.3-5.3-6.3-11.7-1.5-9.2-2.6-10.4-9.5-10.4l-13.7-.6-33.6,165.8h0Z"/>
    <path class="st0" d="M119.8,107.7c2.7-13.2,2.1-9.9,4.6-23.1l-20.2-15.6c-2.9,15.6-2.2,11.7-5.3,27.2l-23.5,114.4c-6.5,31.6-6,27.4-3.1,29.2.6.4.9.4,1.2,0,11.7-41.2,8.8-30.9,20.5-72,.5-2.6,1.4-4.8,2.1-5,.1,0,.2,0,.3.4-6.3,37-4.7,27.8-10.9,64.8-3.6,21.7-3.6,18.8-.7,20.3,5.3,2.9,5.1,2.9,5.8,1.7l29.1-142.5h0Z"/>
    <path class="st1" d="M401.1,175.6h0c-.4-.4-.9-.4-1.1,0,.7,3.6.6,2.7,1.2,6.3,4.5,23.3,4.1,27-4.1,32.9-24.6,17.8-21.5,15.4-21.4,17.5l1.3,5.5c.3.9.7.9,1.7.2l6.3-4.9c20.3-14.7,17.6-12.6,19.2-14.7,3.9-5.3,4.3-8.8,2.6-19.5-1.6-9.5-4.7-22.3-5.6-23.2h0Z"/>
    <path class="st1" d="M353.2,117.2h.1-1.2l1.8,3.6c3,4.1,4.7,4.4,13.6,2.4,14.3-3.2,18.9-2.6,25.4,3.3.9.9.7.7,1.1,1l-.4-.2c.2.1.4.1.6,0,.4-.4.5-.3-1-2.8-4.2-7-10.7-10.9-18.1-10.7l-15.7,3.1-6.5.3h0Z"/>
    <path class="st1" d="M335.1,301.2h0c-30.2,9.3-59.1,7.7-71.9-4.1l-3.9-4.7c-.4-.6-.3-.4-.6-1.1v.3c.4,3,.2,2.3.6,5.2,1.1,5.9,19.1,14.6,35.5,17,3.6.6,3.1.4,3.2.9,0,.5-.1.7-.9.9-6.8.9-16,.6-21.6-.8l-5.3-1.2c-.5.6,0,1.2,1.4,2.1,25.3,14.1,80.8,3.8,100.6-18.7l5-7.6-3.8,2.3c-8.1,4.9-9.7,5.8-10.2,5.3-.3-.3,0-1.1.8-2,3.2-3.4,4.8-5.6,6.5-9,2.3-4.7,3.2-7.5,2.3-7.9-.4-.1-.2-.2-.9.8-6.2,8.7-19.5,16.8-36.8,22.2h0Z"/>
    <path class="st1" d="M301.4,63.2h0c-.9,1.4-1.3,2.6-1.3,4.1.4,5.2.4,4.5,0,5-1.1,1.4-3.4,1.9-4.7,1-2.8-2.1-2.6-9.2.4-13.5,2-2.9,1.1-2.1,6.3-6.2l-2.6-1c-6.9-2.6-8.7-2.3-15.7,2.2-11.8,7.7-18.6,9.2-32.6,7.3-13.5-1.8-11.1-1.6-16.5-1.6,0,1.6.2,2.7.7,4.1.6,1.5,1.3,2.4,2.8,3.6l3.3,2.5c5.3,4.7,6.9,11,5.1,21.1l-3.3,12.1h1.2c9.7.8,8.7.8,11.7,0,5.2-1.6,4.4-1.4,5.6-.8,1.5.9,2.1,2.3,1.6,4-.8,2.5-6.5,4.3-13.1,4.1l-9-1.2-8.6,25.9c-4.5,13.6-4.8,14.6-3.6,14.9.4.1.6,0,.9-.4,1.9-2.8,5-4.6,8-4.8,6.1-.1,9.6,5.5,10,16.1.4,13,5.6,20.2,13.1,18.2,6.3-2.1,6.9-9.7,1.4-18.9-6.9-11.4-6.6-10.9-7.7-15.4-2.3-9.5,2.1-14.2,12.9-13.4,6.8.5,5.8.6,7-.4,1.9-1.4,2.3-2.1,2.7-6,1.6-13.2,6.3-17.3,19.2-17.3s13.9-.8,21.4-6.8c10.4-8.3,8.5-6.9,13.6-10.2l-1.4-3.6c-2.8-7-2.8-8.2.3-9.6,1.6-.6,3.3.4,4.1,2.4,2.1,5.7,1.6,4.7,3.1,7,3.8,6.3,7.1,8.3,12.6,7.9,6.8-.6,10.4-7.3,9.9-18-.9-17.7-10-26.4-24.4-23.5-15.3,3.2-12.9,2.8-17.3,2.9-10,.4-14.1,1.8-17,5.9h0Z"/>
    <path class="st1" d="M114.7,26.4h0c-2.6-.4-2-.3-8.3-1.7-14.3-3.3-22.5,1.4-25.9,15-3.1,12.1-.4,22.7,6.3,25.3,7,2.6,13.2-1.6,17.1-11.4,2.3-5.7,1.8-5,3.6-5.4,2.6-.4,4.3,1.2,4,3.7l-3.6,9.6c3.2,1.6,5,2.7,9,6,12.1,9.9,13.9,10.8,22.7,10.9,10.2.2,8.7.1,10.7.6,7,1.6,10.2,5.5,11.7,14.3,1.3,7.3,1,6,2.3,9.2,1.6,0,2.8,0,4.4-.2,10.1-.9,12.9-.1,15.6,3.6,3,4.5,1.5,11.2-4.9,21.6-5.8,9.4-6.3,11-5.7,16,.7,4.5,3.8,7,8,6.5,6.3-1,9.7-7.4,10.1-19,.4-11.7,5.4-17.5,12.9-14.9,9.9,3.8,12.2,19.3,7.2,47.3-3.1,17-2.9,15.2-2.2,20.3.9,6.3,3.5,8.2,7.9,5.8,6.1-3.5,8.3-11.2,5.8-19.8-3.6-12.4-2.3-22.7,6.1-46,10.2-28.4,8.8-24,10.2-30.4,3.2-15.6-2.7-22.6-19.8-23.3-13.6-.6-16.5-1.4-22.3-5.8-4-3.1-3.1-2.2-6-6l1.1-1.5c1.8-2.6,3.3-2.8,5.7-.7,6.6,5.7,8.5,6.5,16,7.1l13.9,1c.4-3.5,1.3-10.4,1.8-13.5,2-12.4-2.2-17-18.1-19.5-8.8-1.4-7.6-1.4-23.7.8-12.9,1.7-20.1.4-29.3-5.5-9.1-5.8-10.4-6.3-14.6-5.4-3.8.9-2.8.5-6.4,2.6.6.5,4.7,4.3,5,4.6,3.9,4.8,4.5,12.9,1,14.9-1.1.6-.3.7-5.5-.6.9-2.5,1.1-4.5.9-6.8-.5-4.1-5.6-7.6-12.3-8.2-6.9-.6-5.2-.5-12.1-1.1h0Z"/>
    <path class="st1" d="M114.6,273.7h0c-20-4.5-37.5-13.3-45.6-23.1l-1.8-2.1c-.2-.1-.4-.2-.6-.1-.3.1-.5.7-.3,1.3,1.1,3.5,3.7,8.4,6.2,11.8l3.8,5c-.5.9-1.6.4-9.3-4.2-3.8-2.8-3.2-2.6-3.6-2.4-.4.2-.4.7.1,1.6,10.8,21.3,61.6,36.5,93.7,28.1,5.5-1.4,12.7-4.8,12.4-5.8-.1-.4-.9-.5-2.2-.1-5.2,1.8-12.1,2.6-19.4,2.3-6.5-.3-7-.4-7.4-1.2-.2-.6.2-.8,2-.9,14.6-.8,35.6-10.4,37.3-17.1.4-1.6.7-4.3.6-4.3-.6-.2-1.1.1-1.8,1.5-8.2,12.5-34.3,16.6-64.1,9.9h0Z"/>
    <path class="st1" d="M86.9,86.9h0c-3.7.4-5.8,0-15.2-2-11.9-2.6-19.3-.4-24.7,7.5-1.6,2.3-2.3,4.1-1.7,4.5.1,0,.3,0,.6-.2,5.9-5.7,11.4-6.8,22.6-4.3,12.7,2.8,12.9,2.8,16.1-.9l2.7-4.7h-.4Z"/>
    <path class="st1" d="M38.6,143.8h0l-.5,1.8c-1.6,5.3-1.3,4.1-2.3,8.2-6.5,25.7-5.6,31.5,5.7,39.7l15,10.9c5.8,4.4,5,3.8,5.3,3.8.5,0,.7-.5.9-1.6.2-1.7.1-1.4.3-2,.9-3.3.8-2.8.7-3.6-.1-1-2.1-2.6-9.7-8-17.3-12.4-16.5-11.6-18-15.6-1.3-3.8-.6-11.9,2.1-25,2.1-9.9,1.8-8.6,1.2-8.9-.3-.1-.6,0-.8.3h0Z"/>
    <path class="st3" d="M119.8,107.7l-29.1,142.5c-.7,1.2-.6,1.2-5.8-1.7-2.8-1.5-2.9,1.4.7-20.3,6.3-37,4.7-27.8,10.9-64.8,0-.3-.1-.4-.3-.4-.6.2-1.6,2.4-2.1,5-11.7,41.2-8.8,30.9-20.5,72-.3.3-.5.2-1.2,0-3-1.8-3.5,2.4,3.1-29.2l23.6-114.4,18.8,13.7c.3.1,0,.4,1.7-1.8.1-.2.1-.1.3-.4h0Z"/>
    <path class="st3" d="M125.2,111.6c3.1,1.3,3.3,1.3,16-.4,6.8-.9,9.3,0,15.2,5.8,2.1,2,1.7,1.8,2.3,1.6.4,0,.2.1.7-1.6l.2-.4-29.6,146-19.1-4.1,15-89.8c1.5-9,1.7-11.3.9-11.7-9.2,36.4-7,27.3-16.1,63.7-10.1,40.1-8.6,35.1-10.7,34.5-3.3-1.3-3.5-1.4-3.6-2.9l28.6-140.8h.1Z"/>
    <path class="st3" d="M169.1,224h0c-8.8,43.4-7.5,38-9.3,38s-1.5-.1-.8-3.8l13.2-83.5c0-.4-.4-.6-.7-.4-.6.3,1.8-8.2-16.3,58.8-9.2,34.1-7.9,29.8-8.9,30.1-1.2.4-6.8.1-7.2-.4-.6-.6-2.9,11.4,16.4-83.7l8.5-41.5c0-.7.1-.9.4-.9h-.3c.1,0,.4,1.7.5,2.9.4,8.6,1.3,11,5.3,14.9,2.1,2.1,4.8,3.4,7.5,3.8,1.8.3,3.2.4,5,.4-7.6,37.3-5.7,28-13.3,65.3h-.1Z"/>
    <path class="st3" d="M168.4,128.1c-.9,1.4-2.3,5-2.8,7.2,0,.4-.2.6-.4.6-.9-.3-.4-4.6.9-7.7h2.3Z"/>
    <path class="st3" d="M202.7,125.5h0c1.4,1.1,3.6-10.9-15.6,83.5-11.1,54.6-9.6,47.7-10.2,48.3-.9,1-7.3,3.1-7.9,2.7-.5-.4-.6,0,.4-3.2,11.5-57.4,8.7-43,20.2-100.4l6.2-7.1c3-4.7,3.6-7.6,4.8-22.1.1-1.3.3-1.8.7-2.1.4-.2,1,0,1.5.3h0Z"/>
    <path class="st3" d="M238.1,155.6h0c.6.4.5-.6,1.1,7.3.9,11.3,2.7,15.9,8.6,21.8.7.7.5.1,1.3,3.8,12.2,57.7,9.2,43.3,21.5,101,0,.8-1.4.9-3.1.4-6.3-2.3-5.1-.1-8.1-15l-23.5-117.6c.6-1.6,1.2-2.1,2.2-1.6h0Z"/>
    <path class="st3" d="M269.1,248.8h0l-12.2-59.7,6.6-1c6.5-2.1,10.5-7.6,11.2-15.2.1-2.2.2-4.1.2-6.3,14.6,71.7,10.9,53.7,25.5,125.3q0,1.6-6.4,1.6c-2,0-.6,4-9.3-28.1-18.8-69.2-16.3-60.6-16.9-60.7-.5,0-.6.6-.6,2.1l13.6,84c.2.6,0,1.2-.5,1.4-1.6.6-2.4-.4-3.1-3.6l-8-39.9h-.1Z"/>
    <path class="st3" d="M278.9,146c.7,0,.6,0,1.2,2.6.1.4.2.6.5.6l3.8-3.5c5.8-5.2,6.5-5.3,16.1-4.1,4.6.6,11.4.7,12,.1s.1,0,.6-1.8c0,0,0-.2.2-.4l25.1,123.5c4.9,24.2,4.5,21.1,2.5,21.8-1.4.4-1.1.3-1.5.4-2.1.9-2.6.6-3.3-1.7-13.8-54.5-10.3-40.9-24.1-95.4l-.6-1c-.3-1.3-.2-1.1-.4-1.2-.1,0-.2,0-.3.4l8.5,50.9c8.6,51.5,7.6,45,6.9,45.2,0,0-.1,0-.2-.4-.5-2.1-.4-1.8-.6-2.1-.4-.6-.6-.8-.9-1.7-9.1-28.6-7.8-25.1-8.8-24.8-.4.1-1.1-5.2,4.9,37.1-6.8,1.4-5.1,1.1-11.9,2.4l-29.9-147h0Z"/>
    <path class="st3" d="M319.8,139.4q0-.2.2-.2c.2,0,.3,0,.8.6.4.4,0,.5,2.1-.8,9.3-5.8,7.3-4.3,13.8-10.9,1.1-1.1,1.9-1.4,3.2-1.2.2.2.4.4.5.6l28.9,141.1-20.8,13.6c-16.4-81.6-12.3-61.2-28.8-142.8h0Z"/>
  </g>
</svg>