<?xml version="1.0" encoding="UTF-8"?>
<svg xmlns="http://www.w3.org/2000/svg" version="1.1" viewBox="0 0 657.6 181">
  <defs>
    <style>
      .cls-1, .cls-2 {
        fill: #a78255;
      }

      .cls-3 {
        fill: #fff;
        stroke: #0e3546;
        stroke-width: 0px;
      }

      .cls-3, .cls-4 {
        stroke-miterlimit: 10;
      }

      .cls-5, .cls-6, .cls-7 {
        fill: #0e3546;
      }

      .cls-6 {
        font-family: Didot-HTF-B06-Bold, Didot;
        font-size: 55px;
        font-weight: 700;
        letter-spacing: .2em;
      }

      .cls-4 {
        fill: none;
        stroke: #6cacde;
        stroke-width: .6px;
      }

      .cls-7 {
        font-family: Audrey-Normal, Audrey;
        font-size: 20px;
        letter-spacing: .2em;
      }

      .cls-2 {
        font-family: Didot, Didot;
        font-size: 17.1px;
      }
    </style>
  </defs>
  <!-- Generator: Adobe Illustrator 28.7.1, SVG Export Plug-In . SVG Version: 1.2.0 Build 142)  -->
  <g>
    <g id="Layer_1">
      <g>
        <g>
          <path id="Circles" class="cls-1" d="M137,104.5c1.8-4.1,2.7-8.5,2.7-13s-.9-8.9-2.7-13c-1.7-4-4.2-7.6-7.3-10.6-3.1-3.1-6.8-5.5-10.9-7.2-4.2-1.7-8.7-2.6-13.3-2.6s-9.1.9-13.3,2.6c-4.1,1.7-7.7,4.1-10.9,7.2-3.1,3.1-5.6,6.7-7.3,10.6-1.8,4.1-2.7,8.5-2.7,13s.9,8.9,2.7,13c1.7,4,4.2,7.6,7.3,10.6,3.1,3.1,6.8,5.5,10.9,7.2,4.2,1.7,8.7,2.6,13.3,2.6s9.1-.9,13.3-2.6c4.1-1.7,7.7-4.1,10.9-7.2,3.1-3.1,5.6-6.7,7.3-10.6ZM118.1,120.6c-4,1.7-8.2,2.5-12.6,2.5s-8.6-.8-12.6-2.5c-3.9-1.6-7.3-3.9-10.3-6.8-3-2.9-5.3-6.3-6.9-10.1-1.7-3.9-2.5-8.1-2.5-12.3s.9-8.4,2.5-12.3c1.6-3.8,4-7.2,6.9-10.1,3-2.9,6.4-5.2,10.3-6.8,4-1.7,8.2-2.5,12.6-2.5s8.6.8,12.6,2.5c3.9,1.6,7.3,3.9,10.3,6.8,3,2.9,5.3,6.3,6.9,10.1,1.7,3.9,2.5,8.1,2.5,12.3s-.9,8.4-2.5,12.3c-1.6,3.8-4,7.2-6.9,10.1-3,2.9-6.4,5.2-10.3,6.8ZM158.7,69.5c-1.4-3.3-3.2-6.6-5.3-9.6-2.1-3-4.4-5.8-7.1-8.4-2.6-2.6-5.5-4.9-8.5-6.9-3.1-2-6.4-3.8-9.8-5.2-7.1-2.9-14.7-4.4-22.5-4.4s-15.4,1.5-22.5,4.4c-3.4,1.4-6.7,3.2-9.8,5.2-3.1,2-5.9,4.3-8.5,6.9-2.6,2.6-5,5.4-7.1,8.4-2.1,3-3.9,6.2-5.3,9.6-3,7-4.5,14.4-4.5,22s1.5,15,4.5,22c1.4,3.3,3.2,6.6,5.3,9.6,2.1,3,4.4,5.8,7.1,8.4,2.6,2.6,5.5,4.9,8.5,6.9,3.1,2,6.4,3.8,9.8,5.2,7.1,2.9,14.7,4.4,22.5,4.4s15.4-1.5,22.5-4.4c3.4-1.4,6.7-3.2,9.8-5.2,3.1-2,5.9-4.3,8.5-6.9,2.6-2.6,5-5.4,7.1-8.4,2.1-3,3.9-6.2,5.3-9.6,3-7,4.5-14.4,4.5-22s-1.5-15-4.5-22ZM162.6,91.1h-7.2c0-5-.8-9.8-2.3-14.5l6.9-2.2c1.7,5.4,2.6,10.9,2.7,16.6ZM152.9,60.2c2.1,3,3.8,6.2,5.3,9.5.6,1.4,1.1,2.8,1.6,4.2l-6.9,2.2c-.4-1.2-.9-2.4-1.4-3.6-1.2-2.9-2.8-5.7-4.6-8.3-.3-.4-.5-.8-.8-1.1l5.9-4.2c.3.4.6.9,1,1.3ZM145.9,52c2,2,3.9,4.1,5.6,6.4l-5.9,4.2c-1.5-2-3.1-3.8-4.9-5.6-1.8-1.7-3.7-3.3-5.7-4.8l4.3-5.7c2.3,1.7,4.5,3.5,6.6,5.5ZM127.7,40c3.4,1.4,6.6,3.1,9.7,5.1.5.3.9.6,1.4.9l-4.3,5.7c-.4-.3-.8-.5-1.2-.8-2.7-1.8-5.5-3.3-8.5-4.5-1.2-.5-2.5-1-3.7-1.4l2.2-6.7c1.4.5,2.9,1,4.3,1.6ZM105.8,35.6c5.8,0,11.5.9,17,2.6l-2.2,6.7c-4.8-1.5-9.7-2.2-14.8-2.3v-7.1ZM105.2,35.6v7.1c-5.1,0-10,.8-14.8,2.3l-2.2-6.7c5.5-1.7,11.2-2.6,17-2.6ZM73.5,45.1c3.1-2,6.3-3.7,9.7-5.1,1.4-.6,2.8-1.1,4.3-1.6l2.2,6.7c-1.2.4-2.5.9-3.7,1.4-3,1.2-5.8,2.7-8.5,4.5-.4.3-.8.5-1.2.8l-4.3-5.7c.5-.3.9-.6,1.4-.9ZM65.1,52c2-2,4.2-3.8,6.6-5.5l4.3,5.7c-2,1.5-3.9,3.1-5.7,4.8-1.8,1.7-3.4,3.6-4.9,5.6l-5.9-4.2c1.7-2.3,3.6-4.4,5.6-6.4ZM52.9,69.7c1.4-3.3,3.2-6.5,5.3-9.5.3-.5.6-.9,1-1.3l5.9,4.2c-.3.4-.5.8-.8,1.1-1.8,2.6-3.3,5.4-4.6,8.3-.5,1.2-1,2.4-1.4,3.6l-6.9-2.2c.5-1.4,1-2.8,1.6-4.2ZM51,74.5l6.9,2.2c-1.5,4.7-2.3,9.5-2.3,14.5h-7.2c0-5.7.9-11.3,2.7-16.6ZM48.4,91.8h7.2c0,5,.8,9.8,2.3,14.5l-6.9,2.2c-1.7-5.4-2.6-10.9-2.7-16.6ZM58.1,122.7c-2.1-3-3.8-6.2-5.3-9.5-.6-1.4-1.1-2.8-1.6-4.2l6.9-2.2c.4,1.2.9,2.4,1.4,3.6,1.2,2.9,2.8,5.7,4.6,8.3.3.4.5.8.8,1.1l-5.9,4.2c-.3-.4-.6-.9-1-1.3ZM65.1,130.9c-2-2-3.9-4.1-5.6-6.4l5.9-4.2c1.5,2,3.1,3.8,4.9,5.6,1.8,1.7,3.7,3.3,5.7,4.8l-4.3,5.7c-2.3-1.7-4.5-3.5-6.6-5.5ZM83.2,142.9c-3.4-1.4-6.6-3.1-9.7-5.1-.5-.3-.9-.6-1.4-.9l4.3-5.7c.4.3.8.5,1.2.8,2.7,1.8,5.5,3.3,8.5,4.5,1.2.5,2.5,1,3.7,1.4l-2.2,6.7c-1.4-.5-2.9-1-4.3-1.6ZM105.2,147.3c-5.8,0-11.5-.9-17-2.6l2.2-6.7c4.8,1.5,9.7,2.2,14.8,2.3v7.1ZM86.2,136c-5.9-2.4-11.2-5.9-15.7-10.4s-8.1-9.6-10.6-15.4c-2.6-6-3.9-12.3-3.9-18.8s1.3-12.9,3.9-18.8c2.5-5.8,6.1-10.9,10.6-15.4,4.5-4.4,9.8-7.9,15.7-10.4,6.1-2.5,12.6-3.8,19.3-3.8s13.2,1.3,19.3,3.8c5.9,2.4,11.2,5.9,15.7,10.4,4.5,4.4,8.1,9.6,10.6,15.4,2.6,6,3.9,12.3,3.9,18.8s-1.3,12.9-3.9,18.8c-2.5,5.8-6.1,10.9-10.6,15.4-4.5,4.4-9.8,7.9-15.7,10.4-6.1,2.5-12.6,3.8-19.3,3.8s-13.2-1.3-19.3-3.8ZM105.8,147.3v-7.1c5.1,0,10-.8,14.8-2.3l2.2,6.7c-5.5,1.7-11.2,2.6-17,2.6ZM137.4,137.8c-3.1,2-6.3,3.7-9.7,5.1-1.4.6-2.8,1.1-4.3,1.6l-2.2-6.7c1.2-.4,2.5-.9,3.7-1.4,3-1.2,5.8-2.7,8.5-4.5.4-.3.8-.5,1.2-.8l4.3,5.7c-.5.3-.9.6-1.4.9ZM145.9,130.9c-2,2-4.2,3.8-6.6,5.5l-4.3-5.7c2-1.5,3.9-3.1,5.7-4.8,1.8-1.7,3.4-3.6,4.9-5.6l5.9,4.2c-1.7,2.3-3.6,4.4-5.6,6.4ZM158.1,113.2c-1.4,3.3-3.2,6.5-5.3,9.5-.3.5-.6.9-1,1.3l-5.9-4.2c.3-.4.5-.8.8-1.1,1.8-2.6,3.3-5.4,4.6-8.3.5-1.2,1-2.4,1.4-3.6l6.9,2.2c-.5,1.4-1,2.8-1.6,4.2ZM159.9,108.4l-6.9-2.2c1.5-4.7,2.3-9.5,2.3-14.5h7.2c0,5.7-.9,11.3-2.7,16.6Z"/>
          <path id="Small_Letters" class="cls-1" d="M149.3,48c.2-.2.5-.5,1.1-1l1.6-1.4h0s-1.3,5.3-1.3,5.3l.2.2,2.7-2.4c.6-.5.9-.8,1.2-.9.3-.2.5-.2.8,0l.2-.2-1.2-1.3-.2.2c.3.4.3.6,0,.9-.2.2-.5.5-1.1,1l-1.4,1.2h0s1.2-4.9,1.2-4.9l-.8-.9-.2.2c.2.3.2.4.2.7,0,.2-.1.3-.6.7l-1.4,1.2c-.6.5-.9.8-1.2.9-.3.2-.5.2-.9,0l-.2.2,1.2,1.3.2-.2c-.3-.4-.3-.6,0-.9ZM155.5,49.2l-2.6,2.3c-.6.5-.7.5-1.1,0l-.2.2,2.5,2.7c.2-.1,1-.6,1.3-.8v-.2c-.5.2-.8.3-1,.3-.3,0-.5-.1-.8-.4-.2-.2-.4-.4-.4-.6,0-.2.1-.3.4-.6l1.2-1.1.4.4c.4.5.4.5,0,1l.2.2,1.3-1.2-.2-.2c-.5.3-.6.3-1-.1l-.4-.4,1.5-1.3c.2-.2.2-.2.4,0l.3.3c.3.3.4.5.3.7,0,.2-.2.4-.4.7l.2.2c.4-.4.8-.8.9-.9l-2.3-2.5-.2.2c.3.4.3.5-.3,1Z"/>
        </g>
        <g>
          <g>
            <polygon class="cls-4" points="105.6 22.6 105.6 91.7 96.5 76.7 105.6 22.6"/>
            <polygon class="cls-4" points="105.6 22.6 105.6 91.7 114.7 76.7 105.6 22.6"/>
          </g>
          <g>
            <polygon class="cls-4" points="105.6 160.6 105.6 91.5 96.5 106.6 105.6 160.6"/>
            <polygon class="cls-4" points="105.6 160.6 105.6 91.5 114.7 106.6 105.6 160.6"/>
          </g>
        </g>
        <g>
          <g>
            <polygon class="cls-3" points="105.6 22.6 105.6 91.7 96.5 76.7 105.6 22.6"/>
            <polygon class="cls-5" points="105.6 22.6 105.6 91.7 114.7 76.7 105.6 22.6"/>
          </g>
          <g>
            <polygon class="cls-5" points="105.6 160.6 105.6 91.5 96.5 106.6 105.6 160.6"/>
            <polygon class="cls-3" points="105.6 160.6 105.6 91.5 114.7 106.6 105.6 160.6"/>
          </g>
        </g>
        <g>
          <g>
            <polygon class="cls-4" points="183.2 91.6 105.5 91.6 122.4 83.6 183.2 91.6"/>
            <polygon class="cls-4" points="183.2 91.6 105.5 91.6 122.4 99.7 183.2 91.6"/>
          </g>
          <g>
            <polygon class="cls-4" points="27.9 91.6 105.7 91.6 88.8 83.6 27.9 91.6"/>
            <polygon class="cls-4" points="27.9 91.6 105.7 91.6 88.8 99.7 27.9 91.6"/>
          </g>
        </g>
        <polygon class="cls-3" points="183.2 91.6 105.5 91.6 122.4 83.6 183.2 91.6"/>
        <polygon class="cls-5" points="183.2 91.6 105.5 91.6 122.4 99.7 183.2 91.6"/>
        <g>
          <polygon class="cls-5" points="27.9 91.6 105.7 91.6 88.8 83.6 27.9 91.6"/>
          <polygon class="cls-3" points="27.9 91.6 105.7 91.6 88.8 99.7 27.9 91.6"/>
        </g>
        <g>
          <g>
            <polygon class="cls-3" points="145.5 56.2 105.5 91.7 114.7 76.7 145.5 56.2"/>
            <polygon class="cls-5" points="145.5 56.2 105.5 91.7 122.4 83.6 145.5 56.2"/>
          </g>
          <g>
            <polygon class="cls-5" points="65.6 127.1 105.6 91.6 88.8 99.7 65.6 127.1"/>
            <polygon class="cls-3" points="65.6 127.1 105.6 91.6 96.5 106.6 65.6 127.1"/>
          </g>
        </g>
        <g>
          <g>
            <polygon class="cls-5" points="65.6 56.2 105.6 91.7 96.5 76.7 65.6 56.2"/>
            <polygon class="cls-3" points="65.6 56.2 105.6 91.7 88.8 83.6 65.6 56.2"/>
          </g>
          <g>
            <polygon class="cls-3" points="145.5 127.1 105.5 91.6 122.4 99.7 145.5 127.1"/>
            <polygon class="cls-5" points="145.5 127.1 105.5 91.6 114.7 106.6 145.5 127.1"/>
          </g>
        </g>
        <path class="cls-3" d="M115.8,91.7c0,4.7-4.3,8.4-9.5,8.4s-9.5-3.8-9.5-8.4,4.3-8.4,9.5-8.4,9.5,3.8,9.5,8.4Z"/>
        <path class="cls-5" d="M110.6,91.7c0,2.1-1.9,3.9-4.3,3.9s-4.3-1.7-4.3-3.9,1.9-3.9,4.3-3.9,4.3,1.7,4.3,3.9Z"/>
        <g>
          <text class="cls-2" transform="translate(98.6 19.8) scale(1.1 1)"><tspan x="0" y="0">N</tspan></text>
          <text class="cls-2" transform="translate(184.6 96.9) scale(1.1 1)"><tspan x="0" y="0">E</tspan></text>
          <text class="cls-2" transform="translate(9 96.9) scale(1.1 1)"><tspan x="0" y="0">W</tspan></text>
          <text class="cls-2" transform="translate(99.1 175.3) scale(1.1 1)"><tspan x="0" y="0">S</tspan></text>
        </g>
      </g>
      <g id="Layer_2">
        <path class="cls-1" d="M53.8,52c-.5-.4-.6-.5-.8-.5-.3,0-.4,0-.7.3l-.2-.2.8-.9,5.1.5h0s-1.4-1.2-1.4-1.2c-.6-.5-.9-.8-1.2-.9-.3-.2-.5-.2-.9.2l-.2-.2,1.2-1.3.2.2c-.2.3-.3.5,0,.8.2.2.5.5,1.1,1l2.7,2.3-.2.2-5.5-.7h0s1.6,1.4,1.6,1.4c.6.5.9.8,1.2.9.3.2.5.2.9-.1l.2.2-1.2,1.3-.2-.2c.2-.3.3-.5,0-.8-.2-.2-.5-.5-1.1-1l-1.4-1.2Z"/>
        <path class="cls-1" d="M57.1,47.8c1.5.7,2.9,1.4,4.4,2.2l.2-.2c-.8-1.2-1.6-2.3-2.4-3.6h0c1.3.6,2.7,1.2,4,1.8l.2-.2c-1.5-2.1-2.4-3.4-2.8-3.9-.4-.6-.4-.8-.2-1.2l-.2-.2-1.1,1.2.2.2c.4-.4.6-.3.9.1.4.4,1.3,1.7,2,2.7h0c-1.3-.6-2.7-1.2-4-1.8l-.2.2c.9,1.2,1.7,2.4,2.4,3.6h0c-1-.5-2.1-1-3.1-1.6-.4-.2-.5-.3-.2-.8l-.2-.2-1.3,1.5.2.2c.3-.3.5-.3,1.2,0Z"/>
      </g>
      <path class="cls-1" d="M56.1,130.4c-.2-.7-.2-1.1.2-1.5.4-.4.9-.5,1.2-.1.4.4.1,1-.1,1.5h.2c.4-.3.6-.6.8-.9,0-.2-.2-.6-.5-.8-.7-.7-1.7-.6-2.3,0-.6.6-.5,1.4-.4,2.1.1.6.2,1.1-.2,1.5-.4.4-.9.5-1.3.2-.5-.5-.1-1.4.2-1.9h-.2c-.3.3-.8.9-.9,1.1,0,0,0,.2.2.4,0,.2.2.4.4.6.7.7,1.8.6,2.5,0,.7-.7.6-1.4.4-2.2Z"/>
      <path class="cls-1" d="M62.6,133.7c.4.4.3.6-.2.9-.5.3-1.8,1.2-2.8,1.8h0c.7-1.3,1.4-2.6,2.1-3.8l-.2-.2c-1.3.8-2.5,1.5-3.8,2.2h0c.6-1,1.2-2,1.8-2.9.3-.4.3-.5.8-.1l.2-.2-1.4-1.4-.2.2c.3.4.3.5-.1,1.1-.8,1.4-1.6,2.7-2.5,4.1l.2.2c1.2-.7,2.5-1.4,3.8-2.2h0c-.7,1.2-1.4,2.6-2.1,3.8l.2.2c2.2-1.4,3.7-2.2,4.2-2.5.7-.4.8-.4,1.2,0l.2-.2-1.2-1.1-.2.2Z"/>
      <path class="cls-1" d="M153,134.6c-.7-.6-1.4-.5-2.2-.3-.7.2-1.1.2-1.5-.2-.4-.3-.5-.8-.2-1.2.4-.4,1.1-.2,1.6.1v-.2c-.3-.3-.6-.6-.9-.8-.2,0-.6.3-.8.5-.7.7-.5,1.7.1,2.3.7.6,1.8.5,2.5.3.6-.2.8-.2,1.2.2.4.4.5.9.2,1.3-.5.5-1.5.1-2-.1v.2c.3.3.9.8,1.1.8.1,0,.2,0,.4-.2s.4-.2.6-.4c.7-.7.6-1.7-.1-2.4Z"/>
      <path class="cls-1" d="M155.8,131.8c.2.3.3.6.4.9,0,.3,0,.5-.4.8-.2.2-.4.4-.6.4-.2,0-.3,0-.7-.4l-1.2-1.1.4-.4c.4-.5.5-.5,1.1-.1l.2-.2-1.3-1.2-.2.2c.4.5.4.6,0,1l-.4.4-1.4-1.3c-.2-.2-.2-.2,0-.4l.3-.3c.3-.3.5-.4.7-.4.2,0,.4.1.7.3v-.2c-.3-.3-.7-.7-.9-.8l-2.3,2.4.2.2c.4-.3.5-.4,1.1.2l2.9,2.4c.5.5.2.6-.2,1.1l.2.2,2.5-2.6c-.2-.2-.7-.9-.9-1.2h-.2Z"/>
      <text class="cls-6" transform="translate(216.5 89.4)"><tspan x="0" y="0">QUEEN CITY</tspan></text>
      <text class="cls-7" transform="translate(277.1 123)"><tspan x="0" y="0">RIVERBOATS &amp; YACHT</tspan></text>
    </g>
  </g>
</svg>