<?xml version="1.0" encoding="UTF-8"?>
<svg id="Layer_1" xmlns="http://www.w3.org/2000/svg" width="1453" height="200" version="1.1" viewBox="0 0 1453 200">
  <!-- Generator: Adobe Illustrator 29.6.0, SVG Export Plug-In . SVG Version: 2.1.1 Build 107)  -->
  <defs>
    <style>
      .st0, .st1 {
        fill-rule: evenodd;
      }

      .st0, .st2 {
        fill: #303f70;
      }

      .st3, .st1 {
        fill: #5c5e5f;
      }
    </style>
  </defs>
  <g>
    <g>
      <path class="st2" d="M241.6,158.4l.3-34.3h2c2.5,8.8,5.4,15.7,8.8,20.7,6.4,9.3,14.5,13.9,24.2,13.9s12.4-2.1,16.8-6.4c4.4-4.3,6.6-9.7,6.6-16.2s-.5-5.7-1.5-8.6c-1-2.9-2.3-5.5-3.9-7.6-1.7-2.2-4.1-4.2-7.2-6.2-3.1-2-7.8-4.5-14.2-7.6-5.6-2.7-9.9-4.9-12.9-6.7-3-1.8-5.4-3.7-7.2-5.6-5.1-5.2-7.6-11.5-7.6-19s1-9,3-13.3c2-4.3,4.7-7.9,8.3-11,6.2-5.4,13.6-8.1,22.2-8.1s5.3.3,7.7.8c2.4.5,5.5,1.6,9.5,3.1,2.9,1.1,5,1.8,6,2.1,1.1.3,2,.5,2.8.5,2.1,0,3.4-1.4,4.2-4.2h2l.6,33h-2c-1.6-5.3-3-9.3-4.1-12.1-1.1-2.8-2.5-5.4-4.1-7.8-2.9-4.3-6.1-7.5-9.5-9.6-3.5-2.1-7.5-3.1-12-3.1-6.6,0-11.8,2.1-15.6,6.3-1.6,1.7-2.8,3.7-3.8,6.1s-1.4,4.7-1.4,7c0,9.3,6.3,16.7,19,22.4l12.4,5.7c9.6,4.3,16.5,9,20.7,14.1,4.8,5.8,7.2,12.5,7.2,20.1s-1.1,9.9-3.3,14.6c-3.1,6.5-7.7,11.4-13.8,15-6.1,3.5-13.3,5.3-21.7,5.3s-14.9-1.4-21.9-4.2c-3.7-1.5-5.8-2.4-6.5-2.6-.7-.2-1.5-.3-2.4-.3-2.8,0-4.8,1.3-5.8,4h-2Z"/>
      <path class="st2" d="M279.4,41.6c-8.7,0-16.4,2.8-22.8,8.4-3.6,3.1-6.5,6.9-8.5,11.3-2,4.4-3,9-3,13.7,0,7.7,2.6,14.3,7.9,19.6,1.9,1.9,4.3,3.8,7.4,5.7,3,1.8,7.3,4.1,12.9,6.8,6.3,3,11,5.5,14.1,7.5,3,1.9,5.3,4,7,6,1.6,2,2.9,4.5,3.8,7.3.9,2.8,1.4,5.6,1.4,8.4,0,6.3-2.1,11.5-6.4,15.5-4.2,4.1-9.7,6.1-16.2,6.1-9.4,0-17.3-4.6-23.5-13.5-3.3-4.9-6.3-11.8-8.7-20.4l-.2-.6h-.6s-2-.1-2-.1h-.9s0,.9,0,.9l-.3,34.3v.9s.9,0,.9,0h2.6l.2-.6c.9-2.3,2.6-3.4,5-3.4s1.5,0,2.1.3c.5.1,2,.7,6.5,2.5,7.1,2.9,14.6,4.3,22.3,4.3s15.9-1.8,22.1-5.4c6.3-3.6,11-8.7,14.2-15.3,2.2-4.7,3.4-9.8,3.4-15,0-7.8-2.5-14.8-7.4-20.7-4.3-5.2-11.4-10.1-21.1-14.4l-12.4-5.6c-12.2-5.5-18.5-12.7-18.5-21.5s.4-4.4,1.3-6.7c.9-2.2,2.1-4.2,3.6-5.8,3.6-4,8.7-6,15-6s8.2,1,11.5,3c3.3,2,6.5,5.1,9.2,9.3,1.5,2.3,2.9,4.9,4,7.6,1.1,2.8,2.5,6.8,4.1,12l.2.6h3.6v-.9s-.6-33-.6-33v-.9h-3.6l-.2.7c-.8,3.2-2.3,3.6-3.3,3.6s-1.6-.1-2.6-.4c-1-.3-3-1-5.9-2.1-4-1.6-7.2-2.6-9.6-3.2-2.4-.5-5.1-.8-7.9-.8h0Z"/>
    </g>
    <g>
      <path class="st2" d="M426,45.4l1.5,27.4h-2c-.8-4.6-2-8.4-3.8-11.5-1.8-3-4.3-5.7-7.7-8.1-2.8-1.9-6-3.3-9.8-4.1-3.8-.8-8.8-1.2-15-1.2h-20.2v49.8h5.3c5.4,0,9.4-.3,12.1-1,2.7-.7,4.9-1.9,6.6-3.6,1.6-1.6,2.9-3.5,3.7-5.7.8-2.2,1.5-5.4,2-9.7h2c0,0-.4,44.6-.4,44.6h-2c-.5-4.3-1.3-7.7-2.3-10.3-1-2.6-2.5-4.8-4.3-6.6-1.8-1.8-4.1-3.1-6.9-3.9-2.8-.8-6.4-1.2-10.8-1.2h-5v19c0,7.6.2,13.1.6,16.6.4,3.5,1.2,6.4,2.4,8.7,2,4,5.1,6.9,9.1,8.8,4.1,1.9,9.5,2.8,16.2,2.8s13-.8,17.8-2.5c4.8-1.7,8.7-4.3,11.7-7.8,2.1-2.4,3.8-5.1,5.2-8.1s2.5-7.1,3.7-12h2c0,0-1.1,33.1-1.1,33.1h-105.5v-1.9c3.4-.2,6.1-.6,8.2-1.3,2.1-.7,4-1.9,5.6-3.5,1.8-1.8,3.1-4,3.8-6.8.7-2.7,1-6.9,1-12.6v-61.2c0-5.6-.3-9.8-1-12.6-.7-2.7-1.9-5-3.8-6.8-1.6-1.6-3.4-2.8-5.5-3.5-2.1-.7-4.8-1.2-8.3-1.3v-1.9h95Z"/>
      <path class="st2" d="M426.8,44.5h-96.8v3.7h.9c3.3.2,6,.6,8,1.3,2,.7,3.7,1.8,5.2,3.3,1.7,1.7,2.9,3.8,3.5,6.4.7,2.7,1,6.8,1,12.4v61.2c0,5.5-.3,9.7-1,12.4-.6,2.6-1.8,4.7-3.5,6.3-1.5,1.5-3.3,2.6-5.3,3.3-2,.7-4.7,1.1-7.9,1.3h-.9v3.7h107.2v-.9s1.2-33.1,1.2-33.1v-.9s-.9,0-.9,0h-2c0,0-.7-.1-.7-.1l-.2.7c-1.1,4.9-2.3,8.9-3.6,11.9-1.3,2.9-3,5.6-5,7.9-2.9,3.4-6.7,6-11.3,7.6-4.7,1.6-10.5,2.5-17.5,2.5s-11.9-.9-15.9-2.7c-3.9-1.8-6.8-4.6-8.7-8.3-1.1-2.2-1.9-5-2.3-8.4-.4-3.4-.6-8.9-.6-16.5v-18.1h4.1c4.3,0,7.8.4,10.5,1.2,2.7.8,4.9,2,6.5,3.7,1.7,1.7,3.1,3.9,4.1,6.3,1,2.5,1.8,5.9,2.3,10.1v.8h3.8v-.9s.4-44.5.4-44.5v-.9s-.9,0-.9,0h-2c0,0-.8-.1-.8-.1v.8c-.6,4.2-1.3,7.4-2,9.5-.7,2-1.9,3.8-3.5,5.4-1.6,1.6-3.7,2.7-6.2,3.3-2.6.6-6.6,1-11.9,1h-4.4v-48h19.3c6.1,0,11.1.4,14.8,1.2,3.6.8,6.8,2.1,9.5,4,3.2,2.2,5.7,4.9,7.4,7.8,1.7,2.9,2.9,6.7,3.7,11.2v.8c.1,0,.9,0,.9,0h2c0,0,.9-.1.9-.1v-.9s-1.6-27.4-1.6-27.4v-.8h0Z"/>
    </g>
    <g>
      <path class="st2" d="M441.8,45.4h58.3v1.9c-4.1,0-7.2.3-9.4,1-3.5,1.1-5.3,3-5.3,6s2.4,7.9,7.2,14.4l15.5,21.3,13.5-15.7c5.3-6.1,8.8-10.4,10.3-12.9,1.6-2.5,2.4-4.7,2.4-6.9s-1.7-5-5-6.1c-1.5-.6-4.2-.9-8-1.2v-1.9h40.6v1.9c-4.5,0-8,.6-10.4,1.7-3.8,1.7-8.9,6.3-15.3,13.8l-6.7,8-19.2,22.3,30.4,42.4c5.4,7.5,10.2,13,14.6,16.4,2.2,1.7,4.4,2.9,6.6,3.7,2.2.7,5,1.2,8.6,1.3v1.9h-61.4v-1.9c4.8-.5,8.3-1.3,10.4-2.3,3.5-1.7,5.3-4,5.3-7s-.4-2.3-1.1-3.7c-.7-1.4-2-3.5-4-6.2l-21.6-30.7-21,24.1c-3.2,3.7-5.6,6.8-6.9,9.3-1.4,2.5-2.1,4.7-2.1,6.9,0,3,1.2,5.3,3.6,6.9,2.4,1.6,5.9,2.6,10.7,2.8v1.9h-43v-1.9c3.2-.6,5.9-1.3,8.1-2.4,2.1-1,4.7-2.8,7.6-5.4,4.2-3.7,10.2-9.9,17.9-18.7l23-26.4-27.4-38.6-4.7-6.4c-3.4-4.7-6.3-7.8-8.7-9.1-2.1-1.2-5.7-2-10.8-2.4-.6,0-1.5,0-2.7-.2v-1.9Z"/>
      <path class="st2" d="M562.8,44.5h-42.4v3.7h.8c3.7.3,6.3.6,7.8,1.2,2.9,1,4.4,2.7,4.4,5.2s-.8,4.1-2.2,6.4c-1.6,2.4-5,6.7-10.3,12.8l-12.8,14.8-14.8-20.3c-4.7-6.4-7.1-11.1-7.1-13.9s1.5-4.2,4.7-5.1c2.1-.6,5.2-1,9.1-1h.9v-3.7h-60v3.6h.8c1.2.2,2.1.2,2.7.2,4.9.4,8.4,1.1,10.4,2.3,2.2,1.3,5.1,4.3,8.4,8.9l4.7,6.4,27,38-22.5,25.9c-7.7,8.7-13.7,15-17.9,18.6-2.8,2.5-5.3,4.2-7.4,5.2-2.1,1-4.7,1.8-7.9,2.3h-.7v3.7h44.8v-3.7h-.9c-4.5-.3-8-1.1-10.2-2.7-2.1-1.5-3.2-3.5-3.2-6.2s.7-4.1,2-6.4c1.3-2.4,3.6-5.5,6.8-9.1l20.3-23.2,20.9,29.8c1.9,2.7,3.2,4.8,3.9,6.1.6,1.3,1,2.3,1,3.2,0,2.6-1.6,4.7-4.8,6.2-2.1,1-5.5,1.8-10.1,2.2h-.8v3.7h63.2v-3.7h-.9c-3.5-.2-6.3-.6-8.4-1.3-2-.7-4.2-1.9-6.3-3.5-4.3-3.3-9.1-8.7-14.4-16.2l-30-41.9,18.7-21.8,6.7-8c6.2-7.4,11.3-11.9,15-13.5,2.4-1.1,5.7-1.6,10.1-1.6h.9v-3.7h0Z"/>
    </g>
    <g>
      <path class="st2" d="M622.5,48c-3.7,0-7.7.1-11.9.3-9.1.4-15.8,1.5-20.3,3.2-4.5,1.7-8.1,4.7-11,8.9-2.7,3.9-4.7,9.1-6.1,15.8l-2-.2,1.6-30.6h119.6l1.6,30.6-2,.2c-1.6-7.7-4.1-13.5-7.5-17.5-3.4-4-8.3-6.8-14.8-8.5-5.5-1.5-14.8-2.2-27.8-2.2v84.7c0,5.6.3,9.8,1,12.6.7,2.7,1.9,5,3.8,6.8,1.6,1.6,3.5,2.8,5.6,3.5,2.1.7,4.8,1.2,8.2,1.3v1.9h-56.5v-1.9c3.4-.2,6.2-.6,8.3-1.3,2.1-.7,4-1.9,5.6-3.5,1.8-1.8,3.1-4,3.8-6.7.7-2.7,1-6.9,1-12.6V48Z"/>
      <path class="st2" d="M693.2,44.5h-121.3v.8s-1.6,30.6-1.6,30.6v.9s.8,0,.8,0l2,.2h.8c0,0,.2-.7.2-.7,1.4-6.5,3.4-11.7,6-15.5,2.8-4,6.3-6.9,10.6-8.6,4.3-1.7,11.1-2.7,20-3.2,3.9-.2,7.6-.3,11-.3v83.8c0,5.6-.3,9.8-1,12.4-.6,2.5-1.8,4.7-3.5,6.3-1.5,1.5-3.3,2.6-5.3,3.3-2,.7-4.7,1.1-8,1.3h-.9v3.7h58.3v-3.7h-.9c-3.3-.2-5.9-.6-7.9-1.3-2-.7-3.7-1.8-5.3-3.3-1.7-1.6-2.9-3.8-3.5-6.3-.7-2.7-1-6.8-1-12.4V48.9c12.5,0,21.5.8,26.7,2.2,6.3,1.7,11.1,4.4,14.4,8.2,3.3,3.8,5.7,9.6,7.3,17.1l.2.8h.8c0,0,2-.2,2-.2h.9c0,0,0-.9,0-.9l-1.6-30.6v-.8h0Z"/>
    </g>
    <g>
      <path class="st2" d="M703.3,102.8c0-9.3,2.1-17.9,6.4-25.9,4.2-7.9,10.4-14.9,18.6-20.8,6.1-4.4,12.6-7.7,19.6-10.1,7-2.4,14.1-3.5,21.2-3.5s17.9,1.9,26.3,5.6c8.5,3.7,15.9,9,22.3,15.8,10.4,11.1,15.6,23.7,15.6,37.8s-1.4,13.9-4.1,20.5c-2.7,6.6-6.7,12.6-11.8,18-6.4,6.8-13.9,12-22.6,15.7-8.7,3.7-17.8,5.6-27.3,5.6s-18.3-1.8-26.9-5.4c-8.5-3.6-15.9-8.7-22.1-15.3-4.9-5.2-8.6-11-11.3-17.6-2.6-6.6-3.9-13.4-3.9-20.5ZM724.6,104.1c0,16.1,4.7,29.6,14,40.6,4.2,4.9,8.6,8.5,13.3,10.8,4.7,2.2,10.1,3.4,16.2,3.4s11.6-1.1,16.3-3.3c4.7-2.2,9.1-5.8,13.4-10.8,9.3-11.1,14-24.7,14-41s-1.3-17.4-3.8-25.3-6.2-14.7-10.8-20.2c-3.8-4.5-8-7.9-12.6-9.9-4.6-2.1-10.1-3.1-16.4-3.1s-11.7,1-16.2,3.1c-4.6,2.1-8.8,5.4-12.7,10-4.7,5.5-8.3,12.2-10.8,20.2-2.5,8-3.8,16.5-3.8,25.7Z"/>
      <path class="st2" d="M769,41.6c-7.2,0-14.4,1.2-21.5,3.6-7.1,2.4-13.7,5.8-19.9,10.2-8.2,6-14.5,13.1-18.8,21.1-4.3,8-6.5,16.9-6.5,26.3s1.3,14.2,4,20.8c2.7,6.6,6.5,12.6,11.5,17.9,6.2,6.7,13.8,11.9,22.4,15.5,8.6,3.6,17.8,5.5,27.2,5.5s18.9-1.9,27.6-5.6c8.8-3.7,16.5-9.1,22.9-15.9,5.2-5.5,9.3-11.6,12-18.3,2.7-6.7,4.1-13.7,4.1-20.9,0-14.3-5.3-27.2-15.8-38.4-6.4-6.9-14-12.3-22.6-16-8.6-3.8-17.5-5.7-26.7-5.7h0ZM768.1,157.9c-6,0-11.3-1.1-15.8-3.3-4.5-2.2-8.9-5.7-13-10.5-9.1-10.8-13.8-24.3-13.8-40.1s1.3-17.6,3.8-25.4c2.5-7.8,6.1-14.5,10.6-19.9,3.8-4.5,7.9-7.7,12.4-9.7,4.4-2,9.8-3,15.9-3s11.5,1,16,3c4.5,2,8.6,5.3,12.3,9.7,4.6,5.4,8.2,12.1,10.7,19.9,2.5,7.8,3.8,16.2,3.8,25,0,15.9-4.6,29.5-13.8,40.4-4.1,4.9-8.5,8.4-13.1,10.6-4.5,2.1-9.9,3.2-15.9,3.2h0Z"/>
    </g>
    <g>
      <path class="st2" d="M864.3,60.4v72.2c0,5.7.3,9.9,1,12.6.7,2.7,1.9,5,3.8,6.7,1.6,1.6,3.5,2.8,5.6,3.5,2.1.7,4.8,1.2,8.2,1.3v1.9h-40.8v-1.9c3.4-.2,6.1-.6,8.2-1.3,2.1-.7,4-1.9,5.6-3.5,1.8-1.8,3.1-4,3.8-6.8.7-2.7,1-6.9,1-12.6v-61.3c0-5.6-.3-9.8-1-12.5-.7-2.7-1.9-5-3.8-6.8-1.6-1.6-3.4-2.8-5.5-3.5-2.1-.7-4.8-1.2-8.3-1.3v-1.9h34l71.8,86v-60c0-5.7-.3-9.9-1-12.6-.7-2.7-1.9-5-3.8-6.7-1.7-1.6-3.5-2.8-5.6-3.5-2.1-.7-4.8-1.2-8.2-1.3v-1.9h40.8v1.9c-5.9,0-10.5,1.6-13.8,4.8-1.8,1.8-3.1,4-3.8,6.8-.7,2.7-1,6.9-1,12.5v87.4h-4l-83.3-98.3Z"/>
      <path class="st2" d="M971,44.5h-42.5v3.7h.9c3.3.2,5.9.6,7.9,1.3,2,.7,3.7,1.8,5.3,3.3,1.7,1.6,2.9,3.8,3.5,6.3.7,2.6,1,6.8,1,12.4v57.5l-70.2-84.1-.3-.3h-35.3v3.7h.9c3.3.2,6,.6,8,1.3,2,.7,3.7,1.8,5.2,3.3,1.7,1.7,2.9,3.8,3.5,6.4.7,2.7,1,6.8,1,12.3v61.3c0,5.5-.3,9.7-1,12.4-.6,2.6-1.8,4.7-3.5,6.3-1.5,1.5-3.3,2.6-5.3,3.3-2,.7-4.7,1.1-7.9,1.3h-.9v3.7h42.5v-3.7h-.9c-3.3-.2-5.9-.6-7.9-1.3-2-.7-3.7-1.8-5.3-3.3-1.7-1.6-2.9-3.8-3.5-6.3-.7-2.6-1-6.8-1-12.4V62.9l81.7,96.5.3.3h5.3v-88.3c0-5.5.3-9.6,1-12.3.6-2.6,1.8-4.7,3.5-6.3,3.1-3,7.5-4.6,13.2-4.6h.9v-3.7h0Z"/>
    </g>
    <g>
      <path class="st2" d="M1027.9,158.8v-2c6,0,10.5-1.6,13.8-4.7,1.8-1.8,3.1-4,3.8-6.8.7-2.7,1-6.9,1-12.6v-61.2c0-5.9-.4-10.2-1.1-13-.7-2.8-2.1-5.1-4.1-6.9-1.7-1.4-3.5-2.5-5.5-3.2-2-.7-4.6-1.1-7.8-1.2v-1.9h56.5v1.9c-3.2.2-5.9.6-8,1.2-2.1.7-3.9,1.7-5.5,3.2-2,1.8-3.4,4.1-4.1,6.9-.7,2.8-1.1,7.1-1.1,12.9v47.9c0,7.4.2,12.8.6,16.4.4,3.6,1.2,6.5,2.4,8.8,2.1,4,5.1,6.9,9.2,8.8,4.1,1.9,9.5,2.8,16.2,2.8s12.9-.9,17.7-2.6c4.8-1.7,8.7-4.4,11.8-8.1,2.1-2.5,3.8-5.3,5.1-8.5s2.5-7.3,3.7-12.5l2.1.2-1.1,34h-105.5Z"/>
      <path class="st2" d="M1085.3,44.5h-58.3v3.7h.9c3.1.1,5.6.5,7.6,1.1,1.9.6,3.7,1.6,5.2,3,1.9,1.6,3.1,3.8,3.8,6.4.7,2.7,1.1,7,1.1,12.8v61.2c0,5.5-.3,9.7-1,12.4-.6,2.6-1.8,4.7-3.5,6.3-3.1,3-7.5,4.5-13.2,4.5h-.9v3.8h107.3v-.9s1.2-34,1.2-34v-.9s-.8,0-.8,0l-2.1-.2h-.8c0,0-.2.7-.2.7-1.1,5.1-2.3,9.2-3.6,12.3-1.3,3.1-2.9,5.8-4.9,8.2-2.9,3.5-6.8,6.1-11.4,7.8-4.7,1.7-10.5,2.6-17.4,2.6s-11.9-.9-15.8-2.7c-3.9-1.8-6.8-4.6-8.8-8.4-1.1-2.2-1.9-5-2.3-8.5-.4-3.5-.6-9-.6-16.3v-47.9c0-5.7.3-10,1-12.6.7-2.6,1.9-4.8,3.8-6.5,1.5-1.3,3.2-2.3,5.2-3,2-.6,4.6-1,7.7-1.2h.8v-3.7h0Z"/>
    </g>
    <g>
      <path class="st2" d="M1265.3,158.8h-58.1v-1.9c5.2-.4,8.9-1.3,11-2.5,3.7-2.2,5.5-5.1,5.5-9s-.8-5.3-2.5-9.1l-1.5-3.5-8.5-19.6h-38.9l-4.6,11.5-2.2,5.1c-2.7,6.1-4,10.9-4,14.4s.5,4,1.5,5.7c1,1.8,2.3,3.2,3.9,4.3,2.3,1.5,5.2,2.4,8.8,2.7v1.9h-39.6v-1.9c3.1-.2,5.9-.9,8.2-2.2,2.4-1.3,4.7-3.3,6.9-6.1,1.9-2.3,3.7-5.2,5.5-8.8,1.8-3.6,4.2-8.9,7.1-16.1l32.4-78.3h5l38.5,87.3c2.9,6.6,5.2,11.3,6.9,14.1,1.7,2.8,3.6,5,5.6,6.4,1.4,1,3,1.8,4.9,2.3,1.8.5,4.6,1,8.2,1.4v1.9ZM1209.7,109.8l-18.6-43-17.5,43h36.1Z"/>
      <path class="st2" d="M1201.8,44.5h-6.2l-.2.6-32.4,78.3c-2.9,7.1-5.3,12.5-7.1,16-1.8,3.5-3.6,6.4-5.4,8.6-2.2,2.7-4.4,4.7-6.6,5.9-2.2,1.2-4.9,1.9-7.8,2.1h-.8v3.7h41.4v-3.6h-.8c-3.4-.3-6.3-1.2-8.4-2.6-1.5-1-2.7-2.4-3.6-4-.9-1.6-1.3-3.4-1.3-5.3,0-3.3,1.3-8.1,3.9-14l2.2-5.2,4.4-10.9h37.7l8.3,19.1,1.5,3.5c1.6,3.7,2.4,6.6,2.4,8.8,0,3.5-1.6,6.2-5,8.2-1.9,1.1-5.5,1.9-10.6,2.4h-.8v3.7h59.9v-3.6h-.8c-3.6-.5-6.3-.9-8.1-1.4-1.7-.5-3.3-1.2-4.6-2.2-1.9-1.4-3.7-3.4-5.3-6.1-1.7-2.8-4-7.5-6.8-14l-38.5-87.3-.2-.5h0ZM1175,108.9l16.2-39.8,17.2,39.8h-33.4Z"/>
    </g>
    <g>
      <path class="st2" d="M1230.1,45.4h55.6v1.9c-5.2,0-8.7.4-10.6,1.1-1.6.7-2.9,1.7-3.9,3.2-1,1.5-1.5,3.2-1.5,5.1s.9,5.5,2.8,9.6l2.3,5.1,27.5,63.1,19.2-54.4c2.5-7,3.7-12.2,3.7-15.6s-.5-5-1.5-7.4c-1-2.4-2.3-4.4-3.8-5.9-1.5-1.4-3.3-2.5-5.3-3.1-2-.6-4.5-.9-7.6-.9v-1.9h56.8v1.9c-3.5,0-6,.1-7.6.3-1.6.2-3,.7-4.4,1.4-1.8,1-3.2,2.4-4.3,4.3-1.1,1.9-1.6,3.9-1.6,6s.8,5.5,2.5,10.4l21.7,65.9,24.3-56.1c3.8-8.6,5.7-15.2,5.7-19.9s-1.7-8.4-5.2-10.5c-2.1-1.2-5.3-1.8-9.6-1.8v-1.9h40.9v1.9c-3.9.4-6.9,1.1-9,2.1-2,1-4.1,2.9-6.1,5.6-2.9,3.9-6.6,10.9-11,21l-36.3,82.7h-3.6l-31.5-88.4-31.9,88.4h-4l-39.5-89.4-2.7-6.1c-1.8-4.1-3.4-7.1-4.6-8.9-1.2-1.8-2.7-3.3-4.5-4.3-1.4-.9-2.9-1.5-4.6-1.9-1.7-.4-4-.7-7-.9v-1.9Z"/>
      <path class="st2" d="M1427.3,44.5h-42.7v3.7h.9c4.1,0,7.2.6,9.2,1.7,3.2,1.9,4.8,5.1,4.8,9.7s-1.9,11.1-5.6,19.6l-23.4,53.9-21-63.6c-1.6-4.8-2.4-8.2-2.4-10.1s.5-3.9,1.5-5.6c1-1.7,2.3-3,4-4,1.2-.7,2.6-1.1,4.1-1.3,1.5-.2,4-.3,7.4-.3h.9v-3.7h-58.6v3.7h.9c3,0,5.4.3,7.3.9,1.8.6,3.5,1.5,4.9,2.9,1.5,1.4,2.7,3.3,3.6,5.5.9,2.3,1.4,4.7,1.4,7.1s-1.2,8.5-3.7,15.3l-18.4,52.2-26.6-61-2.3-5.2c-1.8-4-2.8-7.1-2.8-9.3s.5-3.2,1.4-4.6c.9-1.3,2.1-2.3,3.5-2.9,1.7-.7,5.2-1,10.3-1h.9v-3.7h-57.4v3.6h.8c2.9.3,5.2.6,6.8,1,1.5.4,3,1,4.3,1.8,1.7,1,3.1,2.4,4.2,4.1,1.2,1.8,2.7,4.7,4.5,8.7l2.6,6.1,39.5,89.4.2.5h5.2l.2-.6,31.1-86.1,30.6,86.1.2.6h4.8l.2-.5,36.3-82.7c4.4-10,8.1-17,10.9-20.8,1.9-2.6,3.8-4.4,5.7-5.3,1.9-1,4.8-1.7,8.7-2h.8v-3.7h0Z"/>
    </g>
  </g>
  <g>
    <polygon class="st1" points="62.3 42.4 80.8 42.4 97.6 25.6 97.6 7 62.3 42.4"/>
    <g>
      <path class="st3" d="M88.7,46.7h-49.3v20.4h4.8s.8-13.1,9.8-13.1,26.2-.1,33.7-.1h3.1c11.5,0,18.5,6.7,18.5,16s-2.2,9.5-7.5,14.9c.8.7,5.5,4.6,7.3,5.9,2.8,2,6.6,5,8.6,6.7,2-2.7,4.7-7.3,6-12.3.8-2.9,1.1-5.9,1.1-8.9,0-17.1-14.3-29.4-36-29.4Z"/>
      <path class="st3" d="M88.6,123.6c1.6-1.6,3.6-3.3,5.8-5l3.9-3c-3-2.3-5.9-4.5-9.2-7.5-2.8-2.5-5-5.2-7-7.6-14.1,11.8-19.3,21.7-19.3,34.8s.1,3.2.3,4.8l-45.3-44.8s0,0,0,0c0,0,0,0,0,0l16.4-24.9-29.6,29.6,93,93v-18.8l-17.7-17.5c-6.6-17.8,5.4-30,8.7-33Z"/>
    </g>
    <path class="st2" d="M111.4,46.7c-3,0-6.2.3-8.9.8,6.5,1,11.9,5.2,13.4,6.4,8.7,0,23.9.1,30.3.1,9,0,9.8,13.1,9.8,13.1h4.8v-20.4h-49.3Z"/>
    <path class="st1" d="M23.8,96.2h36.9s-2.3,7.4-11.2,7.4h-14.4s-9.6,0-11.3-7.4Z"/>
    <polygon class="st1" points="42.3 68.2 60.7 96.2 42.3 74.8 23.8 96.2 42.3 68.2"/>
    <polygon class="st0" points="138.2 42.4 119.6 42.4 102.8 25.6 102.8 7 138.2 42.4"/>
    <path class="st0" d="M182.6,95.3l-45.8,45.3c.3-1.8.4-3.6.4-5.3,0-14.8-6.7-25.5-25.5-39.7l-4.4-3.3c-12.9-9.8-16.5-15.3-16.5-22.4s3.1-10.5,7.5-13.3c-1.7-.8-5.5-1.5-13.2-1.4-6,5.2-9.7,12.6-9.7,20.9,0,12.6,5.9,23.5,23,36.9l7.2,5.6c2.2,1.8,4.2,3.4,5.8,5,3.4,3,15.6,15.6,8.5,33.7l-17.1,16.8v18.8l93-93-29.6-29.6,16.4,24.9"/>
    <path class="st0" d="M176.5,96.2h-36.9s2.3,7.4,11.2,7.4c4.8,0,14.4,0,14.4,0,0,0,9.6,0,11.3-7.4Z"/>
    <polygon class="st0" points="158 68.2 139.6 96.2 158 74.8 176.5 96.2 158 68.2"/>
  </g>
</svg>