<?xml version="1.0" encoding="UTF-8"?>
<svg id="Layer_1" xmlns="http://www.w3.org/2000/svg" width="400.8" height="250.3" version="1.1" viewBox="0 0 400.8 250.3">
  <!-- Generator: Adobe Illustrator 30.0.0, SVG Export Plug-In . SVG Version: 2.1.1 Build 48)  -->
  <defs>
    <style>
      .st0 {
        fill: #ec1c24;
      }
    </style>
  </defs>
  <path class="st0" d="M132.4,31.3c1.5-.3,3-.5,4.6-.8V2.1c-2.2.3-4.3.8-6.4,1.2l1.8,28h0Z"/>
  <path class="st0" d="M141.5,29.9c1.8-.2,3.5-.4,5.3-.5l1.8-28.8c-2.4.2-4.8.5-7.2.8v28.6c.1,0,0,0,0,0Z"/>
  <path class="st0" d="M173.3,29.9c2.2.2,4.4.5,6.6.9l8.3-28.6c-3-.5-6-.9-9-1.3l-5.9,29h0Z"/>
  <path class="st0" d="M194.4,3.4l-8.3,28.5c2.3.5,4.6,1,6.8,1.6l10.9-27.8c-3.1-.9-6.3-1.7-9.5-2.3"/>
  <path class="st0" d="M161.6,29.1c1.8,0,3.5.1,5.3.2L172.8.4c-2.4-.2-4.9-.3-7.4-.3l-3.8,29.1h0Z"/>
  <path class="st0" d="M151.2,29.1c1.7,0,3.4-.1,5.1-.1l3.8-29c-2.4,0-4.7.1-7.1.2l-1.8,28.9Z"/>
  <path class="st0" d="M233.8,17.6l-14.3,25.7c3.2,1.6,6.4,3.3,9.4,5.1l17.2-23.6c-4-2.6-8.1-5-12.4-7.2"/>
  <path class="st0" d="M211.9,8.2l-10.9,27.7c2.5.8,5,1.7,7.5,2.6l14.4-26.1c-3.6-1.6-7.3-3-11-4.2"/>
  <path class="st0" d="M117,34.8c1.1-.3,2.2-.6,3.3-.9l-3-27.4c-1.6.5-3.2,1-4.8,1.5l4.5,26.8h0Z"/>
  <path class="st0" d="M123.7,33c1.3-.3,2.7-.6,4-.9l-1.8-27.9c-1.8.4-3.5.9-5.2,1.3l3,27.5h0Z"/>
  <path class="st0" d="M40.9,68.6c5,0,10,.9,14.9,2.7,15.8-16,35.4-28.3,57.3-35.4l-4.5-26.7c-31.6,11.4-58.4,32.8-76.6,60.4,2.8-.7,5.8-1,8.9-1"/>
  <path class="st0" d="M17.8,136.9c-2.9-2.3-5.5-4.7-7.7-7.1-.5-.6-1-1.1-1.4-1.7-.7,4.2-1.3,8.4-1.7,12.6,3,4.1,6.2,6.6,9.7,7.4.6-3.5,1.3-7,2.1-10.5l-1-.8h0Z"/>
  <path d="M0,172.9l3.2-32.3c4.8,7.6,10.5,11.4,17,11.4s4.5-.6,6.2-1.9c1.7-1.2,2.6-2.8,2.8-4.7.3-2.7-1.2-5.4-4.3-7.9l-4.3-3.5c-2.9-2.2-5.3-4.4-7.2-6.7-1.9-2.2-3.5-4.5-4.6-6.8-1.1-2.3-1.9-4.8-2.3-7.2s-.4-5.1-.2-7.9c.5-4.7,2.1-9.7,4.9-14.8,1.4-2.4,2.9-4.6,4.6-6.6,1.7-2,3.6-3.8,5.7-5.3,5.8-4.4,12.5-6.6,20-6.6s13.4,1.7,19.9,5.2l-3.1,31.5c-2-3.6-4.3-6.4-7.1-8.5s-5.5-3.1-8.4-3.1-4,.6-5.6,1.8c-1.6,1.2-2.4,2.6-2.6,4.3-.3,2.7,1.4,5.4,5,8.1l4.2,3.2c5.6,4.2,9.5,8.4,11.6,12.8,2.2,4.4,3,9.5,2.4,15.3-1,10-5,18.2-11.9,24.7-6.9,6.5-15.2,9.7-24.9,9.7s-13.7-1.4-21-4.3"/>
  <path d="M87.7,177.2h-28.4l10.3-105.1h27.5c13.7,0,23.6,2.8,29.7,8.4,7.2,6.6,10.2,15.7,9,27.4-1.2,12.7-6.3,22.2-15.2,28.5-6.1,4.2-14.4,6.3-25.1,6.3h-4.4l-3.4,34.4h0ZM93.2,120.6h1.3c3.4,0,6.3-1,8.6-3.1,2.3-2.1,3.6-5,3.9-8.7.4-3.6-.3-6.6-2.1-8.8-1.8-2.3-4.2-3.5-7.3-3.5h-2l-2.4,24.1h0Z"/>
  <path d="M259.8,177.2l10.3-105.1h24.5c14,0,24.6,3.8,31.6,11.3,9.3,9.8,13.1,23.6,11.3,41.3-1.7,17.4-7.4,30.9-17,40.4-8.2,8.1-19.6,12.1-34.3,12.1h-26.5ZM290.6,152c10.2-.5,16.1-9.2,17.8-26.3.8-8.4.2-15-1.9-19.9-2.1-4.9-5.4-7.3-9.8-7.3h-.9l-5.2,53.5h0Z"/>
  <polygon points="337.7 177.2 348 72.1 400.8 72.1 398.3 97.3 373.9 97.3 372.6 110.7 394.4 110.7 392 135.9 370.1 135.9 368.5 152 392.9 152 390.4 177.2 337.7 177.2"/>
  <path class="st0" d="M254.8,118.5c-1.9-24-30.5-43.9-30.5-43.9,35,37.3,11.5,80.3-25,65.9-9.8-3.8-18-4-35.2,17.8-31.9,40.4,23.7-122.2,23.7-122.2,0,0-45.8,85.8-55.3,108.1-7.9,17.1-18.1,48.1-.8,54.8,25,9.6,46.9-31,46.9-31,0,0,1.6-3.9,1.6,6s-15.1,41.9-15.1,41.9l52.4-24.8s-22.5-13.9-22.5-23.8.3-6.2.6-7.1c30.1,25.8,61-18.6,59.2-41.8M147.2,191.7c-4.8,3.7-11.7,2.7-15.1.9s-6.6-6.6-6.9-11.9c-.2-2.6.3-7,.9-10.8,1.8-8.2,5.1-16.9,8.6-24.5h0c6-14.1,26.8-54.1,41.1-81.3-3,9.4-6.4,20.3-9.7,31.4-11.5,38.6-14.4,55.4-14.6,63.1-.8,9.6,1.9,13.7,2.6,18.5.7,5-2.1,10.8-6.9,14.5"/>
  <path class="st0" d="M147,180.3c0,4.1-3.3,7.4-7.4,7.4s-7.4-3.3-7.4-7.4,3.3-7.4,7.4-7.4,7.4,3.3,7.4,7.4"/>
  <path class="st0" d="M29,235.7c.1.2.3.4.4.7.6.9,1.1,1.9,1.7,2.8.2.3.3.5.5.8.7,1.1,1.5,2.2,2.2,3.3,0,.1.2.2.2.3.7,1,1.4,2,2.1,2.9.2.2.3.5.5.7.8,1.1,1.6,2.1,2.4,3.2h0s0,0,0,0c-.7-1-1.4-2.1-2.1-3.2-.2-.3-.4-.6-.6-.9-.5-.8-1-1.6-1.5-2.4-.2-.3-.4-.7-.6-1-.6-.9-1.1-1.9-1.7-2.9-.3-.6-.6-1.1-.9-1.7-.2-.4-.5-.9-.7-1.3-.4-.7-.7-1.4-1.1-2.1,0-.1-.1-.3-.2-.5-.8-1.6-1.5-3.2-2.3-4.8-3.1-6.8-5.7-13.9-7.6-21.2-.2-.6-.3-1.2-.5-1.9-.2-.7-.4-1.4-.5-2-.1-.6-.3-1.2-.4-1.8-.2-.7-.3-1.4-.5-2.2-.1-.6-.2-1.1-.4-1.7-.2-1-.4-1.9-.5-2.9,0-.3-.1-.7-.2-1-.2-1.3-.4-2.6-.6-3.9,0-.4-.1-.9-.2-1.3-.1-.9-.2-1.9-.4-2.8-.2-2.1-.4-4.3-.6-6.4-2.3-.2-4.6-.6-6.9-1.1.4,2.4.8,4.7,1.3,7h0c0,0,0,.2,0,.3.3,1.3.6,2.6.9,3.9.1.4.2.9.3,1.3.2.9.5,1.9.7,2.8.2.7.4,1.4.6,2.1.2.6.3,1.2.5,1.8.2.8.5,1.6.7,2.4.1.5.3,1,.4,1.4.3.9.6,1.7.8,2.5.1.4.3.8.4,1.1.3.9.6,1.8,1,2.7h0c2.7,7.4,6,14.5,9.8,21.3h0c.3.5.5.9.8,1.4.1.3.3.5.5.8.6,1.1,1.3,2.2,2,3.3"/>
  <path d="M134.9,247.6h-6.2l-.2-10.4-.2-4.1c0,.8-.1,1.6-.2,2.3,0,.7-.2,1.4-.3,2.1l-2,10.1h-5.1l-1.7-10.1c0-.6-.2-1.6-.4-3,0-.2,0-.7-.1-1.3l-.2,4.2-.6,10.3h-6.5l2.7-22.7h7.6l1.3,7.6c.1.6.2,1.3.3,2.1,0,.7.2,1.5.2,2.4.1-1.4.3-2.7.5-3.9l1.5-8.2h7.4l2.2,22.7h0Z"/>
  <path d="M178.9,247.6h-6.3l-.5-2.9h-4.1l-.5,2.9h-6.3l5.5-22.7h7.5l4.8,22.7h0ZM171.4,240l-.4-2.6s0-.1,0-.4c0-.2-.1-1.1-.3-2.6,0-.2,0-.4,0-.7,0-.3,0-.6-.1-1.1l-.2-2.1c0,.2,0,.4,0,.7,0,.3,0,.5-.1.8,0,.6-.1,1-.1,1.3,0,.2,0,.4,0,.4l-.4,2.8-.6,3.6h2.6Z"/>
  <path d="M205.4,247.6v-22.7h5.3c3,0,5.4.8,7.1,2.4,2.2,2.1,3.3,5.1,3.3,8.9s-.9,6.7-2.8,8.7c-1.6,1.7-4,2.6-7.1,2.6h-5.7,0ZM211.5,242.2c2.2-.1,3.3-2,3.3-5.7s-.3-3.2-.8-4.3c-.6-1.1-1.3-1.6-2.3-1.6h-.2v11.6Z"/>
  <polygon points="248.3 247.6 248.3 224.9 259.7 224.9 259.7 230.4 254.5 230.4 254.5 233.3 259.2 233.3 259.2 238.7 254.5 238.7 254.5 242.2 259.7 242.2 259.7 247.6 248.3 247.6"/>
</svg>