<?xml version="1.0" encoding="UTF-8"?>
<svg id="_Ñëîé_1" xmlns="http://www.w3.org/2000/svg" width="1865.8" height="400" version="1.1" xmlns:xlink="http://www.w3.org/1999/xlink" viewBox="0 0 1865.8 400">
  <!-- Generator: Adobe Illustrator 29.8.0, SVG Export Plug-In . SVG Version: 2.1.1 Build 43)  -->
  <defs>
    <style>
      .st0 {
        fill: url(#linear-gradient2);
      }

      .st1 {
        fill: url(#linear-gradient1);
      }

      .st2 {
        fill: #13284d;
      }

      .st3 {
        fill: #008ad1;
      }

      .st4 {
        fill: url(#linear-gradient);
      }
    </style>
    <linearGradient id="linear-gradient" x1="398.3" y1="202" x2="-353.5" y2="202" gradientTransform="translate(0 402) scale(1 -1)" gradientUnits="userSpaceOnUse">
      <stop offset="0" stop-color="#008ad1"/>
      <stop offset=".6" stop-color="#001a3b"/>
    </linearGradient>
    <linearGradient id="linear-gradient1" x1="515.2" y1="384.5" x2="118.6" y2="384.5" gradientTransform="translate(0 402) scale(1 -1)" gradientUnits="userSpaceOnUse">
      <stop offset=".5" stop-color="#008ad1"/>
      <stop offset="1" stop-color="#001a3b"/>
    </linearGradient>
    <linearGradient id="linear-gradient2" x1="57.9" y1="85.3" x2="371.2" y2="85.3" gradientTransform="translate(3.1 404.9) rotate(-1.1) scale(1 -1)" gradientUnits="userSpaceOnUse">
      <stop offset="0" stop-color="#008ad1"/>
      <stop offset="0" stop-color="#008ad1"/>
      <stop offset="1" stop-color="#e3f7ff"/>
    </linearGradient>
  </defs>
  <g>
    <path class="st4" d="M309.3,34.5h0c-7.5-.6-14.9-1.9-22.3-3.1-3.7-.6-7.4-1.1-11-1.4-1.8-.1-3.7-.2-5.5-.2s-3.7,0-5.5.1c-3.6.2-7.3.7-10.9,1.3-.9.1-1.8.3-2.7.5s-1.8.4-2.7.6c-1.8.4-3.6.9-5.4,1.3l-9,2.3,6.5-6.8c1.5-1.6,2.8-3.3,4-5.1h-.4c-2.2.3-4.4.5-6.6.5-4.4.2-8.7,0-13,0-4.2-.1-8.4-.2-12.4,0-1.1,0-2.2.1-3.2.2l-1,7.7c3.3,1.3,6.6,2.6,9.9,4.2,18.5,8.7,35.7,22,49.2,39.3,6.8,8.6,12.6,18.1,17.3,28.3,4.7,10.2,8.4,21,10.7,32.2,4.8,22.3,4.3,46-1.4,67.9l-1.4,5.3-4.8-1.1c-4.8-1.1-9.7-1.9-14.5-2.5.2-.6.4-1.3.6-1.9.4-1.4.9-3,1.4-4.6.4-1.6.9-3.3,1.3-5.1s.8-3.7,1.2-5.6c.4-1.9.7-4,1-6.1s.5-4.2.8-6.4c.1-2.2.4-4.4.4-6.7s.2-4.6.1-6.9v-3.5c0-1.2-.1-2.4-.2-3.6,0-2.4-.3-4.8-.5-7.2-.3-2.4-.5-4.8-.9-7.2-.7-4.8-1.6-9.5-2.7-14.1s-2.4-9.1-3.8-13.4-2.9-8.3-4.6-12.1c-.8-1.9-1.7-3.7-2.5-5.5-.9-1.7-1.7-3.4-2.6-5-1.7-3.2-3.5-5.9-5.1-8.4-1.7-2.4-3.2-4.4-4.6-6-.7-.8-1.3-1.5-1.9-2-.6-.6-1.1-1.1-1.5-1.4-.8-.7-1.3-1.1-1.3-1.1,0,0,.4.4,1.2,1.2.4.4.9.9,1.4,1.5s1.1,1.3,1.7,2.1c1.3,1.6,2.6,3.7,4.1,6.2,1.4,2.5,3,5.3,4.4,8.6.8,1.6,1.4,3.3,2.2,5.1.7,1.8,1.4,3.6,2.1,5.5,1.4,3.8,2.6,7.9,3.7,12.2,1.1,4.3,2,8.7,2.8,13.3.7,4.6,1.3,9.2,1.6,13.9.2,2.3.3,4.7.4,7,0,2.3.1,4.6,0,6.9v3.4c0,1.1-.1,2.3-.2,3.4,0,2.2-.4,4.4-.6,6.6-.2,2.2-.6,4.3-.9,6.3-.4,2-.7,4.1-1.1,6-.5,1.9-.9,3.8-1.3,5.6-.5,1.8-1,3.5-1.5,5.2-.5,1.6-1.1,3.2-1.5,4.7-.5,1.5-1.1,2.8-1.6,4.1-.3.6-.5,1.3-.7,1.9-.3.6-.5,1.1-.7,1.7-.1.3-.2.5-.3.7-7.3-.4-14.7-.2-22,.4-7.8.7-15.6,2-23.3,3.8s-15.3,4.2-22.8,7c-14.9,5.7-29.4,13.2-43,22.3-13.5,9.1-26.2,19.7-37.6,32.1,0,0-.4.2-1.2.5.4-.2.8-.3,1.1-.5,5.7-8.7,74.1-127,71.6-199l-47.8,143.6c-8.2,3.1-16.2,7.4-23.8,12.2-7.7,4.8-15,10.2-22,16.1-7,5.9-13.7,12.2-19.8,19-2,2.2-15.7,20.3-17.6,22.7,28.1-89.8,100.1-189.7,130.9-216.1-1.2-20.7-8.6-37.4-25.6-46,4-.5,9.8.4,14.7,1s9.8,1.4,14.7,2.5c5,1.1,9.9,2.5,14.7,4.2l6.8-29.1C92.5-4.2,1.7,90.4,1.7,199.9c-.7,35.6,11.2,72.7,24.9,96.3,19.2-3.9,96.3-10.6,144.6-24.3,37.7-10.7,48.7-27.9,60.1-37,17.7-14.2,116.5-13.7,116.5-13.7,0,0-55.8,49-133.2,75.5-18.8,6.4-48.8,15.3-94.2,4.8-5.9-1.4-11.9-2.7-17.4-3.8-1.4-.3-2.7-.5-4.3-.7-1.5-.2-2.9-.4-4.4-.7-2.9-.4-5.7-.7-8.5-1.1-11.3-1.1-22.4-1.5-33-1.1-9.2.3-17.9,1-26.2,2.1,33.9,60.8,98.8,102,173.4,102,129.9,0,198.3-105.9,198.3-198.3s-35.4-129.9-89-165.4h0ZM168,344.4h.3-.3Z"/>
    <path class="st1" d="M212.2,16.1c4.4,0,8.8.4,13,.8s8.4.7,12.4.8c2,0,4.1,0,6.1-.1,1,0,2-.2,3-.3,1-.1,2-.3,3-.4l6-1-2.5,5.3c-1,2.1-2.2,4.1-3.5,6,.3,0,.5,0,.8-.1.9-.1,1.9-.3,2.8-.4,3.8-.5,7.6-.7,11.5-.7s3.8,0,5.7.2c1.9.1,3.8.3,5.7.6,3.8.5,7.5,1.3,11.2,2.1,6.4,1.4,12.7,2.9,19.2,3.9-27.6-17.6-59.8-28.6-94.5-30.7l-1.8,14.1h1.9,0Z"/>
    <path class="st0" d="M343.6,293.8c15.2-7.6,28.5-12.1,28.4-13.4,0-1.5-4.9-1.6-9.5-1.5-6.1.1-17.4,4.4-33.3,11.6-13.7,6.3-29.2,13.9-42.4,21.5-11.9.2-23.3.5-34.3.9,16.1-9.3,29.6-15.8,34.2-17.7,8.7-2.3,10.9-3,10.9-4.5,0-2.4-4.4-3.7-10.3-3.6-9,.2-26.6,8.3-46.1,19.4l-13,7.5c-10.2.7-20.2,1.4-29.6,2.4-1.8.2-3.7.4-5.5.8,13.5-11.2,27.4-22.4,42.3-28.4s2.9-1.2,4-1.7c-3.8-1.5-11.2-3.5-18-3.4-11.7.2-28.9,8.8-83.1,38.1,13.4-21.8,27.9-29.7,27.8-31.7,0-1.8-3.5-3.1-12.7-2.9-7.5.1-9.2.6-17.4,4.1-28,11.7-76.2,48.8-76.2,48.8.3.3,0,0,0,0,0,0,32.9-14,71.2-32.9-14.3,14.3-20.8,29.8-20.8,33.2s3.2,3.1,8.8,3c7.1-.1,25-17.1,65-34.1-8.2,6.1-23.2,19.2-24.3,27.4-2.1,15.6,25.1,16.1,41.1,7.8,11.7-6,17.2-10.2,38.6-24,12.6-.6,25.3-1.1,36-1.4-11,7.4-18.2,14.5-18.1,20.1,0,4.5,9.2,8,21.5,7.7,27-.5,67.7-22,67.7-22,0,0-40.4,12.3-61.5,12.7-3.2,0-4.9-.5-4.9-2.6-.2-8,36.2-27.9,63.4-41.3h.1ZM179.8,333.2c0-2.2,2.3-5.4,6-9.2h.9c3.6,0,6.8-.5,12.9-1,4.4-.4,9.7-.8,15.5-1.1-6.4,3.8-12.3,8.4-18.1,11.2-4.5,2.1-9,2.7-11.8,2.7s-5.4-.9-5.4-2.6h0Z"/>
  </g>
  <g>
    <path class="st3" d="M545.9,82.5l-.2,2.9.2,5.9-.2,3.1-.2,1.6-.4,2.4-.6,1.4-1.2,1-2.4.4h-3.1l-5.9-.6-3.1-.2-9,.6h-3.1l-4.9-.4h-2.9l-1.4.2-2,.6-.8,1.2-.2,2.5-.8,11.6v3.1l.8,11.8-.2,3.1-.8,11.8-.2,3.1.4,11.6v18l-.4,11.6.2,2.9,1,8.8.2,3.1-.6,2.4-1,1-2.5.4-3.7-.2-4.9-.6-3.3-.2-8.8.6h-3.1l-8.8-.6-2.4-.2-1.2-.6-.4-2.2v-3.3l.6-8.2.2-3.1v-14.7l.2-11.8v-3.1l.2-11.6v-3.1l-.8-11.8-.2-3.1v-14.9l-.4-11.6v-2.7l-.6-1.6-2-.4h-2.9l-6.3.4h-3.5l-5.3-.4-3.3-.2-3.3.2-4.5.2h-2.9l-1.6-.2-2.2-.4-1.2-.8-.8-1.2-.4-2v-1.4l-.2-3.1.4-5.9v-2.9l-.6-7.4.2-3.1.6-2.5.8-1.4,1.2-.6,2-.4h4.5l7.3.6h3.1l11.4-.8h3.1l11.6,1h3.1l14.5-1,11.4.2h3.1l14.7-.2h14.5l6.5-.4,3.3.2,1.6.2,2.4.4,1.4.8,1,1.4.4,2.4v1.4l.2,2.9-.4,6.3ZM469.8,147.9l1-2.2-.2-.6-.4-.2-1.2,2.5.8.4ZM469.6,92.7l.4.4.4-.4v-.4l-.4-.4-.4.8ZM473.4,192.8l-1-.4-1,.6v-.2h-.8l-.4.4.4,1,.8.6.8-.4.2-.8,1-.8ZM470.4,135.8v.4l.2.2,1-.2.8-.8-2,.4ZM472,185.8l-.4.6.2.2.8-.2.2-.2-.8-.4ZM497.9,136l-.6-1h-.2v.6l-4.1.8v-1.6h1l2.2-2.2-.4-1.6-.8-.8v-2.2l-.6-.6-.4.2v.4l-1,1.2-.2-1.6-.8-.8-.2-1.2,2.2-1.6.6-1.4-1.8-.4-.6-.8-3.7-.8-.4.6.4.4h.6l.8.6h1l1,2.7-2.9-.6-1.8-2-.6,2.2,6.1,5.1-.4.8-7.1,2.5,1.4-2,1.2-.2.4-1-1.6.4-1.6-1.6-1.2,1.2.6,1h-.2l-.2.2h-.2l-.2.2-.2-.2h-.2l.2-.2-.6-.8-1.8-.2-.4-4.7,2.4,1.4.2-2.4-1.8-.2-.4.4-1.8-.6-.8-1.2-1.4-.4-.6.6-.2,1-2.2,1.4h1.4l.6,1-.2,1.4.6,1.4,1.2-4.1h1.4l.2.2-1.4,7.1-1.6.6,1.6,1.2.2,1-1.6.6-.4.6.8.6-1,1.4h-1.4l-.4-2.2-.6.6-.4,2.5,2.4,2.2-.2.8-1.8-.2-1.6,1,.2.8-.4.8.2.8.8-.2.8-1.6,1.4-.6,4.5,2.5,1-2-1.4-4.1,2.4-.8v-.6l.8-.6-.8-.8v-1.8l1.4-.2.8.8,1.4-2,.2,1.2.8.6.8-.8h1.8l.2.8-.8,1.8-2.9.4-1.2,2.7-.2.4v-.2l-2.4,2.9.6,1.2h2.9l2,3.1.2-1.4.2-.2.8.2.8-.4-2.5-5.7,1-.8,4.1,4.9,5.3-5.5,1-.8.4-2ZM471.8,126l.2.8.4.2.4-.2.2-.4-.2-.4-.6-.2-.4.2ZM472.6,131.7v.2l1,.4v-.4l-1-.2ZM472.8,151.1l-.2.8.2.4.4.2.4-.4v-.6l-.4-.4h-.4ZM473.2,148.1l.4-.2.2-.4-.2-.4-.8.2v.4l.4.4ZM473.4,157.7l1.2.4,1-1,6.1-3.1-.2-.2h-.2v-3.1l-.6-.4-1.2.4-.4,2.7-1.6,1-1.6-1-.2-.8-.8-.4-.6.6-.2,1h-.2v1.6l-1,1,.4,1.4ZM473.2,103.8l.8.8,1-.4.8-3.3-2.2.6-.4,2.4ZM475.7,106.8l-.2-.2h-1l-1,1.2.2.2.8.2.8-.6,1.4.2.6-.6-.4-.6-1.2.2ZM473.9,95l.8,2.7.8-1-1-.8,1-1.4-1.6.4ZM477.9,185.4l-.2-.4h-.2l-1.2.8-.4,2-.6.4h-.6l-.4.4.2.6.6.2.6-.2.8-2.4,1-.6.4-.8ZM474.9,147l.6-.4-.6-.4-.4.4v.4h.4ZM474.7,156l-.2-.2v-.2l.2-1.6,1-.4.8,2.2-1.8.2ZM474.7,118.5l.2,1.2,2,.4.8-.6v-.8l-2.2-1-.8.8ZM475.1,90.5l1,1.6v-1.2l.6-.6-.2-.8h-1l-.4,1ZM477.7,198.9l-1.6-.4-.8.8.6-.2,1.8.4v-.6ZM475.9,94h.6l.2-.6-.6-.6-.4,1,.2.2ZM475.9,86.2l.4.2.4-.2.2-1-.4-.2-.6.2v1ZM477.3,147.2l-.8.2-.6,1.2.6,1.4.8-2.7ZM476.7,150.3l-.6.8.6,1.6h.8l.4-1.6-.4-.6-.8-.2ZM478.6,108.9l-1,.8-.4,1.2h-1l3.5,1.2v-.4h-.2l.6-2.9-.4-1-1,.2-.2,1ZM482.6,162.6l-1.2-1.4v2.2l-.2.2-1-.2-1.4-2.9-1.8-1.2-.6,2.5,1.8-.8,3.3,4.9,1-3.3ZM477.3,103.3l-.4.2-.2.4.8,1,.6-.8-.2-.6-.6-.2ZM478.1,117.2l1-.6,1.6-2.5-1-.6-2,.8-.4,2,.8,1ZM478.3,165.4v-2.4l-.4-.2-.4.2-.2,1.2,1,1.2ZM478.8,173.2l1-.2-1-.6h-.8v.4l.8.4ZM478.8,105l.8.6.2.8,3.1-2.5v-.4l-3.3-.2-.8,1.8ZM479,83.5l1.8,1.6.6-.6,1.2.2-.4,2.2,1.4,1.4.8-.4.2-.6-.6-.4v-.6l.2-.2.2.6.8.2,1.4-.8-.4-.4h1.4l.4-.8,1.8-.2-.8-3.5-.8,2-2.5,2h-1.2l-1.2-1.2-.8-.2,2.7-.6h1.8l.8-.6-2-1.2-.6,1.4-1.6-.6-1.2,1.6-.8-.2-1-1.6-1.6,1.6ZM480.8,93.1l-1-1.2-.6,1.2,1,1,.6-1ZM494.5,85.8l-1,.8v-3.3l-.8-.4-1.2.6.2.8h.8l-1.4,3.7h-.8l-.6-.4h-.8l-.6-1.8-.4,1.8-2.4,1.4-.2,3.3-.8.6.2,1-1,1.6,2.5,7.4,1.4-.2.6,1.4-.4,1.4.6.8-.2.8h-1.2l-2.7,2.4-1.2-.8h-.8l-.2.2,1.2,1.2,1.6.4v1.8l-1.4.2-1.8-1-.6,1,2,2.2v.4l-1.4.4-.6,1.4-1.8,1.2.2,2.7.6.2.8,1.2.8-.2.4-.6-1.2-1.4.6-1.2h.2l.8.8,2.4.2,1,1.4v2.5l1.2-2.9-.8-.4,1.4-2.7.8-.2-.8-1h-2.5l-.6-1.2-1-.6,2.9-2.9,1.2.6,2.9-1.8.4-.8-1.8-1,2-2.2-.2-1.6.6-1-.4-1h-.8l-.8.6-.6-.4-.4-1,1.2-2.9-1.4-1.4v-.8l1.6-.2.2-.2.4,1,1.6.4-1.6-1.6.4-.4v-.4h-.2l-.2-.6-3.3-2.4,1.8.6.8-.8-1.4.2-.6-.6h-.6v.6l-.8-.6h-.2v-2.5l2.5-.4,2.7,1.8,2-3.9,1.6-.4-.8-.8ZM481.6,194l-.2-.8h-1.8l.8,1.2.8.2.4-.6ZM480.2,159.1v.6l.8.6h1l-1.8-1.2ZM481.2,90.1l.4.4.6-.6v-1.8l-.4-.4-1,.4.4,2ZM480.8,98.9l1,.4.6-.8-.2-.4h-1.4v.8ZM484.1,146.6l.4-.4-.4-.4-1.6-.4-1.2,1.2v3.3l2.4,1.4.2,1-.4.4.2.4.6.2.4-.6h.8l.6-.4h1.8l.2,1.4,2.2,1.2,2.4-1,.2.2.8-2.4-.4-.8h-.2v-.2l-.2.2-1.4-.6,1.6-.8-1.6-.4-1.4.8v1l-.6.6-1.8-.6-1,.4-1.6-1.4h-.8l-.2-3.3ZM483.3,158.3l1.4-1.4-.2-.8-1.2.4-1,1.2,1,.6ZM483.9,123.1l.4-.2v-.4l-.4-.4-.4.4v.4l.4.2ZM483.7,127l2.4.8.8,1.2.4-1.4-2.4-1.4-1.2.8ZM485.1,177.2h-.8l-.6.2.8.2.6-.4ZM484.7,106.4l.4-1.2.6-.2v-.4l-1.4-.8-.4.2v3.5l.8-1.2ZM484.3,79.7l.2.8.6-.6.2-.8h-.4l-.6.6ZM484.5,76l1.2,1.8.6-.2-.6-3.3-1.2,1.8ZM485.9,160.3h1l1-1.2.2-1.6-.8-.4-2,.8-.6.8,1.2,1.6ZM485.1,133.2l-.2.2v-.2h.2ZM486.1,96.8l-.4.2-.2.4v-.6l-.4-.6v-.2l.6-1,.2.4.4.2v.4l-.2.2v.6ZM486.3,98.6l1.2.6-.2.2h-.2l-.4.4-.4-.2-.4.2.4-1.2ZM487.3,195.2l-.2-.4h-.4l-.6.4v.6l.6.4.6-1ZM487.5,108.9h.2v1.8l-.4-1v-1l.2.2ZM487.3,170.1l2.2-2,2.2,1.2,1.4.2-.8-1.4.8-2.2-.2-.4-.4-.2-.4.2-.8,1.6-2.2-.8-1.8,3.7ZM490,199.7l-.6-.8h-.4l-.4.4h-.6l-.4.6.6.4,1.4-.6h.4ZM487.9,72.5l2.9,3.7h1.2l1-1-.2-.8-4.9-2ZM492,117.2v-5.1l-.6-.4-.8,1.2.2.4-.4,1-1,.2-.6-.4h-.6v.6l.4.2,1.2,2.2,2.2.2ZM491.6,162.5h-2l-.4.4.8,2,1-.2.4-1,.6-.2-.4-1ZM489.8,77.4l-.4.4.4.8.8-.2.2.2,1.8-.4.2-.6-.8-.4-1.4.6-.8-.4.6-.4v-.8l-.6.2-.4.6v.4h.4ZM491.4,133l.2.6-.8,1-1.2-.2,1-1.6.8.2ZM490,118.9l-.2.8v.6l.6-.2.2-.6-.6-.6ZM493.5,183.2l-.8-.6-.4-.6-2.2,2.7v.4l.6.2,1.6-.8.8.2.4-1.6ZM491.4,192.2l-.2-.8-.6-.2-.4,1.6.6.4.6-1ZM490.8,70.9l.2.6.6.2.2-.2-.2-.8-.8.2ZM492.6,161.1l.6-.8-.4-.8h-2l.6,1,1.2.6ZM495.9,97.2v-.6l-.4-.2-3.7,3.7,1.8,1.4v-2.4l2.4-2ZM493.2,78.2l.6.8-1.8,1.6v.2h.2l.2.4.6.2.6-.2.6-3.1-1,.2ZM493,119.9l-.8.8.2.6.4.2.6-1.4-.4-.2ZM493.7,133.2l-1.2-.2-.4-.4v-.6l.2-.2v-.2l1.4,1.6ZM493.9,106.4l-.8-.4-.8.2v.6l.8.2.8-.6ZM492.8,163.8l1.2.2.2-.4-.6-.6-.8.8ZM496.5,91.5l-2.2-.6-.8.2.2.8,1.8.4.6.8.4-1.6ZM496.1,198.3l-.6-2.2-1.8-.4.8,2.9.8.2.8-.6ZM494.5,95h.2l.2-.4-.4-.6-.6-.2v.8l.6.4ZM494.5,90.7h.4l.2-.2.2-.6-.6-.2-.4.8.2.2ZM494.5,105.8l1.6,1.2.2-.2v-.4l-.6-.6h-1.2ZM495.9,117.2l.8-1.6-1.2-1.6-.4,5.5,1-1.8-.2-.6ZM495.7,87.6l-.4.4.2.6.4-.2.2-.8h-.4ZM496.7,109.1l-.2-.8-.8-.2-.2.4.8.8.4-.2ZM497.9,174.6l-.4-.4h-.8l-.4.6.4.4,1.2-.6ZM497.7,74.8l.6.4-.2,2,7.8,1.4,1.4-1-5.9-.2-.6-.8v-1l1-.2.2-1-.4-.8-3.7-.6-.2,1.8ZM498.2,95.4l.4-.4.6-1.2-1-1.6-.4,3.1h.4ZM498.1,86v.8l.4.2.4-.2.2-.4-.4-.6-.6.2ZM499.4,97.4l-.4-.6h-.6l1,1.4v-.8ZM503.9,82.3l-1.6-.2.8,1.2v.2l-1.8-1,.2-.2-.6-.8.2-.8.4-.2-.2-.4-.6-.2-.4.4-1.6.4.4.8,1,.2.2,2.5.4.4-.8,3.1.2.6.4.2,2.5-4.1v-.4l.8-.4v-1.4ZM503,74.2l.8.6,1-.4,1.8-.2-1.2-2.2.6-.4-1.2-.6-1.2.2-.2.6.4.6-.6.6-.2,1.2ZM507.7,82.1l-.2-1.2-1.4-.2-1.8,1,2,1,1.4-.6ZM507.1,94l-.8-1.2-.4,1.2.2,1,.4.2.4-.2.2-1ZM510.6,80.3l-1,1,.8.8.2-.8v-1ZM511.2,74.6l.2-.4-.2-.4-1,.2-.4,1,.4.8.8.2.4-.6-.2-.8ZM512.9,95.2l-.8-.2h-.4l-.2.4.6.6.8-.8ZM518.2,89.9l-1,1.2-1,.6-3.3-1.8.8,1.4-1,2,.2.4.8.2.8-1.6,1.6,1,2.2-1.8v-1.6ZM518.6,77.2l-1.6-1.4-.6-.4-1.2,1,.4.8,1.4.8,1.6-.8ZM523.7,80.3h1.4v-.4l-.6-.8-1.6-.2-1.2-1.4-1.8.2-.6,1,.6,1-.2.4,3.1-.6.8.8ZM527.1,83.1l-.8-.6-1,.2-.6.4v.4l.6.6,1.6-.6.2-.4ZM526.5,86l-.8-.4-.8.2-.2.2.2.4,1.6-.4ZM527.6,75l-.8-.2-.6.4-.6,2.9,1.2-.6.8-2.5ZM530,81.7l.8-.2.6-.6-.2-.4h-.2l-1,1.2ZM530,83.8l.8,1h1l-.6-1-.8-.2-.4.2ZM532.4,90.5l-.8-.6-.8.2-.6.8.2.8,1.2-.2.8-1ZM537.3,81.1l-.4-.2-.4.2-.2.4.2.4h.6l.2-.2v-.6ZM538.8,76.2h.4l.2-.2-.4-.6h-.4l-.2.4.4.4ZM540.4,82.1l-.2-.4-.8-.2-.2.4.6.4h.4l.2-.2Z"/>
    <path class="st3" d="M675.4,67.2h3.1l8.8-.6,3.1.2h1.8l2.5.4,1.6,1.6.8,2.7v2.9l-.6,7.8-.2,3.1.6,10.4v3.1l-.4,10.4v3.1l.8,10.4v3.1l-.8,10.4v3.1l-.4,10.4v3.1l.2,10.4v3.1l-.2,10.4v13.5l.2,3.1.4,4.9.2,2.9-.2,2.7-1,2.5-1.4,1.4-2.2.2-3.1.4-10.6-.6h-3.1l-10.4.8h-3.1l-2.7-.6-1.2-1.6-.4-2.7-.8-12.7-.2-3.1.4-12.7v-3.1l-.4-12.5v-2.7l-.8-1.6-2.2-.8h-4.7l-7.8.6-3.1.2-15.7-.4-10.6-.6-2.5.2-1.8.6-1,1.8-.2,2.7.2,12.5v3.1l-.4,12.7.2,3.1.8,8.4v4.5l-.8,2.7-1.8,1.6-2.5.6-2.9.2-2.9-.2-8.2-.8-3.1-.2-9.2.6-3.1-.2h-1.6l-2.2-.4-1.6-.8-.8-1-.4-2.2-.2-1.8v-3.1l.4-5.9v-16.5l.4-10.4v-3.1l.2-10.4v-3.1l-.6-10.4v-3.1l-.2-10.4v-13.5l.2-3.1.6-10.4.2-3.1-.2-10.4-.2-3.1-1-6.7v-4.1l.8-2.4,1.8-1.4,2.5-.6,2.9-.2h2.9l8.2.4h3.1l7.8-.6h3.1l2.9.2,2.5.4,1.6,1.6.8,2.5.2,1.4v2.9l-.6,8.8-.2,3.1-.2,12.7v16.1l.2,2.4.6,1.6,1,.8,2,.2,2.7.2h2.7l7.4-1.2,2.9-.2,12.5.4,11.6.8h2.9l1.4-.2,2.2-1.2.8-1.6.2-2.2.8-12.7v-3.1l-.4-12.7v-3.1l-.2-12.7.6-3.1,1.6-1.8,2.4-.4h3.1l10.6.6ZM571.8,163.8l-.4,1.8.8.2,1-2-.2-.6-.4-.2-.8.8ZM573.1,154.2v.4h1l.8-.8-1-.2-.8.6ZM573.9,112.1l.4.4.6-.4v-.4l-.4-.4-.6.8ZM579,142.8l-2,1.2,1.2.2.6,1-.2,1.4.6,1.4.6-3.3h.2l.8-1.8,1,1.2-1.4,6.9-1.6.6,1.6,1.2v1l-2,1,.8.6-.2.8-.8.6h-1.2l-.4-2.2-.6.6-.4,2.4,1.2,1,.2.8.6.6v.8l-1.8-.4-1.6,1,.2.8-.4.6.2.8.8-.2.4-.6.2-1.6,5.7,2.7,1-3.3-1.2-2.5,1.8-.2,1.4-1.6-.6-.6v-2h1.4l.6.8,2.2-3.3,2-.6.4-1-.6.4h-.8l-1.6-1.8-1,1.2.4,1h-.2l-.2.2h-.8v-.2h.2l-.6-.8-1.6-.4-.4-4.3,2.2,1.4.2-.2.2-2.2-1.8-.2-.2.2-2-.6-.6-1.2-1.4-.6-.8,1.6ZM574.7,144.6v.8l.4.2.4-.2.2-.4-.2-.4-.6-.2-.2.2ZM574.9,169.1l-.2.2.2.8.4.2.2-.4v-.6l-.2-.2h-.4ZM574.9,165.4v.4l.4.4h.4l.2-.8-.6-.2-.4.2ZM581.4,168.9l-.6,2.7-1.4.8-1.6-1-.2-.8-.6-.6-.6.6-.2,1h-.4l-.2,1.2.2.4-1,1,.2,1.4,1.4.4,4.7-2.4,1.2-.4.8-1h.2v-.2h-.4l.2-2.9-.6-.6-1.2.4ZM575.3,150.5l1,.2v-.4l-1-.2v.4ZM577,120.9l-.6,1.8.2.2v.2l.6.8,1-.2.8-3.1-2,.4ZM577.8,172.3l-.2.8.6.8h-1.8l.4-2,.8-.2.2.6ZM576.7,164.8v.2l.4.2.6-.4-.6-.4-.4.4ZM579.2,126.2l-.2-.2h-1.2l-1,1,.2.2.8.2,1.4-.6.6.4.6-.6-.4-.6-.8.2ZM577.6,137.4l.2,1.4.8.4,2-.4-.2-1-2-1-.8.6ZM578,114.6l.4,2.7.8-.8-.8-1.2,1.2-1-1.6.2ZM578.6,165.6l-.6,1.2.6,1.2.8-2.5-.8.2ZM578.8,168.5l-.8.6.6,1.6h.8l.4-.6-.4-1.6h-.6ZM578.2,179.5l1.8-.6,3.1,4.9-.2-1.4.4-.2.6-1.8-1-1.4v2.2l-.2.2-1-.2-2.9-4.1-.6,2.4ZM579,180.9l-.2,1,1,1.2v-2.2l-.4-.2-.4.2ZM581.9,127.4l-1.6,2.7-1,.2,3.5,1.2v-.2h-.2v-.2h-.2l.8-2.9-.4-.8h-1ZM580,109.3l-.4,1,.8,1.6v-1.2l.6-.6v-.8h-1ZM579.8,113.8l.8-.2.2-.4-.6-.6-.4,1.2ZM580,123.2l.8,1,.4-.6v-.6l-1-.2-.2.4ZM580.8,133.4l-.4,2,.6,1,1-.6,1.6-2.4-1-.6-1.8.6ZM580.8,105.2l-.2,1,.4.2.8-.6-.2-.6-.4-.2-.4.2ZM581.7,177.3v.4l.8.6,1.2-.2-.8-.8-1-.2-.2.2ZM582.1,124.6l.6.6.2.8,3.1-2.4v-.4l-3.1-.4-.8,1.8ZM596.4,104.2l-.4.4v.6l.8.2-1.6,3.5-2-.6-.6-1.8-.6,1.8-.8.6-1.6.4-.4,3.3-.8.6-1.2,3.7,2.2,5.9,1-.2.2.2h.2l.4,1.4-.4,1.4.4.6v1l-1.4-.2-2.5,2.2-1-1h-.8l-.2.2,1,1.4,1.6.2v1.8l-1.4.2-1.8-1-.6,1,2,2.2h-.2v.2l-1.4.4-.6,1.4-1.8,1,.2,2.5,1.4,1.6.8-.2.2-.6-1-1.4.4-1h.2l.2-.2.6,1,2.5.2.6,3.9,1.4-2.9-.8-.4.4-1.4,1.8-1.2-.8-1.2h-2.5l-1.2-2,2.7-2.5,1.2.6,3.3-2.2-1.8-1.2,2-2-.2-1.4.6-1-.2-1h-.8l-.8.6-1-1.6,1.4-2.7-1.2-1.4v-.8h1.6l1-.8-.2-1-3.9-3.1.2-2.4,1.6-.4,3.3,2,2.2-3.5,1.8-.4-.8-.6-1,.6.2-3.1-.6-.4h-.8ZM583.3,165l-.2,3.3,2.4,1.4.2.8-.4.4.2.4.6.2.4-.4h.8l.6-.4h1.6l.2,1.4,1.4.4.6,1,2.5-1,.8-2.2-.4-.8-1.6-.6,1.6-.8-1.6-.4-1.4.8v1l-.6.6-1.8-.8-1,.4-1.4-1.4h-.8v-4.1l-1.6-.2-1.2,1ZM583.3,112.9l.2.8.6.4.8-1-1-1.2-.6,1ZM590.6,140.9l.2.6h.6l.8.6h1l.8,1.2v1.6l-2.7-.6-1.8-2.2-.6,2.2,5.9,5.1-.4.8-2.4.2v-.2h-.2l-1.6,1.2h-2l-1.2,1,.2,1.2.8.8.8-.8h1.8l.2,1-.8.6-.2,1-.8.4-2-.2-1.6,2.9.2-.2-2.4,2.7.4,1.2,2.9.2,1.2,2.7.6.2.4-.2-.2-1h.2v-.2l.8.2.8-.4-2.4-5.5,1-.8,3.7,4.9,5.5-4.9v-.2l1-.8.4-1.8-.6-1h-.2v.6l-3.9.6-.2-.8.2-.6,1.8-.6,1.2-1.6-.2-1.6-.8-.8v-2l-.4-.6h-.6v.6l-1,1,.2-.4-1.2-2.9,2.4-1.4v-.8l.6-.6-1.8-.4-.6-.8-2.7-.4-.2-.4-.6-.2-.4.4ZM583.9,175.8l1,.6,1.4-1.2-.2-.8-2.2,1.4ZM584.3,118.9l1,.2.6-.6-.2-.4-1.4-.2v1ZM585.3,108.4v1.4l.6,1,.6-.6-.2-2-1,.2ZM586.1,141.7v.4l.8.2v-.4l-.4-.6-.4.4ZM586.1,146.2l2.4.8.8,1.2.4-1.4-2.4-1.4-1.2.8ZM586.3,177l1,1.6,2.2-1.2v-1.6l-.8-.4-2.4,1.6ZM586.8,124.4v2.9l.8-1.2.6-1,.4-.2v-.4l-1.2-1-.6.8ZM589.8,103.5l-1.6-.8-1.2,1.4,2.7-.2,2.4-.4-.2-.4h-.4l-1.2-1-.6,1.4ZM588.4,106.4l.2.8.8.2,1.4-.6-1.4-1-1,.6ZM593.1,183.6l-.8,1.6-2.2-.8-1.6,2-.2,1.6,2.2-2,.8.2,1.2,1.2,1.4.2-.6-1.4.8-2-.2-.6h-.8ZM589.8,115.8v.4l-.2.2v.8l-.6.4v-.6l-.4-.6v-.2l.8-.8.4.4ZM590.6,119.1v.4h-.2l-.4.4-1-.2.6-1,1,.4ZM589.8,99.9l-.4.6v.8l1-1.2-.2-.2h-.4ZM589.8,97l1,1.8.4-.2v-3.1l-1.4,1.6ZM590.6,130.5l-.4-.8-.2-1h.4l.2,1.8ZM590.6,180.9v1.2l.6.8,1-.2.4-.8.6-.2-.4-1-2.2.2ZM593.1,132.7l.2.6-.4.8-.8.2-.6-.4h-.6l1.4,2.9,2.2.4.6-3.1-1.2-2.4-.8,1ZM593.5,152.3l.2.8h-.4l-.6.8-1-.2,1-1.6.8.2ZM592.1,177.9l.8,1.2,1,.2.4-.6-.4-.8-1-.2-.8.2ZM592.3,139.3v.6h.6v-.6l-.4-.6-.2.6ZM595.7,97.6l1.2.2,1.2-.8-.2-1-4.5-2.2,2.4,3.7ZM593.7,181.3l.2.8,1.2.2v-.4l-.6-.6h-.8ZM595.7,152.7l-.2-.2h-.4l-.2.2-.6-.6-.2-.8h.2l.2-.2,1.2,1.6ZM594.7,97.6l-.4.8.4.4.6-.4.2-.8h-.8ZM594.5,140.5l.4.6.6-.4.2-.8-.4-.2-.8.8ZM594.9,120.5l1.4,1.6.4-2.4,2-1.4.4-.4v-.4l-.4-.4-3.7,3.3ZM595.1,126.6v.4l.8.2.8-.4-.8-.4-.8.2ZM596.1,92.7l.4.6h.6v-.2l.2-.2-.2-.4-.4-.2-.6.4ZM598,99.7l.4.8-2,1.6,1.8-.2.8-2.4-1,.2ZM597.2,126.2l1.4,1.2.2-.2-.4-1h-1.2ZM597.4,139.3l1-1.6-.2-.2.8-1.8-1.2-1.6-.4,5.1ZM598.2,111.1l-.2.4.6.4.4-.6v-.4l-.8.2ZM598.4,129.3l.8.2v-.2l-.2-.6-.8-.2.2.8ZM618.2,139.3l-.2.4.2.4h.8l.2-.4-.6-.4h-.4ZM619.6,145v.6l.4.2.4-.2-.4-.8-.4.2ZM621.1,139.5l-.2.2.2.4.4.2.4-.6-.2-.2h-.6ZM627.4,130.1l-.8,1,.8.4.8-.2.6-.8-.2-.6-1.2.2ZM627.8,136.2l.4,1,1.2-.2-.8-.8h-.8ZM628.8,139.3l-.4.6.4.4.6-.4.2-.8-.8.2ZM632.3,144v1l.8.2.4-.4-.2-.6.6-2.4-1.6,2.2ZM633.3,134.4l-.8.2.8.6.8-.6-.2-.2h-.6ZM636.2,140.5l-.8-.6h-1l-.2.2v.2l.6.6,1.4.2,1.4,1.2,1.6-.4.6-.8-.6-1v-.4l-2.9.8ZM638.2,138.1l1,1.2.6-1.4-.8-1.4-.8,1.6ZM640.6,142.3l2.2,1.6.6-.4.2-.6-.4-.8-1.2-.6-1.4.8ZM643.1,133v.4l.6.6,1.6-.6v-.6l-.8-.4-1.4.6ZM647.4,143.4l.2.8-.2.4.2.2,1-.2.2-.8-.4-.8-.8-.2-.2.6ZM647.6,138.7l.8-1-.8-.6v1.6ZM650.4,137l.2,1.2h1.4l1.6-1.2-2-.6-1.2.6ZM651.5,146.8l-.8,1,2.2.2.2-.6-.4-.6h-1.2ZM653.7,144l-1.6.2,1.2,2h1l1-1v-1.4l-.8-.4-.8.6ZM658.2,131.9l-.2.4.4.6.6-.2-.2-.8-.2-.2-.4.2ZM660.7,130.3l-.2.6.6.2.2-.4-.4-.6-.2.2ZM661.5,101.3l-.6-.2-.2.2.2,1,1,.2.8-.4.2-.8-.6-.2-.8.2ZM662.1,95.2v1.6l.8.2.8-.4.6-1.4-.8-1.6-1.4,1.6ZM663.5,136.8l-.2.6.2.6.6.2.6-.2.4-.6-.4-.6-.6-.2-.6.2ZM666,84.4l-2,3.5.2,1.8,1,.6,1-.8.8.2-1.2-3.1.6-.8v-1.2l-.2-.2h-.2ZM673.9,88.2l-1.6-.8-.6,2h-2.4v.2l3.1,1.8-1.2,3.1-2.2.8-.4-.8-.8-.4-.2,2.7-1.8.8-2,1,2.5.6,1.2-1.8,1.2-.4.6-1,5.1.6-.2.8-2.9,1.8v2.4l1.8,1-.2,1.2.4,1,1.2-.6v-1.6l.2-.2v-.2l1.2.2.8,1.2-.6,1.2,1-.2.6-1v-.2l1.2.6v1.2l-1.4.8-.4,1h-1.2l-.4.8.6.4,1-.4,1.8,2.5-1,.8.4,1,1.2-1.6-1-1.8.2-.6-.6-.4h-1v-.8l1-.4.4-.8.2,1.4,1.6,1.4h.6l.2-.6-.8-1.4,1.2-.2-.2-.8-.6-.4.6-.6h.2l1,1-.2.4.6,1.6-1,2,.2,1.2.8-1.6,2,.2,1-1.6v-.6l.4-.6.4.4.6-.6v-.8l-1.4-2.2h-.4l-.6.4h-.8l-1.2-1-1.8-.2v-.4h-.8l-.6-.8v-3.7l-.8-.6-.4.6v1l-.8.2-.6-.6.2-.8-.6-.8h-1.2l-1-2.5.6-.6-.2-.8.8-.4.2-1.4.6-.2.6.2.6,1.2.4-.6,1,.2,1.4,3.7.6-2.7.4-.4,2.2-.4,1.4.6,1.2-1h.6l.6-1.4-.8-.4-6.3,1.6-2.5-2.5-.2-1.2-.8-.4-2.9,1ZM665.8,139.1l-.6-.2-.8,1v.2l.8.2.4-.4h.2l.2-.2.4.4.2-1.2-.8.2ZM665.1,92.3l-.2.6,1.2,2.9.6-1-.6-2.7-1,.2ZM665.8,80.9l-.2.4.4.6.8.2-.2-.8-.6-.4h-.2ZM667.2,101.3l1,.8.8-.8h-1.8ZM669.8,107.8l-.2,1.6.6-.2.4-.6h.2l-.4.6v.6l-.4.4h-.2l-.8.6h-.6l-.4-.4-.4.2.8,2.5.8-.6v-.8l2.7-.6v-.2l.2-.2,3.7.2.2-.4-4.7-2.2v-.4l-.4-.4-1.2.2ZM668,104.4l-.2,1.4,1.2,1.6.4-1.2.4-.8-.6-1.2-1.2.2ZM668,85.6l.6,1.6h.6l.4-.8-.6-1.4-.4-.2-.6.8ZM668,92.3l1.4.6,1.4-.8-1.6-.8-1.2,1ZM668,118.2l.2,1.4.6.2.8-1-.4-.6-.6-.2-.6.2ZM669,80.7l-.2.8.4.4.4-.2.6-.6-.2-1-1,.6ZM670.9,114.2l.2,1.2.8.2.6-.4-1-2.2-.6,1.2ZM671.7,165.8l-.8,1,2-.4v-.4l-.2-.2h-1ZM671.1,86l.2.8h.4l.2-.2-.4-1.4-.4.8ZM675.1,135.4l-.8.8-1.8.4-1.4,3.1,3.5-3.3.8.8-1.4,5.5h1.6l.8-2-.6-.2v-1l.8-.6,1-.4.6-2.4-.4-.6-.6.4-.6,1.4h-.2l-1.2-2h-.2ZM671.1,160.3v.8l.2.4h.2l.4-.8-.2-.6-.6.2ZM676.8,148.7l-2.9,3.1-.8.2-.4,1.2,1.4.6v-.8l.6.2v.4l.4.2h-.2v1.6l-.4.2v.2l.4.4,2.2-.2-1-1.2.4-2.4-.2-.2,1.4-3.5-.4-.2-.4.2ZM672.9,85.2l.2.8,1,1,1.4.2.4-.8-.8-1.8-.6-.4-1.6,1ZM673.5,79.9l-.4,1.8.8-.8.2-.8-.2-.2h-.4ZM677.4,117l-1.8.8-.4-1h-1l-.6.4-.2,3.7h1.6l.4-.6,2,.2.8-6.5v-1.4l-1-1.4.2,5.7ZM673.7,112.5l-.2.4.2.4.4.2.6-.6-.2-.4-.4-.2-.4.2ZM674.9,82.9l1.2,1.4.8-.2-1.4-2.2-.6,1ZM675.2,80.1v.4l.4.2.4-.2.2-.4-.4-.4-.6.4ZM675.4,115.6l.4.2.8-.2-1.2-.6v.6ZM675.8,123.8l.4.4.4-.2.2-.6-.4-.2-.6.6ZM676.8,171.7l-.4.6v.2l.2.2.6-.4.2-.8-.6.2ZM677.8,132.1l-.2.8-.6.2v.6l.4.4.8-1v-1h-.4ZM680.9,185.2l-.4.6-1,.4-.4-.8-1.6.6.8,1.8-.2,1.8,1.6-.4.4-.6,1.8-.2-.4-2.5-.8-4.9-1.2-1,1.4,5.3ZM678.6,128.5v.8l.4.2.4-.6v-.4l-.4-.2-.4.2ZM678.8,116.6l.4.8.6-.2.4-1.8.8-.8-1.6-.2-.6,2.2ZM683.9,81.7l-4.7,3.1,1.4-.2,2,1,1.2-1h-2l-.2-.2.2-1,3.9-2.9-2.4-.6.6,1.8ZM679.6,160.1l2.9-.4v-.6l-1.8-.4-1.2,1.4ZM680.1,75.6l-.2.8.4.2.4-.2.2-.8-.4-.2-.4.2ZM680,112.7l2.9.2.2-.4-1.8-1-1.4,1.2ZM681.1,122.1l-.6.6v.6h.6l.6-1.8-1-.8.4,1.4ZM681.3,96.6l.8.4.4,1-1.4,3.1,1.4-.6,1.8.6.6-.2v-.8l-1.6-.6.8-2.2-2-1.4-.8.6ZM682.5,115.8l-.6.4v.6h.6l.4-.6v-.4h-.4ZM682.9,170.7v2.2l.4.4.6-.2-.2-1.8.6-.8-1.4.2ZM684.1,147.7l-.8-.2v.8l2-1-.2-1.6-1,2ZM683.5,185.2l-.2.4.6.6,1.6-.6v-.4l-.6-.4-1.4.4ZM683.5,128.5l.2,1h.6l.6-.6h1.2l-1.6-.8-1,.4ZM684.5,119.5l-.6-.4-.2,1,2.2-.6.2-1.6-1.6,1.6ZM684.9,111.1l-.6.4v.6l.8-.4.6-.6h-.8ZM684.7,190.5l-.2.2.2.4.4.2.6-.4-.2-.4h-.8ZM685,87.6l1.2.2,1-.2.2-.4-.2-.4-1.2-.2-1,1ZM685.4,131.5l-.4.4.6.4h.4l.2-.8h-.8ZM686,177.3l-.4.6.2.4h.6v-1.8l-1-.4.6,1.2ZM686.2,97.8l-.6.6v.8l1,.4.2.6.8-.2-.2-2.2h-1.2ZM686,171.1l-.4.6v.6l.6-.2.2-.6-.2-.4h-.2ZM685.6,196v.6l.8.2-.4-.8h-.4ZM686.2,101.7v.4h.4l.6-.6-1,.2ZM687,110.1l.6,1.4-1.4.6,1,1.6.4.2.4-.8.2-4.1-1.2,1.2ZM687.6,190.7l-.2.6.8.2.2-.4-.2-.4h-.6ZM689.2,99.9l-.2.8.6.6.8-.4.2-1-.2-.8-1.2.8ZM689.6,107l1.6,1.2-.4-1.6-.4-1.2-.8,1.6ZM689.9,110.7l-.2.6,1,1.2.6-1.2-.2-.6-.6-.4-.6.4ZM690.7,105.8h1.4l-2.2-1.2.8,1.2Z"/>
    <path class="st3" d="M744,67l12-.2h3.1l11.8.8h3.1l11.8-.8h3.1l26.7.4,3.3-.2,6.7-.6h4.9l2.7.6,1.2,1,.4,1.4.4,2.5v5.3l-.4,4.9v3.3l.2,4.9.2,2.9-.2,2.9-.4,2.4-.8,1.4-1,.8-2.4.4h-1.6l-3.1.2-18.4-.4h-3.1l-10,.4h-3.1l-10.2-.4-8.8-.6h-2.9l-1.6.2-2,.4-1,1-.2,1.2-.4,2.2-.4,4.7v3.1l.2,3.3.2,2.2.4,1.4.8,1,2.2.6,6.3.4,6.3-.4h18.6l22-1.2,6.1.4,2.2.4,1.2,1,.6,1.2.2,2.2.4,3.3.2,3.3v6.5l.4,4.5-.4,5.9-.4,2.4-.8,1.4-1.4,1-2,.4h-3.9l-8.8-1-3.1-.2-15.7,1-12.5-.4h-3.1l-7.8-.6-3.3.2-2.4.2-1,.6-.6,1.4-.2,2.9-.6,4.9-.2,3.1v4.3l.2,2,.6,1.4.8.8,2.2.2,10.8.4h3.1l10.6-.8,13.9.8h3.1l13.9-.8h2.9l2.9.2,7.1.8,1.2.6.8,1.2.2,2.2.6,10.8-.2,3.1-.8,10.6-.2,2-.8,1.4-1,.8-25.7.8h-3.1l-10.4-.8-3.1.2-10.2.8-3.1.2h-13.5l-10.2-.8h-3.1l-16.9,1-6.7-.4-2.4-.4-1.4-1-.6-1.4-.4-2.2-.4-4.5-.2-3.1.2-2.9v-2.9l.8-10.4v-3.1l.2-10.4-.2-3.1-.6-10.4-.2-3.1.4-10.6v-16.7l.8-10.4-.2-3.1-.6-10.4-.2-3.1v-4.7l.4-5.9v-2.9l.6-10.2.2-2.7.6-1.6,1-.8,1.6-.2,2.5-.4,12.7.8ZM732.5,195l-.8-.4-.4.4v.8l.6.8,2.4-1.4-.8-.6-1,.4ZM737.6,79.3l-5.9,1.2,1.4.4,1.6,1.6,1.6-.4-2.2-1v-.4l5.7-2-2.2-1.4v2ZM743.7,91.7l-.6.6.2.2v.4l-1.8,1.2,2.5,3.5h-.2v.2h-.2l-.6.4-.2-.2h-.2l-3.5-2.2-5.3,2.9v.2h-.2l-.8.8v2.7l.2.2.4-.2v-.2l-.2-.2,4.1-1v1.6h-1l-2,2.4,1.8,4.7h.6v-.6l.8-1.2,1.2,3.5-2.5,2.9,1.8.4.6.8h2.7l.4.6.6.2.2-.6-.2-.4-2.4-.6-1-2.7,2.7.4,2,2,.4-2-6.1-4.9.4-.8,1-.6,1.4.2v.2l4.7-2.4-.2-1.4-.8-.6-1.8,1-.8-.2-.2-1,.6-.6.2-1,2.7-.4,3.5-6.5-.6-1-2.5.6-.4.4-1.4-2h-.2ZM733.7,77.6l1,.8h1.2l.2-.2v-.4l-1-.6-1.4.4ZM734.4,188.5l-.2.2.2.4h.8l.2-.2-.6-.4h-.4ZM734.8,119.7l.2.2-.6,1.6,1.2,1.6.2-1.6-.2-3.7-.8,2ZM734.6,128.5l.6.4.4-.4-.2-.6-1-.2.2.8ZM737.4,86l-2.2.4-.2,1,.6,1.4,1.2.6.2-.4.4-.2.2-2.7h-.2ZM735,130.5l.4.6h1.2l-.6-.8-1-.4v.6ZM737.6,137.8l-2.4,1.8v.6l.6.2.4-.2,3.3-3.3-1.8-1.4-.2,2.4ZM735.2,197.5l.6.6,1-.2-1.6-1v.6ZM743.5,116.8l.8.4-1.4,2.5-.6.2.8,1.2,2.5-.2.4,1.2,1,.6-2.7,2.9-1.2-.6-3.1,2.4,1.8,1.2-2,2.2.4,1.4-.6,1,.4,1,1.4-.6.8.4.4,1-1.2,2.9,1.2.6v1.4l-1.6.2-.8,1,.2.8,2.7,1.4.4,1,1,.6v2.4l-.8.6h-1.8l-2.5-1.8-2.2,3.7-1.6.4.8.6,1-.6-.4,2.5,1,1.2.8-.2.4-.6-.2-.6h-.6l1.4-3.7h.8l.6.4h.6l.8,1.8.4-1.8,2.4-1.2.2-3.3.8-.6v-1l.6-.6.4-2.4-2.5-5.9-1.4.2-.6-1.4.6-1.4-.6-.8,2.9-2.2.2-.8,1.4.2.4.6h.8l.2-.2-.4-1-2.4-.6v-1.8l1.4-.2,1.8.8.6-1-1.4-.6-.8-1.6,1.4-.6.6-1.4,1.8-1.2-.2-2.7-.6-.2-1-1.2-.8.2-.2.6,1,1.4-.2,1-.2.2h-.2l-.8-.8-2.4-.2-1-1.2v-2.5l-1.2,2.9ZM744.2,87.8l-1-.2-.2-.4h-.4l-.6.4v.6l-.6.8v.4l-1.4,1.2h-1l-.6.4-2.5,2.7v.2l-.2.2v.4h.2v.4l.8-.2v-.2l1.4-1-1.2,1.4,2.7-2.2-.2-.2h-.4l.2-.6,5.5-3.1.8.2.2,2.4-.4.6h.2l.2.2,1.6-.4,1.2-1.6v-3.1l-1-.4-3.3,1.2ZM736.2,145.8l-.2.2-.2.8.8-.2v-.8h-.4ZM736.2,183l.2.2h.2l.2.2v-.2h-.2l-.2-.2h-.2ZM740.1,189.1l-1.4.4-1,1.6-1.2.2-.4.4.6.8h.6l2.9-2.9v-.4h-.2ZM737.8,104.4l.6,1-.4.4-1.4-1.6h1l.2.2ZM737.2,156l-.6,2.4.8-.2v-.4l-.4-.4,1.8-1.8-1.6.4ZM737.2,82.1l-.4,1,1.2-.4.6-.8-.6-.4-.8.6ZM737.6,116.2l-.2.8.2.2.8-.2.2-1-.4-.2-.6.4ZM738,130.1l-.6.4.6.4.8-.2.2-.2-.2-.4h-.8ZM738.6,160.1l-1,.8.2,1,2.7,1.2,2,.8-2.5-3.7h-1.4ZM738.2,84.8l.4,1.8.8.2.4-1.2-.6-1.4-1,.6ZM740.7,103.1l-1,1.6-.8-.2-.2-.8.2.2v-.2l.6-.8,1.2.2ZM738.8,119.9l.2,4.9.8.6.8-1.2-.2-.4.2-1,1-.2.6.4h.6v-.6l-.4-.2-.4-1.4-2-1h-1.2ZM739,164.6l-.2.2.2.6h.4l.4-.4-.4-.4h-.4ZM739.1,200.7l-.2.4,1,.8,1-.8-1-.6-.8.2ZM740.1,159.3v.8l.8-.2.2-.8-.2-.2-.8.4ZM740.3,117v.6l.4.6.2-.6v-.6h-.6ZM740.9,184.6l.4.4v-.2l-.4-.4v.2ZM741.9,77.2l1,1.4v.8l.8.8-1,3.7.6,1.2,3.5,1.4,1.2-.4.6-1-3.1-1.6v-1.8l4.9-.6-.4-1-1.4-.6.2-.2-1.6-1h-1l-1-1.6-2.4-.6-1,1ZM756.8,88.7l-.6,3.9-1.4.2-1.8-2.4h-2.5l-.8,4.7,1.4,2.9-1.8.2-1.4,1.8.8.6v2h-1.4l-.8-.6-2,3.5-1.8.6-.4,1.2,1.4-.6,1.8,1.8,1-1.4-.6-1h.2l.2-.2h.8v.2h-.2l.6.8,1.8.2.6,4.5-2.4-1.4-.2,2.4,1.8.2.4-.4,1.8.6.8,1.2,1.4.4.6-.6.2-1v.2l2-1.4-1.4-.2-.6-1,.2-1.4-.6-1.2-1,3.9h-1.6l1.2-7.1,1.4-.6-1.6-1.2-.2-1,1.6-.6.4-.6-.8-.6.2-.8,2-.6.4,2.2.6-.6.4-2.5-2.4-2.9.2-1.2.8-.2,1,.4,1.4-2-.2-4.1-.8.6ZM742.5,190.1l.4,2.4.6.2v-.2l.2-.2,1.6.2-.6-1-1.2-1.2h-.2l-.6-.4-.2.2ZM743.1,109.7l2.5,1.4,1.2-.8-1.4-.4-1-.4-.8-1.2-.6,1.4ZM745.6,153.4h-1.8l-.8.6,2,1.2.6-1.4,1.6.6,1.2-1.4-2.7.4ZM743.7,127.2l.2,1h-.4l-.2-1.8.4.8ZM745.4,137.2l-.4.6v.4h-.6l-.6-.2v-.4h.2l.4-.6,1,.2ZM747.8,79.7v1l-3.5-.6.8-1.6,2.7,1.2ZM745.6,149.9l-1.2.6,1.4,1,1-.8-.4-.8h-.8ZM744.4,158.7l.2,3.3,1.2-1.6-1-1.8h-.4ZM745.6,140.1l.4.6-.8,1v-.2l-.4-.2v-.6l.2-.2v-.6l.6-.4v.6ZM745.4,156.6l-.2.8h.6l.4-.6v-.8l-.8.6ZM746,131.7l-.6.2.8,1,.6.2.4-.2v-3.5l-1.2,2.4ZM746.2,114.2v.4l.6.6.4-.6-.2-.4h-.8ZM757.6,85h-1l.2-1.2-.2-.4h-.2l-.4.4-.2.8.2.2-2.5-1v-.2h-.8l-.8-1.4-.8.4-.2-.2-1.6-.4h-1l-.6.6,1.6,1.2h1.2l1.6,1.2.6-.6-.4,2.7,1-.6.4-2-.2,2,1.4,1.2.8-.2v-.6l-.6-1,3.3-.6.4-.8.4-.2-.2,3.1.6.2.6-3.5h.4l-1-3.3-2,4.1ZM748.2,133v.4l3.3.2.6-.8v-1l-1-1.4-2.9,2.5ZM748.6,146.8v1.8l.4.4,1-.4-.4-2-.4-.2-.6.4ZM748.8,138.3v.4h1.6v-1l-1-.2-.6.8ZM749.1,190.3l-.2.4.6,1.4h.8l.4-.6-.4-.8-.6-.4h-.6ZM749.9,143.6l1.2,1.2.6-1-.4-.8-.6-.2-.8.8ZM751.7,120.5l-1.4,2.4,1,.6,1.8-.6.2-2-.6-1.2-1,.8ZM750.9,127.2l-.2,1.2.6.8h.8l1.6-2.9.8-.2-3.1-.8-.4,2ZM751.5,190.9l-.6.4.6.8,1.8.2v-.4l-.2-.2h-.6l-.4-.8h-.6ZM751.3,79.5l.4.6,1,.2.8.2.2-.4-.2-.4-1.6-.4-.6.2ZM751.9,172.4v1.6l.8-.2.4-.4.2-.8-.6-.6-.8.4ZM752.9,117.6l.2.8,2.2,1,.6-.8-.2-1.2-1.8-.4-1,.6ZM753.1,132.9l.2.6.6.2.4-.2v-.4l-.8-1-.4.8ZM753.1,200.9l.2.4.4.2.4-.2-.4-1.2-.6.8ZM754.6,184.8l-.6.8h-.2l-.6,2.7,1-.6,2,.4.2-1.8-.2-.4.4-.8-1-.6-1,.2ZM755.6,129.3h-.4l-.2.2-.8-.4-.6.6.6.6,1-.2.2.2h1l.8-.8v-.6l-.8-.2-.8.6ZM753.9,150.5l-.2.6.6.8.6-.8-.4-.8-.6.2ZM754.6,145.8l-.6.8.2.6,1,.2.4-1.2-1-1.4v1ZM754.2,142.8v.4l.2.2.2.4.4-.4v-.8l-.8.2ZM755.4,139.9l1,1-1.2,1.2,1.8-.4-.8-2.7-.8,1ZM756,132.7l-.6,3.3,2-.6.6-2-.2-.2v-.2l-.8-.8-1,.4ZM756.4,198.5l-.2.8.2.2-.6.8v3.5h-.2v.4l-.2.2,1.4.6-.2-2.7.6-1-.2-.4.6-.4-.2-2.2-1,.2ZM756.2,193l.8.6.4-.2.2-.4-1.2-.4-.2.4ZM756.6,105.4l1,.2v-.4l-1-.2v.4ZM757.2,176.2l-.4,1.6.8.6-.2-1.2.4-.6v-.4h-.6ZM757.6,110.3l-.2.4.2.4.6.2.4-.2-.2-.8-.4-.2-.4.2ZM758.4,100.9l-.8.8,1.2.2.8-.6-.2-.6-1,.2ZM758.8,91.5v.4l1.6.6.8-.8h-.6l-.6.2-.6-.6-.6.2ZM760.9,77.8l-.6-.4-.6.6.4.6.8-.2h.2l.2.2h.8l.8-.6v-.6l-.8-.2-1.2.6ZM761.3,191.3l-1,.2-.4.6.6.8.8.2.6-.4.2-.6-.2-.8h-.6ZM760.3,144l.2.8.2.2.4-.8-.4-.4-.4.2ZM762.3,96.4l1.4.4-.8-1-.8-.6.4-.4v-.4l-.8-.2.6,2.2ZM762.7,79.7l-.4.4.4.6.6.2.6-.2.2-.6-.2-.4-.4-.2-.8.2ZM762.3,189.9l.2.6.4.2.4-.2v-.4l-.4-.6-.6.4ZM763.5,195v.6l2,.6.8-1-1.6.4-.6-.6h-.6ZM764.6,90.7h.8l1,.4.6.8.2-1.6-2.7-.2.2.6ZM765,93.5l.4.4.4-.2v-.2l-.4-.6-.6-.2.2.8ZM765,188.5l.8.6-.2,2.2,9,.8,1.6-1.2h-1.8l-4.9.4-.8-1v-1l1-.4.2-1.2-.6-.8-4.3-.2v1.8ZM766,87.2l.2.6.2-.4.4-.6-.6-.2-.2.6ZM767,184.2l.4.8h2.2l-2-1.6-.6.8ZM767.8,200.9l1.8.4-2-1.8.4-1-1-.2.8,2.5ZM767.4,74.6l.6.4-.2,1.8,7.6,1,1.2-1h-5.5l-.6-.6v-1l.8-.4.2-.8-.4-.6-3.5-.4-.2,1.6ZM768.4,85l.2.8.2.2.4-.2.2-.4-.4-.6-.6.2ZM768.6,92.5v1.4l.4.2,1-1.6-1-1.6-.4,1.6ZM768.7,80.1l.6.6.8.2.4,2.4.4.4-.4,2.5-.2.4.2.6.4.2,2.9-4.9-.2-1.2h-1.4l.2.6.6.2v.2l-1.6-.6v-.2l-.6-.8.2-.8.2-.2v-.4l-2.5.8ZM769.5,95l-.2.2.2.6.8.6v-.8l-.4-.6h-.4ZM770.1,193.2l.2.8,2.2.4.8.8.2-1.8-2.5-.6-.8.4ZM770.7,196.4l.2.8,1,.4-.4-1.2h-.8ZM771.9,189.5l.4.8.6-1.2-.6-.2-.4.6ZM772.3,184l-.2.8.6.8,1.4-.2,1-1-1.4-.6-1.4.2ZM772.9,72.1l-.4.6v1.2l.6.4.8-.4,1.8-.2-1.2-2,.6-.4-2.4-.4.2,1.2ZM774,80.7l1.8.8,1.4-.4-.2-1.2-1.4-.2-1.6,1ZM774.8,187l-.2.6.6.6.6-.2v-1l-.4-.2-.6.2ZM776,182.1l-1,.4.8.8.8.2.6,2.9.6.4-.4,4.1.6.2,2.4-5.3,1-.6-.2-1.4h-2l1,1h.2v.2l-1.6-.4v-.4h-.4v-.2l-.6-1v-.8l.4-.4-.2-.4-2,.6ZM775.4,197.5l.4.2,1.2-2-1.4-1.8-.2,3.5ZM776.2,92.3l.2,1h.4l.2-.2.2-.8-.8-1.2-.2,1.2ZM802.1,181.9l-2.2,3.7-2-.2-2.5-2.7-1.2.6-.2,1.8.4.6-.6,2.5-2.9-3.7-.8.4-1.8-.4-.6,1.8-.6.4-1.2-.4-1.2.4.6,1.6h2.2l-.2,1.6-1.2.8-1.6-.8.4,1.4,1.2.4-.6,1.4-1.4.2-1-1.6v-1l-2-1.4-1.2,2,.2.8-2,1.2-.8-1-1.2.2.8,1,1.2.4,2-1,.6.2.4-1.8h1l.4,1,1,.4-1.6.4-1.6,1.8v.6l.6.4,1-1h.6l.2,1.2h1l.4-.8.8.6-1.2,1.6-.4-.4-2,.6-2-1-1.6.2,1.8,1-.2,2.2,1.8,1.2h1l.6.4-.4.2v.4l.4.6,3.5-1.6-.6-2,1.2-1.6.2-2h.4v-1h.6l.4-.4,4.3-.2.6-.8-.8-.6h-1l-.2-.8.6-.8,1,.4,1-.8v-1.4l2.9-1.2.6.6h.8l.6.8,1.4.2.4.8-1.8,1.4.8.4-.2,1-4.1,1.8,3.5,1,.4,2.4-.8,1.8,1.4,1.4v.6l1.4.6.6-.8-2-7.3,1.4-2,2.9-1,.6-1.2-.8-1-1.2-.4,1.6-3.7-2.2-.6v-2.7h-.2ZM776.4,199.1l.2.8.8.6v-.8l-.4-.6h-.6ZM779.1,73.3l-.2.8.4.8.8.2.2-.6-.2-.6.2-.6-.2-.2-1,.2ZM779.1,80.1l.6.8.2-1.8-.8,1ZM780.5,187l2.2.8,1.6-.6-.2-1.4-1.6-.2-2,1.4ZM781.7,92.9v.4l.4.4h.8l-.2-.8h-1ZM785.8,89.3l-3.1-1.4.6,1.4-.6,1.8.2.4h.6l.8-1.4,2,.8,1.4-1.8v-1.4l-1.8,1.6ZM784.2,74.6l-.2.6.4.8,1.4.6,1.4-.8-2.2-1.6-.8.4ZM784,184.6l1,.8.2-1-.2-1-1,1.2ZM786.4,182.8l4.7-.2,1.6,2.7.6-.8v-.8l.2-.2-.2-1.2v.2l-1.2-.8-1.2.2-2.4-1.2-2.2,2ZM788.5,76.2l-.6,1,.6.8v.4l2.7-.6,1,.6h1l.2-.2v-.2l-.6-.6-1.4-.2-1.4-1.2-1.6.2ZM788,80.3l.6,1.2.8-1.4-1.4.2ZM789.5,196.9l-.8,2.2.2.6h1l.8-1.8,2.4.8,1.6-2.2-.6-1-.4.8-1.2.6-3.7-1.6.8,1.6ZM794.8,199.1l-.4,1-1.4.6,1.2.8,1.4-.4.6.4.4-.4v-1.2l-.8-1-1,.2ZM793.6,80.5l-.4.4v.4l.6.6,1.4-.6.2-.6-.6-.4-1.2.2ZM793.6,83.5l-.2.4.2.2,1.4-.4-.8-.4-.6.2ZM793.8,76.4l1-.6.8-1.6v-1l-.8-.2-1,3.3ZM796.8,191.9l-1.6-.4-.6,2,.2.4.8-.2,3.7-3.1-2-.2-.6,1.6ZM796,196.9v.4l.6.6.8-.2v-.8l-1-.2-.4.2ZM798.3,78.6l-.2.8.8-.2.4-.6-.4-.4-.6.4ZM798.1,181.9l1,1.6.8-1.8-1.2-1.4-.6,1.6ZM798.3,81.5v.4l.6.4h1l-.4-1-1-.2-.2.4ZM799.3,87.2l-.6.8.2.8,1.2-.4.8-1-.8-.4-.8.2ZM803.2,193.8l-.4,1,.6,1,.8.2.4-.8-.4-.8.2-.6-.2-.4-1,.4ZM804,201.1l.4,1.2.4.2.4-.2.2-1.2-1-1.2-.4,1.2ZM806,186l-1.2,1.4v1.6l.8.4,1-.6,1-.4.6-.8-1.2-1.6h-1ZM806,192.4l2.4-.4v.2l.2.2v1l-2.7,2-1,2.2,1.6.4,1.2-.4-1.2-1.6,3.3-2.7,1.2-2-3.7-.2-1.2,1.4ZM805,184.4l.2.4h.8l.8-.4-.8-.6-1,.6ZM806,78.4l-.2.4.2.4h.4l.4-.4v-.4l-.4-.2-.4.2ZM807.6,73.3l.4.4h.4v-.6l-.6-.2-.2.4ZM807.6,183l.2.6.6.4,1.8-.6.2-.6-1-.6-1.8.8ZM808.1,189.5l.2.8,1.4-.4,1-1.2-1-.6-1.6,1.4ZM808.7,78.6l-.2.4.6.4h.4l.2-.4-.6-.4h-.4ZM809.3,195.2l-.2.8,2.2,1.6,1.6-1-2.5-1.8-1,.4ZM810.5,199.5l1.2.6,3.1-.6-.4-1-.6-.2-3.3,1.2ZM810.9,186.2l2,1,.2-.2v-.4l-1-.6-1.2.2ZM812.3,188.7l-.2.4.2.4.4.2.6-.4-.2-.6-.4-.2-.4.2ZM812.3,192.8l1,1,1-.2-.6-1-1-.2-.4.4ZM817.2,190.7l-.4,1,1-.2.6-.8-.4-.4-.8.4ZM817,194.4l.2.4.8.2.4-.4-.2-.4-1-.2-.2.4ZM817.4,197.5l-.4,1,.6,2,3.5-1.4,1,1h1.2l.4-.6-1-.8-1.6-.2-1.6-1.4-2.2.4Z"/>
    <path class="st3" d="M1097.9,126l.8,10.6v3.1l-.8,10.4v3.1l.6,10.4v3.1l-.8,10.4v3.1l-.4,10.4.2,3.1.8,6.1.2,2.9-.2,1.6-.2,2.2-1,1.6-1.2,1-2.2.4-2.9.2h-3.1l-7.8-.6-3.3-.2h-4.9l-3.5-.2-7.3-1-1.4-.4-.8-1-.2-2-.2-2.7-.2-2.9.4-6.7v-18.4l-.6-12.3v-3.1l.8-12.2v-15.3l-.4-2.4-1.2-.8h-1.2l-1.4,1.8-2,2.7-8.2,9.4-12,14.3-7.8,9.8-1.8,1.6-1.4.6h-1.6l-2.2-.4-2.4-.6-2.2-1.6-9.8-11.8-7.3-9.6-2-2.4-10.2-11.4-2.5-2.5-1.2.4-.4,2.2-.6,12.3v3.1l.8,12.3v3.1l.4,12.3v3.1l-.2,12.2v2.9l.2,5.9-.2,3.1-.2,3.3-.4,2.5-.8,1.2-1.4.4-5.1.6-3.1.2-7.6-.6-3.1.2-9.4.8h-4.5l-2.4-.4-1.2-1.2-.4-1.4-.4-2v-4.5l.4-6.1v-30.2l-.4-10.4v-3.1l.2-10.4-.2-3.1-.6-10.6v-3.1l.6-10.4.2-3.1-.8-10.4.2-3.1.8-10.4v-3.1l-.8-7.3v-3.1l.4-2.5.8-1.4,1.2-1,1.6-.4,2.5-.2,3.3.4,4.3,1h3.1l6.1-.6,3.3-.4,2.9-.2,7.4.2h2.5l2.2,1,2,2.2,6.9,7.6,2,2.5,5.7,8,2,2.5,6.5,7.6,2,2.7,6.1,7.6,2,2.2,1.8,1h2l1.8-1,1.8-2,5.9-7.8,2-2.7,6.3-7.6,2-2.5,6.9-7.6,2-2.5,5.1-6.3,1.6-2.2,1.6-1.6,2-1,2.5.2,10.4.6,9.2.2h3.1l5.9-.4,3.3.2,2.4.4,1.4.4,1.2,1,.4,1.6-.2,2.4-.8,8.8-.2,3.1.4,10.4v3.1l-.2,10.4v3.1l.2,10.4v3.1ZM954.6,131.5l1.4-1.4.6.4.2-.8-2,.4-.2,1.4ZM956.9,188.9l-1-1.2-.8.2,1.2,1.8.6-.8ZM956.3,157.7l-.6.4.2.2.8.2v-.4l-.4-.4ZM957.5,160.7l.4.2.6-.4-.2-.4-.4-.2-.6.4.2.4ZM959.3,174l-.2-1-.4-.4h-.4l-.4.6.6,1.4h.4l.4-.6ZM961,143.4l-.2.8.8.4.4,1.6,2.9-1-3.5-1.6-.2-2,1-1.2.2-1.4,1.4-1-1.6-1.2-1.2,1.6.6.6-.2.8-1.8-.2-1,1.4.2.6.6.2.2-.6h.6l.8,2.2ZM959.1,108.5l.2.2.6-.4.2-.6-.8.2-.2.6ZM960.3,183.6l-.4-.6h-.4l.4,1.4.4-.8ZM962.6,119.9l-2.7-.2v.4l1.4.8,1.4-1ZM960.3,103.6l.6.8v-.6l-.2-.6.4-.6v-.4h-.4l-.4.6v.8ZM961.4,109.1l-.6.6,1.4.2.2-2.5-.6.2-.4,1.6ZM962,187.5l-.2-.2h-.4l-.4.6.2.8.8-.4v-.8ZM961.6,90.3l.4.6h.4l.2-.2v-.4l-.6-.2-.4.2ZM961.6,166.8l.4,1.2,1-.2.2-1.2-1-1.4-.6,1.6ZM963,179.1l-.2-1.4-1.2.8,1.4.6ZM965.7,128.7l.2-.2.4.2.4-.2.6-1-1.2-.8-.2.6.4.6-.2.2-.6-1v-.2l-.2-.2v-.2l.2-.2v-.6l.4-.6h.2l.2-.2-.4-.4-1.8-.4v.8l.6.4-1,2.4.2.2-2.2,2.5.4.4,3.5-2.2ZM962,156h1.2v-1.2l-.6-.4-.6.4-.2.6.2.6ZM962.2,170.5h1.6l-1-.8-.6.8ZM963,96.4l.4.4.8-.2,1-.2-.6-.8-1.4.2-.2.6ZM963.4,90.3l1.4.6h-.4l-.2.6,1,.2.2,1,.6.2.4-.2.2-.4-.6-1.4,1.6-.4.4-.6-.2-2.2-1-1-.2,2.5-3.1,1ZM965,187.9l-1.2-.8.2.6.6.4h.2l.2-.2ZM964.8,194.4l-.4-.2-.4.2v.4l.2.2h.6v-.6ZM964.8,197.1l-.4-.4-.4.2v.6l.2.2.4-.2.2-.4ZM964.4,153l-.2.2v1l.8.8h.2l.2-.8-.4-.6v-.2l-.2-.2.4-.8-.4-.4-.6.4.2.6ZM964.6,86l.6.6.2-.2v-.4l-.6-.4-.2.4ZM965.5,180.9l1.2-1.2-.2-1.4-.8-.4-1.2.4.6,2.5-.6.8v1l.2.2h.2l.6-.6v-1.4ZM970.1,95.4l.4-1.4h-1.6l-.4.4-1-.2-.6-.4-.8.8v.2h.6l.4,7.4-.2-4.9.6-.6h1l.2.8h.8l.6-.4-.2-.8.8-.8-.6-.2ZM966.1,175.8l.8,1.4.6-.8.8-1.2-.2-.8-.6-.2-.8.4-.6,1.2ZM967.1,184.2l2.2.6.2-.8-.4-.4-2.5-.4.6,1ZM967.7,140.3l1.6,1.2h1.2l-1.6-1.6,1.4-2.9-1.2.6-1.6-.6-.6.2v.6l1.4.6-.8,1.4.2.6ZM967.7,110.3l.6-.4v-.2l-.2-.2-.6.2-.4.6h.6ZM969.1,170.7l.2-.2-.2-.8-.8-.2-.6.4-.2.6.6.4,1-.2ZM968.1,91.7l-.4.6.2,1-.2.6.8.4,1.4-1.8-1.8-.8ZM970.6,164.6l-1-1h-1.2l-.4.6.8,1.6-.2.8,2-1.2v-.8ZM969.9,195.8h-.4l-.4.4v.2l.2.2.6-.4v-.4ZM970.4,120.7h-.4l-.4.4v.6h.6l.2-1ZM970.8,115.6l-.8.2-.2.4.2.4h1l.8-.6-1-.4ZM972.4,166.8l-.2-1.2h-.6l-.6.4.2,1,.8.8.4-1ZM972.8,86l1,.8.6,2,1.6.2-1.4-1.4v-.2l.8-.6,2.7,1.2,2-.4-1.2-2-.8,1.6-5.3-1.2ZM980.1,98.6l.6-.4,2.2,2v.4l.6.2,1.2-.8-.6-2.5-1.4-1.2-2.4.6-1-1.2-.6.4v.6l-1.8,2-1-.6-2.2.4-1,2.7,1.6,1.6v-.2l1.4-.6-.6,1.6,1.4-.8.4-1.4-.4-.6v-.8l1.6-.6.2-.8h1.8ZM975.2,92.5l-1.6-.4-.6.8v1.4l.8,1,.8-.2.8-1.8-.2-.8ZM975.5,84.4l1.4,1.4h.4l.2-.4-.6-.8-1.4-.2ZM977.9,89.7l-.2-.4v-.2l-1,.2-.6.6,1,.2.8-.4ZM977.3,91.9l-.8.2-.4,1.6.6.4.8-1-.2-1.2ZM991.2,120.9l.8.2.8-.4,1.2-1.2.6.2.6-.2v-.4l-.6-.4-.4.4h-1l-.6.6-1.2-.2-1-1,2.2-1.4,2.4.2-1-1.6-7.1.2-.2-.8,1.6-1.6h.2l1.6-3.9.2,1.8-.6.8.4,1,.2-.8.4-.4h2.2v-1.4l-1-.2v-.2l.2-.2v-.2l.4-.4v.2l1,.2,1.2-.8,1.4.6,1.6,2.2-2.2.4v.2l1.2,1.6,1.4-1.2v-.2l3.9-.8.2-3.5-1,.6-2.9-1.8,1.8,3.3-1,.8-.2-.2h-.2l-3.1-5.3.6-1.2-1.6.2-.6-.6v-.4l.6-1v-.6h-1l-.2-.6.4-1.2.4-.2v-.2h.2l1.4,1.2.2-.8-1.4-1.8-2.7-.2-.4-.6,1.4-1,.4-1.6-.6-.4-.2-.6-.6-.4-.4.6.4,1.4-.6,1.2-4.3,1,.2,1.4,3.5,2.4-1,1.4.2,1.8h.8l1.2,1.4-1,.8h-.8l.2,2-.8-.6h-1l-.4,1.8-.8.4-.4-.2-.8-2,1.8-2-.8-2.7v.2l-.2-3.3-1-.6v.2l-1.2.4-.8,1v.2l-3.1-1v.6l.4.2v.2h.2v.4l-.8.4-.2.6,5.1,2.4-.2,1-5.5-.8-.6,7.6,1.6,2h.4v-.2l-.2-.2h-.2l2.4-3.1.6.4.2.6-.8,1.6.2,1.8,4.1,2.4.2-.4-.4-.4v-1.4l2.7,1.8v3.5l.8-.2.6-.6ZM980.1,93.7l.2.2.2-.2,1.8,2.2.8-.2.4-.8-.2-1-1.2-1.2.6-1.6,1.6-.2.6.4.8-.2-.8-2.5-.4-.2v-1.2l-1-.8-1.2.6-2.2,6.7ZM983.2,89.7l-.8-.2,1.2-1.2v.2h.2l.8,1.4-.4.6-.6-.2-.4-.6ZM984.8,91.9h-.6l-.6.4.6,1.4h.8l.4-.4v-.8l-.6-.6ZM985.9,114.4l.2.2h-1l-1-.2.6-.4h.8l.2.2h.2v.2ZM986.3,111.3l.2,1.6-.6.4-.6-.4h.2l-.2-1,1-.6ZM985.9,93.7l1,2.2.4-.6-.4-1.2-1-.4ZM986.5,90.3l.4.4h.4l.2-.2v-.4l-.6-.4-.4.2v.4ZM988.5,95h.6v-.6l-.2-.2-.4.4v.4ZM988.9,93.1l.2.4h.6l.2-.4-.2-.4h-.6l-.2.4ZM990,109.7v-.6l.2.2-.2.4ZM991.4,90.9l.8,2,.4.4.4-.2v-1.2l-.8-.8v-.4l-.8.2ZM992.6,113.6l-1.2-.4.4,1.2,2.5-.4.2-1.4-2,1ZM994.4,128l-1.8-2.2-.2-.8-1-.8.4,1.6.2.2h.2l.6,1.6,1.6.4ZM992.4,121.5h-.4l-.2.6.2.6.4.2.4-.6-.4-.8ZM994.9,121.3v-.2l-.6-.4-.2.4,1,.6-.2-.4ZM997.9,127.2h.8l-.2-.8v-.4l-.8-1,.6-.8h.6l.4-.4-.4-.4-1-.2-.4-.4-2.7,1,3.1,3.3ZM1014.2,146.2l-.4-.4-.6.4-.6-.8v-1.8l-.6-.6.2-.4.4-.2h.6l.6-.4,1.4.8-.8-1.6,1-2.2-1.8-2.4.2-1-.6-.6v-.8l-6.3-4.3-.4.8h-.2l-.2.2-1.2-.6-.4-1.2-.8-.2-.8-1v-.2l.2.2,1-.4.4-1.8-.4-.8,1-.6h.6l.6-.4v-.4l-2.7.6-1-1.2,2.5-1.4-.2-1-1.4.4-1.6-.8.8-1.2-.4-1.2.4-1.8-1.8-1.6-1.8-.2-.4.6.2.6,1.6.2.4.8-.2.2v.2h-1l-1.8,1.2-1.6-.4v-.2l-1.4-1.4,1,2.7.8-.2.6,2.5-.4.4,1.2.4,1.8-1.6,2,.4-.2,3.5-1.2.4-.8,3.3,2-.2-.2,2.5,1,.8.2,1,1,.4.6-1.2.8-.2.8.4.8,2.7,2.2.6-1,1.2v1l.6.6,4.5-.4,1.4,1.6-.2.8-1.2,1-2.9.4,1,2.7-1,2.2,1.2-1,1.4,2,1.2.2.4-.6v-.6ZM997.7,131.9l-.6-.4h-.4l-.2.6.6.2.6-.4ZM996.7,115.4v.4l.2.2h.6v-.4l-.8-.2ZM997.1,100.5l.8-.4.2-1-.4-.2-.6.6v1ZM999.8,132.9h-1.8v.4l.2.2h.8l.8-.6ZM998.3,103.5l.2.2h.4l.4-.4-.2-.2h-.2l-.6.4ZM1001,131.1l-.4-.2-.6.4-.2.8.8-.2.4-.6v-.2ZM1003,126.6l-.2.2-.6-.6-.6-.4.8.2.6.6ZM1002,106.4l.2.4.4.2.4-.2.2-.4-.6-.4-.6.4ZM1004.7,112.3l-1.8,1.8.6.6,2-.6.2-1-1-.8ZM1004.9,135h-1.8l1.2,1.8-.6,2.5.4.4.4-.2.4-4.5ZM1006.1,117.6l-1-1.6-1-.2.2,3.5,1-.2.8-1.6ZM1006.5,127.8l-.2.4.2.4,1.4-.2.2-.6-2.2-2.4.6,2.4ZM1006.1,120.3v.2h.2v-.2l1.4,2.4,1,.4.6-.6-.6-.8.2-1.2-.4-1,.6-.6-2.9,1.4ZM1008.7,143l-.4-.2-.2.2v.6l.2.2.4-.2v-.6ZM1009.3,131.9l.4,1-.6.2-.6-.2.2-.2v-.4h.4l.2-.4ZM1009.5,124l-.8,1.6.4,2.2.6-.2v-.6l1.8-1v-1l-2-1ZM1010.6,121.9l.6.2.6-.6h.2l.8-.8.2-.8-.4-.6-.6.4-.6,1.4-.8.2v.6ZM1011.6,133.8h.2v1.2l-.2-.2-.4.2-.2-.8-.2-.2h-.2l.2-.8.8.6ZM1013.2,124.2l-.2-.4-1.2-.2.2.8.4.4.8-.6ZM1013,129.5l-.8.4v.8l.4.2,1-.8-.6-.6ZM1014,122.7l.6.4,1,2.2,1-1.6-.8-1.6h-.2l-.2-.2-.8-.2-.6,1ZM1016.1,150.7l-.8-.2.2-2.2-1,1.2,1,2,.6-.8ZM1016.1,132.7l.2,1,1.4.2-.2-1.2-.6-.2-.8.2ZM1017.1,141.7l.8-.4.2-.4v-.6l-.6-.4-1.2,1.6.8.2ZM1017.7,135.8h-.6v.8l1,1.2h.4l.4-.8-1.2-1.2ZM1017.9,144.8l1.6-.4-.2-1.4,1.2-.4v-1.8l-2.9,3.7.4.2ZM1017.7,128l1.2.8v.8l1-1.2-2.2-1.6v1.2ZM1022.8,151.7l-3.9-1-1,.6v1.2l.6.6,4.3-1.4ZM1018.9,130.9h.8l-.4-.8h-.4l-.2.4.2.4ZM1019.3,149.3h-.4l-.2.6.4.6.4-.4-.2-.8ZM1024.9,130.3l-.4-.8-1-.2-.4-.6-1.2,2.7-2,.2.4.4-.2.2v.6l.4-.2v.6l.6.4.6-.6-.2-.6.4-.4h.2v-.2l1.8-.2,1-1.4ZM1020.8,145.6h.2l.2-.2v-.6l-.4-.6-.2.8.2.6ZM1021.6,154.2l-.4-.2-.4.2v.4l.4.2.4-.2v-.4ZM1023.4,149.3l-.2-2-1.4-.4-.4-.2-.2.4,2.2,2.2ZM1024,136.2l-.2-.4-.4-.2h-.4l-.2.4.6.8h.4l.2-.6ZM1023.4,128l.6.4h.4l-.2-.8h-.6l-.2.4ZM1027.9,125.4l-1.2.2-1,1.2-.4,1,.8.4.4-.2,1.4-2.5ZM1027.1,131.9h-.4l-.6.4v.2l.4.2.6-.4v-.4ZM1030.8,127.2l-.2-.6-.8-.2-1.4.6-.4,1.4,2.5-.4.2-.8ZM1028.9,134.8l-.2-1.4-.4.8v.6l.4.2.2-.2ZM1030.6,130.3l-.4-.2h-.8l-.4.8.8.2.8-.4v-.4ZM1029.4,120.3l.4,1.2,1.4.2-.6-1-1.2-.4ZM1033.2,129.1l1.4-1-.2-1.4-1,1.6h-.4l-.6-.6-.2-4.5-1.2.6-.4,1,1.6.2v5.3l.6-1.2h.4ZM1046.5,125.6l-.4-.8-2.4-2.4.8-.4,3.1.8,1.6-1.6-.8-1.2,1.6-2-1.4-.6-1.2,1.2-.8-1,.2-1.2,1.4-.4-1-.6-1,.4v.2l-.4-1.2.8-1,.2.2h2l.8.6,1-.2-1.2-1,.6-2.9,1,.2.6-.8-2,.2-.6,1.8-.4.2.2.8.6.6-.6.4-.8-.4-.8.4.6-2.9-.4-.4-.4.2-.4,1.4-1-.6-.4.6.2.8h-.8l-.2-1.6h.4l.8-1.4,1.8-.6.8-1-1.6.6-1.2-1.6-1.8.4-.4.6h-.6v-.6h-.8l-1,2.9,1,.4,1.6,3.1-.2.2.6.6-.4.4v.6l-2.4,2.4.2,1,1.4-.8.6,1-.8.6-.2.8.8.8-1,2.4h-.8l-.4.6-.8-.2-.8.6v.2l-.8-.4-.2-.6.4-1.2-.2.2h-.4l-.6-.8,1.6-3.1-2.2,1.4h-.6l-.6-.8-1-.4-.6-1.4h-1.4l-.4-.4-1.2.4.2.8,5.3,3.1-.2,3.3-.6.8.2,1,2.5,1.2.6,1.6,1.6-.8,1.6,1.4-.8-3.3,2.9-1.4,1.4.4.4-.8ZM1033,132.7l-.2-.4-.4-.2-.4.4.4.6.6-.4ZM1035.3,124.4l-.4-.8-1-.2-.6.4,1.2,1.4h.4l.4-.8ZM1035.1,133.2h-1l-.8.6.4.4.8-.2.6-.8ZM1034.3,129.5l-.6.8v1.4l1-.4.2-1.6-.6-.2ZM1034.9,116.6l.8.6h.8l.4-.6-.2-.8.4-1.2-1,.4-.4.8-.8.4v.4ZM1035.9,130.9l1.6.2.6-.6v-1.4l-1-1-.6.2-.8,1.8.2.8ZM1037.5,118.3h-.8l-.4.6.6.4.8-.8-.2-.2ZM1038.9,133.2l-.4-.4-.8.2v.8l-.4.6.2.4.8-.2.6-1.4ZM1040,115l-1.8.8.4,2.2,1,.2-.4-.6.4-1,2.9-1.4-1.2-.4-.8-1.2v-.4l-.6-.2-.4.4.4,1.6ZM1039.6,131.1l-.2-.2h-.2l-.8,1.2,1.2-1ZM1040,121.9l1.2-.6-.8-1.2v-.4h-.2l-.6.6-.2,3.9,1.2-1.2-.6-1.2ZM1045.5,129.7l-.6-1.4-1.4-.4.4,1.6,1.6.2ZM1051,121.1l-2.5,2.7-2.4-.6v.8l.6.6v.2l.6.4,1.2-.2.6-1,2-.6v-2.4ZM1046.3,105.8l.4.6h.8v-.2l.2-.2-1.4-.2ZM1048.7,106.6l.6,1.8,1.8.2-2-2.2-.4.2ZM1052.2,115.4l-1.8.8-.6,1.2,1,.8,1-.8.4-2ZM1050.4,101.1l2.2-.2v.6l.2.2.8-.4-2-1.2-1.2,1ZM1051.6,118.9h-1.2l1.2,1.2v-1.2ZM1052,105l.4-.4-.4-.4h-.8v.4l.8.4ZM1057.9,115l-.8-.2-.6.6-2-1.4h-.6l-2.2-2.5-.4.2,1.6,4.3-.2,1,1,.6,1-1-.8-.4.6-.4,2,.8v.4l.2.2.4-.2.8-2ZM1053.4,106.2l-1.8.4,1,1.2,1.8-1.2.2-.6-.6-.4-.6.6ZM1061.2,106.8l-1-1h-.8l-1.2-1.4-5.7,4.7-.2,1.6,3.7-3.9h1l.6.6-.4,1,1.2.8,2.7-2.4ZM1055.1,111.9h-.6l-.2.4.6.6.4-.2.2-.4-.4-.4ZM1055.5,109.9l.4-.4-.2-.4-.6-.2v.6l.4.4ZM1055.7,102.7l.8-1.2h.6l.4-.4-.4-.4-1.4.8v1.2ZM1058.7,112.5l-.4-.6h-.8l-.6.8v1.2l1.8-1.4ZM1057.7,93.8l.4,1.6,1,.4.6-.8-.6-.4h-.6l-.8-.8ZM1059.2,92.1l.4.4.6.2-.2-.8-.2-.2-.6.4ZM1060.4,100.7l-.6.4-.2.6.2.4.6.2.8-.8-.2-.6-.6-.2ZM1061.6,110.1v-.8l-.8-.2-1.2,1.2,1,.2,1-.4ZM1060.6,103.3l-.4.2-.2.2.2.2h.8v-.4l-.4-.2ZM1064.1,198.9l-.8-1h-.2l.2-2.2-.2-.4.4-1.6-.4-.2-.2-.4-.8,1.6.4,1.2-1,2.9.2.2,1.8.2.6-.4ZM1061.8,98.6l.2.4h.2l.6-.4v-.4l-.8.2-.2.2ZM1066.3,97l.4-.2v-.6l-.6-.2-1.2,1,.2.2h.2l.4-.4.6.2ZM1068.3,101.3l-1.2.4-.4.6.2.6,1-.2.4-.6v-.8ZM1068.1,177.3l-.6-.2-.8.4.8.8h.6v-1ZM1072.2,152.1l1.2-1.8h-.6l-.6.6v1.2ZM1073.4,162.8l1.2,1,.2.8.6-1-.2-1.2h.2l.2-.8-.2-.4h-1.2l-1,.6.2,1ZM1076.3,193.2l-.6-.4-1.6.4-.2.8.2.4.8.2,1.2-.6.2-.8ZM1077.1,185.2l-.4,2h.2l2.9-2-.2-.4-2.2-.8-.8.8.4.4ZM1080.4,201.7l-.2-2-2.9-1.4.4,1.4-.8,2,1.6.8,1.6-.4.4-.4ZM1081.6,171.7l-1.8-2.5-.6-.2-.2-1.4-.4-.4h-.4l-.4.4-.2.8,3.3,3.5h.4l.2-.2ZM1082.4,165.2l-.4-.2-.2.2-.2.8.2.2.4-.2.2-.8ZM1084.9,185.8l-.2-.2-.4.2h-.2l.2.2v.2l.6-.4ZM1087.1,181.5l.6-.4h-.2l-.4.4ZM1089.8,206.2l-.8-.4-1-.6-1,.8h1.6l.4.8h.6l.2-.6ZM1095.5,202.2l-.2-1-1.8-.4v.8l1.2,1.2.8-.6Z"/>
    <path class="st3" d="M1280.3,205.8l-1.4,2.2-2.2,1-2.5.4h-2.7l-4.5-.4-2.9-.2h-8.8l-12.2.8-2.5-.8-1.2-1.6-1-2.2-6.1-16.5-1.4-2-1.8-.4-2.4-.2-11.8-.8h-3.1l-14.7-.4-11.8-.2h-2.9l-2.9.2h-9l-2.5.4-1.6,1-1.2,2.4-4.5,13.3-1.2,3.1-2.2,2.5-2.9,1.2-3.1-.2-11.4-.6h-3.1l-12.2.8-2.5.2-2.4-1.2-1.6-2.2.2-2.5.4-1.6,1.2-3.1,2.7-6.1,1.2-2.9,4.9-11,1.2-2.7,5.1-11,1.2-2.9,4.5-10.6,1.2-2.9,5.3-11,1.2-2.7,7.1-16.1,5.5-11.8,1.4-3.1,4.3-8.8,1.4-3.1,3.7-9,1.2-2.9,3.5-8,1-2.2,2-1.2,2.9-.6,9-.4h15.3l9,.2,3.3.6,2.2,1.6,1,2.5,2.7,7.6,1.2,2.9,4.9,9.2,1.2,2.7,4.3,9.6,1.2,2.7,3.5,10,1.2,2.7,4.3,9.4,1.2,2.7,4.3,9.6,1.2,2.7,3.9,9.8,1.2,2.7,6.1,12.2,4.7,9.2,1.4,2.7,5.3,12.3,3.9,9.8.6,2.7ZM1141.4,181.7l-.8-.4-.4.2v.4l.4.4.8-.2v-.4ZM1166.7,173.2l.6.4v.2l.6.4,1.2-.6v-.4l-.4-.4-.6.4h-.2l-.2-.8-.8-.8v-.6l.6-.8h.8l1-2-.6-.4-2.2.6.4-.8-.2-.4-.8.2-.8.8.6.4.8-.2.4.6v.2l-.8.2-1,1-2.5-2.7-.4,1.6,1.2,2.5-.4,1.2-2.2-3.5.2-2.5-.6-1.2h-1.2l-2.4-1.4-2.9,2,.8,3.5-.2.2-2.4-2.7-2.9-.2-2.9-2.5v-2l1.6-1,.4,1,1,.4.8-.6-1.4-2,2-1.2-.4-.2-.4-.8-.8-.4-.2-.8-1-.2-.2.6.2.6-2.5,2.5-.2,2.5-1.2,1.6,1.6,1.8-.2.2v-.2h-.8l-3.1,2.2,1.2,1,2-1.6,1.2.2,1.4-1,3.1,1.4.4,1.6,1.6.4-.2.2v.2l3.9,1.4.8-.8v-1.2l.2.2.2-.2,3.1.4.8,1.4-1,1.4-1-.4-.4-.8h-.6l1.8,5.9-.4.2-.2.4-.6-.6-.8-.2-.2.2v-.2h-2.4l-3.1-4.3-.6,1.4-1.4.6-.2,1.2.6,1,1.2.2.8-.6-.2-.6.4-.6,2.9,2.9,1.4-.2,1,1.2,1.6.2,1-.8.6,1.4.2-.2h.2l-.2-1-.6-.6.4-1.6,1.2-.8.8-2h1.2l-.2.8.2.2.6-.4.2-.6h-.4l2-1.8ZM1142.7,191.7l-1.2,1.2.4.6.6-.6.2-1.2ZM1143.1,187.5l-.2-.4-.4-.2h-.4l-.4.4.2.4.4.2.8-.4ZM1146.5,170.3l.4-.4-.2-.6h-.6l-1.2,2-1-.2-.6.6v2h1l.4-.6,3.3.4-1.6-3.1ZM1150.4,180.9l-.8-1-1.2-.2-3.7-2-1,.2v.6l5.1,2,.8,1.8.8-1.4ZM1147.6,183l-2.4-.6-.8,1.8-.2.6.4.4,1.4-1.6h.8l.8-.6ZM1145.9,174.8l-.4.4v.6l.6.8.6-.2v-.8l-.8-.8ZM1150,187.3l-.4-1h-.2l-.2,1,.6.2.2-.2ZM1149.8,154.8l.6,2,1.4,1.6,1.6-1v-1.8l-3.3-1.4-.2.6ZM1151.2,153l.2,1.4.4-1.2,1.8.8,1.4-.2-2-2.5-1.8,1.8ZM1154.1,161.3l1-.4.4-.6-.8-.6h-1.6l-.6-.6-.8.2v1h1l1.4,1ZM1153.5,162.8h-.6l-.4.6v.4l1,.4.6-.2v-.6l-.6-.6ZM1154.5,182.4l-.4-.6-.8.2-.6.6-.2.8.6.4h.8l.6-1.4ZM1154.3,190.9l-1-.4-.6.6.2.4.6.2.6-.2.2-.6ZM1154.5,151.9l1-.6.2-.8-.2-.6h-.4l-.6,2ZM1155.9,157.9l.2,2.5,1.2,1,.6-.2-1.8-5.1-.8-.2-.6.2-.2.4.2.8h.6l.6.6ZM1155.5,146.6l1.4.8.4-.8-.8-.8-1,.4v.4ZM1156.1,154.2h.4l.4-.4-.2-.8-.4-.2-.4,1,.2.4ZM1156.3,175.2h.6l.4-.4v-.8l-1-.6-.4.4v.8l.4.6ZM1157.1,143.8l1,1h1.2v-.8l-1-.6-1.2.4ZM1160.4,146.4l-1.8,1.4.2.4-1.6,1.2.6,2.2,2.5-5.1ZM1166.5,162.3l-.6.6-.4-1.6-.8-.6,1.4.2,1.4-2-.2-1.2-3.9,2,.6.8-.2,1.6,1.4-.4.6,1.4-.4.2-2.5-.8-2.5-2.7-.4-2.2-1.2.2-1,1,1.2,2.4,1-.6,1,.8-1.2,2.2,1,2h1l.4-.6-.4-.8.2-.6.6-.2,3.3,1,.4-.4,1.4,1.6-.2-1.2.4-.4v-.2l1,.2.6-3.7.4.8.2-1.8h-.6l-2.7,3.1ZM1159,157l.6-.4-.2-.6h-1l-.4.8,1,.2ZM1162,152.5l-1.8.6,1.8.4.6-3.1-1.2.6.6,1.6ZM1163.5,156.8l1.4-1.6-.4-1.6-1.2-.2-.2,1-2,2,2.4.4ZM1161.6,147l2.2,2.4,1.6,1.8-1-4.7-1.2-.8-1.4.6-.2.8ZM1162.3,144.2l.4.2.6-.2-.6-1-.4.4v.6ZM1163.7,166v-.4h-.6l-.4.4v.6l1-.6ZM1163.3,167.9l.4.4h.4v-.6l-.4-.2-.4.4ZM1163.5,141.3l1.8-.4.6-.8v-.6l-.4-.2-2,2ZM1165.3,153.4l-.2.6.2.4.8,2.4h.2l.2-.2.4-2.9-1.6-.2ZM1165.5,146.2h.6v-.6h-.8l.2.6ZM1165.9,137.2l.2.8h.4l.2-.2v-1l-.8.4ZM1166.1,149.9l.4,1h.8l.6-.6-.2-1.2h-.8l-.8.8ZM1171.4,176.4l-.4-1v-.4l-2.4,1-1.6-.8-.2.2v.2l.6.6,1.2.2,1,1,1.4-.2.4-.8ZM1167.6,171.3l.6.4.6-.2v-.4l-1.2.2ZM1181.2,170.3h1.6l-.4-1h-1.2l-.2-.2h-.2l.2-1,1-.6,1,.6-.2-1-1-.2.6-1h1v.2l1.2,1.2v1l.8.2.2-.4-.2-.8,2-1.4.6.8.8-.2-1.4-1h-.6l-.8.8-.4-.2-.2,1.2h-.8l-.2-.8-.6-.2,2-1.2.2-.8-.4-.2-1.2.8v-1h-.6l-.4.6-.6-.6h.2l.6-1,2.5.2.6.6,1-.2-1.2-.6.2-1.6-1.2-1-.6.2-.6-.4h.2l.2-.4-.4-.4-2.4,1,.4,1.4-.8,1-.2,1.4h-.4v.6l-3.5.4-.6.6.6.4h.8v.6l-.4.4-.8-.2-.6.4v1l-2,.8-.4-.4h-.6l-.4-.6-1-.2-.2-.4.2-.6,1-.4-.2-.2h-.2v-.8l2-.4v-1l-1.2-.2v-.2l-.2-.2.2-2.7-.8-1v-.4l-1-.4-.4.6,1.2,4.9-1,1.4h-.4l-.8.6h-.8l-.4.8.8,2.4-.8,1.2,1.6.4v1.8l1.6-2.4,1.4.2,1.8,2-.2.2v.4l-.6.2-.2.6,2.2.4,1.2,2.7.6-1.8-1.4-1.2-.2-.8-.8-.6v-.6l.4-.6v-.6l-.4-.6.4-1.6,2,2.5h2l.4-1.2h.2l.2-.2ZM1169.4,150.5l1,.6.2-1-.4-.8-.4.2-.4,1ZM1169.6,132.7l.4.4.8-.6.4-1-1.6,1.2ZM1172.9,174.4l.6-1.2-.6-1.2-.6,1.2.6,1.2ZM1173.9,176.4l1.8-.4-.8-.6-2,.4v.8l.6.2.4-.4ZM1173.7,108.7l.4.4h.4l.4-.8-.2-.2-.8.2-.2.4ZM1176.7,178.3l-.4-.6-1-.4-1.2.4,1.8,1.4.6-.2.2-.6ZM1176.3,163.2l.4.8.4-.6.6-.4.8.2.8.8,1,.2-.4-1.2.6-1.4-.2-.4h-.6l-.6,1.2-1.6-.6-1.2,1.4ZM1176.5,104.8l1.4,1.6v.8l-.4.4.8.8.8-1-1.4-2.2v-1l-.6-1h-.4l-.2,1.6ZM1178.4,159.3v-.2l-.4-.2-.4.4v.8l.6.6,1.4-1-.2-.6-1,.2ZM1180.2,158.1l.4-.6-.4-.6-.8-.2-.6.2.4.8,1,.4ZM1179,114.4l1,.4,1-.2.2-1-.6-.6v-1.4l-1,.6-.6,2.2ZM1181,179.3l-.4-.6-.6-.2-.2.4.2.6-.2.4.2.2.6-.2.4-.6ZM1180.2,175l.6-.8-.6-.6-.2.8.2.6ZM1180.2,160.1l.6.2.4-.4-.4-.4-.6.6ZM1184.9,173.8l-1.6-.6-1,.4.2,1,2.4-.8ZM1214.3,147.7l-.8-2.5-4.3-13.3-1-2.9-3.9-11.6-1-2.5-2-1.4-2.5-.6-2.2.6-2,2-5.3,13.3-1.2,2.9-5.1,13.1-.6,2.9.6,2.4,2.2,1,2.7.4h12.3l9.2.6,2.5-.8,1.6-1.6.6-2ZM1184.1,155.8l-1,1.6,1-.6v-1ZM1183.9,157.2l1,.4,1-1.2-2,.8ZM1189.2,174.4l-.4-.6-.6-.2-.4-2-.2-.2.4-2.5-.2-.4-.4-.2-2.4,3.9.2,1,1.2.2-.2-.6-.6-.2v-.2l1.2.4v.2h.2v.4l.4.4v.6l-.2.2v.2l.4.2,1.6-.6ZM1186.5,158.7l1,1,1-.4.6,1,.8-.6h.4l.2-.2-3.9-.8ZM1186.8,93.7l.2.4.6.2h2.9l.6-.6.2-1-1.4-1.2h-1l-2.2,2.2ZM1187.8,157.4l.6.2,1-.6-1-.6-.6.2-.2.4.2.4ZM1188.4,161.9h.4l-.2-.6-.6-.4v.6l.4.4ZM1195.7,169.3l-.6-.4.2-1.6-6.1-.6-1.2.8,4.5-.2.6.8v.6l-.8.4.2,1.2,1.6-.2,1.4.6.2-1.4ZM1188.2,164.2l1,1.2.2-1.4v-1l-.4-.2-.8,1.4ZM1189,170.3h.6v-.4l-.4-.4h-.2l-.2.4.2.4ZM1191.4,171.7l-.4-.4h-.8l-.8.8,1,.4.8-.2.2-.6ZM1190.2,105v.2h.4l-.4-.4v-.2l-.6-.6v.4l.4.6h.2ZM1190.8,164.6l-.2,1.2,1.8.4.6-.2-.2-.4h-.8l-1.2-1ZM1191.6,168.5l-.2-.4-.2.2-.2.6h.4l.2-.4ZM1191.9,163.8l.6.2-.2-.6-.4-.4h-.2l.2.8ZM1192.7,106.8l.2.6h.6v-.4l-.6-.8v-.4l-.2.2v.8ZM1194.5,174.2l-.2-.4-.6-.2-.4.2-.2.4.2.6h1l.2-.6ZM1194.7,161.9l-.2.6.6.2-.4-1.8-1.2-.2,1.2,1.2ZM1194.5,84.6l.2.2h.4l.4-.4-.4-.4h-.4l-.2.6ZM1195.7,98.2l-.8,1,1,1.2.6-1.2-.2-.6-.6-.4ZM1197.4,165v-.4l-1.2-.4-.6.6,1-.2.4.4h.4ZM1198.2,168.5l-.4-.6-.4.4.4.4.2-.2h.2ZM1197.8,89.7l.6.2.8-.4-.8-.2-.6.4ZM1201,103.3l-2-.4.6,1.2v2l1,.2.8-.8-.4-2.2ZM1202.5,162.3l-.4-.6v-.8l-.8,1.2.4.8h.6l.2-.6ZM1202.3,166.6l-.4-.4h-.4v.4l.6.2.2-.2ZM1204.3,161.7l.4-.4v-.4h-.6l.2.8ZM1205.9,167.7l-.2-.6h-1.2l-.2.2.2.2h.4l.2.4.6.2.2-.4ZM1207.8,107.2l1.4-.2.6.4h.6v-.6l-.8-.2-1-.2-.8.8ZM1214.5,101.7l-.2-.8h-2l.6,1,1.2.6.4-.8ZM1217.8,132.5l-1.6-1.6-.6.2-.2,1.2,1.6,1.6.8-.4v-1ZM1218.2,127.6l.6,1.2.6-1.4-.2-1.2-.8.2-.2,1.2ZM1221.7,142.8l-2.4-.2-1,2,2-.2,1.4-1.6ZM1227.8,153.8l2.2-.2.8.6.2,1.4,1,1,1.2-1.4-1-2.4,1.8-.4,1.4.8v2l1.2-.8v-1.8h1.8l.8,1.6-.4.2v.6l-.8,1v1.2l-1.4.8-.2,1.2h1l1-.8,3.7,2.2-1,1.2,1,1.2.6-2.5-.6-1-1-.2-.6-.6v-.6l-2.2.2-.4-1,1-.8-.2-1.4,3.1,2.4,1.6-.2-.2-.8-.6-.6-.8-.2-.4-.4,1.2-1-.4-.8-1-.2.4-1.2,2,.6,2.2,6.5.2-2.4,2.5-.8.4-2.5-.4-.8.2-1,.6.4.4-1-3.1-2.9-.8.4-.4.8-5.3.4v-.2l-1,.4-3.1-5.5-1.4-.2-.2,1.2.6,1.2-1,.4-.8-.2-.4-1.4-1.2-.6-1.4.8-2.5-2.7.2-.8-.4-1,.6-1-.2-1.2-.4-.4.8-.8h.8l1.4,1.2.2-1,1.2-.2,4.3,4.3,2.2.4,1.2,1v4.7l1.2-1.6,2.7-.2.6-.6-.4-1-2.4.2.2-2.4-.4-.6-3.1-.8-1.8.8v-.2l-.6-.4-.8-3.7,2.7-2.4h2.2l.8-2,.6-.4.2-1.8-1.4-.2-6.9,5.5-4.5-2-.6-1.2h-1.6l-.8,1.2.6,1.6h-5.1l.4,2.5-2.7,1.4v.2l2.7-.4,2.2,1,.8,2.2-1.8,3.9.8,1.2,5.7-2,.2,1-2.5,3.7,1.2,2.9ZM1219,134l-.2,1.2.8.6h.4l.2-.2-1.2-1.6ZM1220,119.3l2,.4-.6-1-1-.2-.4.4v.4ZM1221,126.2h.6l.4-.4-.4-.8-.4-.2-.6,1,.4.4ZM1220.6,133l.6,1.2,2,.6,1.6-.8.2-1-2-1.8-1.2-.2-.6.8-.6,1.2ZM1221.7,127.8v1.4l.8,1h1.4l.6-.6-1-1.4-1.8-.4ZM1227.2,156.6l-2.5-4.9,2.2-2.9-1.2-.4-2.2,1.2-.2,1.4.8,1.4-.2,2.9,3.3,1.4ZM1224.1,118l.4.4h.4l.4-.4-.4-1-.4-.2-.4.4v.8ZM1224.5,126.2l1.2,1.6-.2.8.6,2,2,.4-1.4-2.2v-.2l1.2-.6,6.3,1.8-1.4-2.7-1.2,2-7.1-2.7ZM1226.1,122.7l-.8-1-.6,1,.2,1.2.6.2.4-.4.2-1ZM1227.4,111.7l-.8,2.7,1.4,2h1.4l1-1.4.8-.2-2.9-3.1.4-1.4-.6-1.4-.4-.2-.4.2-.4,1.2.6,1.6ZM1230,158.3l.4-1.4-2.2,1,1.8.4ZM1229.2,121.7l-.8,3.7,1,.8.8-.2.8-1v-2l-1.8-1.4ZM1234.3,141.5l-1.6-.4-3.5-2,.8,2.2h2l.2,2,2.4-.4.4-.4-.6-1ZM1240,162.5l-.2-.6h-6.7l-.4-.6-.8-.2-1.4.8.8,2.2.8-1.8h.2l.2,1.8-.2.2v.6h-.2l-1.6,1.4-.6-.2-.4.4,2.4,2.5.6-1-.4-1.2,2.9-2,.2-.6,4.7-1.8ZM1232.5,131.3h-.8l-.8.8h-.8l-.2.4.8,1,1.4-.2.6-1-.2-1ZM1231.3,118.3l-1,.8.2.6,2.7,3.1.4-1.6-2.4-2.9ZM1234.1,158.1l-1.4-1.2-1.4,1,.6,1.8,2.4,1.4-.2-2.9ZM1236,171.1l.4-1-.8-1.4-1.6-.6v1.8l1,1.4,1-.2ZM1237,167.2l.6-.2.4-.8-.6-.4h-.4l-.6.4v.6l.6.4ZM1238.4,176l-1-2.2-1,1.6.2,1.2,1.2.2.6-.8ZM1236.8,129.3l2.5-1.2v-.6h-1.8l-.8,1.8ZM1237.8,137.8l-.8.4.2,1.2.2.4.6-.2.4-1-.6-.8ZM1243.3,176.8l.4-1,2.4-.8-3.5-10.2-2-1,3.5,7.1-.6,1.2-1.2.6-1-1-1.2.4-.6.8,1.8,4.9,2-1ZM1240,138.9l.6.8h1.2l1.4,1.2.2-1.4-1-1.2v-1l-.6-.4-1.8,2ZM1240.4,168.9l.8.2.6-.8h-1.6l.2.6ZM1245.3,190.1l-.4-2.5h-1l-.4.6v1l.8.8,1,.2ZM1248,160.9l-2.5-.2-1.2,2.2,3.9-1.4-.2-.6ZM1246,167.4l.6-2.5-2.2.8.8,2.9.6.6.8-.6-.6-1.2ZM1246.6,178.1l-.4-.2h-.4l-.4,1h.4l.2.2.6-.4v-.6ZM1250,178.9l-.6-.8-1,.2-.6.6.8,1.6,1,.2.4-1.8ZM1249.6,165.2l-.4.2-.4.8.2.8.8-.4.2-1-.4-.4ZM1250.4,157.9l-1,.4-.4.8.4.6,1-1.8ZM1250.9,175.6l.8-.4v-1l-.4-1.4-1.6-.4,1.2,1.6-.4,1,.4.6ZM1252.3,184.2l.2-.4-.2-1h-.6l-.2.8.4.6h.4ZM1253.7,189.9l-.6-1.6-.2-.4h-.6l.4,1-.6.8v.8l.8.2.8-.8ZM1255.3,168.1l-.6-2.2-.4,1.6-.6,1.4h-1l.2,1.2,2.4-2ZM1260.7,179.7l-2.2-.2-1,1,.6,1,.8-.2.4-1,1.4-.6ZM1262.5,183l-.2-.4h-.4l-.8,1,1,.2.4-.2v-.6Z"/>
    <path class="st3" d="M1432.8,206l-.8,1.8-2.5.8h-13.7l-10.8-.2h-3.1l-8.8.4h-2.5l-1.8-.8-1.6-1.6-6.3-8.8-1.8-2.4-6.3-8.4-1.8-2.4-5.5-9-1.8-2.4-6.3-8.4-1.4-1.6-1.2-.6-2.4-.2-6.3-.4-2.5.2-1.6,1.2-.6,2.5-.4,10.8.2,3.1.8,11,.2,3.1.2,4.7v3.1l-.2,3.1-.4,2.4-1,1-2.2.6h-3.1l-9.4-.6-9,.6h-3.1l-9-.6-2.4-.4-1.2-.8-.4-2-.2-2.7-.2-2.9.4-5.1.2-3.1.8-10.6v-3.1l-.6-10.6-.2-3.1-.2-10.4v-3.1l.6-10.6v-3.1l-.6-10.6v-3.1l.6-10.6v-3.1l.4-10.4v-3.1l-.2-10.6v-3.1l-.4-6.5.2-2.9.2-1.2.6-2.5,1.2-1.6,2.4-.6,1.6-.2,2.9-.2,8.8.4,23.3.8,13.3-.8h3.1l12.9.8h7.4l3.3.2,2.9.6,4.1,1.2,2.9,1,2.9,1.2,3.1,1.2,2.9,1.4,2.5,1.6,3.7,2.5,2.2,1.8,2,2,2,2.4,2.7,3.9,1.8,2.5,2.4,3.7,1.4,2.7,1.4,2.9,1,3.1.6,3.1.2,3.1.4,4.3v3.1l-.2,3.1-.4,3.3-.6,3.3-.8,3.1-1.2,2.9-1.4,2.9-1.8,2.9-1.8,2.5-1.8,2.4-1.8,2.2-3.1,3.1-2.2,1.8-3.9,2.2-2.4,1.4-2.5,1.4-2.5.6-1.6.6.8,1.6,7.1,10,1.8,2.4,7.1,9.6,2,2.4,7.1,9.8,2,2.4,6.1,7.1,1.8,2.2,1,2.2ZM1307.6,87.8l.8.6.4-.2.4-.4-.2-.2-1.4.2ZM1309.2,105.8l.8-.4.2-.8-.6-.2-.8.2-.4-.2-.4.2.2.8,1,.4ZM1309.4,99.7l.2.6.8.4.8-.4.6-1.4-.8-1.4-1.6,2.2ZM1309.8,72.7l.8,1.2.4-1-.2-1.2-.4-.2-.4.2-.2,1ZM1310.7,85.6l-1,1.6,2,.6-.2,2.4h.2l.8-2,1.4-1,1.8.2,2,2.5,1.2-.2.4-1.8-.4-.6.6-2.4,1.2,1v.6l.2-.2,1,2.2,1.6.6.6-.2v-.2h.4l.6-1.4.6-.4,1,.4,1.2-.4-.6-1.4h-1.6l-.2-.2h-.2l.4-1.4,1.2-.6,1.2.8-.2-1.2-1-.6h-.2l.8-1.2h.2v.6l.4.2.4-.6v-.2h.2l1.8,2-.2,1.2,1,.6v-1.8l2.7-1.6.6,1,1.2-.2-1.6-1.4h-.8l-.6.8-1-.2-.6.8v.8h-.8l-.4-1-.8-.4,2.5-1.4.6-1-.6-.2-1.6.8-.2-1.2h-.8l-.4.6-.6-.6v-.2l1-1.2.6.4,1.6-.4,1.2.4.6.8,1.4-.2-1.6-1,.4-2-1.6-1.2h-.8l-.6-.6h.4l.2-.4-.6-.6-3.1,1.2.4,1.2-1.6,3.7h-.2v.8l-4.9.2-.6.8.6.6h1v.8l-.4.6-1-.4-1,.6v1.4l-2.7.8-.4-.6h-.8l-.4-.8-1.4-.2-.2-.6.2-.8,1.4-.4-.6-.4.2-1,2.5-.6v-1.2l-1.4-.2-.6-.6-.2-2.2.8-1.4-1-1.4v-.6l-1.4-.6-.6.8,1.4,6.7-2.9,2.4h-1l-.6,1,1,3.1ZM1316.2,187.7h-.8l-.8.4-1.4-.2-.6-.6v-.8l.8-.4-.2-1.4-3.3-.2v1.4l.6.4-.2,1.6,5.7.6.2-.8ZM1311.3,77.6l-.8-.2-.4.8.2.8-.2.4.2.4,1-.2.4-1-.4-1ZM1311.3,133l.2-.4-.2-.4h-1l-.2.2.2.4,1,.2ZM1311.1,136l.2-.8-.8.2-.4.6v.2l.4.2.6-.4ZM1310.9,155h-.2l-.4.2v.4l.2.2.6-.4v-.2l-.2-.2ZM1333.9,95.2l-.8-.4-6.1,1.2-1.6-1.2-.8-2.4-.8-.6-2.7,1-1.6-1-.6,1.8h-2.2v.2l1.8.6,1,1.2-.2,1.8-2.4,2-.2-.2h-.4l-1.2-1-.4,2.5-3.5,1.4,2.4.8,2.9-2.7,4.9.6-.2.8-2.9,1.6-.2,2.2,1.6.8.2.4-.4,1,.4,1,1.2-.6v-1.4l.2-.2v-.2l1.2.2.6,1.2-.6,1.2,1.2-.2.4-1.2,1.2.6v1.2l-1.4.8-.4.8h-1.2l-.4.8h1.6l1.6,2.5-1,.6.2,1,1.2-1.4v-.8l-.8-1,.2-.6-.6-.4h-.8v-.8l1-.2.2-.8,1.8,2.7h.4l.4-.6-.8-.8v-.6h1v-.8l-.6-.4.2-.4.6-.2,1,1-.2.8.4,1.2-1,1.6v1.2l1-1.4,1.8.4,1-1.6v-.6l.4-.6.4.4.6-.4-1.2-2.9-1.6.4-2.9-1.4v-.2h-.6l-.4-4.5-.8-.6-.4.6v1h-.8l-.4-.4.2-1-.6-.8h-1.2l-.2-3.5.6-.4.2-1.2.6-.4,1.2,1.6.4-.6.8.2.6,2.4h1.2l.2-1.4.4-.4,3.3.4,2.4-2.2ZM1314.3,89.5v-.4l-.2-.2h-.2l-.8.6v1l-.2.2v.2l-1.2,1.4.2,1.6,1,.6.8-.6h.8l-1-2.9.2-.2.8,1.2.8-1.4-.8-1.6-.2.6ZM1312.9,191.5l-.2-1.4-.4-.4-.6.6.2,1.6h.4l.6-.4ZM1313.5,96.2l-1,.2.8,3.3.6-1-.4-2.5ZM1313.5,128.1l.2,1h.6l3.1-.8-1-.8-2.9.6ZM1313.9,133.4l.4.8,1,.4.2-.8-.6-.6-1,.2ZM1315.8,105h-1.8l1,.8.8-.8ZM1314.1,114l.4.6.4,1.4.8-.4v-.8l2.5-.4.2-.2v-.2l3.1.6.4-.2.2-.4-4.3-2.2v-.4l-.4-.4h-1.2l-.2,1.6,1.2-.8-1,1.6h-.2l-.6.4h-.6l-.4-.4-.4.6ZM1314.1,121.5l.2.6.6.4.8-1-.2-.6-.6-.2-.6.2-.2.6ZM1319,79.9h-.8l-1,1-2.5,1.8,1.8.2.8-1.4,1.2.6.8-1.8-.2-.4ZM1314.8,108l-.2,1.2,1,1.8.8-2-.4-1.2-1.2.2ZM1315.4,137.2h-.6l-.2.2v.6l.4.2.4-.2.2-.4-.2-.4ZM1314.7,157.9l.4.6h.4l.2-.4-.4-.4-.6.2ZM1316.6,140.3l-.8-.8-1-.2v.6l.6.6,1.2-.2ZM1317.4,132.5l1-.2.2-.8-.4-.8-1.6-.6-1.6.6,2.4,1.8ZM1315.2,96.4l1.4.6,1.4-.6-1.4-.8-1.4.8ZM1316.2,91.7l1-.8-.4-.6-.2-.8-.4-.2-.6.8.6,1.6ZM1316.2,155.2h-.4l-.2.8.2.2.6-.4v-.4l-.2-.2ZM1317.8,169.3l1.6.6.6-.2v-.8l-1.4-.4.6-1.4-.2-.6-1.6-1.2h-1.2l1.6,1.8-1.2,2.7,1.2-.6ZM1316.8,77l.8.2.4-.2.2-.4-.6-.4h-.8v.8ZM1322.5,130.3l-2.4-.2.8,1.6-2.9,2.2-1.2,1.8,1.4-.4,2,.8,1.2-1.2-2.4.2v-1.2l3.5-3.5ZM1317.8,138.5l1.4-1.2-.2-.6-1.2.2-1,1,1,.6ZM1317,143.4l.8.4,1.2-.2.4-.4v-.6l-.6-.4-.8.4-.8.2-.2.6ZM1317.6,116.2l-.4,2.4,1.4-.2v-1.2l-1-1ZM1317.8,74.2l.6,1,.8-.2.4-.8,1.4-.6-2.7-.8-.4.4v1ZM1320.1,193.8l-1,.4-.6-.6-.6.2.2.4,1.6.4.4-.8ZM1319,91.5l.2-.2-.2-1.4-.4.8.4.8ZM1322.9,76.4l-2-.8-1.8,1.8.6,1,.4-.8,1.2-.4,3.3,1.6-.8-1.4.8-2.4-1-.2-.8,1.6ZM1323.1,123.4l1-7.4-1-1.2v5.5l-.8.6h-.8l-.4-1-1.6.2.2,2-.6,1v.8h1.6l.6-.6,1.8.2ZM1322.1,139.5l.2-1.4-.8-.4-2,.6-.4.8,1,1.6h.8l1.2-1.2ZM1321.3,89.1v-.4l-1-1.2-.6.6-.2,2h.2l.6.4v.2l1,1,1.4.2.2-.6.8.6,2.2-1.6-3.3-.2-.8-1.2-.4.2ZM1319.7,116.6h.4l.6-.4-.2-.4-.4-.2-.6.4.2.6ZM1321.5,181.9h.8l1,.2v-.6h-.2l-.2-.2h-.2l2.5-5.3-.2-.2h-.4l-3.3,2.4h-.8l-.4,1,1.2.8v-.6l.6.2-.2.2.2,1.2-.4.6h-.4v.2h.2l.2.2ZM1321.7,150.9l.2-.2-.6-2.4-.6-.4-.2,1,.6,1-.2,1.6.4.8h.4l.2-.2-.2-1.2ZM1322.3,118.7l-.4-.4h-.6v.4l.4.2.6-.2ZM1321.9,126.2l-.6.4.4.4.4-.2.2-.2v-.4h-.4ZM1328,165.4l-.2-.8h-.6l-.2.6h-.6l-.4-.4-.4-2.5-.8-.2-.4-1.6-2.9,1,2.5,1,1.4,2.5-1,1.2-.2,1.4-1.2,1,1.6,1,1-1.6-.6-.4.2-1,1.8.2,1-1.4ZM1321.9,192.4l2.7,1.2.6.4-1.2-1.4-2-.4-.2.2ZM1328,137.6l-.2.4.4.4.8-.4v-1.4l-.2-.2-.2.8-.6.2v.2l-2.9-2h-1.6l-1,1,1,1.2,4.5-.2ZM1323.9,148.7l-1.2-.6.6,2.2.6-.2.2-.6-.2-.8ZM1325.6,195.6l-1-.8h-.6l1.2,1,.4-.2ZM1325,118l-.2,1.2-.4.8.2.8.8-.2.4-1.8.8-.6-1.6-.2ZM1329,134.4l-4.3-.4.2.6,1,.6h2l1.2-.8ZM1327.8,186.4l-1-.8-.6-.4-1.2.4,2.7,1.2v-.4ZM1328.6,116.6l.2-.4-1.6-1-1.6,1,2.9.4ZM1326.4,125.2l-.6.6v.4h.6l.6-1.6-.8-.6.2,1.2ZM1333.7,92.3h.2l.6-.4,1.6-.4-.6-.8-.8-.2-.6-1.4.2-1.4-.4-.4.8-3.1-.2-.6-.6-.2-1.6,2.5-1-.6h-1l.4,1.4-1.4-.8-1.4.6.2,1.2.8.2-1.4.6-.4-.4-.2,1-.8.6h.8v.2l.2-.2,2.2,1,1.2-1h-2v-.2l-.2-.2,1.2-1.4,1.8-.4.8-1.2-.6,1.8h-.6l-.4.4.2,1.4h1.6l-.2-.6-.6-.4v-.2l2.2,2-.2.8-.4.2.2.4-.6-.2-1,.8h2l.2-.2-.2-.2ZM1328.8,102.3l-1.4,3.1,1.2-.6,1.8.8.6-.2v-.8l-1.4-.8.8-1.8-1.8-1.6-.8.6.6.4.4.8ZM1327.4,119.5v.8l1-.6v-.4l-1,.2ZM1328,148.1l1.2,1-.2-.6-.8-.6-.2.2ZM1330.9,123.1l.4-1.6-1.6,1.6-.6-.4-.2.8,2-.4ZM1330.1,151.9l-.4-.6-.6-.6v.4l1,.8ZM1329.9,133l-.4.6v.2l.4.2.4-.4v-.4l-.4-.2ZM1329.9,115.8l.6-.2.6-.6-1.4.2.2.6ZM1333.5,144.4l-.8-1-1.6-.2-1.2,1,2.4.6,1.2-.4ZM1332.5,174.6l-1.2,1.6-.6-.4-.2.8h.8l1-.6.2-1.4ZM1333.3,103.5h.2l.2-.8-.2-.2h-1l-.8.6v.8l1.2.8.8-.2-.4-1ZM1332.5,117.2v.4l.4.2.4-.8.4-3.9-1.2,1,.4,1.4-1.2.6.8,1.2ZM1332.3,105.4l-.2.8v.2l.4.2.6-.6-.8-.6ZM1334.3,138.9l1.2.2v-.4l.2-.2-.4-.8.2-.4-.4-.2-1.4.2-.2.8.8.8ZM1336.6,133.8l-.6-.6-.8-.2-1,.4.2.8h.6l.6-.4h1ZM1334.8,105.4l.6.4.6-.2.2-1.8-1.2.8-.2.8ZM1335,75.8l.4.6h.4l.2-.2-.2-.6-.8-.6v.8ZM1336.2,77.6l-1,1.8,1,1.6.6-3.1-.6-.2ZM1336.6,112.5l-.4-1.4-.4-1.2-.6,1.4,1.4,1.2ZM1336.6,115.4l-.2-.6-.6-.2-.4.2-.2.6.8,1.2.6-1.2ZM1336.4,144.4l-.4-1.6-.8.8,1.2.8ZM1336.6,87.4l-.2-.8-.2-.2-.4.2-.2.8.4.2.6-.2ZM1337.4,110.3l-.8-.6-1-.6.8,1.2h1ZM1336.6,136.4l-.2-.2-.8.4.6.4h.4v-.6ZM1338.8,89.5l-.4-.8h-1.2l-1,1,2.4.6.2-.8ZM1338.2,81.7l2.2.6.8-.2-.2-.8-1.8-.4-.6-.8-.4,1.6ZM1339,85.8l.4-.6-.2-.6-.6.4v.6l.4.2ZM1341.3,147.7l-.8-.4-1,.2-.4.2.6,1,1.4-.6.2-.4ZM1339.7,78.4l.4.6.6.2v-.6l-.6-.6-.4.2v.2ZM1343.7,139.7l-1.2-1-.8-.4-.6.2-.2.6.4.8,1.2.6,1.2-.8ZM1341.3,87.8l2.2-.2,1,.6h.8l.2-1.6-.6-.6.4-2-3.7-.2.6,1v1l-.8.2v1.8ZM1341.3,89.5l.2.8,1.4.8.6-.8-.4-.8h-1.8ZM1377,131.5l2.5-1,2.4-1.4,2-2.4,1.4-2.9.8-3.1.2-3.1-.2-3.3-.4-3.3-.8-2.9-1.4-2.9-1.8-2.4-2.2-1.8-2.7-1.2-4.3-1-3.1-.4-9.8-.2h-3.1l-10,.6-2.4.2-1.4.6-1.2,1.2-.2,2.2.2,4.5.4,3.1.4,3.3.2,3.3-.4,10.8.2,2.2.4,1.2,1.4.6,2.4.4,10.2.8h3.1l12.9-.8,4.3-.8ZM1342.3,74.8l1.6,1.8-.4.8.8.2-.4-2.4-1.6-.4ZM1349.3,142.1l.2-.2-.8-.8h-1.2l-1.2-1.2-1.6.2-.4.8,1.8,1.2,1.4-.6,1.8.8v-.2ZM1344.8,80.5l1.4-.2.6.6h.6v-.6l-1.8-.6-.8.8ZM1347.6,84.8l-.4.2.4.8.4-.4v-.4l-.4-.2ZM1348.4,83.7l.2.6.6.2.6-.2.4-.6-.2-.6-.8-.2-.6.2-.2.6ZM1350.9,147l-.8-.4-.6.2v.4l1.4-.2ZM1351.3,137.4l-1,.2-.4,2.7,1.4-2v-1ZM1352.5,77.2l.4,1h1v-.8l-.4-.6v-1.2l-1,1.6ZM1352.5,82.9l.2.4h.8l.2-.2-.2-.4-.8-.2-.2.4ZM1354.6,89.5l-1.4-.2-.2.8.2.4.6.2.8-.2.6-.6-.6-.4ZM1354.4,142.8l.4-.6-.4-.4-.6.4-.2.8.8-.2ZM1353.9,145.4l.6.4.8-.2-.4-.8-.8-.2-.2.8ZM1356.2,150.5l-.8-.6-.8.2-.4.8.2.6,1-.2.8-.8ZM1356,75.6l.4,1.2.2-.4.2-.2v-.4l-.8-.2ZM1358,84l-1.6-.2-.2.4.8.2.4.6.6.2.4-.4-.4-.8ZM1361.7,142.5l-.6-.4-.4.4.2.4h.6l.2-.4ZM1363.1,137.4l-.4-.2h-.2l-.2.2.4.6h.4v-.6ZM1363.9,143h.4l.2-.2-.2-.4-.8-.2-.2.4.6.4ZM1365.6,156.4l-1.2.2-.2,1.4,1.4-1.6ZM1367.6,147.4l-.4.8-2.7.6,1,.4.4,1.2v.4l.4.2.2-.2h.2l-.2-1.4,1.4-.2.2-.2.2-1.8-.6-1-.2.6.2.6ZM1366.2,157.6l-.2-1.8-.4,1,.6.8ZM1366.2,152.7h.6v-.8l-.8.4.2.4ZM1369.3,161.3l-1.6.4-1-.4.2,1h2l.4-1ZM1367.8,151.5l-.2.4.4.4,1.4-1.2-.6-.6-.8-.2-.4.4.2.8ZM1369.5,153.6l-.4-.4h-.2l-1,.2v.6l.6.4,1-.8ZM1370.5,163h-.2l-.2.2v.4h.4v-.6ZM1372.1,153.6h.6l.4-.8.4-.4v-.8l-1.2-.4-.6.4-.2,1.2.6.8ZM1382.1,149.1l.8-1.8-1.4-2.2-1.6.4-.4.4v.4l.4.2,1.2,2-.6.4-.2,1.2-.8.2-.8,1h-.6l-.4-.6-2,1,1.4-.2-.8,1.6,1,1-.6.4-1.2-.2v.6l.4.6v1.2l-1.2.6-1-.8h-.8l-.6.4v.6l1.2.8,1.6.6,2.2-2,2-.4.2-.8-.6-.8-1,.2-.2-1,1.8-.4.8-1.6-.4-.8,2.7-1.2-.2-.4h-.2l-.2-.6ZM1377,172.8l-.2-.4,1.4-2.5,3.1-1.6.6-1-1-1.2-1,1.2h-.8v-.4l-.2-.2.2-1.4,2-.8,1.4-4.9,2,1.2-1,.8-.2.6.2.2v.8h.6l.8,1.2-.8.6-.8-.2.2,2.9-1,1.2.2.6.8-.8h.2l.2.2,1.2.2.2-1.2-.4-.2,2-.8,2.2,2.5-1,.2-.2,1.2,1.2-.6v-.2l1.4-.4.8.4,1-.2.2-.8-.2-.4.6-1.6-.8.4-.8-.4-.4-.8-1-.6,1,2.7-1.2-.2-1.8-3.9.6-1h-1.2l-.4-.4v-.4l.6-.6v-.6h-.6l-.2-.6.6-1h.4l1,1-.6-2.2h-1.2l-.4-.4h-.8l-.2-.6,1.2-.6.6-1.2-.6-.4v-.4l-.4-.4-.4.4.2,1-.6,1-1.8-.4-1.8.6.2,1.6-.4.4-1.8.4v.2h-.2l-1.8-1.8-.2.4.2.8h-.6l-.4.4,2.7,3.3-.4.8-3.7-2.5-3.1,5.5.2,1.4.6.6.2-.2-.2-.2v-.2l2.5-1.4.4,1.2-.8.2-.8,1.8.4,1,.8.4v.4h.2l.2,1,.6.4.2-.2ZM1375.2,141.9l.8-.4,1.8,1.2h1.6l-.6-1.6-.8,1-3.9-1.6.6.8.2,1.6,1.2.4-.8-1.4ZM1374.4,151.5l-.2,1.4.4.2.6-.6v-1h-.8ZM1376,149.7l-.2-.2v-.2h-.8l-.6.6,1.6-.2ZM1376,146.6l-.2-1-1-.2.2.8.6.6.4-.2ZM1377.2,169.9l-1.4-.8h.4l.2-.2h.2l.2.2h.2l.2.2v.6ZM1377.8,155.4h.2v.2l-.8,1v-.4l-1-1,.4-.2.2-.2,1,.6ZM1378.2,168.7h-.6v-1.2h.8l-.2,1.2ZM1378.6,172.1l-.2-.2-.2-.4-.4.2.2.4.6.2v-.2ZM1379.1,171.9l1.4.6.6.6-.8,1.8.4.4-.2.6h.8l.4-.4.8.2,1.6-1,.6.2.4-.2v-.4l-.4-.2-1.6.6-1-.4-.6-.8,1.8-.8,1.8.4-.4-1.4-1.4-.8-.8.6-3.5-.4.2.8ZM1381.5,180.5l-.4-1-.8-.8v-.8l-.8-.6.2,1.4.4.2v1.2l1.4.4ZM1382.7,182.4l-1.8.8,1.2-.2.6-.6ZM1381.3,152.7l-.2,1,.2,1,.2-.2h.4v-1l-.6-.8ZM1383.1,144.2h.2l.2-.4-.6-.6-.2.4.4.6ZM1383.1,151.7l.6,1h.6l.2-.6-.6-1-.6.2-.2.4ZM1383.3,177.2l.2.2h.2l.2-.8-.2-.2h-.4v.8ZM1384.8,183.8l.6-.4h-1.4l-.6,1.4.4,1.4.8.4.4-.6-.2-2.2ZM1384.6,145.8l-.2-.4h-.4l-.2.2v.4l.4.2.4-.4ZM1385.6,149.9h-.6l.4.6h.8l-.6-.6ZM1385.4,179.5l2,2h.6v-1l-.4-.2v-.6l1.2-.8-.4-.4-2.4-.4-.6.4v1ZM1386.8,185l-.4-.4-.6.2v.4l.4.2.6-.4ZM1386.4,152.3l.4,1.6.2.4h.4l-.4-2h-.6ZM1398.7,194.4v-.4l.2-.2.8-1-1.2-2.2.2-.6-.4-.6.2-.6-.6-1.6-3.7-2.5-.6.4h-.2v.2l-.8-.6-.2-4.3.8-.4.6.2.4-.2v-.4l-1.2-.2-1,.4-.6-1,.6-.6,1.6-.2-.2-.8-2-.4v-.4l.6-.8-.2-1,.6-1.2-.4-1-2.2-1-.4.6v.4l1.2.4.2.8-.2.2-.6-.2-1.6.8-1.2-.4v-.4l-1-1.2.4,2.2h.8l.4,1-.2,1-.4.4,1,.4,1.4-1,1.6.6-.6,2.7h-1l-1,2.2.2.6h1.4l-.4,2,.8.8v.8l.6.4.6-1h.8l.4.4.2.8-.2.6.4,1,1.2.2.4.4-.8.8-.2.8.4.6,3.5.2,1,1.4-.2.6-3.3.6.4,2.4-1,1.6h.8l.2-.6.8,1.6,1,.2.4-.2v-.6l-.2-.2-.6.2-.4-.8.2-1.4-.4-.6,1.6-.6,1,.8v-.6l-.4-.6ZM1388.4,186l-.8-.2-.6.2v.4l.6.2.8-.6ZM1388.2,172.1h-.4v.6h.6v-.4l-.2-.2ZM1388.9,185.4l.4-.4v-.2l-1,.6h.6ZM1390.1,195.4l-.6-.8-.4-.4h-.2l-.2.6.6,1,.4.2.4-.6ZM1389.7,160.5l.8-.4.2-.6v-.2h-.2l-.6.4-.2.8ZM1390.3,134.8l.6.4,1.4-1.4-.4-1.2-.4,1.4-.8.2-.4.6ZM1390.9,162.6l-.6.2.2.2.6-.2v-.2h-.2ZM1390.5,180.7l1,1h-.4l-.6-1ZM1392.9,191.3l-.4-.6-.2.8.6,1v-1.2ZM1392.5,140.9l.4.8,1,.2,1-1.6-1-.2-.2.2h-.4l-.8.6ZM1393.3,161.1l-.6,1.6-.2.4.2.2h.4l1-3.5-1.6-.2.8,1.6ZM1393.3,166.2l.4-.2.2-.2-.4-.4h-.4l-.2.2.4.6ZM1395,171.3l-.6-.6h-.6l-1,1.2.4.4h1l.6-.4.2-.6ZM1394.4,173.6l-.8-.4-.4,2.7h.8l1-1.2-.6-1.2ZM1394,195h-.4l-.2.2v.4l.2.2.4-.4v-.4ZM1394,182.8l-.2.4.2.2h1.2l-1.4-2.4.2,1.8ZM1396,183h.4l1.8-1-.2-1.4-1.2-.4-.8,1.2v1.6ZM1397,127l.4,1.2,2,.8,1.6-1.4-3.1-1.2-.8.6ZM1398,95.8l.6.8.2-1-.2-1-.6.2v1ZM1398,178.7l.6.2.4-.4h.2l.6-.4.2-.8v-.2l-.2-.2-.6.2-.4,1h-.8v.6ZM1398.9,201.9l-.6-.2.4-1.8-.8.8.6,1.8.4-.6ZM1398.9,185l-.6.2-.2.6.2.2,1-.6-.4-.4ZM1399.7,180.9l-.2-.4-.8-.2v.6l.4.4.6-.4ZM1399.9,183.2l.6.2-.2-.6-.6-.6.2,1ZM1404.2,203.4l-3.1-1.2-.8.4-.2,1,.4.4,3.7-.6ZM1400.3,120.1l.6.4.8-.2.6-1v-.2l.8-.8-.6-.8v.2h-.6v.8l-.4.2-.2.4-.8.2-.2.8ZM1400.7,193.8l-.4,1,.6.2.6-.2.2-.8-.4-.4-.6.2ZM1400.5,179.7l.4.4.4,1.8,1-1.2-.4-1.2v-.2l-1-.2-.4.6ZM1403.6,194.8l-1.6,1.4h-.2l-.8.6-.2.6h1.6l-.2-1,1.2-.4.2-1.2ZM1401.7,188.9h.4v-1l-1-.2v.8l.6.4ZM1401.5,201.1h-.2l-.2.6.2.6.4-.4v-.6l-.2-.2ZM1402.9,205.2h-.6v.4l.4.2.2-.2v-.4ZM1402.9,184.2l.8.8v.6l.8-.8-1.4-1.4-.2.8ZM1403.8,186.8v-.6l-.2-.2-.4.4.2.4h.4ZM1403.4,197.3l-.2,1.2h.2l.2-.2-.2-1ZM1404.8,200.1l-.8-.6h-.4l-.2.2,1.4,2v-1.6ZM1405.4,187.9l-.6-.4-.6-.2.6,1.8.6-.4v-.8ZM1404.6,104.2l.6.8,1-.2,1.2.8v-1l-.8-1.8-.6-.2-1,.6-.4,1ZM1406.8,127.4l-.2-1.2-1.6.2.6,1.2.6.2.6-.4ZM1407.2,117l-.2-.2h-.8l-.2.2h-.2v.2h1.4v-.2ZM1407,187.7l-.8.6.6-.2.2-.4ZM1411.5,106.6l.4.8,4.7,1.2v-.4l.2-.2-1.2-1-1.6-.2-.6.2-.8-1.2-1,.2-.2.6ZM1413.1,134l-.6.6v.8l.6-1.4ZM1413.2,190.7l-.4-.6h-.2l-.2.2.2.8.6-.4ZM1416,126.4l-.4-2.9v-.6l-.4-.2-.6.4v.8l-.8,1.2h-.2l-.6.4.2,1,.6.6h1.8l.2-.6h.2ZM1413.4,102.5l.4.8h.2l.2-.8-.2-.4h-.4l-.2.4ZM1417.4,117.8l.2.6h.4l.4-.6-.2-.4h-.6l-.2.4Z"/>
    <path class="st3" d="M1490.7,177.3v3.1l-.8,10.6v3.1l-.2,10.8v2.2l-.6,1-1.6.6-2.7.2-10-.2h-12.2l-9.8-.8-1.2-.4-.6-.6v-2l-.4-4.9v-3.1l-.2-2.9v-2.9l-.6-10.6.2-3.1.6-10.6.2-3.1-.6-10.8v-3.1l-.2-10.6v-16.9l-.2-10.8v-3.1l.2-10.6v-16.9l-.4-10.8.6-2.2,1.2-.8,2-.2h1.6l2.9-.2,4.7.2h3.1l9-.4h12.2l2.2.4.4,1.2.2,2.2.4,5.1.2,3.1v19.2l.2,10.6v3.1l-.2,10.8v3.1l.2,10.6v3.1l-.4,10.6v17.1l.6,10.6ZM1455.6,185.2l2,.6-.6-1.2-.2-2-1-.4-.6.8v.2l-.2.2.6,1.8ZM1458.3,198.9l-.6-.2-.6.6h.6l.6-.4ZM1457.5,96.6l2.2-.8-1.2-.6-1,1.4ZM1457.5,102.3l1.8,1.2,1-.8-2-.6-.6-1-.2,1.2ZM1457.9,130.3l1.2.6,1-.2-2.2-.4ZM1459.3,147.2l-.2-1v-.4l-.4-.4-.4.6.2,1.6.8-.4ZM1458.5,77.6l.4.4.4-.6-.2-.2h-.2l-.4.4ZM1460.5,84.4l-1.4.8-.4,1v.2l1-.4.2-.8,1.8-1.2v-.6l-.8-.4-.4,1.4ZM1459.3,135.6l.8-.2.2-.6,1-1.6.8-.2-1.4-.6-1.4.8-.4,1.6.4.8ZM1462.1,86.8l-.2,1-1-.2h-.8l-1,1.2.4.6h.4l.8-.6.6,2.7.6.4.4,1.4,1.6-.2.6.4h1.6l.4-.4-.2-.8-.6-.6-.6.2-.2.4-2.7-1.2-.4-2,.8-1,.2-1.4,1.2-.8-.4-.6-1-.4-1,1.4.6.4ZM1460.1,128.1v-4.1l-.6,1.2.2.6-.6,1.2,1,1.2ZM1473.8,119.7l-.2,2.4-1.8-1-.2,1.8,1.4.2.2-.2,1.6.4.6,1,1.2.4,2.2-2.4h-1.2l-.4-.8.2-1.2-.6-1-.4,2.5-1,1.2-.6-.6,1-5.7,1-.4-1.2-1v-.6l1.2-.6.2-.4-.6-.4.2-.8.6-.4h1v1l.4.6.4-.4.2-2-1.8-1.8.2-.6,1.4.2,1.2-.8v-1.8h-.6l-1.8,1.8-3.5-2-.6,1.6-.6.2-.8-.6h-1.4l-.4-2.4-.4-.4-.4.2v.6l-.2.2-.6-.4-.6.2.6,4.9-.8.4-2.2-4.7-6.1,3.3-.6,2.2.2.2.2-.2v-.2l1.8-.4,1.6.6v.6l-.4.6h-1.6l-1.2,1,.2,4.1h.4v-.4l2-1.6,1.8.4v.2l1.6-.6,1.6.4,1-.6.2-1-.4-.6-1.6.4-.8-.4,1.2-2,2.2.6,1.8-2.2.8-.8,1-.2.8-.8,1.2,1.4v.8l-1.8.8v.2l-.6.6.6.6v1.6h-1l-.6-.6-1.6,2.7-1.6.6-.4.8,1.2-.4,1.4,1.4.8-1-.2-.8.2-.2h.6l-.2.2.4.6,1.4.2.6,1.2ZM1459.5,96.2v1.2l.8-2-.8.8ZM1459.7,105.4l.2.2.4-.4v-.2h-.6l-.2.4h.2ZM1460.1,190.1l.6.4.8-.8-1-1.2-.6,1,.2.6ZM1461.7,204l-.2-.2-.8.6.4.4h.4l.2-.8ZM1461.3,74.6h.8l.4,2,1.2-2-1.6-.6-.8.6ZM1462.1,135l-.6-.2-.2.2.2.4.8.2-.2-.6ZM1462.4,114.2l.2.2v.8l-.2.2-.8-1.4.2.2h.6ZM1461.7,137l.6.6.8-.2-.4-.6-.8-.2v.2l-.2.2ZM1461.9,72.5l1.4.4.2-.4-.2-.2-1.4.2ZM1462.4,82.3l.2-.2-.2-.6-.6-.2v.8l.6.2ZM1462.2,118.5l.2-.2v-.2l-.2-.6-.4.2v.4l.4.4ZM1464.2,121.3l2.2.4,1.6,1.6.4-1.6-.8-1.6h-1.2l-2.9-2.5v1.8l.6.6.2,1-1.8,1.2v.6l-.4.4.6.4h.8l.4.6,2.4.2.2.4h.6v-.2l.2-.2-.2-.4-2-.4-.8-2.2ZM1462.8,152.8l.6-.6v2.5l.6.4,1-.6-.2-.4h-.4l1-2.9,1.8.4.4,1.4.4-1.6,1.8-.8.2-2.7.8-.4-.2-.8.8-1.2-1.8-5.9-1.2.2-.4-1.2.4-1-.6-.6,2-1.2.6-1.2,1.2.2.4.4h.6l-.2-.8-2-.6v-1.4l1.2-.2,1.4.8.4-.8-1-.6-.6-1.4,1.2-.4.4-1,1.4-1-.2-2.2-1.2-1.2-.8.8.8,1-.2.8-.2.2h-.2l-.4-.6-2-.2-.8-1v-2l-1,2.2.6.4-.2,1.2-1.4,1,.6,1,2.2-.2,1,1.6-2.2,2.2-1-.4-2.2,1.4-.2.6,1.4.8-1.6,1.6.2,1.2-.4.8.2.8h.8l.4-.4.6.4.2.6-.8,2.4,1,1v.6l-1.4.2-.6.8.2.6,3.1,2.4v2l-.6.4h-1.4l-2.2-1.6-1.6,3.1-1.4.2.8.6ZM1462.6,149.1l-.4.4.2.2h.6v-.6h-.4ZM1463.8,79.1h-.8l-.2.4.2.2h.6l.2-.2v-.4ZM1462.8,158.9l.8-.2-.2-.2-.2-.4,1.4-1.4-1.4.4-.4,1.8ZM1463.8,182.6h1l.2-.2,1,.2.6-.6-.6-.6-.8.4-2.2-.6.2.8.6.6ZM1467.5,88.7v-1.2l-.6.8-1,.8-2.7-1.2.6,1.2-.6,1.6.2.4h.8l.4-1.4,1.4.8,1.2-1.2.2.4,1.4.6v-.2h.2l.6-.4-.2-.8-1.8-.2ZM1464.8,95h-.2l-.2-.2-.8-.2-.4.6.4.6h1.6l-.4-.8ZM1464.2,113.6l.8.4-.6.4-.4.6-.6-.2v-.6l.6-.2.2-.4ZM1464.8,137.2v-.4l-.6-.2-.6.4,1.2.2ZM1463.6,145v1.2l.6-1v-1l-.6.8ZM1464.2,126.4l.2-.2.2-.8-.6.2-.2.8h.4ZM1467.5,163.2l-2-2.7.6-.2.4-.6v-.2l-.8.2-.2.8-1-.2-.8.8v.6l3.7,1.6ZM1464,86.4l.2.2,2-.6v-.4l-.4-.6h-.2l-1.6,1.4ZM1464.6,163.8v.8h.4l.4-.4-.8-.4ZM1468.5,194.8l-.6-.2-.4.2-2.2-.2-.6.6-.2.8,1,1.4h.6l2.4-2.2v-.4ZM1464.8,76l1,.6.8-.2.4-.4-.2-1.6.4-.4-.2-.4h-.4l-1.8,2.4ZM1464.8,81.7l.2,1.2,2.2-.4-.8-.6-.8.8-.8-1ZM1466,131.7l.2-.8,1.8.2v-.4l-1.4-2-.8-.2h-1l.2,3.9.6.4.2-.6.4-.2-.2-.4ZM1473.4,98.2l-1,.6-.2-.2v.2h-.2v2l-.6.2-.4-.8-.8-.2-.4.6.2.8-.8,1-1.4-.2-1.2-1.8h-1l-.4.6,1,2.4v.2l6.1.6.8-.6-.2-1-1-.6.6-.8,1.8.6,1.6-1,.2-1,1.4-.2.6.4h.6l.2.4h.6l-.2-.8.2-.6,1.8-1.2v-2.7l-.8-.8-1.4.2-.4.4.4.4-.2,2.5h-.6l-1.2,1.2-.8-.4-1.4.6-.4-.6v-.8l-2.4-.2,1.2.6ZM1467.2,93.8l-.2.8.6.6h.4l.2-.6-.4-.6.2-1-.4-.4-.6.2.2,1ZM1467.3,78.2h.8l.2-.8-.6-.4h-.2l-.2,1.2ZM1467.3,84.2l2.7-1.8v-.8l-.6-.8h-.6l-1.6,3.3ZM1469.9,96.2l-.4-.6-.6-.6h-.8l-.8,1v1.2l.6.4,2-1.4ZM1472.2,154.8l-2.2.4h-1.4l-.6.4,1.4,1,.6-1.2,1.2.6,1-1.2ZM1468.5,135l-.2-1.4.4.8v.6h-.2ZM1469.7,87l-.4-.4-.6.2v.8l.8-.2.2-.4ZM1469.1,143l-.2-.6.4-.4.2.2h.4l-.2.8h-.6ZM1470.7,152.5l-.6-.2-.4.2-.6.4.4.4,1.2.2.4-.4-.4-.6ZM1470.3,160.7l-.8-1.4h-.4l.2,2.7,1-1.4ZM1469.3,78.2l.2.8.4-.2h.2v-.8l-.4-.6-.4.8ZM1469.7,144.4l.4-.4.2,1h.2l-.6.8-.4-.4v-.4l.2-.2v-.4ZM1470.5,157.2l-.6.4-.2.6.2.2h.2l.4-.6v-.6ZM1471.7,97l-.6-.4-1.2,1,.2.6,1-.2.6-1ZM1470.5,137.9h-.4v.4l1,.8.4-.4v-2.7l-1,2ZM1471.1,101.1l.8,1.2v.4l-1.4.4.2-.8-.4-1,.8-.2ZM1470.5,83.5l.2.2.2-.2v-.6l-.4.4v.2ZM1471.1,124l-.4.4.4.4.4-.4v-.2l-.4-.2ZM1470.9,80.9l.4.4.4-.6-.2-.2-.6.2v.2ZM1471.9,95l1.6.8v-.4l-.6-.4h-1ZM1472.1,90.9l.6,1.4,1.4.2.8-.4.2.8.6-.2v-.8l-.8-.8-.2.8-.2-.6-1.8-1-.6.6ZM1472.2,139.3l2.5.2.6-1.4-.8-1.2-.6.2-1.8,1.8v.4ZM1472.6,86l1.4-.6v-1.6l-1.4,2.2ZM1472.6,143.4h1.2v-.6l-.8-.2-.4.4v.4ZM1473,80.5l.6,1,.8.2.4-.2v-.2l-1.8-.8ZM1477.7,195.4l-.2-.6-.4-.2-.6-.2-3.3,3.5.4.4,1.4-.6,1-1.8,1.4-.2.4-.4ZM1474.4,148.3l.4-.4-.2-1-.4-.2-.4.2-.2.4.4.8.4.2ZM1473.8,131.1l.8.4,1.6-.6.2-1.6-.6-.8-2,2.5ZM1474.2,185.4l.2.4.4.2.6-.2-.2-1-.2-.2-.8.8ZM1474.8,74l.4-.6-.2-.4-.2,1ZM1474.8,77.2l1.2.2,1.2-.2.6.4,1-.2-1.2-.8-.2.2-1.4-.6-1.2,1ZM1475.4,103.5l.8.2.6-.8v-1l-1.4,1.6ZM1476.4,81.1v-.2l-.6.4.2.2v.2l.6-.4-.2-.2ZM1475.8,173.6l1.8,1v-.6l-.8-.6-1,.2ZM1476.8,126.4l-.8.4.2.6,1.8.8.4-.6v-1l-1.6-.2ZM1476.8,139.5l.4-.4-.8-.8-.4.6.2.4.6.2ZM1479.9,89.9l-2.7-3.9-.6,2.7.8,1v-1.6l.2-.2.8.2,2.5,3.1.4-2-1.4.6ZM1477.9,136.8h.8l.8-.8-.8-.4-.6.6-1.2-.2-.4.4.4.6,1-.2ZM1477.9,149.5l-.6-1.2v.8l-.6.6.2.6h.6l.4-.8ZM1477,147.2l.4.4.4-.6-.4-.4-.4.2v.4ZM1478.7,145.2l-1,1,1.4-.2-.6-2.2-.6.8.8.6ZM1479.5,140.9l.4-1.8-.6-.6-.8.2-.6,2.5,1.6-.4ZM1478.5,150.5h.6l.6-.4h-.6l-.6.4ZM1479.5,101.7l-.6.4-.2.6.6,1,.8-.4v-1.4l-.6-.2ZM1478.9,116.8v.4l.8.2v-.2l.2-.2-1-.2ZM1479.9,198.5l-.2-.4-.4-.2-.4.2v.2l.4.4h.4l.2-.2ZM1479.9,121.7l.4.2.2-.2v-.6l-.4-.2-.4.2.2.6ZM1480.7,114.4l.8-.4v-.2l-.2-.2h-.8l-.6.6.8.2ZM1483,190.7l-.6-.8-1,.2-.4.8-1.2.6,1,.6,1-.4.8.4.4-.4v-1ZM1480.3,81.7l.2.6.4.2.8-.4-.2-.6-.6-.2-.6.4ZM1481.5,106.8l.6-.6.2-1.4-.6-.2-.6,1.6v.6h.4ZM1484.4,116.2l-1.4-1.2-.2,1.8-1.8,1.6v.4l.2.2.6-.2,2.5-2.5ZM1482,148.5l.4-.6-.4-.4-.4.2v.4l.4.4ZM1481.9,102.3l.6.4v-.8l-.6-.4v.8ZM1483.8,156l-.2-.2-.4.2-.2.8.4.2.4-.2v-.8ZM1483.2,94.6l.4.4.4-.2v-.6l-.2-.2-.4.2-.2.4ZM1483.2,97.4l.4.2.4-.2v-.4l-.4-.4-.4.2v.6Z"/>
    <path class="st3" d="M1650.4,129.9l.6,11.4v3.1l.4,25.9v3.3l-.2,1.6-.2,3.3-.6,9.4.2,11.4-.2,2.7-.8,2.4-1.6,2.2-2,1.4-1.8.6-2.7.2-10,.4-3.1.2-4.9.2h-3.1l-2.5-.6-2.4-1-2.4-1.8-1.8-2.5-2.9-5.7-1.8-2.5-7.6-9.6-2-2.4-7.6-9.4-1.8-2.5-6.9-10.2-1.8-2.4-7.6-9.4-2-2.4-7.3-9.6-1.8-1.6-1.4.6-.6,2.4-.4,9.8v3.1l.2,9.8v3.1l.2,11v3.1l-.6,11,.2,3.1,1.2,7.8.2,3.1-.6,2.5-1.4,1.4-1.4.4-2.4.4-1.6.2-3.3.2-9-.2h-3.1l-8,.4h-3.1l-2.9-.2-2.2-.4-1.6-1-.8-1.4-.4-2-.2-1.4v-2.9l.4-6.5.2-3.1-.6-10.4v-3.1l.4-23.9.2-3.1.6-10.4.2-3.1v-13.5l-.8-10.4v-3.1l.8-10.4-.2-3.1-.8-10.6-.2-3.1v-4.5l.2-2.9.4-2.9.4-2.2.6-1.4,1.2-.6,2.2-.4,5.9-.4,5.9.4h14.7l2.4.2,1,.8,1.2,1.8,8.2,8.8,2,2.4,7.3,9.4,2,2.4,7.3,9.6,2,2.4,7.1,9.8,1.8,2.4,7.4,9.4,2,2.4,7.1,9.8,1.6,1.4,1.6.2,1.4-1v-2.2l-1.4-8.2-.2-3.1.6-8.4v-3.1l-.8-12v-3.1l.8-12-.2-3.1-.6-7.3v-4.9l.6-2.5.8-1.6,1.4-.8,2.4-.4h1.8l3.3-.2,8.8.6h3.1l6.7-.4,2.9.2,4.5.2,2.2.4,1.4.6,1.2,1.4.4,2.7.2,1.8.2,3.3-.4,6.1-.4,3.1-.6,11.6-.2,3.1v29ZM1525.4,149.3l-.6-1-.6.6.8.8.4-.4ZM1531.6,144.2l-.6-.8v1l.4.8.2-1ZM1534.2,181.3l-.4-.2-.4.2-.2,1,.6.2.4-.2v-1ZM1538.7,177.9l-1.8-1.2-2.7-2.7-.6.4.6,1.8,2.5,1.2.4.8-.2.8.6.6.6-.2.6-1.4ZM1533.8,154.2l1.2,2.2,2,1.4h.4l.4-.6-.6-.8.4-2.5-2-.8-1.8,1.2ZM1544.8,185l-.4-1-1-.4-.8-1.6-.6,3.5.4.4h1.4l1-1ZM1545,147.2l-1.4-.6-.8.4-.4.8,1.2.8,1-.4.4-1ZM1545.6,126.2l.8-.4.2-.4.4-.2.2-1.2-.8-.6-1,.4.2,2.4ZM1547.5,198.1l-.2-1.4-1,1-.2,1.2.6.2.8-1ZM1552.2,142.3l.4-1.2-1.4-1-2.4.8-.6,2.4,3.9-1ZM1550.7,165.4l-1.2-.8h-.4l-.2.6.2.8,1.2-.2.4-.4ZM1552.4,130.9l1.2.8-.2-.8-.2-1,.6-.6v-.8h-.8l-.6,2.4ZM1553.6,152.8l.2-.8.6-.8-.2-1-.4-.2-1.2,1.2v1.2l.2.2-.2,1.4.8.6.8-.8-.6-1ZM1570.6,135.6l-.6-.2-.4.2-.2.8.4.2.8-1ZM1574.6,137.4l-.8-.8-.8.6-.2.8-1,.8,1.2.2,1.6-1.6ZM1577.3,129.9l-.6-1,.4-.6-.2-.8h-.8l-.4.8,1.2,1.6h.4ZM1579.1,133.6l-.6-.8-.4.2v.8l.4.4.4-.2.2-.4ZM1581.2,146.4l-.4-1-.8.8-.8,1.4.8,1.8.2-2.7,1-.2ZM1583,142.7l-1.4-1.2v-.8l-.4-.6-.6.6,1,1.8,1.4.2ZM1583.2,136.6l-1-1.2h-.8l-.4.8.4,1,.6.4,1.2-1ZM1584,128.3l.8-.2.2-.6-.4-.8-1.8-.4.4,1.6.8.4ZM1585.3,136h-.8l-.2.4.4.8.4-.2.2-1ZM1585.3,147.7l-.4-.6-.6.6v.8l.4.2.4-.2.2-.8ZM1585.5,139.5l2,2.7,3.5,5.3,1.8.4-4.5-5.3.2-1.2,1-.8,1,.6,1-.6.2-.8-1.6-1.6-.4-1.6-.6-.6-1.6,1.2v.8l-2,1.4ZM1586.7,153.8l-.4-.4-.6.8v1l.8-.6.2-.8ZM1587.7,147.2l-.2,1.2,1.6-1-1.2-2.4-.8-.4-.6.6,1.2,2ZM1589.5,151.9l.4-2.4-2.9,2.2.2.6,2.4-.4ZM1605.5,169.7l2.7-.2v.2l1.8.6.8,1,1.4-.2,1.8-3.3,2.2-.4-.8-2.2,2-1.8v-.2l-2.4,1-2-.4-1.2-1.6.4-3.9-.8-.6-2,1-.2.8-2.4,1.2-.4-1,1.4-3.9-1.8-2.2-1.8.6-.8-.2-.4-1.2-1.2-.6-.8,1.6,1.4,1.6v.2l-1.4.8-1.4-.6-.4-1.6-1,1,.4,1.4h.2l-1.6.4-1-1,.2-.4-.2-.4.6-1-.2-1.2,1-1-.2-1.2-1.6,1.4-3.5-1.2.4-1.2-1.2-.8.2,2.4.8.6h1l.6,1,1.8-.8.6.8-.6,1,.4,1.2-1.4-1.2-2.5-.2-.4.4.2.8,1.4.2.4.4-.8,1,.6.8,1-.2-.2,1.2h-2v-.6l-1.6-1.2-.6-2.4-1.2-1,.4,2-2,1.2.2,2.4.6.6.2,1-.8-.2-.2,1,3.5,1.8,1.2-1.8,3.9-1.2v.2l.2.2.8-.6.4.4h.8l2.7,3.5,1.2-.2v-1l-.8-.8.6-.8h1l.4,1.2,1.2.2,1.2-.8,2.7,1.6v1l.6.6-.4,1,.8,1-.2,1-1,.2-1.4-.6.2.8-1.2.6-2.4-1.8-1,1,.8,2.2-1.6,1.8-2,.6-.2,2-.6.4.4,1.6h1.2l4.5-6.5ZM1591.8,143.4l-.6.2-.4.6,1.4-.2-.4-.6ZM1592,137l1.4,1.6.4-1.2-.4-1.4h-1l-.4,1ZM1599.5,143.4l-2.2,2.4v.6l-3.5,2.5.2.6,5.9-1.6.4.4h.6l1.2-1-1.2-1.6-.4.6.2,1-.8-1.4.2-.4-.2-.4.2-.2.2-1,1.4-.4.2-.4-.2-.6-2.5-1.2-.2,1.2.6.8ZM1594.8,165l2-.6.8,2.5,2.9-.2.4-1.2-1,.2-1.2-.4-1.2-4.3-.8,1.8-2.4.8-.2.6.6.8ZM1594.6,145.4l.6.2.4-.2.4-.4-.6-.8-.8.8v.4ZM1594.9,141.5l1,1,1.6.2-.4-1.4-1.2-1-.8.4-.2.8ZM1599.1,169.3l-.8-.6-1,.2-1.4-.6,1.6,2.9h.6l.8-.8.2-1.2ZM1601.2,149.5l-2.4-.6.8,2.4,1.6.8,1-1.2-1-1.4ZM1600.6,168.3v1l.6.6.6-.6-.4-1-.4-.2-.4.2ZM1604,177l-2,1.6.2.4.4.2,1.2-.6.2-1.6ZM1603.4,165.8h1.2l3.9.8-1.2-1.6-1.8.4-.6-1.6-2.2,1.2.6.8ZM1603.2,151.7l1.8-1.4h-1.6l-.2,1.4ZM1606.1,151.1l3.1,3.7-1,3.1h1l.8-.6h.2l.8-.8-1.8-4.9-3.1-.6ZM1608.7,176l2,.4,4.7.4-1.4-1v-.8l-1-1.6h-1.8l1.8,1.6-.2.6-.8.6-3.3-1-2.4.6.6,1.6,1.2.8.6-2.2ZM1608.3,171.9l-1.2.6-.4,1,.6.8.6-.2.6-.8.6-.2.2-.4-1-.8ZM1611.8,184.4l-.2-.8-.8-.2-2.4-1.8.2,1.6,2.5,2,.6-.8ZM1612,178.3l-.8-.4-.8.4-.4,1,.4,1.8,2,.8-.4-3.5ZM1616.9,192.4l-.6-2.4-.4-.4.2-2.2-1.6-1.4-1.4.2-.4,1.4-.6.4,3.3,2v1.4l1.2,1.2.2-.2ZM1617.3,169.9l-.8-.8h-2l-1.2,1,.2,1,2.9,1,.4-1,.4-1.2ZM1614,161.9l2-.4.6-2-1.8.6-.8,1.8ZM1617.3,174.8l-.2-1.2-2.2-.4-.4.8,1.2.8h1.6ZM1615.5,178.9h-.4l-.4.4v1l.8.6.6-1-.6-1ZM1617.7,184.4l-.6-1-.4.2-.2.4,1,1,.2-.6ZM1617.5,168.3l1,.4-.2-1-1.2-.4v.4l.4.6ZM1618.5,177.2l.4-.4v-.4l-.4-.4-.6.2-.2.4.2.4.6.2ZM1618.1,128.9l.6,1,.2-.2v-.2l-.2-.2,3.9-.8.2.6-.2.8h-1l-1.8,2.2,1.4,3.1-.2.8.6.6.4-.2v-.4l.8-1,.2,1.4.8.8.2,1-2,1.4-.6,1.4,1.6.4.6.6,2.7.2.2.4.6.2.4-.6-2.5-.8-1-2.5,2.5.4,2,1.8.4-2-5.9-4.5.4-.8,6.7-2.4-.2-1.2-.8-.6-1.6,1-.8-.2-.2-.8.8-1.8,2.5-.2,1.2-2.9v.2l2-2.7-.4-1.2h-2.9l-1.6-2.7-.4.4.2.8-.2.2h-.8l-.6.4,2.4,5.1-.8.8-3.9-4.5-4.7,5.1h-.2v.2l-.8.6-.2,1.8ZM1620.8,181.7l-1-.2-1,.4,1,.6h.8l.2-.8ZM1621.2,170.7l.2.4h.4l.4-.6-.2-.4h-.2v-.6l-1.8-1-.6.4.2,1,1.6.8ZM1619.6,173.2l.4,2.4.6-.4-1-2ZM1620.4,146l-.6,1.6,1.2,1.4v-4.9l-.8,1.8.2.2ZM1619.8,153.6l.8.8.4-.4-.2-.4-.8-.2-.2.2ZM1620.6,155.4l-.2.2v.4l.6.6,1-.2-1.4-1ZM1620.6,103.6l.6.6.6-1h-1.2v.4ZM1623.6,163l1.2-1.4-1.6-1.4-.2,2.4-2.2,1.8v.4l.4.2,2.4-2ZM1627.9,173l.8-.6,1.4-.6.2-3.1.8-.4.8-3.7-2.4-5.5-1.2.2-.6-1.4.4-1.2-.6-.6,2.9-2.2.2-.8,1.2.2.4.6h.8v-.2l.2-.2-1.2-1.2-1.4-.2-.2-1.6,1.4-.2,1.8.8.4-.8-2-2v-.4l1.4-.4.4-1.2,1.6-1.2-.2-2.5-.6-.2-.8-1.2-.8.4-.2.4,1,1.4-.2,1h-.4l-.6-.6-2.4-.2-1-3.5-1,2.7.6.4-.2,1.4-1.6,1.2.8,1h2.4l1.4,1.6-2.5,2.7-1.2-.6-2.9,2.4,1.8,1-1.8,2,.2,1.4-.4.8.2,1h.8l.8-.6.8,1.2-.2,1-.6.6-.2,1.2,1.2,1.2v.8l-1.4.2-.8,1,.2.8,2.5,1.2.4,1,.8.4.2,2.4-2.4.4-2.5-1.6-1.8,3.5-1.8.4,1,.6.8-.6v2.9l.6.4.8-.2.4-.4-.2-.6h-.6v-1l.8-.8.4-1.8h.8l.6.4h.6l.6,1.8.4-1.8ZM1622.2,99.5l-.6,1.4-.2.4.4.6h.8l.6-1.6,1.4.8.6-.2,1.4-2v-1.4l-1.8,2-3.3-1.4.8,1.4ZM1622,106l-.4.6.4.8h1l.8-.2-.8-1-1-.2ZM1628.9,113.4l-.6.4h-1.6l-.4-1.2-2-1.2-2.2,1-.6,2.2.2.6h.2v.2h.2v-.2l1.4.6-1.6.8,1.6.2,1.4-.6-.2-1,.6-.6,1.6.6,1-.4,2.2,1.2.2,2.9-.2.4,1,.6h.8l1-1,.2-1.4-.2-1.8-2.2-1.2-.2-.8.2-.4-.2-.4-.6-.2-.4.6h-.6ZM1622.6,131.3l.8.8v.4l-.2.2-1.4-1.4.8.2v-.2ZM1623,181.7l-.4-.8,1.6-1.6-1.6.4-.6,2.2,1-.2ZM1624,104.2v.2l.8.2.4-.4-.8-1.8-1,.2-.2.8-.6.4.4.8,1-.4ZM1622.8,143.4l.8-.2.2-.4-.2-.4-.4-.2-.6,1,.2.2ZM1622.6,156l.8.2.8-.4-.2-.2-.8-.2-.6.6ZM1627.7,187l-2.5-3.5h-1.2l-.8.8.2.8,4.3,2ZM1624.7,131.7l-.8-.2v-.6l.6-1,.4.4.6-.2-.8,1.6ZM1625.3,149.5l.2-.8,1-.2.4.4h.6v-.6l-.4-.2-1.2-2-.8-.2h-1.2l.2,4.7.8.4.6-1-.2-.6ZM1625.1,188.1l-.8-.6-.2.2.2.8h.4l.4-.4ZM1625.7,144.4l.2-.6v-.6h-.6v.6l.4.6ZM1626.1,183.4l.4-.6-.2-.4h-.2l-.6.4-.2.6h.8ZM1627.3,106.6l-1,1v1.4l.8.4,1.8-.8.4-.8-1-1.4-1,.2ZM1641.4,120.1h-.6l-.4.8-.2.6-1.4.8-1.8-1.8-2.4-.6-.6,3.3,1,1.2.2,1.2-2.4.8v.4l-.6.8.8.4v1.8l-1.4.2-.6-.6-1.8,3.3-1.8.6-.4,1,.6-.4h.8l1.6,1.4.8-1-.4-1,.2-.2,2.9,1,.4,4.3-2.2-1.4v2.2l1.8.2.2-.2,1.6.4.8,1.2,1.4.4,2.5-2.7h-1.4l-.6-1,.2-1.2-.6-1.4-1.4,4.9v-.2l-1-1,1-6.5,1.4-.6-1.4-1-.2-1,1.4-.6.4-.6-.8-.4.2-.8.8-.6h1.2l.4,2,.8-2.9-2.2-2v-.8l1.8.2,1.4-1-.2-.8.2-.6-.2-.6ZM1631.4,137l-1.4-.4-1-.2-.8-1.2-.4,1.4,2.4,1.2,1.2-.8ZM1628.3,153.6l-.2-1.6.4.8.2.8h-.4ZM1633,176.8l-1.2.6-1.4-.2h-1.6l-.6.6v.2l1.8,1,.4-1.4,1.6.6,1-1.4ZM1629.8,163l-.6-.2h-.4l-.2-.2v-.2h.2l.4-.6,1,.2-.4.4v.6ZM1629.4,109.5l.2.6,1.2-.4.8-1-1-.4-1.2,1.2ZM1631.2,174l-.6-.2-1.2.6,1.2,1,1-.8-.4-.6ZM1630.8,183.8l-1-1.8-.4.2.2,2.9,1.2-1.4ZM1629.8,164.6l.6-.4.2,1,.2.2-.6.8-.6-.4v-.4l.2-.2v-.6ZM1631.8,154.6l-1.2,2.2-.4.4v.4l1.4.8.4-.8-.2-2.9ZM1631,179.5l-.6.6-.2.8h.4l.4-.6v-.8ZM1630.8,141.1l.4.4.4-.2v-.6l-.4-.2-.4.2v.4ZM1631.2,104.2l1.2,1.2v-1l-.2-1,.2-.2,1,.2,1.6,1.8-2.9-4.1-.8,3.1ZM1632.6,107.2l.8.2.2-.6-1.8-.4.8.8ZM1637.3,109.3l-.4.6-2.5.8-1.2.4-.6,1v.2h.2v2.7l.6.4,1-.2.4-2.7,1.4-.8,1.6.8.2.8.6.4.6-.6.2-1h.2l.2-1-.2-.4.8-1-.4-1.4-1.2-.2-.8,1-.6.2ZM1636.5,157.2l-1-1.4-2.7,2.4v.4l2.9.2.8-1.6ZM1633.4,163.4h1.4v-.8l-1-.2-.6.6.2.4ZM1634.5,172.6l-.2-1.2-.6-1-.6,2.2.4.4,1-.4ZM1636.9,145.8l-1,.6-1.4,2.4,1,.6,1.8-.8.2-1.8-.6-1ZM1636.1,168.1l-.4-.6-.6-.2-.4.2-.2.6.4.8.6.2.6-1ZM1635.1,103.6l.4.2.4-.2.2-1-1-1v2ZM1636.9,104.8l-1.8.8,1.4,1.6.4-2.4ZM1636.5,153.4l.8-.6.4-1.2h1l-3.3-1v.2h.2v3.7l1-.2v-1ZM1637.5,114.6l-.4-1.4h-.8l-.4.6v.8l.4.6.6.2.6-.8ZM1637.1,115.8l-.6,2.4h.8l.4-1.2-.6-1.2ZM1637.3,110.7l-.2-.4.8-.2h.8l.2.2-.2,1.6-.8.4-.2-1.4-.4-.2ZM1639.2,145.2l.6-.6-.2-1.2-.8-.4-1.8.6.2.8,2,.8ZM1637.5,158.5l.6.2.4-.2v-.4l-.8-.8-.4.6.2.6ZM1639.2,155.4l.2.2h1l.8-.8v-.6l-2.2.6-.6-.4-.6.6.4.6,1-.2ZM1639.1,174.8l-.4-.6-.4.2-.2,1,.4.2.4-.2.2-.6ZM1638.7,119.1l.4-.4v-.4l-.8.4.4.4ZM1638.9,167.2l-.4.2v.4l.4.4.4-.4v-.6h-.4ZM1639.6,170.5l-.2-.8-.6-.6v1l-.4.6v.8h.8l.4-1ZM1641,166.2l-.6-2.5-.8,1,.8.8-1,1.2,1.6-.4ZM1641.8,158.1l-.8-.6-1,.2-.4,3.1,1.8-.6.4-2.2ZM1640.4,113.4l-.6.2v.6l.4.4h.4l.2-.4-.4-.8ZM1640,118.2l.4.2.4-.4v-.4l-.4-.4-.4.2-.2.4.2.4ZM1641.4,132.5v-.2l-1-.4v.4l1,.2ZM1642.4,137.4l-.2-.4-.4-.2-.4.2-.2.4.2.4.6.2.4-.6ZM1643.2,128.5l-.2-.6-.8.2-.8.8,1,.2.8-.6ZM1643.2,120.1l1-2.4-.8-.4-.4,1-.4,1.2.2.4.4.2ZM1644.9,168.5l-.4-.4-.4.2v.4l.4.4.4-.6Z"/>
    <path class="st3" d="M1832.9,205.8l-1.4,2.2-2.2,1-2.5.4h-2.7l-4.5-.4-2.9-.2h-8.8l-12.2.8-2.5-.8-1.2-1.6-1-2.2-6.1-16.5-1.4-2-1.8-.4-2.4-.2-11.8-.8h-3.1l-14.7-.4-11.8-.2h-2.9l-2.9.2h-9l-2.5.4-1.6,1-1.2,2.4-4.5,13.3-1.2,3.1-2.2,2.5-2.9,1.2-3.1-.2-11.4-.6h-3.1l-12.2.8-2.5.2-2.4-1.2-1.6-2.2.2-2.5.4-1.6,1.2-3.1,2.7-6.1,1.2-2.9,4.9-11,1.2-2.7,5.1-11,1.2-2.9,4.5-10.6,1.2-2.9,5.3-11,1.2-2.7,7.1-16.1,5.5-11.8,1.4-3.1,4.3-8.8,1.4-3.1,3.7-9,1.2-2.9,3.5-8,1-2.2,2-1.2,2.9-.6,9-.4h15.3l9,.2,3.3.6,2.2,1.6,1,2.5,2.7,7.6,1.2,2.9,4.9,9.2,1.2,2.7,4.3,9.6,1.2,2.7,3.5,10,1.2,2.7,4.3,9.4,1.2,2.7,4.3,9.6,1.2,2.7,3.9,9.8,1.2,2.7,6.1,12.2,4.7,9.2,1.4,2.7,5.3,12.3,3.9,9.8.6,2.7ZM1693.9,181.7l-.8-.4-.4.2v.4l.4.4.8-.2v-.4ZM1719.2,173.2l.6.4v.2l.6.4,1.2-.6v-.4l-.4-.4-.6.4h-.2l-.2-.8-.8-.8v-.6l.6-.8h.8l1-2-.6-.4-2.2.6.4-.8-.2-.4-.8.2-.8.8.6.4.8-.2.4.6v.2l-.8.2-1,1-2.5-2.7-.4,1.6,1.2,2.5-.4,1.2-2.2-3.5.2-2.5-.6-1.2h-1.2l-2.4-1.4-2.9,2,.8,3.5-.2.2-2.4-2.7-2.9-.2-2.9-2.5v-2l1.6-1,.4,1,1,.4.8-.6-1.4-2,2-1.2-.4-.2-.4-.8-.8-.4-.2-.8-1-.2-.2.6.2.6-2.5,2.5-.2,2.5-1.2,1.6,1.6,1.8-.2.2v-.2h-.8l-3.1,2.2,1.2,1,2-1.6,1.2.2,1.4-1,3.1,1.4.4,1.6,1.6.4-.2.2v.2l3.9,1.4.8-.8v-1.2l.2.2.2-.2,3.1.4.8,1.4-1,1.4-1-.4-.4-.8h-.6l1.8,5.9-.4.2-.2.4-.6-.6-.8-.2-.2.2v-.2h-2.4l-3.1-4.3-.6,1.4-1.4.6-.2,1.2.6,1,1.2.2.8-.6-.2-.6.4-.6,2.9,2.9,1.4-.2,1,1.2,1.6.2,1-.8.6,1.4.2-.2h.2l-.2-1-.6-.6.4-1.6,1.2-.8.8-2h1.2l-.2.8.2.2.6-.4.2-.6h-.4l2-1.8ZM1695.3,191.7l-1.2,1.2.4.6.6-.6.2-1.2ZM1695.7,187.5l-.2-.4-.4-.2h-.4l-.4.4.2.4.4.2.8-.4ZM1699,170.3l.4-.4-.2-.6h-.6l-1.2,2-1-.2-.6.6v2h1l.4-.6,3.3.4-1.6-3.1ZM1703,180.9l-.8-1-1.2-.2-3.7-2-1,.2v.6l5.1,2,.8,1.8.8-1.4ZM1700.2,183l-2.4-.6-.8,1.8-.2.6.4.4,1.4-1.6h.8l.8-.6ZM1698.4,174.8l-.4.4v.6l.6.8.6-.2v-.8l-.8-.8ZM1702.6,187.3l-.4-1h-.2l-.2,1,.6.2.2-.2ZM1702.4,154.8l.6,2,1.4,1.6,1.6-1v-1.8l-3.3-1.4-.2.6ZM1703.7,153l.2,1.4.4-1.2,1.8.8,1.4-.2-2-2.5-1.8,1.8ZM1706.7,161.3l1-.4.4-.6-.8-.6h-1.6l-.6-.6-.8.2v1h1l1.4,1ZM1706.1,162.8h-.6l-.4.6v.4l1,.4.6-.2v-.6l-.6-.6ZM1707.1,182.4l-.4-.6-.8.2-.6.6-.2.8.6.4h.8l.6-1.4ZM1706.9,190.9l-1-.4-.6.6.2.4.6.2.6-.2.2-.6ZM1707.1,151.9l1-.6.2-.8-.2-.6h-.4l-.6,2ZM1708.4,157.9l.2,2.5,1.2,1,.6-.2-1.8-5.1-.8-.2-.6.2-.2.4.2.8h.6l.6.6ZM1708.1,146.6l1.4.8.4-.8-.8-.8-1,.4v.4ZM1708.6,154.2h.4l.4-.4-.2-.8-.4-.2-.4,1,.2.4ZM1708.8,175.2h.6l.4-.4v-.8l-1-.6-.4.4v.8l.4.6ZM1709.6,143.8l1,1h1.2v-.8l-1-.6-1.2.4ZM1713,146.4l-1.8,1.4.2.4-1.6,1.2.6,2.2,2.5-5.1ZM1719,162.3l-.6.6-.4-1.6-.8-.6,1.4.2,1.4-2-.2-1.2-3.9,2,.6.8-.2,1.6,1.4-.4.6,1.4-.4.2-2.5-.8-2.5-2.7-.4-2.2-1.2.2-1,1,1.2,2.4,1-.6,1,.8-1.2,2.2,1,2h1l.4-.6-.4-.8.2-.6.6-.2,3.3,1,.4-.4,1.4,1.6-.2-1.2.4-.4v-.2l1,.2.6-3.7.4.8.2-1.8h-.6l-2.7,3.1ZM1711.6,157l.6-.4-.2-.6h-1l-.4.8,1,.2ZM1714.5,152.5l-1.8.6,1.8.4.6-3.1-1.2.6.6,1.6ZM1716.1,156.8l1.4-1.6-.4-1.6-1.2-.2-.2,1-2,2,2.4.4ZM1714.1,147l2.2,2.4,1.6,1.8-1-4.7-1.2-.8-1.4.6-.2.8ZM1714.9,144.2l.4.2.6-.2-.6-1-.4.4v.6ZM1716.3,166v-.4h-.6l-.4.4v.6l1-.6ZM1715.9,167.9l.4.4h.4v-.6l-.4-.2-.4.4ZM1716.1,141.3l1.8-.4.6-.8v-.6l-.4-.2-2,2ZM1717.9,153.4l-.2.6.2.4.8,2.4h.2l.2-.2.4-2.9-1.6-.2ZM1718,146.2h.6v-.6h-.8l.2.6ZM1718.4,137.2l.2.8h.4l.2-.2v-1l-.8.4ZM1718.6,149.9l.4,1h.8l.6-.6-.2-1.2h-.8l-.8.8ZM1723.9,176.4l-.4-1v-.4l-2.4,1-1.6-.8-.2.2v.2l.6.6,1.2.2,1,1,1.4-.2.4-.8ZM1720.2,171.3l.6.4.6-.2v-.4l-1.2.2ZM1733.7,170.3h1.6l-.4-1h-1.2l-.2-.2h-.2l.2-1,1-.6,1,.6-.2-1-1-.2.6-1h1v.2l1.2,1.2v1l.8.2.2-.4-.2-.8,2-1.4.6.8.8-.2-1.4-1h-.6l-.8.8-.4-.2-.2,1.2h-.8l-.2-.8-.6-.2,2-1.2.2-.8-.4-.2-1.2.8v-1h-.6l-.4.6-.6-.6h.2l.6-1,2.5.2.6.6,1-.2-1.2-.6.2-1.6-1.2-1-.6.2-.6-.4h.2l.2-.4-.4-.4-2.4,1,.4,1.4-.8,1-.2,1.4h-.4v.6l-3.5.4-.6.6.6.4h.8v.6l-.4.4-.8-.2-.6.4v1l-2,.8-.4-.4h-.6l-.4-.6-1-.2-.2-.4.2-.6,1-.4-.2-.2h-.2v-.8l2-.4v-1l-1.2-.2v-.2l-.2-.2.2-2.7-.8-1v-.4l-1-.4-.4.6,1.2,4.9-1,1.4h-.4l-.8.6h-.8l-.4.8.8,2.4-.8,1.2,1.6.4v1.8l1.6-2.4,1.4.2,1.8,2-.2.2v.4l-.6.2-.2.6,2.2.4,1.2,2.7.6-1.8-1.4-1.2-.2-.8-.8-.6v-.6l.4-.6v-.6l-.4-.6.4-1.6,2,2.5h2l.4-1.2h.2l.2-.2ZM1722,150.5l1,.6.2-1-.4-.8-.4.2-.4,1ZM1722.2,132.7l.4.4.8-.6.4-1-1.6,1.2ZM1725.5,174.4l.6-1.2-.6-1.2-.6,1.2.6,1.2ZM1726.5,176.4l1.8-.4-.8-.6-2,.4v.8l.6.2.4-.4ZM1726.3,108.7l.4.4h.4l.4-.8-.2-.2-.8.2-.2.4ZM1729.2,178.3l-.4-.6-1-.4-1.2.4,1.8,1.4.6-.2.2-.6ZM1728.8,163.2l.4.8.4-.6.6-.4.8.2.8.8,1,.2-.4-1.2.6-1.4-.2-.4h-.6l-.6,1.2-1.6-.6-1.2,1.4ZM1729,104.8l1.4,1.6v.8l-.4.4.8.8.8-1-1.4-2.2v-1l-.6-1h-.4l-.2,1.6ZM1731,159.3v-.2l-.4-.2-.4.4v.8l.6.6,1.4-1-.2-.6-1,.2ZM1732.8,158.1l.4-.6-.4-.6-.8-.2-.6.2.4.8,1,.4ZM1731.6,114.4l1,.4,1-.2.2-1-.6-.6v-1.4l-1,.6-.6,2.2ZM1733.5,179.3l-.4-.6-.6-.2-.2.4.2.6-.2.4.2.2.6-.2.4-.6ZM1732.8,175l.6-.8-.6-.6-.2.8.2.6ZM1732.8,160.1l.6.2.4-.4-.4-.4-.6.6ZM1737.5,173.8l-1.6-.6-1,.4.2,1,2.4-.8ZM1766.9,147.7l-.8-2.5-4.3-13.3-1-2.9-3.9-11.6-1-2.5-2-1.4-2.5-.6-2.2.6-2,2-5.3,13.3-1.2,2.9-5.1,13.1-.6,2.9.6,2.4,2.2,1,2.7.4h12.3l9.2.6,2.5-.8,1.6-1.6.6-2ZM1736.7,155.8l-1,1.6,1-.6v-1ZM1736.5,157.2l1,.4,1-1.2-2,.8ZM1741.8,174.4l-.4-.6-.6-.2-.4-2-.2-.2.4-2.5-.2-.4-.4-.2-2.4,3.9.2,1,1.2.2-.2-.6-.6-.2v-.2l1.2.4v.2h.2v.4l.4.4v.6l-.2.2v.2l.4.2,1.6-.6ZM1739,158.7l1,1,1-.4.6,1,.8-.6h.4l.2-.2-3.9-.8ZM1739.4,93.7l.2.4.6.2h2.9l.6-.6.2-1-1.4-1.2h-1l-2.2,2.2ZM1740.4,157.4l.6.2,1-.6-1-.6-.6.2-.2.4.2.4ZM1741,161.9h.4l-.2-.6-.6-.4v.6l.4.4ZM1748.2,169.3l-.6-.4.2-1.6-6.1-.6-1.2.8,4.5-.2.6.8v.6l-.8.4.2,1.2,1.6-.2,1.4.6.2-1.4ZM1740.8,164.2l1,1.2.2-1.4v-1l-.4-.2-.8,1.4ZM1741.6,170.3h.6v-.4l-.4-.4h-.2l-.2.4.2.4ZM1743.9,171.7l-.4-.4h-.8l-.8.8,1,.4.8-.2.2-.6ZM1742.7,105v.2h.4l-.4-.4v-.2l-.6-.6v.4l.4.6h.2ZM1743.3,164.6l-.2,1.2,1.8.4.6-.2-.2-.4h-.8l-1.2-1ZM1744.1,168.5l-.2-.4-.2.2-.2.6h.4l.2-.4ZM1744.5,163.8l.6.2-.2-.6-.4-.4h-.2l.2.8ZM1745.3,106.8l.2.6h.6v-.4l-.6-.8v-.4l-.2.2v.8ZM1747.1,174.2l-.2-.4-.6-.2-.4.2-.2.4.2.6h1l.2-.6ZM1747.3,161.9l-.2.6.6.2-.4-1.8-1.2-.2,1.2,1.2ZM1747.1,84.6l.2.2h.4l.4-.4-.4-.4h-.4l-.2.6ZM1748.2,98.2l-.8,1,1,1.2.6-1.2-.2-.6-.6-.4ZM1750,165v-.4l-1.2-.4-.6.6,1-.2.4.4h.4ZM1750.8,168.5l-.4-.6-.4.4.4.4.2-.2h.2ZM1750.4,89.7l.6.2.8-.4-.8-.2-.6.4ZM1753.5,103.3l-2-.4.6,1.2v2l1,.2.8-.8-.4-2.2ZM1755.1,162.3l-.4-.6v-.8l-.8,1.2.4.8h.6l.2-.6ZM1754.9,166.6l-.4-.4h-.4v.4l.6.2.2-.2ZM1756.9,161.7l.4-.4v-.4h-.6l.2.8ZM1758.4,167.7l-.2-.6h-1.2l-.2.2.2.2h.4l.2.4.6.2.2-.4ZM1760.4,107.2l1.4-.2.6.4h.6v-.6l-.8-.2-1-.2-.8.8ZM1767.1,101.7l-.2-.8h-2l.6,1,1.2.6.4-.8ZM1770.4,132.5l-1.6-1.6-.6.2-.2,1.2,1.6,1.6.8-.4v-1ZM1770.8,127.6l.6,1.2.6-1.4-.2-1.2-.8.2-.2,1.2ZM1774.3,142.8l-2.4-.2-1,2,2-.2,1.4-1.6ZM1780.4,153.8l2.2-.2.8.6.2,1.4,1,1,1.2-1.4-1-2.4,1.8-.4,1.4.8v2l1.2-.8v-1.8h1.8l.8,1.6-.4.2v.6l-.8,1v1.2l-1.4.8-.2,1.2h1l1-.8,3.7,2.2-1,1.2,1,1.2.6-2.5-.6-1-1-.2-.6-.6v-.6l-2.2.2-.4-1,1-.8-.2-1.4,3.1,2.4,1.6-.2-.2-.8-.6-.6-.8-.2-.4-.4,1.2-1-.4-.8-1-.2.4-1.2,2,.6,2.2,6.5.2-2.4,2.5-.8.4-2.5-.4-.8.2-1,.6.4.4-1-3.1-2.9-.8.4-.4.8-5.3.4v-.2l-1,.4-3.1-5.5-1.4-.2-.2,1.2.6,1.2-1,.4-.8-.2-.4-1.4-1.2-.6-1.4.8-2.5-2.7.2-.8-.4-1,.6-1-.2-1.2-.4-.4.8-.8h.8l1.4,1.2.2-1,1.2-.2,4.3,4.3,2.2.4,1.2,1v4.7l1.2-1.6,2.7-.2.6-.6-.4-1-2.4.2.2-2.4-.4-.6-3.1-.8-1.8.8v-.2l-.6-.4-.8-3.7,2.7-2.4h2.2l.8-2,.6-.4.2-1.8-1.4-.2-6.9,5.5-4.5-2-.6-1.2h-1.6l-.8,1.2.6,1.6h-5.1l.4,2.5-2.7,1.4v.2l2.7-.4,2.2,1,.8,2.2-1.8,3.9.8,1.2,5.7-2,.2,1-2.5,3.7,1.2,2.9ZM1771.6,134l-.2,1.2.8.6h.4l.2-.2-1.2-1.6ZM1772.5,119.3l2,.4-.6-1-1-.2-.4.4v.4ZM1773.5,126.2h.6l.4-.4-.4-.8-.4-.2-.6,1,.4.4ZM1773.1,133l.6,1.2,2,.6,1.6-.8.2-1-2-1.8-1.2-.2-.6.8-.6,1.2ZM1774.3,127.8v1.4l.8,1h1.4l.6-.6-1-1.4-1.8-.4ZM1779.8,156.6l-2.5-4.9,2.2-2.9-1.2-.4-2.2,1.2-.2,1.4.8,1.4-.2,2.9,3.3,1.4ZM1776.7,118l.4.4h.4l.4-.4-.4-1-.4-.2-.4.4v.8ZM1777,126.2l1.2,1.6-.2.8.6,2,2,.4-1.4-2.2v-.2l1.2-.6,6.3,1.8-1.4-2.7-1.2,2-7.1-2.7ZM1778.6,122.7l-.8-1-.6,1,.2,1.2.6.2.4-.4.2-1ZM1780,111.7l-.8,2.7,1.4,2h1.4l1-1.4.8-.2-2.9-3.1.4-1.4-.6-1.4-.4-.2-.4.2-.4,1.2.6,1.6ZM1782.5,158.3l.4-1.4-2.2,1,1.8.4ZM1781.8,121.7l-.8,3.7,1,.8.8-.2.8-1v-2l-1.8-1.4ZM1786.8,141.5l-1.6-.4-3.5-2,.8,2.2h2l.2,2,2.4-.4.4-.4-.6-1ZM1792.5,162.5l-.2-.6h-6.7l-.4-.6-.8-.2-1.4.8.8,2.2.8-1.8h.2l.2,1.8-.2.2v.6h-.2l-1.6,1.4-.6-.2-.4.4,2.4,2.5.6-1-.4-1.2,2.9-2,.2-.6,4.7-1.8ZM1785.1,131.3h-.8l-.8.8h-.8l-.2.4.8,1,1.4-.2.6-1-.2-1ZM1783.9,118.3l-1,.8.2.6,2.7,3.1.4-1.6-2.4-2.9ZM1786.7,158.1l-1.4-1.2-1.4,1,.6,1.8,2.4,1.4-.2-2.9ZM1788.6,171.1l.4-1-.8-1.4-1.6-.6v1.8l1,1.4,1-.2ZM1789.6,167.2l.6-.2.4-.8-.6-.4h-.4l-.6.4v.6l.6.4ZM1791,176l-1-2.2-1,1.6.2,1.2,1.2.2.6-.8ZM1789.4,129.3l2.5-1.2v-.6h-1.8l-.8,1.8ZM1790.4,137.8l-.8.4.2,1.2.2.4.6-.2.4-1-.6-.8ZM1795.9,176.8l.4-1,2.4-.8-3.5-10.2-2-1,3.5,7.1-.6,1.2-1.2.6-1-1-1.2.4-.6.8,1.8,4.9,2-1ZM1792.5,138.9l.6.8h1.2l1.4,1.2.2-1.4-1-1.2v-1l-.6-.4-1.8,2ZM1792.9,168.9l.8.2.6-.8h-1.6l.2.6ZM1797.8,190.1l-.4-2.5h-1l-.4.6v1l.8.8,1,.2ZM1800.6,160.9l-2.5-.2-1.2,2.2,3.9-1.4-.2-.6ZM1798.6,167.4l.6-2.5-2.2.8.8,2.9.6.6.8-.6-.6-1.2ZM1799.2,178.1l-.4-.2h-.4l-.4,1h.4l.2.2.6-.4v-.6ZM1802.5,178.9l-.6-.8-1,.2-.6.6.8,1.6,1,.2.4-1.8ZM1802.1,165.2l-.4.2-.4.8.2.8.8-.4.2-1-.4-.4ZM1802.9,157.9l-1,.4-.4.8.4.6,1-1.8ZM1803.5,175.6l.8-.4v-1l-.4-1.4-1.6-.4,1.2,1.6-.4,1,.4.6ZM1804.9,184.2l.2-.4-.2-1h-.6l-.2.8.4.6h.4ZM1806.3,189.9l-.6-1.6-.2-.4h-.6l.4,1-.6.8v.8l.8.2.8-.8ZM1807.8,168.1l-.6-2.2-.4,1.6-.6,1.4h-1l.2,1.2,2.4-2ZM1813.3,179.7l-2.2-.2-1,1,.6,1,.8-.2.4-1,1.4-.6ZM1815.1,183l-.2-.4h-.4l-.8,1,1,.2.4-.2v-.6Z"/>
  </g>
  <g>
    <path class="st2" d="M434,326.2l32.6-71.3h7.4l32.6,71.3h-7.9l-30-66.9h3.1l-30,66.9h-7.8ZM446.8,307.1l2.2-6.1h41.5l2.2,6.1h-46Z"/>
    <path class="st2" d="M528.7,326.2v-64.8h-25.1v-6.5h57.7v6.5h-25.1v64.8h-7.5Z"/>
    <path class="st2" d="M600,326.2v-71.3h6.2l32.6,55.6h-3.3l32.3-55.6h6.2v71.3h-7.2v-60h1.7l-29.8,50.9h-3.6l-30-50.9h1.9v60h-7.2Z"/>
    <path class="st2" d="M685.9,326.2l32.6-71.3h7.4l32.6,71.3h-7.9l-30-66.9h3.1l-30,66.9h-7.8ZM698.8,307.1l2.2-6.1h41.5l2.2,6.1h-46Z"/>
    <path class="st2" d="M770.4,326.2v-71.3h6.2l49.2,61.9h-3.3v-61.9h7.4v71.3h-6.2l-49.1-61.9h3.3v61.9h-7.5Z"/>
    <path class="st2" d="M860.8,326.2h-7.5v-71.3h7.5v71.3ZM906.1,293.3h-46.2v-6.6h46.2v6.6ZM905.4,254.9h7.4v71.3h-7.4v-71.3Z"/>
    <path class="st2" d="M924.6,326.2l32.6-71.3h7.4l32.6,71.3h-7.9l-30-66.9h3.1l-30,66.9h-7.8ZM937.5,307.1l2.2-6.1h41.5l2.2,6.1h-46Z"/>
    <path class="st2" d="M1019.4,326.2v-64.8h-25.1v-6.5h57.7v6.5h-25.1v64.8h-7.5Z"/>
    <path class="st2" d="M1078.9,326.2v-64.8h-25.1v-6.5h57.7v6.5h-25.1v64.8h-7.5Z"/>
    <path class="st2" d="M1108.5,326.2l32.6-71.3h7.4l32.6,71.3h-7.9l-30-66.9h3.1l-30,66.9h-7.8ZM1121.4,307.1l2.2-6.1h41.5l2.2,6.1h-46Z"/>
    <path class="st2" d="M1193,326.2v-71.3h6.2l49.2,61.9h-3.3v-61.9h7.4v71.3h-6.2l-49.1-61.9h3.3v61.9h-7.5Z"/>
    <path class="st2" d="M1310.1,326.2h-7.5v-71.3h7.5v71.3ZM1355.4,293.3h-46.2v-6.6h46.2v6.6ZM1354.7,254.9h7.4v71.3h-7.4v-71.3Z"/>
    <path class="st2" d="M1374,326.2l32.6-71.3h7.4l32.6,71.3h-7.9l-30-66.9h3.1l-30,66.9h-7.8ZM1386.8,307.1l2.2-6.1h41.5l2.2,6.1h-46Z"/>
    <path class="st2" d="M1458.4,326.2v-71.3h26.7c6,0,11.2,1,15.6,2.9,4.3,1.9,7.7,4.7,10,8.4,2.3,3.6,3.5,8,3.5,13.2s-1.2,9.4-3.5,13c-2.3,3.6-5.7,6.4-10,8.4-4.3,1.9-9.5,2.9-15.6,2.9h-22.5l3.4-3.5v26.1h-7.5ZM1466,300.7l-3.4-3.6h22.3c7.1,0,12.5-1.6,16.3-4.7,3.7-3.1,5.6-7.5,5.6-13.1s-1.9-10.1-5.6-13.2c-3.7-3.1-9.1-4.7-16.3-4.7h-22.3l3.4-3.6v42.9ZM1507.1,326.2l-18.3-25.9h8.2l18.4,25.9h-8.3Z"/>
    <path class="st2" d="M1532.1,326.2v-71.3h30.8c7.9,0,14.1,1.6,18.5,4.8,4.4,3.2,6.6,7.7,6.6,13.6s-.9,7.1-2.7,9.8c-1.8,2.6-4.2,4.7-7.3,6-3.1,1.4-6.5,2-10.1,2l1.7-2.4c4.5,0,8.5.7,11.8,2.1,3.3,1.4,5.9,3.5,7.7,6.2,1.8,2.8,2.8,6.2,2.8,10.2,0,6-2.2,10.7-6.7,14.1-4.4,3.3-11.2,5-20.1,5h-32.8ZM1539.6,320h25.2c6.2,0,11-1.1,14.4-3.2,3.3-2.1,5-5.6,5-10.2s-1.7-8-5-10.1c-3.3-2.1-8.1-3.2-14.4-3.2h-26v-6.2h23.5c5.7,0,10.1-1.1,13.3-3.3,3.2-2.2,4.7-5.4,4.7-9.7s-1.6-7.6-4.7-9.7c-3.2-2.1-7.6-3.2-13.3-3.2h-22.7v58.9Z"/>
    <path class="st2" d="M1640.1,326.8c-5.4,0-10.3-.9-14.9-2.7-4.6-1.8-8.6-4.3-11.9-7.6-3.4-3.3-6-7.1-7.8-11.5-1.9-4.4-2.8-9.2-2.8-14.4s.9-10,2.8-14.4c1.9-4.4,4.5-8.2,7.8-11.5,3.4-3.3,7.3-5.8,11.9-7.6,4.5-1.8,9.5-2.7,15-2.7s10.3.9,14.9,2.7c4.6,1.8,8.5,4.3,11.9,7.6s6,7.1,7.8,11.5c1.9,4.4,2.8,9.2,2.8,14.5s-.9,10.1-2.8,14.5c-1.9,4.4-4.5,8.3-7.8,11.5-3.4,3.3-7.3,5.8-11.9,7.6-4.6,1.8-9.5,2.7-14.9,2.7ZM1640.1,320.1c4.3,0,8.2-.7,11.9-2.2,3.6-1.5,6.8-3.5,9.5-6.2,2.7-2.7,4.8-5.8,6.3-9.4,1.5-3.6,2.2-7.5,2.2-11.8s-.7-8.2-2.2-11.8c-1.5-3.6-3.6-6.7-6.3-9.4-2.7-2.7-5.8-4.8-9.5-6.2-3.6-1.5-7.6-2.2-11.9-2.2s-8.3.7-11.9,2.2c-3.7,1.5-6.8,3.5-9.5,6.2s-4.8,5.8-6.3,9.4c-1.5,3.6-2.3,7.5-2.3,11.8s.8,8.1,2.3,11.7c1.5,3.6,3.6,6.7,6.3,9.4,2.7,2.7,5.9,4.8,9.5,6.2,3.7,1.5,7.6,2.2,11.9,2.2Z"/>
    <path class="st2" d="M1723.1,326.8c-9.1,0-16.3-2.6-21.5-7.8-5.2-5.2-7.8-13-7.8-23.2v-40.9h7.5v40.6c0,8.4,1.9,14.6,5.7,18.6,3.8,4,9.2,6,16.1,6s12.4-2,16.2-6c3.8-4,5.7-10.2,5.7-18.6v-40.6h7.3v40.9c0,10.3-2.6,18-7.8,23.2-5.2,5.2-12.3,7.8-21.4,7.8Z"/>
    <path class="st2" d="M1775.1,326.2v-71.3h26.7c6,0,11.2,1,15.6,2.9,4.3,1.9,7.7,4.7,10,8.4,2.3,3.6,3.5,8,3.5,13.2s-1.2,9.4-3.5,13c-2.3,3.6-5.7,6.4-10,8.4-4.3,1.9-9.5,2.9-15.6,2.9h-22.5l3.4-3.5v26.1h-7.5ZM1782.6,300.7l-3.4-3.6h22.3c7.1,0,12.5-1.6,16.3-4.7,3.7-3.1,5.6-7.5,5.6-13.1s-1.9-10.1-5.6-13.2c-3.7-3.1-9.1-4.7-16.3-4.7h-22.3l3.4-3.6v42.9ZM1823.8,326.2l-18.3-25.9h8.2l18.4,25.9h-8.3Z"/>
  </g>
</svg>