<?xml version="1.0" encoding="UTF-8"?>
<svg id="_Ñëîé_1" xmlns="http://www.w3.org/2000/svg" width="2079.4" height="444.1" version="1.1" xmlns:xlink="http://www.w3.org/1999/xlink" viewBox="0 0 2079.4 444.1">
  <!-- Generator: Adobe Illustrator 30.0.0, SVG Export Plug-In . SVG Version: 2.1.1 Build 48)  -->
  <defs>
    <style>
      .st0 {
        fill: url(#linear-gradient2);
      }

      .st1 {
        fill: #fff;
      }

      .st2 {
        fill: url(#linear-gradient1);
      }

      .st3 {
        fill: #17355b;
      }

      .st4 {
        fill: url(#linear-gradient);
      }
    </style>
    <linearGradient id="linear-gradient" x1="422.8" y1="2265.7" x2="-329" y2="2265.7" gradientTransform="translate(0 -2043.6)" gradientUnits="userSpaceOnUse">
      <stop offset="0" stop-color="#008ad1"/>
      <stop offset=".6" stop-color="#001a3b"/>
    </linearGradient>
    <linearGradient id="linear-gradient1" x1="539.7" y1="2083.2" x2="143.1" y2="2083.2" gradientTransform="translate(0 -2043.6)" gradientUnits="userSpaceOnUse">
      <stop offset=".5" stop-color="#008ad1"/>
      <stop offset="1" stop-color="#001a3b"/>
    </linearGradient>
    <linearGradient id="linear-gradient2" x1="62.6" y1="2403.6" x2="375.9" y2="2403.6" gradientTransform="translate(-24.8 -2061.4) rotate(-1.1)" gradientUnits="userSpaceOnUse">
      <stop offset="0" stop-color="#008ad1"/>
      <stop offset="0" stop-color="#008ad1"/>
      <stop offset="1" stop-color="#e3f7ff"/>
    </linearGradient>
  </defs>
  <g>
    <path class="st3" d="M622.1,106.7l-.2,2.9.2,5.9-.2,3.1-.2,1.6-.4,2.4-.6,1.4-1.2,1-2.4.4h-3.1l-5.9-.6-3.1-.2-9,.6h-3.1l-4.9-.4h-2.9l-1.4.2-2,.6-.8,1.2-.2,2.5-.8,11.6v3.1l.8,11.8-.2,3.1-.8,11.8-.2,3.1.4,11.6v18l-.4,11.6.2,2.9,1,8.8.2,3.1-.6,2.4-1,1-2.5.4-3.7-.2-4.9-.6-3.3-.2-8.8.6h-3.1l-8.8-.6-2.4-.2-1.2-.6-.4-2.2v-3.3l.6-8.2.2-3.1v-14.7l.2-11.8v-3.1l.2-11.6v-3.1l-.8-11.8-.2-3.1v-14.9l-.4-11.6v-2.7l-.6-1.6-2-.4h-2.9l-6.3.4h-3.5l-5.3-.4-3.3-.2-3.3.2-4.5.2h-2.9l-1.6-.2-2.2-.4-1.2-.8-.8-1.2-.4-2v-1.4l-.2-3.1.4-5.9v-2.9l-.6-7.4.2-3.1.6-2.5.8-1.4,1.2-.6,2-.4h4.5l7.3.6h3.1l11.4-.8h3.1l11.6,1h3.1l14.5-1,11.4.2h3.1l14.7-.2h14.5l6.5-.4,3.3.2,1.6.2,2.4.4,1.4.8,1,1.4.4,2.4v1.4l.2,2.9-.4,6.3-.2-.2ZM546.1,172.1l1-2.2-.2-.6-.4-.2-1.2,2.5.8.4h0ZM545.9,116.9l.4.4.4-.4v-.4l-.4-.4-.4.8ZM549.6,217l-1-.4-1,.6v-.2h-.8l-.4.4.4,1,.8.6.8-.4.2-.8,1-.8h0ZM546.7,160v.4l.2.2,1-.2.8-.8-2,.4h0ZM548.2,210l-.4.6.2.2.8-.2.2-.2-.8-.4h0ZM574.1,160.2l-.6-1h-.2v.6l-4.1.8v-1.6h1l2.2-2.2-.4-1.6-.8-.8v-2.2l-.6-.6-.4.2v.4l-1,1.2-.2-1.6-.8-.8-.2-1.2,2.2-1.6.6-1.4-1.8-.4-.6-.8-3.7-.8-.4.6.4.4h.6l.8.6h1l1,2.7-2.9-.6-1.8-2-.6,2.2,6.1,5.1-.4.8-7.1,2.5,1.4-2,1.2-.2.4-1-1.6.4-1.6-1.6-1.2,1.2.6,1h-.2l-.2.2h-.2l-.2.2-.2-.2h-.2l.2-.2-.6-.8-1.8-.2-.4-4.7,2.4,1.4.2-2.4-1.8-.2-.4.4-1.8-.6-.8-1.2-1.4-.4-.6.6-.2,1-2.2,1.4h1.4l.6,1-.2,1.4.6,1.4,1.2-4.1h1.4l.2.2-1.4,7.1-1.6.6,1.6,1.2.2,1-1.6.6-.4.6.8.6-1,1.4h-1.4l-.4-2.2-.6.6-.4,2.5,2.4,2.2-.2.8-1.8-.2-1.6,1,.2.8-.4.8.2.8.8-.2.8-1.6,1.4-.6,4.5,2.5,1-2-1.4-4.1,2.4-.8v-.6l.8-.6-.8-.8v-1.8l1.4-.2.8.8,1.4-2,.2,1.2.8.6.8-.8h1.8l.2.8-.8,1.8-2.9.4-1.2,2.7-.2.4v-.2l-2.4,2.9.6,1.2h2.9l2,3.1.2-1.4.2-.2.8.2.8-.4-2.5-5.7,1-.8,4.1,4.9,5.3-5.5,1-.8.4-2v.5ZM548,150.2l.2.8.4.2.4-.2.2-.4-.2-.4-.6-.2-.4.2h0ZM548.8,155.9v.2l1,.4v-.4l-1-.2ZM549,175.3l-.2.8.2.4.4.2.4-.4v-.6l-.4-.4h-.4ZM549.4,172.3l.4-.2.2-.4-.2-.4-.8.2v.4l.4.4h0ZM549.6,181.9l1.2.4,1-1,6.1-3.1-.2-.2h-.2v-3.1l-.6-.4-1.2.4-.4,2.7-1.6,1-1.6-1-.2-.8-.8-.4-.6.6-.2,1h-.2v1.6l-1,1,.4,1.4h0ZM549.4,128l.8.8,1-.4.8-3.3-2.2.6-.4,2.4h0ZM552,131l-.2-.2h-1l-1,1.2.2.2.8.2.8-.6,1.4.2.6-.6-.4-.6-1.2.2h0ZM550.2,119.2l.8,2.7.8-1-1-.8,1-1.4-1.6.4h0ZM554.1,209.6l-.2-.4h-.2l-1.2.8-.4,2-.6.4h-.6l-.4.4.2.6.6.2.6-.2.8-2.4,1-.6.4-.8h0ZM551.2,171.2l.6-.4-.6-.4-.4.4v.4h.4ZM551,180.2l-.2-.2v-.2l.2-1.6,1-.4.8,2.2-1.8.2ZM551,142.7l.2,1.2,2,.4.8-.6v-.8l-2.2-1-.8.8h0ZM551.4,114.7l1,1.6v-1.2l.6-.6-.2-.8h-1l-.4,1h0ZM553.9,223.1l-1.6-.4-.8.8.6-.2,1.8.4v-.6ZM552.2,118.2h.6l.2-.6-.6-.6-.4,1,.2.2ZM552.2,110.4l.4.2.4-.2.2-1-.4-.2-.6.2v1h0ZM553.5,171.4l-.8.2-.6,1.2.6,1.4.8-2.7h0ZM552.9,174.5l-.6.8.6,1.6h.8l.4-1.6-.4-.6-.8-.2ZM554.9,133.1l-1,.8-.4,1.2h-1l3.5,1.2v-.4h-.2l.6-2.9-.4-1-1,.2-.2,1h.1ZM558.8,186.8l-1.2-1.4v2.2l-.2.2-1-.2-1.4-2.9-1.8-1.2-.6,2.5,1.8-.8,3.3,4.9,1-3.3h.1ZM553.5,127.5l-.4.2-.2.4.8,1,.6-.8-.2-.6-.6-.2h0ZM554.3,141.4l1-.6,1.6-2.5-1-.6-2,.8-.4,2,.8,1h0ZM554.5,189.6v-2.4l-.4-.2-.4.2-.2,1.2,1,1.2h0ZM555.1,197.4l1-.2-1-.6h-.8v.4l.8.4h0ZM555.1,129.2l.8.6.2.8,3.1-2.5v-.4l-3.3-.2-.8,1.8h0ZM555.3,107.7l1.8,1.6.6-.6,1.2.2-.4,2.2,1.4,1.4.8-.4.2-.6-.6-.4v-.6l.2-.2.2.6.8.2,1.4-.8-.4-.4h1.4l.4-.8,1.8-.2-.8-3.5-.8,2-2.5,2h-1.2l-1.2-1.2-.8-.2,2.7-.6h1.8l.8-.6-2-1.2-.6,1.4-1.6-.6-1.2,1.6-.8-.2-1-1.6-1.6,1.6h0ZM557.1,117.3l-1-1.2-.6,1.2,1,1,.6-1ZM570.8,110l-1,.8v-3.3l-.8-.4-1.2.6.2.8h.8l-1.4,3.7h-.8l-.6-.4h-.8l-.6-1.8-.4,1.8-2.4,1.4-.2,3.3-.8.6.2,1-1,1.6,2.5,7.4,1.4-.2.6,1.4-.4,1.4.6.8-.2.8h-1.2l-2.7,2.4-1.2-.8h-.8l-.2.2,1.2,1.2,1.6.4v1.8l-1.4.2-1.8-1-.6,1,2,2.2v.4l-1.4.4-.6,1.4-1.8,1.2.2,2.7.6.2.8,1.2.8-.2.4-.6-1.2-1.4.6-1.2h.2l.8.8,2.4.2,1,1.4v2.5l1.2-2.9-.8-.4,1.4-2.7.8-.2-.8-1h-2.5l-.6-1.2-1-.6,2.9-2.9,1.2.6,2.9-1.8.4-.8-1.8-1,2-2.2-.2-1.6.6-1-.4-1h-.8l-.8.6-.6-.4-.4-1,1.2-2.9-1.4-1.4v-.8l1.6-.2.2-.2.4,1,1.6.4-1.6-1.6.4-.4v-.4h-.2l-.2-.6-3.3-2.4,1.8.6.8-.8-1.4.2-.6-.6h-.6v.6l-.8-.6h-.2v-2.5l2.5-.4,2.7,1.8,2-3.9,1.6-.4-.8-.8h.2ZM557.8,218.2l-.2-.8h-1.8l.8,1.2.8.2.4-.6h0ZM556.5,183.3v.6l.8.6h1l-1.8-1.2h0ZM557.4,114.3l.4.4.6-.6v-1.8l-.4-.4-1,.4.4,2ZM557.1,123.1l1,.4.6-.8-.2-.4h-1.4v.8h0ZM560.4,170.8l.4-.4-.4-.4-1.6-.4-1.2,1.2v3.3l2.4,1.4.2,1-.4.4.2.4.6.2.4-.6h.8l.6-.4h1.8l.2,1.4,2.2,1.2,2.4-1,.2.2.8-2.4-.4-.8h-.2v-.2l-.2.2-1.4-.6,1.6-.8-1.6-.4-1.4.8v1l-.6.6-1.8-.6-1,.4-1.6-1.4h-.8l-.2-3.3h0ZM559.6,182.5l1.4-1.4-.2-.8-1.2.4-1,1.2,1,.6ZM560.2,147.3l.4-.2v-.4l-.4-.4-.4.4v.4l.4.2ZM560,151.2l2.4.8.8,1.2.4-1.4-2.4-1.4-1.2.8h0ZM561.4,201.4h-.8l-.6.2.8.2.6-.4ZM561,130.6l.4-1.2.6-.2v-.4l-1.4-.8-.4.2v3.5l.8-1.2h0ZM560.6,103.9l.2.8.6-.6.2-.8h-.4l-.6.6ZM560.8,100.2l1.2,1.8.6-.2-.6-3.3-1.2,1.8h0ZM562.1,184.5h1l1-1.2.2-1.6-.8-.4-2,.8-.6.8,1.2,1.6h0ZM561.4,157.4l-.2.2v-.2h.2ZM562.3,121l-.4.2-.2.4v-.6l-.4-.6v-.2l.6-1,.2.4.4.2v.4l-.2.2v.6h0ZM562.5,122.8l1.2.6-.2.2h-.2l-.4.4-.4-.2-.4.2.4-1.2h0ZM563.5,219.4l-.2-.4h-.4l-.6.4v.6l.6.4.6-1h0ZM563.7,133.1h.2v1.8l-.4-1v-1l.2.2ZM563.5,194.3l2.2-2,2.2,1.2,1.4.2-.8-1.4.8-2.2-.2-.4-.4-.2-.4.2-.8,1.6-2.2-.8-1.8,3.7h0ZM566.3,223.9l-.6-.8h-.4l-.4.4h-.6l-.4.6.6.4,1.4-.6h.4ZM564.1,96.7l2.9,3.7h1.2l1-1-.2-.8-4.9-2h0ZM568.2,141.4v-5.1l-.6-.4-.8,1.2.2.4-.4,1-1,.2-.6-.4h-.6v.6l.4.2,1.2,2.2,2.2.2h0ZM567.8,186.7h-2l-.4.4.8,2,1-.2.4-1,.6-.2-.4-1h0ZM566.1,101.6l-.4.4.4.8.8-.2.2.2,1.8-.4.2-.6-.8-.4-1.4.6-.8-.4.6-.4v-.8l-.6.2-.4.6v.4s.4,0,.4,0ZM567.6,157.3l.2.6-.8,1-1.2-.2,1-1.6.8.2ZM566.3,143.1l-.2.8v.6l.6-.2.2-.6-.6-.6ZM569.8,207.4l-.8-.6-.4-.6-2.2,2.7v.4l.6.2,1.6-.8.8.2.4-1.6h0ZM567.6,216.4l-.2-.8-.6-.2-.4,1.6.6.4.6-1h0ZM567,95.1l.2.6.6.2.2-.2-.2-.8s-.8.2-.8.2ZM568.8,185.3l.6-.8-.4-.8h-2l.6,1,1.2.6h0ZM572.1,121.4v-.6l-.4-.2-3.7,3.7,1.8,1.4v-2.4l2.4-2h0ZM569.4,102.4l.6.8-1.8,1.6v.2h.2l.2.4.6.2.6-.2.6-3.1-1,.2h0ZM569.2,144.1l-.8.8.2.6.4.2.6-1.4-.4-.2h0ZM570,157.4l-1.2-.2-.4-.4v-.6l.2-.2v-.2l1.4,1.6h0ZM570.2,130.6l-.8-.4-.8.2v.6l.8.2.8-.6ZM569,188l1.2.2.2-.4-.6-.6-.8.8h0ZM572.7,115.7l-2.2-.6-.8.2.2.8,1.8.4.6.8s.4-1.6.4-1.6ZM572.3,222.5l-.6-2.2-1.8-.4.8,2.9.8.2.8-.6h0ZM570.8,119.2h.2l.2-.4-.4-.6-.6-.2v.8s.6.4.6.4ZM570.8,114.9h.4l.2-.2.2-.6-.6-.2-.4.8.2.2h0ZM570.8,130l1.6,1.2.2-.2v-.4l-.6-.6h-1.2ZM572.1,141.4l.8-1.6-1.2-1.6-.4,5.5,1-1.8-.2-.6h0ZM571.9,111.8l-.4.4.2.6.4-.2.2-.8h-.4ZM572.9,133.3l-.2-.8-.8-.2-.2.4.8.8.4-.2ZM574.1,198.8l-.4-.4h-.8l-.4.6.4.4,1.2-.6ZM573.9,99l.6.4-.2,2,7.8,1.4,1.4-1-5.9-.2-.6-.8v-1l1-.2.2-1-.4-.8-3.7-.6-.2,1.8h0ZM574.5,119.6l.4-.4.6-1.2-1-1.6-.4,3.1h.4ZM574.3,110.2v.8l.4.2.4-.2.2-.4-.4-.6-.6.2h0ZM575.7,121.6l-.4-.6h-.6l1,1.4v-.8ZM580.2,106.5l-1.6-.2.8,1.2v.2l-1.8-1,.2-.2-.6-.8.2-.8.4-.2-.2-.4-.6-.2-.4.4-1.6.4.4.8,1,.2.2,2.5.4.4-.8,3.1.2.6.4.2,2.5-4.1v-.4l.8-.4v-1.4h0ZM579.2,98.4l.8.6,1-.4,1.8-.2-1.2-2.2.6-.4-1.2-.6-1.2.2-.2.6.4.6-.6.6-.2,1.2h0ZM583.9,106.3l-.2-1.2-1.4-.2-1.8,1,2,1s1.4-.6,1.4-.6ZM583.3,118.2l-.8-1.2-.4,1.2.2,1,.4.2.4-.2.2-1h0ZM586.8,104.5l-1,1,.8.8.2-.8v-1ZM587.4,98.8l.2-.4-.2-.4-1,.2-.4,1,.4.8.8.2.4-.6s-.2-.8-.2-.8ZM589.2,119.4l-.8-.2h-.4l-.2.4.6.6.8-.8h0ZM594.5,114.1l-1,1.2-1,.6-3.3-1.8.8,1.4-1,2,.2.4.8.2.8-1.6,1.6,1,2.2-1.8v-1.6h0ZM594.9,101.4l-1.6-1.4-.6-.4-1.2,1,.4.8,1.4.8,1.6-.8h0ZM600,104.5h1.4v-.4l-.6-.8-1.6-.2-1.2-1.4-1.8.2-.6,1,.6,1-.2.4,3.1-.6.8.8h0ZM603.3,107.3l-.8-.6-1,.2-.6.4v.4l.6.6,1.6-.6.2-.4ZM602.7,110.2l-.8-.4-.8.2-.2.2.2.4s1.6-.4,1.6-.4ZM603.9,99.2l-.8-.2-.6.4-.6,2.9,1.2-.6.8-2.5h0ZM606.3,105.9l.8-.2.6-.6-.2-.4h-.2l-1,1.2h0ZM606.3,108.1l.8,1h1l-.6-1-.8-.2-.4.2ZM608.6,114.7l-.8-.6-.8.2-.6.8.2.8,1.2-.2.8-1h0ZM613.5,105.3l-.4-.2-.4.2-.2.4.2.4h.6l.2-.2v-.6h0ZM615.1,100.4h.4l.2-.2-.4-.6h-.4l-.2.4s.4.4.4.4ZM616.6,106.3l-.2-.4-.8-.2-.2.4.6.4h.4s.2-.2.2-.2Z"/>
    <path class="st3" d="M751.7,91.4h3.1l8.8-.6,3.1.2h1.8l2.5.4,1.6,1.6.8,2.7v2.9l-.6,7.8-.2,3.1.6,10.4v3.1l-.4,10.4v3.1l.8,10.4v3.1l-.8,10.4v3.1l-.4,10.4v3.1l.2,10.4v3.1l-.2,10.4v13.5l.2,3.1.4,4.9.2,2.9-.2,2.7-1,2.5-1.4,1.4-2.2.2-3.1.4-10.6-.6h-3.1l-10.4.8h-3.1l-2.7-.6-1.2-1.6-.4-2.7-.8-12.7-.2-3.1.4-12.7v-3.1l-.4-12.5v-2.7l-.8-1.6-2.2-.8h-4.7l-7.8.6-3.1.2-15.7-.4-10.6-.6-2.5.2-1.8.6-1,1.8-.2,2.7.2,12.5v3.1l-.4,12.7.2,3.1.8,8.4v4.5l-.8,2.7-1.8,1.6-2.5.6-2.9.2-2.9-.2-8.2-.8-3.1-.2-9.2.6-3.1-.2h-1.6l-2.2-.4-1.6-.8-.8-1-.4-2.2-.2-1.8v-3.1l.4-5.9v-16.5l.4-10.4v-3.1l.2-10.4v-3.1l-.6-10.4v-3.1l-.2-10.4v-13.5l.2-3.1.6-10.4.2-3.1-.2-10.4-.2-3.1-1-6.7v-4.1l.8-2.4,1.8-1.4,2.5-.6,2.9-.2h2.9l8.2.4h3.1l7.8-.6h3.1l2.9.2,2.5.4,1.6,1.6.8,2.5.2,1.4v2.9l-.6,8.8-.2,3.1-.2,12.7v16.1l.2,2.4.6,1.6,1,.8,2,.2,2.7.2h2.7l7.4-1.2,2.9-.2,12.5.4,11.6.8h2.9l1.4-.2,2.2-1.2.8-1.6.2-2.2.8-12.7v-3.1l-.4-12.7v-3.1l-.2-12.7.6-3.1,1.6-1.8,2.4-.4h3.1l10.6.6.3.4ZM648,188l-.4,1.8.8.2,1-2-.2-.6-.4-.2-.8.8h0ZM649.4,178.4v.4h1l.8-.8-1-.2-.8.6ZM650.2,136.3l.4.4.6-.4v-.4l-.4-.4-.6.8h0ZM655.3,167.1l-2,1.2,1.2.2.6,1-.2,1.4.6,1.4.6-3.3h.2l.8-1.8,1,1.2-1.4,6.9-1.6.6,1.6,1.2v1l-2,1,.8.6-.2.8-.8.6h-1.2l-.4-2.2-.6.6-.4,2.4,1.2,1,.2.8.6.6v.8l-1.8-.4-1.6,1,.2.8-.4.6.2.8.8-.2.4-.6.2-1.6,5.7,2.7,1-3.3-1.2-2.5,1.8-.2,1.4-1.6-.6-.6v-2h1.4l.6.8,2.2-3.3,2-.6.4-1-.6.4h-.8l-1.6-1.8-1,1.2.4,1h-.2l-.2.2h-.8v-.2h.2l-.6-.8-1.6-.4-.4-4.3,2.2,1.4.2-.2.2-2.2-1.8-.2-.2.2-2-.6-.6-1.2-1.4-.6-.8,1.6v-.3ZM650.9,168.8v.8l.4.2.4-.2.2-.4-.2-.4-.6-.2-.2.2h0ZM651.1,193.3l-.2.2.2.8.4.2.2-.4v-.6l-.2-.2h-.4ZM651.1,189.6v.4l.4.4h.4l.2-.8-.6-.2-.4.2h0ZM657.6,193.1l-.6,2.7-1.4.8-1.6-1-.2-.8-.6-.6-.6.6-.2,1h-.4l-.2,1.2.2.4-1,1,.2,1.4,1.4.4,4.7-2.4,1.2-.4.8-1h.2v-.2h-.4l.2-2.9-.6-.6-1.2.4h0ZM651.5,174.7l1,.2v-.4l-1-.2v.4ZM653.3,145.1l-.6,1.8.2.2v.2l.6.8,1-.2.8-3.1-2,.4h0ZM654.1,196.5l-.2.8.6.8h-1.8l.4-2,.8-.2.2.6h0ZM652.9,189v.2l.4.2.6-.4-.6-.4-.4.4ZM655.5,150.4l-.2-.2h-1.2l-1,1,.2.2.8.2,1.4-.6.6.4.6-.6-.4-.6-.8.2h0ZM653.9,161.6l.2,1.4.8.4,2-.4-.2-1-2-1-.8.6ZM654.3,138.8l.4,2.7.8-.8-.8-1.2,1.2-1-1.6.2h0ZM654.9,189.8l-.6,1.2.6,1.2.8-2.5-.8.2h0ZM655.1,192.7l-.8.6.6,1.6h.8l.4-.6-.4-1.6h-.6ZM654.5,203.7l1.8-.6,3.1,4.9-.2-1.4.4-.2.6-1.8-1-1.4v2.2l-.2.2-1-.2-2.9-4.1-.6,2.4h0ZM655.3,205.1l-.2,1,1,1.2v-2.2l-.4-.2-.4.2h0ZM658.2,151.6l-1.6,2.7-1,.2,3.5,1.2v-.2h-.2v-.2h-.2l.8-2.9-.4-.8h-1,.1ZM656.2,133.5l-.4,1,.8,1.6v-1.2l.6-.6v-.8h-1,0ZM656,138l.8-.2.2-.4-.6-.6-.4,1.2ZM656.2,147.4l.8,1,.4-.6v-.6l-1-.2-.2.4h0ZM657,157.6l-.4,2,.6,1,1-.6,1.6-2.4-1-.6-1.8.6h0ZM657,129.4l-.2,1,.4.2.8-.6-.2-.6-.4-.2-.4.2h0ZM658,201.5v.4l.8.6,1.2-.2-.8-.8-1-.2-.2.2ZM658.4,148.8l.6.6.2.8,3.1-2.4v-.4l-3.1-.4-.8,1.8h0ZM672.7,128.4l-.4.4v.6l.8.2-1.6,3.5-2-.6-.6-1.8-.6,1.8-.8.6-1.6.4-.4,3.3-.8.6-1.2,3.7,2.2,5.9,1-.2.2.2h.2l.4,1.4-.4,1.4.4.6v1l-1.4-.2-2.5,2.2-1-1h-.8l-.2.2,1,1.4,1.6.2v1.8l-1.4.2-1.8-1-.6,1,2,2.2h-.2v.2l-1.4.4-.6,1.4-1.8,1,.2,2.5,1.4,1.6.8-.2.2-.6-1-1.4.4-1h.2l.2-.2.6,1,2.5.2.6,3.9,1.4-2.9-.8-.4.4-1.4,1.8-1.2-.8-1.2h-2.5l-1.2-2,2.7-2.5,1.2.6,3.3-2.2-1.8-1.2,2-2-.2-1.4.6-1-.2-1h-.8l-.8.6-1-1.6,1.4-2.7-1.2-1.4v-.8h1.6l1-.8-.2-1-3.9-3.1.2-2.4,1.6-.4,3.3,2,2.2-3.5,1.8-.4-.8-.6-1,.6.2-3.1-.6-.4h-.8,0ZM659.6,189.2l-.2,3.3,2.4,1.4.2.8-.4.4.2.4.6.2.4-.4h.8l.6-.4h1.6l.2,1.4,1.4.4.6,1,2.5-1,.8-2.2-.4-.8-1.6-.6,1.6-.8-1.6-.4-1.4.8v1l-.6.6-1.8-.8-1,.4-1.4-1.4h-.8v-4.1l-1.6-.2-1.2,1h.1ZM659.6,137.1l.2.8.6.4.8-1-1-1.2-.6,1ZM666.8,165.1l.2.6h.6l.8.6h1l.8,1.2v1.6l-2.7-.6-1.8-2.2-.6,2.2,5.9,5.1-.4.8-2.4.2v-.2h-.2l-1.6,1.2h-2l-1.2,1,.2,1.2.8.8.8-.8h1.8l.2,1-.8.6-.2,1-.8.4-2-.2-1.6,2.9.2-.2-2.4,2.7.4,1.2,2.9.2,1.2,2.7.6.2.4-.2-.2-1h.2v-.2l.8.2.8-.4-2.4-5.5,1-.8,3.7,4.9,5.5-4.9v-.2l1-.8.4-1.8-.6-1h-.2v.6l-3.9.6-.2-.8.2-.6,1.8-.6,1.2-1.6-.2-1.6-.8-.8v-2l-.4-.6h-.6v.6l-1,1,.2-.4-1.2-2.9,2.4-1.4v-.8l.6-.6-1.8-.4-.6-.8-2.7-.4-.2-.4-.6-.2-.4.4v.2ZM660.2,200l1,.6,1.4-1.2-.2-.8-2.2,1.4ZM660.5,143.1l1,.2.6-.6-.2-.4-1.4-.2v1h0ZM661.5,132.6v1.4l.6,1,.6-.6-.2-2-1,.2h0ZM662.3,165.9v.4l.8.2v-.4l-.4-.6-.4.4h0ZM662.3,170.4l2.4.8.8,1.2.4-1.4-2.4-1.4-1.2.8h0ZM662.5,201.2l1,1.6,2.2-1.2v-1.6l-.8-.4-2.4,1.6h0ZM663.1,148.6v2.9l.8-1.2.6-1,.4-.2v-.4l-1.2-1-.6.8h0ZM666,127.7l-1.6-.8-1.2,1.4,2.7-.2,2.4-.4-.2-.4h-.4l-1.2-1-.6,1.4h0ZM664.7,130.6l.2.8.8.2,1.4-.6-1.4-1-1,.6ZM669.4,207.8l-.8,1.6-2.2-.8-1.6,2-.2,1.6,2.2-2,.8.2,1.2,1.2,1.4.2-.6-1.4.8-2-.2-.6h-.8ZM666,140v.4l-.2.2v.8l-.6.4v-.6l-.4-.6v-.2l.8-.8.4.4h0ZM666.8,143.3v.4h-.2l-.4.4-1-.2.6-1,1,.4h0ZM666,124.1l-.4.6v.8l1-1.2-.2-.2h-.4,0ZM666,121.2l1,1.8.4-.2v-3.1l-1.4,1.6h0ZM666.8,154.7l-.4-.8-.2-1h.4l.2,1.8ZM666.8,205.1v1.2l.6.8,1-.2.4-.8.6-.2-.4-1-2.2.2h0ZM669.4,156.9l.2.6-.4.8-.8.2-.6-.4h-.6l1.4,2.9,2.2.4.6-3.1-1.2-2.4-.8,1h0ZM669.8,176.5l.2.8h-.4l-.6.8-1-.2,1-1.6.8.2ZM668.4,202.1l.8,1.2,1,.2.4-.6-.4-.8-1-.2-.8.2h0ZM668.6,163.5v.6h.6v-.6l-.4-.6-.2.6h0ZM671.9,121.8l1.2.2,1.2-.8-.2-1-4.5-2.2,2.4,3.7h-.1ZM670,205.5l.2.8,1.2.2v-.4l-.6-.6h-.8ZM671.9,176.9l-.2-.2h-.4l-.2.2-.6-.6-.2-.8h.2l.2-.2,1.2,1.6ZM670.9,121.8l-.4.8.4.4.6-.4.2-.8h-.8ZM670.7,164.7l.4.6.6-.4.2-.8-.4-.2-.8.8h0ZM671.1,144.7l1.4,1.6.4-2.4,2-1.4.4-.4v-.4l-.4-.4-3.7,3.3h-.1ZM671.3,150.8v.4l.8.2.8-.4-.8-.4-.8.2ZM672.3,116.9l.4.6h.6v-.2l.2-.2-.2-.4-.4-.2s-.6.4-.6.4ZM674.3,123.9l.4.8-2,1.6,1.8-.2.8-2.4-1,.2ZM673.5,150.4l1.4,1.2.2-.2-.4-1h-1.2ZM673.7,163.5l1-1.6-.2-.2.8-1.8-1.2-1.6-.4,5.1h0ZM674.5,135.3l-.2.4.6.4.4-.6v-.4l-.8.2h0ZM674.7,153.5l.8.2v-.2l-.2-.6-.8-.2.2.8ZM694.5,163.5l-.2.4.2.4h.8l.2-.4-.6-.4h-.4ZM695.8,169.2v.6l.4.2.4-.2-.4-.8-.4.2ZM697.4,163.7l-.2.2.2.4.4.2.4-.6-.2-.2h-.6ZM703.7,154.3l-.8,1,.8.4.8-.2.6-.8-.2-.6-1.2.2h0ZM704.1,160.4l.4,1,1.2-.2-.8-.8h-.8ZM705,163.5l-.4.6.4.4.6-.4.2-.8-.8.2ZM708.6,168.2v1l.8.2.4-.4-.2-.6.6-2.4-1.6,2.2ZM709.6,158.6l-.8.2.8.6.8-.6-.2-.2h-.6ZM712.5,164.7l-.8-.6h-1l-.2.2v.2l.6.6,1.4.2,1.4,1.2,1.6-.4.6-.8-.6-1v-.4l-2.9.8h0ZM714.5,162.3l1,1.2.6-1.4-.8-1.4-.8,1.6h0ZM716.8,166.5l2.2,1.6.6-.4.2-.6-.4-.8-1.2-.6-1.4.8h0ZM719.4,157.3v.4l.6.6,1.6-.6v-.6l-.8-.4-1.4.6h0ZM723.7,167.6l.2.8-.2.4.2.2,1-.2.2-.8-.4-.8-.8-.2-.2.6ZM723.9,162.9l.8-1-.8-.6v1.6ZM726.6,161.2l.2,1.2h1.4l1.6-1.2-2-.6-1.2.6ZM727.8,171l-.8,1,2.2.2.2-.6-.4-.6h-1.2ZM729.9,168.2l-1.6.2,1.2,2h1l1-1v-1.4l-.8-.4-.8.6h0ZM734.4,156.1l-.2.4.4.6.6-.2-.2-.8-.2-.2-.4.2h0ZM737,154.5l-.2.6.6.2.2-.4-.4-.6-.2.2h0ZM737.8,125.5l-.6-.2-.2.2.2,1,1,.2.8-.4.2-.8-.6-.2-.8.2h0ZM738.4,119.4v1.6l.8.2.8-.4.6-1.4-.8-1.6-1.4,1.6h0ZM739.7,161l-.2.6.2.6.6.2.6-.2.4-.6-.4-.6-.6-.2-.6.2ZM742.3,108.6l-2,3.5.2,1.8,1,.6,1-.8.8.2-1.2-3.1.6-.8v-1.2l-.2-.2h-.2,0ZM750.1,112.4l-1.6-.8-.6,2h-2.4v.2l3.1,1.8-1.2,3.1-2.2.8-.4-.8-.8-.4-.2,2.7-1.8.8-2,1,2.5.6,1.2-1.8,1.2-.4.6-1,5.1.6-.2.8-2.9,1.8v2.4l1.8,1-.2,1.2.4,1,1.2-.6v-1.6l.2-.2v-.2l1.2.2.8,1.2-.6,1.2,1-.2.6-1v-.2l1.2.6v1.2l-1.4.8-.4,1h-1.2l-.4.8.6.4,1-.4,1.8,2.5-1,.8.4,1,1.2-1.6-1-1.8.2-.6-.6-.4h-1v-.8l1-.4.4-.8.2,1.4,1.6,1.4h.6l.2-.6-.8-1.4,1.2-.2-.2-.8-.6-.4.6-.6h.2l1,1-.2.4.6,1.6-1,2,.2,1.2.8-1.6,2,.2,1-1.6v-.6l.4-.6.4.4.6-.6v-.8l-1.4-2.2h-.4l-.6.4h-.8l-1.2-1-1.8-.2v-.4h-.8l-.6-.8v-3.7l-.8-.6-.4.6v1l-.8.2-.6-.6.2-.8-.6-.8h-1.2l-1-2.5.6-.6-.2-.8.8-.4.2-1.4.6-.2.6.2.6,1.2.4-.6,1,.2,1.4,3.7.6-2.7.4-.4,2.2-.4,1.4.6,1.2-1h.6l.6-1.4-.8-.4-6.3,1.6-2.5-2.5-.2-1.2-.8-.4-2.9,1h0ZM742.1,163.3l-.6-.2-.8,1v.2l.8.2.4-.4h.2l.2-.2.4.4.2-1.2-.8.2h0ZM741.3,116.5l-.2.6,1.2,2.9.6-1-.6-2.7-1,.2ZM742.1,105.1l-.2.4.4.6.8.2-.2-.8-.6-.4s-.2,0-.2,0ZM743.5,125.5l1,.8.8-.8h-1.8ZM746,132l-.2,1.6.6-.2.4-.6h.2l-.4.6v.6l-.4.4h-.2l-.8.6h-.6l-.4-.4-.4.2.8,2.5.8-.6v-.8l2.7-.6v-.2l.2-.2,3.7.2.2-.4-4.7-2.2v-.4l-.4-.4-1.2.2h.1ZM744.2,128.6l-.2,1.4,1.2,1.6.4-1.2.4-.8-.6-1.2-1.2.2h0ZM744.2,109.8l.6,1.6h.6l.4-.8-.6-1.4-.4-.2-.6.8ZM744.2,116.5l1.4.6,1.4-.8-1.6-.8-1.2,1h0ZM744.2,142.4l.2,1.4.6.2.8-1-.4-.6-.6-.2-.6.2h0ZM745.2,104.9l-.2.8.4.4.4-.2.6-.6-.2-1s-1,.6-1,.6ZM747.2,138.4l.2,1.2.8.2.6-.4-1-2.2-.6,1.2ZM748,190l-.8,1,2-.4v-.4l-.2-.2h-1ZM747.4,110.2l.2.8h.4l.2-.2-.4-1.4s-.4.8-.4.8ZM751.3,159.6l-.8.8-1.8.4-1.4,3.1,3.5-3.3.8.8-1.4,5.5h1.6l.8-2-.6-.2v-1l.8-.6,1-.4.6-2.4-.4-.6-.6.4-.6,1.4h-.2l-1.2-2h-.2.1ZM747.4,184.5v.8l.2.4h.2l.4-.8-.2-.6-.6.2h0ZM753.1,172.9l-2.9,3.1-.8.2-.4,1.2,1.4.6v-.8l.6.2v.4l.4.2h-.2v1.6l-.4.2v.2l.4.4,2.2-.2-1-1.2.4-2.4-.2-.2,1.4-3.5-.4-.2-.4.2h0ZM749.1,109.4l.2.8,1,1,1.4.2.4-.8-.8-1.8-.6-.4-1.6,1h0ZM749.7,104.1l-.4,1.8.8-.8.2-.8-.2-.2h-.4,0ZM753.7,141.2l-1.8.8-.4-1h-1l-.6.4-.2,3.7h1.6l.4-.6,2,.2.8-6.5v-1.4l-1-1.4.2,5.7h0ZM749.9,136.7l-.2.4.2.4.4.2.6-.6-.2-.4-.4-.2-.4.2h0ZM751.1,107.1l1.2,1.4.8-.2-1.4-2.2s-.6,1-.6,1ZM751.5,104.3v.4l.4.2.4-.2.2-.4-.4-.4-.6.4h0ZM751.7,139.8l.4.2.8-.2-1.2-.6v.6ZM752.1,148l.4.4.4-.2.2-.6-.4-.2-.6.6h0ZM753.1,195.9l-.4.6v.2l.2.2.6-.4.2-.8-.6.2ZM754,156.3l-.2.8-.6.2v.6l.4.4.8-1v-1h-.4ZM757.2,209.4l-.4.6-1,.4-.4-.8-1.6.6.8,1.8-.2,1.8,1.6-.4.4-.6,1.8-.2-.4-2.5-.8-4.9-1.2-1,1.4,5.3h0ZM754.8,152.7v.8l.4.2.4-.6v-.4l-.4-.2-.4.2ZM755,140.8l.4.8.6-.2.4-1.8.8-.8-1.6-.2-.6,2.2h0ZM760.1,105.9l-4.7,3.1,1.4-.2,2,1,1.2-1h-2l-.2-.2.2-1,3.9-2.9-2.4-.6s.6,1.8.6,1.8ZM755.8,184.3l2.9-.4v-.6l-1.8-.4-1.2,1.4h0ZM756.4,99.8l-.2.8.4.2.4-.2.2-.8-.4-.2-.4.2ZM756.2,136.9l2.9.2.2-.4-1.8-1-1.4,1.2h0ZM757.4,146.3l-.6.6v.6h.6l.6-1.8-1-.8.4,1.4ZM757.6,120.8l.8.4.4,1-1.4,3.1,1.4-.6,1.8.6.6-.2v-.8l-1.6-.6.8-2.2-2-1.4-.8.6h0ZM758.8,140l-.6.4v.6h.6l.4-.6v-.4h-.4ZM759.1,194.9v2.2l.4.4.6-.2-.2-1.8.6-.8-1.4.2h0ZM760.3,172l-.8-.2v.8l2-1-.2-1.6-1,2ZM759.7,209.4l-.2.4.6.6,1.6-.6v-.4l-.6-.4-1.4.4h0ZM759.7,152.7l.2,1h.6l.6-.6h1.2l-1.6-.8-1,.4h0ZM760.7,143.7l-.6-.4-.2,1,2.2-.6.2-1.6-1.6,1.6h0ZM761.1,135.3l-.6.4v.6l.8-.4.6-.6h-.8ZM760.9,214.7l-.2.2.2.4.4.2.6-.4-.2-.4h-.8ZM761.3,111.8l1.2.2,1-.2.2-.4-.2-.4-1.2-.2-1,1ZM761.7,155.7l-.4.4.6.4h.4l.2-.8h-.8ZM762.3,201.5l-.4.6.2.4h.6v-1.8l-1-.4.6,1.2h0ZM762.5,122l-.6.6v.8l1,.4.2.6.8-.2-.2-2.2s-1.2,0-1.2,0ZM762.3,195.3l-.4.6v.6l.6-.2.2-.6-.2-.4h-.2,0ZM761.9,220.2v.6l.8.2-.4-.8h-.4,0ZM762.5,125.9v.4h.4l.6-.6-1,.2ZM763.3,134.3l.6,1.4-1.4.6,1,1.6.4.2.4-.8.2-4.1-1.2,1.2h0ZM763.8,214.9l-.2.6.8.2.2-.4-.2-.4h-.6ZM765.4,124.1l-.2.8.6.6.8-.4.2-1-.2-.8-1.2.8h0ZM765.8,131.2l1.6,1.2-.4-1.6-.4-1.2-.8,1.6h0ZM766.2,134.9l-.2.6,1,1.2.6-1.2-.2-.6-.6-.4-.6.4ZM767,130h1.4l-2.2-1.2.8,1.2Z"/>
    <path class="st3" d="M820.3,91.2l12-.2h3.1l11.8.8h3.1l11.8-.8h3.1l26.7.4,3.3-.2,6.7-.6h4.9l2.7.6,1.2,1,.4,1.4.4,2.5v5.3l-.4,4.9v3.3l.2,4.9.2,2.9-.2,2.9-.4,2.4-.8,1.4-1,.8-2.4.4h-1.6l-3.1.2-18.4-.4h-3.1l-10,.4h-3.1l-10.2-.4-8.8-.6h-2.9l-1.6.2-2,.4-1,1-.2,1.2-.4,2.2-.4,4.7v3.1l.2,3.3.2,2.2.4,1.4.8,1,2.2.6,6.3.4,6.3-.4h18.6l22-1.2,6.1.4,2.2.4,1.2,1,.6,1.2.2,2.2.4,3.3.2,3.3v6.5l.4,4.5-.4,5.9-.4,2.4-.8,1.4-1.4,1-2,.4h-3.9l-8.8-1-3.1-.2-15.7,1-12.5-.4h-3.1l-7.8-.6-3.3.2-2.4.2-1,.6-.6,1.4-.2,2.9-.6,4.9-.2,3.1v4.3l.2,2,.6,1.4.8.8,2.2.2,10.8.4h3.1l10.6-.8,13.9.8h3.1l13.9-.8h2.9l2.9.2,7.1.8,1.2.6.8,1.2.2,2.2.6,10.8-.2,3.1-.8,10.6-.2,2-.8,1.4-1,.8-25.7.8h-3.1l-10.4-.8-3.1.2-10.2.8-3.1.2h-13.5l-10.2-.8h-3.1l-16.9,1-6.7-.4-2.4-.4-1.4-1-.6-1.4-.4-2.2-.4-4.5-.2-3.1.2-2.9v-2.9l.8-10.4v-3.1l.2-10.4-.2-3.1-.6-10.4-.2-3.1.4-10.6v-16.7l.8-10.4-.2-3.1-.6-10.4-.2-3.1v-4.7l.4-5.9v-2.9l.6-10.2.2-2.7.6-1.6,1-.8,1.6-.2,2.5-.4,12.7.8-.2-.6ZM808.7,219.2l-.8-.4-.4.4v.8l.6.8,2.4-1.4-.8-.6-1,.4ZM813.8,103.5l-5.9,1.2,1.4.4,1.6,1.6,1.6-.4-2.2-1v-.4l5.7-2-2.2-1.4v2h0ZM819.9,115.9l-.6.6.2.2v.4l-1.8,1.2,2.5,3.5h-.2v.2h-.2l-.6.4-.2-.2h-.2l-3.5-2.2-5.3,2.9v.2h-.2l-.8.8v2.7l.2.2.4-.2v-.2l-.2-.2,4.1-1v1.6h-1l-2,2.4,1.8,4.7h.6v-.6l.8-1.2,1.2,3.5-2.5,2.9,1.8.4.6.8h2.7l.4.6.6.2.2-.6-.2-.4-2.4-.6-1-2.7,2.7.4,2,2,.4-2-6.1-4.9.4-.8,1-.6,1.4.2v.2l4.7-2.4-.2-1.4-.8-.6-1.8,1-.8-.2-.2-1,.6-.6.2-1,2.7-.4,3.5-6.5-.6-1-2.5.6-.4.4-1.4-2h-.2l.2.3ZM809.9,101.8l1,.8h1.2l.2-.2v-.4l-1-.6s-1.4.4-1.4.4ZM810.7,212.7l-.2.2.2.4h.8l.2-.2-.6-.4h-.4ZM811.1,143.9l.2.2-.6,1.6,1.2,1.6.2-1.6-.2-3.7-.8,2h0ZM810.9,152.7l.6.4.4-.4-.2-.6-1-.2.2.8ZM813.6,110.2l-2.2.4-.2,1,.6,1.4,1.2.6.2-.4.4-.2.2-2.7h-.2ZM811.3,154.7l.4.6h1.2l-.6-.8-1-.4v.6h0ZM813.8,162l-2.4,1.8v.6l.6.2.4-.2,3.3-3.3-1.8-1.4-.2,2.4h.1ZM811.5,221.7l.6.6,1-.2-1.6-1v.6h0ZM819.7,141l.8.4-1.4,2.5-.6.2.8,1.2,2.5-.2.4,1.2,1,.6-2.7,2.9-1.2-.6-3.1,2.4,1.8,1.2-2,2.2.4,1.4-.6,1,.4,1,1.4-.6.8.4.4,1-1.2,2.9,1.2.6v1.4l-1.6.2-.8,1,.2.8,2.7,1.4.4,1,1,.6v2.4l-.8.6h-1.8l-2.5-1.8-2.2,3.7-1.6.4.8.6,1-.6-.4,2.5,1,1.2.8-.2.4-.6-.2-.6h-.6l1.4-3.7h.8l.6.4h.6l.8,1.8.4-1.8,2.4-1.2.2-3.3.8-.6v-1l.6-.6.4-2.4-2.5-5.9-1.4.2-.6-1.4.6-1.4-.6-.8,2.9-2.2.2-.8,1.4.2.4.6h.8l.2-.2-.4-1-2.4-.6v-1.8l1.4-.2,1.8.8.6-1-1.4-.6-.8-1.6,1.4-.6.6-1.4,1.8-1.2-.2-2.7-.6-.2-1-1.2-.8.2-.2.6,1,1.4-.2,1-.2.2h-.2l-.8-.8-2.4-.2-1-1.2v-2.5l-1.2,2.9h-.1ZM820.5,112l-1-.2-.2-.4h-.4l-.6.4v.6l-.6.8v.4l-1.4,1.2h-1l-.6.4-2.5,2.7v.2l-.2.2v.4h.2v.4l.8-.2v-.2l1.4-1-1.2,1.4,2.7-2.2-.2-.2h-.4l.2-.6,5.5-3.1.8.2.2,2.4-.4.6h.2l.2.2,1.6-.4,1.2-1.6v-3.1l-1-.4-3.3,1.2h0ZM812.5,170l-.2.2-.2.8.8-.2v-.8h-.4,0ZM812.5,207.2l.2.2h.2l.2.2v-.2h-.2l-.2-.2h-.2ZM816.4,213.3l-1.4.4-1,1.6-1.2.2-.4.4.6.8h.6l2.9-2.9v-.4h-.2.1ZM814,128.6l.6,1-.4.4-1.4-1.6h1l.2.2h0ZM813.4,180.2l-.6,2.4.8-.2v-.4l-.4-.4,1.8-1.8-1.6.4ZM813.4,106.3l-.4,1,1.2-.4.6-.8-.6-.4s-.8.6-.8.6ZM813.8,140.4l-.2.8.2.2.8-.2.2-1-.4-.2-.6.4ZM814.2,154.3l-.6.4.6.4.8-.2.2-.2-.2-.4h-.8ZM814.8,184.3l-1,.8.2,1,2.7,1.2,2,.8-2.5-3.7h-1.4ZM814.4,109l.4,1.8.8.2.4-1.2-.6-1.4-1,.6h0ZM817,127.3l-1,1.6-.8-.2-.2-.8.2.2v-.2l.6-.8,1.2.2ZM815,144.1l.2,4.9.8.6.8-1.2-.2-.4.2-1,1-.2.6.4h.6v-.6l-.4-.2-.4-1.4-2-1h-1.2,0ZM815.2,188.8l-.2.2.2.6h.4l.4-.4-.4-.4h-.4ZM815.4,224.9l-.2.4,1,.8,1-.8-1-.6-.8.2h0ZM816.4,183.5v.8l.8-.2.2-.8-.2-.2-.8.4ZM816.6,141.2v.6l.4.6.2-.6v-.6h-.6ZM817.2,208.8l.4.4v-.2l-.4-.4v.2ZM818.1,101.4l1,1.4v.8l.8.8-1,3.7.6,1.2,3.5,1.4,1.2-.4.6-1-3.1-1.6v-1.8l4.9-.6-.4-1-1.4-.6.2-.2-1.6-1h-1l-1-1.6-2.4-.6-1,1h.1ZM833,113l-.6,3.9-1.4.2-1.8-2.4h-2.5l-.8,4.7,1.4,2.9-1.8.2-1.4,1.8.8.6v2h-1.4l-.8-.6-2,3.5-1.8.6-.4,1.2,1.4-.6,1.8,1.8,1-1.4-.6-1h.2l.2-.2h.8v.2h-.2l.6.8,1.8.2.6,4.5-2.4-1.4-.2,2.4,1.8.2.4-.4,1.8.6.8,1.2,1.4.4.6-.6.2-1v.2l2-1.4-1.4-.2-.6-1,.2-1.4-.6-1.2-1,3.9h-1.6l1.2-7.1,1.4-.6-1.6-1.2-.2-1,1.6-.6.4-.6-.8-.6.2-.8,2-.6.4,2.2.6-.6.4-2.5-2.4-2.9.2-1.2.8-.2,1,.4,1.4-2-.2-4.1-.8.6v.2ZM818.7,214.3l.4,2.4.6.2v-.2l.2-.2,1.6.2-.6-1-1.2-1.2h-.2l-.6-.4-.2.2ZM819.3,133.9l2.5,1.4,1.2-.8-1.4-.4-1-.4-.8-1.2-.6,1.4h0ZM821.9,177.6h-1.8l-.8.6,2,1.2.6-1.4,1.6.6,1.2-1.4-2.7.4h0ZM819.9,151.4l.2,1h-.4l-.2-1.8.4.8ZM821.7,161.4l-.4.6v.4h-.6l-.6-.2v-.4h.2l.4-.6,1,.2h0ZM824,103.9v1l-3.5-.6.8-1.6,2.7,1.2ZM821.9,174.1l-1.2.6,1.4,1,1-.8-.4-.8h-.8ZM820.7,182.9l.2,3.3,1.2-1.6-1-1.8h-.4ZM821.9,164.3l.4.6-.8,1v-.2l-.4-.2v-.6l.2-.2v-.6l.6-.4v.6h0ZM821.7,180.8l-.2.8h.6l.4-.6v-.8l-.8.6ZM822.3,155.9l-.6.2.8,1,.6.2.4-.2v-3.5l-1.2,2.4h0ZM822.5,138.4v.4l.6.6.4-.6-.2-.4h-.8ZM833.8,109.2h-1l.2-1.2-.2-.4h-.2l-.4.4-.2.8.2.2-2.5-1v-.2h-.8l-.8-1.4-.8.4-.2-.2-1.6-.4h-1l-.6.6,1.6,1.2h1.2l1.6,1.2.6-.6-.4,2.7,1-.6.4-2-.2,2,1.4,1.2.8-.2v-.6l-.6-1,3.3-.6.4-.8.4-.2-.2,3.1.6.2.6-3.5h.4l-1-3.3-2,4.1h0ZM824.4,157.3v.4l3.3.2.6-.8v-1l-1-1.4-2.9,2.5h0ZM824.8,171v1.8l.4.4,1-.4-.4-2-.4-.2-.6.4ZM825,162.5v.4h1.6v-1l-1-.2-.6.8ZM825.4,214.5l-.2.4.6,1.4h.8l.4-.6-.4-.8-.6-.4h-.6ZM826.2,167.8l1.2,1.2.6-1-.4-.8-.6-.2-.8.8ZM827.9,144.7l-1.4,2.4,1,.6,1.8-.6.2-2-.6-1.2-1,.8ZM827.2,151.4l-.2,1.2.6.8h.8l1.6-2.9.8-.2-3.1-.8-.4,2h0ZM827.7,215.1l-.6.4.6.8,1.8.2v-.4l-.2-.2h-.6l-.4-.8h-.6ZM827.6,103.7l.4.6,1,.2.8.2.2-.4-.2-.4-1.6-.4-.6.2h0ZM828.1,196.6v1.6l.8-.2.4-.4.2-.8-.6-.6-.8.4h0ZM829.1,141.8l.2.8,2.2,1,.6-.8-.2-1.2-1.8-.4-1,.6h0ZM829.3,157.1l.2.6.6.2.4-.2v-.4l-.8-1-.4.8h0ZM829.3,225.1l.2.4.4.2.4-.2-.4-1.2-.6.8h0ZM830.9,209l-.6.8h-.2l-.6,2.7,1-.6,2,.4.2-1.8-.2-.4.4-.8-1-.6-1,.2h0ZM831.9,153.5h-.4l-.2.2-.8-.4-.6.6.6.6,1-.2.2.2h1l.8-.8v-.6l-.8-.2-.8.6h0ZM830.1,174.7l-.2.6.6.8.6-.8-.4-.8-.6.2h0ZM830.9,170l-.6.8.2.6,1,.2.4-1.2-1-1.4v1h0ZM830.5,167.1v.4l.2.2.2.4.4-.4v-.8l-.8.2h0ZM831.7,164.1l1,1-1.2,1.2,1.8-.4-.8-2.7-.8,1h0ZM832.3,156.9l-.6,3.3,2-.6.6-2-.2-.2v-.2l-.8-.8-1,.4h0ZM832.6,222.7l-.2.8.2.2-.6.8v3.5h-.2v.4l-.2.2,1.4.6-.2-2.7.6-1-.2-.4.6-.4-.2-2.2-1,.2h0ZM832.5,217.2l.8.6.4-.2.2-.4-1.2-.4-.2.4h0ZM832.8,129.6l1,.2v-.4l-1-.2v.4ZM833.4,200.4l-.4,1.6.8.6-.2-1.2.4-.6v-.4h-.6ZM833.8,134.5l-.2.4.2.4.6.2.4-.2-.2-.8-.4-.2-.4.2h0ZM834.6,125.1l-.8.8,1.2.2.8-.6-.2-.6-1,.2ZM835,115.7v.4l1.6.6.8-.8h-.6l-.6.2-.6-.6-.6.2h0ZM837.2,102l-.6-.4-.6.6.4.6.8-.2h.2l.2.2h.8l.8-.6v-.6l-.8-.2-1.2.6h0ZM837.5,215.5l-1,.2-.4.6.6.8.8.2.6-.4.2-.6-.2-.8h-.6,0ZM836.6,168.2l.2.8.2.2.4-.8-.4-.4-.4.2ZM838.5,120.6l1.4.4-.8-1-.8-.6.4-.4v-.4l-.8-.2.6,2.2h0ZM838.9,103.9l-.4.4.4.6.6.2.6-.2.2-.6-.2-.4-.4-.2-.8.2h0ZM838.5,214.1l.2.6.4.2.4-.2v-.4l-.4-.6-.6.4h0ZM839.7,219.2v.6l2,.6.8-1-1.6.4-.6-.6h-.6ZM840.9,114.9h.8l1,.4.6.8.2-1.6-2.7-.2.2.6h0ZM841.3,117.7l.4.4.4-.2v-.2l-.4-.6-.6-.2.2.8h0ZM841.3,212.7l.8.6-.2,2.2,9,.8,1.6-1.2h-1.8l-4.9.4-.8-1v-1l1-.4.2-1.2-.6-.8-4.3-.2v1.8h0ZM842.3,111.4l.2.6.2-.4.4-.6-.6-.2-.2.6h0ZM843.2,208.4l.4.8h2.2l-2-1.6-.6.8h0ZM844,225.1l1.8.4-2-1.8.4-1-1-.2.8,2.5h0ZM843.6,98.8l.6.4-.2,1.8,7.6,1,1.2-1h-5.5l-.6-.6v-1l.8-.4.2-.8-.4-.6-3.5-.4-.2,1.6h0ZM844.6,109.2l.2.8.2.2.4-.2.2-.4-.4-.6-.6.2h0ZM844.8,116.7v1.4l.4.2,1-1.6-1-1.6-.4,1.6ZM845,104.3l.6.6.8.2.4,2.4.4.4-.4,2.5-.2.4.2.6.4.2,2.9-4.9-.2-1.2h-1.4l.2.6.6.2v.2l-1.6-.6v-.2l-.6-.8.2-.8.2-.2v-.4l-2.5.8h0ZM845.8,119.2l-.2.2.2.6.8.6v-.8l-.4-.6h-.4,0ZM846.4,217.4l.2.8,2.2.4.8.8.2-1.8-2.5-.6-.8.4h-.1ZM847,220.6l.2.8,1,.4-.4-1.2h-.8ZM848.1,213.7l.4.8.6-1.2-.6-.2-.4.6h0ZM848.5,208.2l-.2.8.6.8,1.4-.2,1-1-1.4-.6-1.4.2h0ZM849.1,96.3l-.4.6v1.2l.6.4.8-.4,1.8-.2-1.2-2,.6-.4-2.4-.4.2,1.2h0ZM850.3,104.9l1.8.8,1.4-.4-.2-1.2-1.4-.2s-1.6,1-1.6,1ZM851.1,211.2l-.2.6.6.6.6-.2v-1l-.4-.2-.6.2h0ZM852.3,206.3l-1,.4.8.8.8.2.6,2.9.6.4-.4,4.1.6.2,2.4-5.3,1-.6-.2-1.4h-2l1,1h.2v.2l-1.6-.4v-.4h-.4v-.2l-.6-1v-.8l.4-.4-.2-.4-2,.6h0ZM851.7,221.7l.4.2,1.2-2-1.4-1.8-.2,3.5h0ZM852.4,116.5l.2,1h.4l.2-.2.2-.8-.8-1.2-.2,1.2h0ZM878.3,206.1l-2.2,3.7-2-.2-2.5-2.7-1.2.6-.2,1.8.4.6-.6,2.5-2.9-3.7-.8.4-1.8-.4-.6,1.8-.6.4-1.2-.4-1.2.4.6,1.6h2.2l-.2,1.6-1.2.8-1.6-.8.4,1.4,1.2.4-.6,1.4-1.4.2-1-1.6v-1l-2-1.4-1.2,2,.2.8-2,1.2-.8-1-1.2.2.8,1,1.2.4,2-1,.6.2.4-1.8h1l.4,1,1,.4-1.6.4-1.6,1.8v.6l.6.4,1-1h.6l.2,1.2h1l.4-.8.8.6-1.2,1.6-.4-.4-2,.6-2-1-1.6.2,1.8,1-.2,2.2,1.8,1.2h1l.6.4-.4.2v.4l.4.6,3.5-1.6-.6-2,1.2-1.6.2-2h.4v-1h.6l.4-.4,4.3-.2.6-.8-.8-.6h-1l-.2-.8.6-.8,1,.4,1-.8v-1.4l2.9-1.2.6.6h.8l.6.8,1.4.2.4.8-1.8,1.4.8.4-.2,1-4.1,1.8,3.5,1,.4,2.4-.8,1.8,1.4,1.4v.6l1.4.6.6-.8-2-7.3,1.4-2,2.9-1,.6-1.2-.8-1-1.2-.4,1.6-3.7-2.2-.6v-2.7h-.2l.2-.3ZM852.6,223.3l.2.8.8.6v-.8l-.4-.6h-.6ZM855.4,97.5l-.2.8.4.8.8.2.2-.6-.2-.6.2-.6-.2-.2s-1,.2-1,.2ZM855.4,104.3l.6.8.2-1.8-.8,1ZM856.8,211.2l2.2.8,1.6-.6-.2-1.4-1.6-.2-2,1.4ZM857.9,117.1v.4l.4.4h.8l-.2-.8h-1ZM862.1,113.5l-3.1-1.4.6,1.4-.6,1.8.2.4h.6l.8-1.4,2,.8,1.4-1.8v-1.4l-1.8,1.6h-.1ZM860.5,98.8l-.2.6.4.8,1.4.6,1.4-.8-2.2-1.6-.8.4h0ZM860.3,208.8l1,.8.2-1-.2-1-1,1.2ZM862.6,207l4.7-.2,1.6,2.7.6-.8v-.8l.2-.2-.2-1.2v.2l-1.2-.8-1.2.2-2.4-1.2-2.2,2h.1ZM864.8,100.4l-.6,1,.6.8v.4l2.7-.6,1,.6h1l.2-.2v-.2l-.6-.6-1.4-.2-1.4-1.2-1.6.2h0ZM864.2,104.5l.6,1.2.8-1.4-1.4.2h0ZM865.8,221.2l-.8,2.2.2.6h1l.8-1.8,2.4.8,1.6-2.2-.6-1-.4.8-1.2.6-3.7-1.6.8,1.6h0ZM871.1,223.3l-.4,1-1.4.6,1.2.8,1.4-.4.6.4.4-.4v-1.2l-.8-1-1,.2h0ZM869.9,104.7l-.4.4v.4l.6.6,1.4-.6.2-.6-.6-.4-1.2.2ZM869.9,107.7l-.2.4.2.2,1.4-.4-.8-.4-.6.2h0ZM870.1,100.6l1-.6.8-1.6v-1l-.8-.2-1,3.3h0ZM873,216.1l-1.6-.4-.6,2,.2.4.8-.2,3.7-3.1-2-.2-.6,1.6h0ZM872.2,221.2v.4l.6.6.8-.2v-.8l-1-.2-.4.2h0ZM874.6,102.8l-.2.8.8-.2.4-.6-.4-.4s-.6.4-.6.4ZM874.4,206.1l1,1.6.8-1.8-1.2-1.4-.6,1.6h0ZM874.6,105.7v.4l.6.4h1l-.4-1-1-.2-.2.4h0ZM875.6,111.4l-.6.8.2.8,1.2-.4.8-1-.8-.4-.8.2h0ZM879.5,218l-.4,1,.6,1,.8.2.4-.8-.4-.8.2-.6-.2-.4-1,.4h0ZM880.3,225.3l.4,1.2.4.2.4-.2.2-1.2-1-1.2-.4,1.2h0ZM882.2,210.2l-1.2,1.4v1.6l.8.4,1-.6,1-.4.6-.8-1.2-1.6h-1,0ZM882.2,216.6l2.4-.4v.2l.2.2v1l-2.7,2-1,2.2,1.6.4,1.2-.4-1.2-1.6,3.3-2.7,1.2-2-3.7-.2-1.2,1.4h0ZM881.3,208.6l.2.4h.8l.8-.4-.8-.6-1,.6ZM882.2,102.6l-.2.4.2.4h.4l.4-.4v-.4l-.4-.2-.4.2ZM883.8,97.5l.4.4h.4v-.6l-.6-.2-.2.4h0ZM883.8,207.2l.2.6.6.4,1.8-.6.2-.6-1-.6-1.8.8h0ZM884.4,213.7l.2.8,1.4-.4,1-1.2-1-.6-1.6,1.4h0ZM885,102.8l-.2.4.6.4h.4l.2-.4-.6-.4h-.4ZM885.6,219.4l-.2.8,2.2,1.6,1.6-1-2.5-1.8-1,.4h0ZM886.8,223.7l1.2.6,3.1-.6-.4-1-.6-.2-3.3,1.2ZM887.1,210.4l2,1,.2-.2v-.4l-1-.6-1.2.2ZM888.5,212.9l-.2.4.2.4.4.2.6-.4-.2-.6-.4-.2-.4.2h0ZM888.5,217l1,1,1-.2-.6-1-1-.2-.4.4ZM893.4,214.9l-.4,1,1-.2.6-.8-.4-.4-.8.4h0ZM893.2,218.6l.2.4.8.2.4-.4-.2-.4-1-.2-.2.4ZM893.6,221.7l-.4,1,.6,2,3.5-1.4,1,1h1.2l.4-.6-1-.8-1.6-.2-1.6-1.4-2.2.4h0Z"/>
    <path class="st3" d="M1174.1,150.2l.8,10.6v3.1l-.8,10.4v3.1l.6,10.4v3.1l-.8,10.4v3.1l-.4,10.4.2,3.1.8,6.1.2,2.9-.2,1.6-.2,2.2-1,1.6-1.2,1-2.2.4-2.9.2h-3.1l-7.8-.6-3.3-.2h-4.9l-3.5-.2-7.3-1-1.4-.4-.8-1-.2-2-.2-2.7-.2-2.9.4-6.7v-18.4l-.6-12.3v-3.1l.8-12.2v-15.3l-.4-2.4-1.2-.8h-1.2l-1.4,1.8-2,2.7-8.2,9.4-12,14.3-7.8,9.8-1.8,1.6-1.4.6h-1.6l-2.2-.4-2.4-.6-2.2-1.6-9.8-11.8-7.3-9.6-2-2.4-10.2-11.4-2.5-2.5-1.2.4-.4,2.2-.6,12.3v3.1l.8,12.3v3.1l.4,12.3v3.1l-.2,12.2v2.9l.2,5.9-.2,3.1-.2,3.3-.4,2.5-.8,1.2-1.4.4-5.1.6-3.1.2-7.6-.6-3.1.2-9.4.8h-4.5l-2.4-.4-1.2-1.2-.4-1.4-.4-2v-4.5l.4-6.1v-30.2l-.4-10.4v-3.1l.2-10.4-.2-3.1-.6-10.6v-3.1l.6-10.4.2-3.1-.8-10.4.2-3.1.8-10.4v-3.1l-.8-7.3v-3.1l.4-2.5.8-1.4,1.2-1,1.6-.4,2.5-.2,3.3.4,4.3,1h3.1l6.1-.6,3.3-.4,2.9-.2,7.4.2h2.5l2.2,1,2,2.2,6.9,7.6,2,2.5,5.7,8,2,2.5,6.5,7.6,2,2.7,6.1,7.6,2,2.2,1.8,1h2l1.8-1,1.8-2,5.9-7.8,2-2.7,6.3-7.6,2-2.5,6.9-7.6,2-2.5,5.1-6.3,1.6-2.2,1.6-1.6,2-1,2.5.2,10.4.6,9.2.2h3.1l5.9-.4,3.3.2,2.4.4,1.4.4,1.2,1,.4,1.6-.2,2.4-.8,8.8-.2,3.1.4,10.4v3.1l-.2,10.4v3.1l.2,10.4v3.1l-.2.5ZM1030.8,155.7l1.4-1.4.6.4.2-.8-2,.4-.2,1.4h0ZM1033.2,213.1l-1-1.2-.8.2,1.2,1.8.6-.8h0ZM1032.6,181.9l-.6.4.2.2.8.2v-.4l-.4-.4ZM1033.8,184.9l.4.2.6-.4-.2-.4-.4-.2-.6.4.2.4ZM1035.5,198.2l-.2-1-.4-.4h-.4l-.4.6.6,1.4h.4l.4-.6ZM1037.3,167.6l-.2.8.8.4.4,1.6,2.9-1-3.5-1.6-.2-2,1-1.2.2-1.4,1.4-1-1.6-1.2-1.2,1.6.6.6-.2.8-1.8-.2-1,1.4.2.6.6.2.2-.6h.6l.8,2.2h0ZM1035.3,132.7l.2.2.6-.4.2-.6-.8.2-.2.6h0ZM1036.5,207.8l-.4-.6h-.4l.4,1.4.4-.8h0ZM1038.9,144.1l-2.7-.2v.4l1.4.8,1.4-1h-.1ZM1036.5,127.8l.6.8v-.6l-.2-.6.4-.6v-.4h-.4l-.4.6v.8ZM1037.7,133.3l-.6.6,1.4.2.2-2.5-.6.2-.4,1.6h0ZM1038.3,211.7l-.2-.2h-.4l-.4.6.2.8.8-.4v-.8h0ZM1037.9,114.5l.4.6h.4l.2-.2v-.4l-.6-.2-.4.2ZM1037.9,191l.4,1.2,1-.2.2-1.2-1-1.4-.6,1.6h0ZM1039.2,203.3l-.2-1.4-1.2.8,1.4.6h0ZM1042,152.9l.2-.2.4.2.4-.2.6-1-1.2-.8-.2.6.4.6-.2.2-.6-1v-.2l-.2-.2v-.2l.2-.2v-.6l.4-.6h.2l.2-.2-.4-.4-1.8-.4v.8l.6.4-1,2.4.2.2-2.2,2.5.4.4,3.5-2.2h0ZM1038.3,180.2h1.2v-1.2l-.6-.4-.6.4-.2.6.2.6h0ZM1038.5,194.7h1.6l-1-.8-.6.8ZM1039.2,120.6l.4.4.8-.2,1-.2-.6-.8-1.4.2-.2.6h0ZM1039.6,114.5l1.4.6h-.4l-.2.6,1,.2.2,1,.6.2.4-.2.2-.4-.6-1.4,1.6-.4.4-.6-.2-2.2-1-1-.2,2.5-3.1,1h-.1ZM1041.2,212.1l-1.2-.8.2.6.6.4h.2l.2-.2h0ZM1041,218.6l-.4-.2-.4.2v.4l.2.2h.6v-.6h0ZM1041,221.3l-.4-.4-.4.2v.6l.2.2.4-.2.2-.4h0ZM1040.6,177.2l-.2.2v1l.8.8h.2l.2-.8-.4-.6v-.2l-.2-.2.4-.8-.4-.4-.6.4.2.6ZM1040.8,110.2l.6.6.2-.2v-.4l-.6-.4-.2.4ZM1041.8,205.1l1.2-1.2-.2-1.4-.8-.4-1.2.4.6,2.5-.6.8v1l.2.2h.2l.6-.6v-1.4h0ZM1046.3,119.6l.4-1.4h-1.6l-.4.4-1-.2-.6-.4-.8.8v.2h.6l.4,7.4-.2-4.9.6-.6h1l.2.8h.8l.6-.4-.2-.8.8-.8-.6-.2h0ZM1042.4,200l.8,1.4.6-.8.8-1.2-.2-.8-.6-.2-.8.4-.6,1.2h0ZM1043.4,208.4l2.2.6.2-.8-.4-.4-2.5-.4.6,1h0ZM1044,164.5l1.6,1.2h1.2l-1.6-1.6,1.4-2.9-1.2.6-1.6-.6-.6.2v.6l1.4.6-.8,1.4.2.6h0ZM1044,134.5l.6-.4v-.2l-.2-.2-.6.2-.4.6h.6ZM1045.3,194.9l.2-.2-.2-.8-.8-.2-.6.4-.2.6.6.4,1-.2ZM1044.3,115.9l-.4.6.2,1-.2.6.8.4,1.4-1.8s-1.8-.8-1.8-.8ZM1046.9,188.8l-1-1h-1.2l-.4.6.8,1.6-.2.8,2-1.2v-.8h0ZM1046.1,220h-.4l-.4.4v.2l.2.2.6-.4v-.4h0ZM1046.7,144.9h-.4l-.4.4v.6h.6l.2-1h0ZM1047.1,139.8l-.8.2-.2.4.2.4h1l.8-.6-1-.4h0ZM1048.7,191l-.2-1.2h-.6l-.6.4.2,1,.8.8.4-1h0ZM1049,110.2l1,.8.6,2,1.6.2-1.4-1.4v-.2l.8-.6,2.7,1.2,2-.4-1.2-2-.8,1.6-5.3-1.2h0ZM1056.3,122.8l.6-.4,2.2,2v.4l.6.2,1.2-.8-.6-2.5-1.4-1.2-2.4.6-1-1.2-.6.4v.6l-1.8,2-1-.6-2.2.4-1,2.7,1.6,1.6v-.2l1.4-.6-.6,1.6,1.4-.8.4-1.4-.4-.6v-.8l1.6-.6.2-.8h1.8ZM1051.4,116.7l-1.6-.4-.6.8v1.4l.8,1,.8-.2.8-1.8-.2-.8h0ZM1051.8,108.6l1.4,1.4h.4l.2-.4-.6-.8-1.4-.2ZM1054.1,113.9l-.2-.4v-.2l-1,.2-.6.6,1,.2.8-.4h0ZM1053.6,116.1l-.8.2-.4,1.6.6.4.8-1-.2-1.2ZM1067.5,145.1l.8.2.8-.4,1.2-1.2.6.2.6-.2v-.4l-.6-.4-.4.4h-1l-.6.6-1.2-.2-1-1,2.2-1.4,2.4.2-1-1.6-7.1.2-.2-.8,1.6-1.6h.2l1.6-3.9.2,1.8-.6.8.4,1,.2-.8.4-.4h2.2v-1.4l-1-.2v-.2l.2-.2v-.2l.4-.4v.2l1,.2,1.2-.8,1.4.6,1.6,2.2-2.2.4v.2l1.2,1.6,1.4-1.2v-.2l3.9-.8.2-3.5-1,.6-2.9-1.8,1.8,3.3-1,.8-.2-.2h-.2l-3.1-5.3.6-1.2-1.6.2-.6-.6v-.4l.6-1v-.6h-1l-.2-.6.4-1.2.4-.2v-.2h.2l1.4,1.2.2-.8-1.4-1.8-2.7-.2-.4-.6,1.4-1,.4-1.6-.6-.4-.2-.6-.6-.4-.4.6.4,1.4-.6,1.2-4.3,1,.2,1.4,3.5,2.4-1,1.4.2,1.8h.8l1.2,1.4-1,.8h-.8l.2,2-.8-.6h-1l-.4,1.8-.8.4-.4-.2-.8-2,1.8-2-.8-2.7v.2l-.2-3.3-1-.6v.2l-1.2.4-.8,1v.2l-3.1-1v.6l.4.2v.2h.2v.4l-.8.4-.2.6,5.1,2.4-.2,1-5.5-.8-.6,7.6,1.6,2h.4v-.2l-.2-.2h-.2l2.4-3.1.6.4.2.6-.8,1.6.2,1.8,4.1,2.4.2-.4-.4-.4v-1.4l2.7,1.8v3.5l.8-.2.6-.6-.2-.2ZM1056.3,117.9l.2.2.2-.2,1.8,2.2.8-.2.4-.8-.2-1-1.2-1.2.6-1.6,1.6-.2.6.4.8-.2-.8-2.5-.4-.2v-1.2l-1-.8-1.2.6-2.2,6.7h0ZM1059.4,113.9l-.8-.2,1.2-1.2v.2h.2l.8,1.4-.4.6-.6-.2-.4-.6h0ZM1061,116.1h-.6l-.6.4.6,1.4h.8l.4-.4v-.8l-.6-.6h0ZM1062.2,138.6l.2.2h-1l-1-.2.6-.4h.8l.2.2h.2v.2h0ZM1062.6,135.5l.2,1.6-.6.4-.6-.4h.2l-.2-1,1-.6ZM1062.2,117.9l1,2.2.4-.6-.4-1.2-1-.4ZM1062.8,114.5l.4.4h.4l.2-.2v-.4l-.6-.4-.4.2v.4ZM1064.7,119.2h.6v-.6l-.2-.2-.4.4s0,.4,0,.4ZM1065.1,117.3l.2.4h.6l.2-.4-.2-.4h-.6l-.2.4ZM1066.3,133.9v-.6l.2.2-.2.4h0ZM1067.7,115.1l.8,2,.4.4.4-.2v-1.2l-.8-.8v-.4l-.8.2ZM1068.8,137.8l-1.2-.4.4,1.2,2.5-.4.2-1.4-2,1h0ZM1070.6,152.2l-1.8-2.2-.2-.8-1-.8.4,1.6.2.2h.2l.6,1.6,1.6.4h0ZM1068.7,145.7h-.4l-.2.6.2.6.4.2.4-.6-.4-.8ZM1071.2,145.5v-.2l-.6-.4-.2.4,1,.6-.2-.4h0ZM1074.1,151.4h.8l-.2-.8v-.4l-.8-1,.6-.8h.6l.4-.4-.4-.4-1-.2-.4-.4-2.7,1,3.1,3.3h0ZM1090.4,170.4l-.4-.4-.6.4-.6-.8v-1.8l-.6-.6.2-.4.4-.2h.6l.6-.4,1.4.8-.8-1.6,1-2.2-1.8-2.4.2-1-.6-.6v-.8l-6.3-4.3-.4.8h-.2l-.2.2-1.2-.6-.4-1.2-.8-.2-.8-1v-.2l.2.2,1-.4.4-1.8-.4-.8,1-.6h.6l.6-.4v-.4l-2.7.6-1-1.2,2.5-1.4-.2-1-1.4.4-1.6-.8.8-1.2-.4-1.2.4-1.8-1.8-1.6-1.8-.2-.4.6.2.6,1.6.2.4.8-.2.2v.2h-1l-1.8,1.2-1.6-.4v-.2l-1.4-1.4,1,2.7.8-.2.6,2.5-.4.4,1.2.4,1.8-1.6,2,.4-.2,3.5-1.2.4-.8,3.3,2-.2-.2,2.5,1,.8.2,1,1,.4.6-1.2.8-.2.8.4.8,2.7,2.2.6-1,1.2v1l.6.6,4.5-.4,1.4,1.6-.2.8-1.2,1-2.9.4,1,2.7-1,2.2,1.2-1,1.4,2,1.2.2.4-.6v-.6.6ZM1073.9,156.1l-.6-.4h-.4l-.2.6.6.2.6-.4h0ZM1073,139.6v.4l.2.2h.6v-.4l-.8-.2h0ZM1073.4,124.7l.8-.4.2-1-.4-.2-.6.6v1ZM1076.1,157.1h-1.8v.4l.2.2h.8l.8-.6h0ZM1074.5,127.7l.2.2h.4l.4-.4-.2-.2h-.2l-.6.4h0ZM1077.3,155.3l-.4-.2-.6.4-.2.8.8-.2.4-.6v-.2h0ZM1079.2,150.8l-.2.2-.6-.6-.6-.4.8.2.6.6h0ZM1078.3,130.6l.2.4.4.2.4-.2.2-.4-.6-.4-.6.4ZM1081,136.5l-1.8,1.8.6.6,2-.6.2-1-1-.8h0ZM1081.2,159.2h-1.8l1.2,1.8-.6,2.5.4.4.4-.2.4-4.5ZM1082.4,141.8l-1-1.6-1-.2.2,3.5,1-.2.8-1.6h0ZM1082.8,152l-.2.4.2.4,1.4-.2.2-.6-2.2-2.4.6,2.4h0ZM1082.4,144.5v.2h.2v-.2l1.4,2.4,1,.4.6-.6-.6-.8.2-1.2-.4-1,.6-.6-2.9,1.4h0ZM1084.9,167.2l-.4-.2-.2.2v.6l.2.2.4-.2v-.6ZM1085.5,156.1l.4,1-.6.2-.6-.2.2-.2v-.4h.4l.2-.4h0ZM1085.7,148.2l-.8,1.6.4,2.2.6-.2v-.6l1.8-1v-1l-2-1ZM1086.9,146.1l.6.2.6-.6h.2l.8-.8.2-.8-.4-.6-.6.4-.6,1.4-.8.2v.6h0ZM1087.9,158h.2v1.2l-.2-.2-.4.2-.2-.8-.2-.2h-.2l.2-.8.8.6h0ZM1089.4,148.4l-.2-.4-1.2-.2.2.8.4.4.8-.6h0ZM1089.2,153.7l-.8.4v.8l.4.2,1-.8-.6-.6h0ZM1090.2,146.9l.6.4,1,2.2,1-1.6-.8-1.6h-.2l-.2-.2-.8-.2-.6,1h0ZM1092.4,174.9l-.8-.2.2-2.2-1,1.2,1,2,.6-.8h0ZM1092.4,156.9l.2,1,1.4.2-.2-1.2-.6-.2-.8.2ZM1093.3,165.9l.8-.4.2-.4v-.6l-.6-.4-1.2,1.6.8.2h0ZM1093.9,160h-.6v.8l1,1.2h.4l.4-.8-1.2-1.2h0ZM1094.1,169l1.6-.4-.2-1.4,1.2-.4v-1.8l-2.9,3.7.4.2h0ZM1093.9,152.2l1.2.8v.8l1-1.2-2.2-1.6v1.2ZM1099,175.9l-3.9-1-1,.6v1.2l.6.6,4.3-1.4h0ZM1095.1,155.1h.8l-.4-.8h-.4l-.2.4.2.4h0ZM1095.5,173.5h-.4l-.2.6.4.6.4-.4-.2-.8h0ZM1101.2,154.5l-.4-.8-1-.2-.4-.6-1.2,2.7-2,.2.4.4-.2.2v.6l.4-.2v.6l.6.4.6-.6-.2-.6.4-.4h.2v-.2l1.8-.2,1-1.4h0ZM1097.1,169.8h.2l.2-.2v-.6l-.4-.6-.2.8.2.6h0ZM1097.9,178.4l-.4-.2-.4.2v.4l.4.2.4-.2v-.4ZM1099.6,173.5l-.2-2-1.4-.4-.4-.2-.2.4,2.2,2.2ZM1100.2,160.4l-.2-.4-.4-.2h-.4l-.2.4.6.8h.4l.2-.6ZM1099.6,152.2l.6.4h.4l-.2-.8h-.6l-.2.4h0ZM1104.1,149.6l-1.2.2-1,1.2-.4,1,.8.4.4-.2,1.4-2.5h0ZM1103.3,156.1h-.4l-.6.4v.2l.4.2.6-.4v-.4ZM1107.1,151.4l-.2-.6-.8-.2-1.4.6-.4,1.4,2.5-.4.2-.8h.1ZM1105.1,159l-.2-1.4-.4.8v.6l.4.2.2-.2h0ZM1106.9,154.5l-.4-.2h-.8l-.4.8.8.2.8-.4v-.4h0ZM1105.7,144.5l.4,1.2,1.4.2-.6-1-1.2-.4h0ZM1109.4,153.3l1.4-1-.2-1.4-1,1.6h-.4l-.6-.6-.2-4.5-1.2.6-.4,1,1.6.2v5.3l.6-1.2h.4,0ZM1122.8,149.8l-.4-.8-2.4-2.4.8-.4,3.1.8,1.6-1.6-.8-1.2,1.6-2-1.4-.6-1.2,1.2-.8-1,.2-1.2,1.4-.4-1-.6-1,.4v.2l-.4-1.2.8-1,.2.2h2l.8.6,1-.2-1.2-1,.6-2.9,1,.2.6-.8-2,.2-.6,1.8-.4.2.2.8.6.6-.6.4-.8-.4-.8.4.6-2.9-.4-.4-.4.2-.4,1.4-1-.6-.4.6.2.8h-.8l-.2-1.6h.4l.8-1.4,1.8-.6.8-1-1.6.6-1.2-1.6-1.8.4-.4.6h-.6v-.6h-.8l-1,2.9,1,.4,1.6,3.1-.2.2.6.6-.4.4v.6l-2.4,2.4.2,1,1.4-.8.6,1-.8.6-.2.8.8.8-1,2.4h-.8l-.4.6-.8-.2-.8.6v.2l-.8-.4-.2-.6.4-1.2-.2.2h-.4l-.6-.8,1.6-3.1-2.2,1.4h-.6l-.6-.8-1-.4-.6-1.4h-1.4l-.4-.4-1.2.4.2.8,5.3,3.1-.2,3.3-.6.8.2,1,2.5,1.2.6,1.6,1.6-.8,1.6,1.4-.8-3.3,2.9-1.4,1.4.4.4-.8h.4ZM1109.2,156.9l-.2-.4-.4-.2-.4.4.4.6.6-.4h0ZM1111.6,148.6l-.4-.8-1-.2-.6.4,1.2,1.4h.4l.4-.8h0ZM1111.4,157.4h-1l-.8.6.4.4.8-.2.6-.8ZM1110.6,153.7l-.6.8v1.4l1-.4.2-1.6-.6-.2ZM1111.2,140.8l.8.6h.8l.4-.6-.2-.8.4-1.2-1,.4-.4.8-.8.4v.4h0ZM1112.2,155.1l1.6.2.6-.6v-1.4l-1-1-.6.2-.8,1.8.2.8h0ZM1113.7,142.5h-.8l-.4.6.6.4.8-.8-.2-.2ZM1115.1,157.4l-.4-.4-.8.2v.8l-.4.6.2.4.8-.2.6-1.4h0ZM1116.3,139.2l-1.8.8.4,2.2,1,.2-.4-.6.4-1,2.9-1.4-1.2-.4-.8-1.2v-.4l-.6-.2-.4.4.4,1.6h0ZM1115.9,155.3l-.2-.2h-.2l-.8,1.2,1.2-1ZM1116.3,146.1l1.2-.6-.8-1.2v-.4h-.2l-.6.6-.2,3.9,1.2-1.2-.6-1.2h0ZM1121.8,153.9l-.6-1.4-1.4-.4.4,1.6,1.6.2h0ZM1127.3,145.3l-2.5,2.7-2.4-.6v.8l.6.6v.2l.6.4,1.2-.2.6-1,2-.6v-2.4h0ZM1122.6,130l.4.6h.8v-.2l.2-.2-1.4-.2h0ZM1124.9,130.8l.6,1.8,1.8.2-2-2.2-.4.2ZM1128.4,139.6l-1.8.8-.6,1.2,1,.8,1-.8.4-2ZM1126.7,125.3l2.2-.2v.6l.2.2.8-.4-2-1.2-1.2,1ZM1127.8,143.1h-1.2l1.2,1.2v-1.2ZM1128.2,129.2l.4-.4-.4-.4h-.8v.4l.8.4ZM1134.1,139.2l-.8-.2-.6.6-2-1.4h-.6l-2.2-2.5-.4.2,1.6,4.3-.2,1,1,.6,1-1-.8-.4.6-.4,2,.8v.4l.2.2.4-.2.8-2h0ZM1129.6,130.4l-1.8.4,1,1.2,1.8-1.2.2-.6-.6-.4-.6.6ZM1137.5,131l-1-1h-.8l-1.2-1.4-5.7,4.7-.2,1.6,3.7-3.9h1l.6.6-.4,1,1.2.8,2.7-2.4h.1ZM1131.4,136.1h-.6l-.2.4.6.6.4-.2.2-.4-.4-.4h0ZM1131.8,134.1l.4-.4-.2-.4-.6-.2v.6l.4.4h0ZM1132,126.9l.8-1.2h.6l.4-.4-.4-.4-1.4.8v1.2ZM1134.9,136.7l-.4-.6h-.8l-.6.8v1.2l1.8-1.4ZM1133.9,118l.4,1.6,1,.4.6-.8-.6-.4h-.6s-.8-.8-.8-.8ZM1135.5,116.3l.4.4.6.2-.2-.8-.2-.2-.6.4h0ZM1136.7,124.9l-.6.4-.2.6.2.4.6.2.8-.8-.2-.6-.6-.2h0ZM1137.8,134.3v-.8l-.8-.2-1.2,1.2,1,.2,1-.4ZM1136.9,127.5l-.4.2-.2.2.2.2h.8v-.4s-.4-.2-.4-.2ZM1140.4,223.1l-.8-1h-.2l.2-2.2-.2-.4.4-1.6-.4-.2-.2-.4-.8,1.6.4,1.2-1,2.9.2.2,1.8.2.6-.4h0ZM1138,122.8l.2.4h.2l.6-.4v-.4l-.8.2-.2.2h0ZM1142.5,121.2l.4-.2v-.6l-.6-.2-1.2,1,.2.2h.2l.4-.4.6.2ZM1144.5,125.5l-1.2.4-.4.6.2.6,1-.2.4-.6v-.8ZM1144.3,201.5l-.6-.2-.8.4.8.8h.6v-1ZM1148.4,176.3l1.2-1.8h-.6l-.6.6v1.2ZM1149.6,187l1.2,1,.2.8.6-1-.2-1.2h.2l.2-.8-.2-.4h-1.2l-1,.6.2,1h0ZM1152.5,217.4l-.6-.4-1.6.4-.2.8.2.4.8.2,1.2-.6.2-.8h0ZM1153.3,209.4l-.4,2h.2l2.9-2-.2-.4-2.2-.8-.8.8.4.4h0ZM1156.7,225.9l-.2-2-2.9-1.4.4,1.4-.8,2,1.6.8,1.6-.4.4-.4h0ZM1157.8,195.9l-1.8-2.5-.6-.2-.2-1.4-.4-.4h-.4l-.4.4-.2.8,3.3,3.5h.4l.2-.2h0ZM1158.6,189.4l-.4-.2-.2.2-.2.8.2.2.4-.2.2-.8ZM1161.2,210l-.2-.2-.4.2h-.2l.2.2v.2l.6-.4ZM1163.3,205.7l.6-.4h-.2l-.4.4ZM1166.1,230.4l-.8-.4-1-.6-1,.8h1.6l.4.8h.6l.2-.6h0ZM1171.8,226.4l-.2-1-1.8-.4v.8l1.2,1.2.8-.6Z"/>
    <path class="st3" d="M1356.6,230l-1.4,2.2-2.2,1-2.5.4h-2.7l-4.5-.4-2.9-.2h-8.8l-12.2.8-2.5-.8-1.2-1.6-1-2.2-6.1-16.5-1.4-2-1.8-.4-2.4-.2-11.8-.8h-3.1l-14.7-.4-11.8-.2h-2.9l-2.9.2h-9l-2.5.4-1.6,1-1.2,2.4-4.5,13.3-1.2,3.1-2.2,2.5-2.9,1.2-3.1-.2-11.4-.6h-3.1l-12.2.8-2.5.2-2.4-1.2-1.6-2.2.2-2.5.4-1.6,1.2-3.1,2.7-6.1,1.2-2.9,4.9-11,1.2-2.7,5.1-11,1.2-2.9,4.5-10.6,1.2-2.9,5.3-11,1.2-2.7,7.1-16.1,5.5-11.8,1.4-3.1,4.3-8.8,1.4-3.1,3.7-9,1.2-2.9,3.5-8,1-2.2,2-1.2,2.9-.6,9-.4h15.3l9,.2,3.3.6,2.2,1.6,1,2.5,2.7,7.6,1.2,2.9,4.9,9.2,1.2,2.7,4.3,9.6,1.2,2.7,3.5,10,1.2,2.7,4.3,9.4,1.2,2.7,4.3,9.6,1.2,2.7,3.9,9.8,1.2,2.7,6.1,12.2,4.7,9.2,1.4,2.7,5.3,12.3,3.9,9.8.6,2.7-.2.5ZM1217.6,205.9l-.8-.4-.4.2v.4l.4.4.8-.2v-.4ZM1242.9,197.4l.6.4v.2l.6.4,1.2-.6v-.4l-.4-.4-.6.4h-.2l-.2-.8-.8-.8v-.6l.6-.8h.8l1-2-.6-.4-2.2.6.4-.8-.2-.4-.8.2-.8.8.6.4.8-.2.4.6v.2l-.8.2-1,1-2.5-2.7-.4,1.6,1.2,2.5-.4,1.2-2.2-3.5.2-2.5-.6-1.2h-1.2l-2.4-1.4-2.9,2,.8,3.5-.2.2-2.4-2.7-2.9-.2-2.9-2.5v-2l1.6-1,.4,1,1,.4.8-.6-1.4-2,2-1.2-.4-.2-.4-.8-.8-.4-.2-.8-1-.2-.2.6.2.6-2.5,2.5-.2,2.5-1.2,1.6,1.6,1.8-.2.2v-.2h-.8l-3.1,2.2,1.2,1,2-1.6,1.2.2,1.4-1,3.1,1.4.4,1.6,1.6.4-.2.2v.2l3.9,1.4.8-.8v-1.2l.2.2.2-.2,3.1.4.8,1.4-1,1.4-1-.4-.4-.8h-.6l1.8,5.9-.4.2-.2.4-.6-.6-.8-.2-.2.2v-.2h-2.4l-3.1-4.3-.6,1.4-1.4.6-.2,1.2.6,1,1.2.2.8-.6-.2-.6.4-.6,2.9,2.9,1.4-.2,1,1.2,1.6.2,1-.8.6,1.4.2-.2h.2l-.2-1-.6-.6.4-1.6,1.2-.8.8-2h1.2l-.2.8.2.2.6-.4.2-.6h-.4l2-1.8h-.3ZM1219,215.9l-1.2,1.2.4.6.6-.6.2-1.2ZM1219.4,211.7l-.2-.4-.4-.2h-.4l-.4.4.2.4.4.2.8-.4ZM1222.7,194.5l.4-.4-.2-.6h-.6l-1.2,2-1-.2-.6.6v2h1l.4-.6,3.3.4-1.6-3.1h0ZM1226.6,205.1l-.8-1-1.2-.2-3.7-2-1,.2v.6l5.1,2,.8,1.8.8-1.4h0ZM1223.9,207.2l-2.4-.6-.8,1.8-.2.6.4.4,1.4-1.6h.8l.8-.6h0ZM1222.1,199l-.4.4v.6l.6.8.6-.2v-.8l-.8-.8h0ZM1226.2,211.5l-.4-1h-.2l-.2,1,.6.2.2-.2ZM1226.1,179l.6,2,1.4,1.6,1.6-1v-1.8l-3.3-1.4-.2.6h0ZM1227.4,177.2l.2,1.4.4-1.2,1.8.8,1.4-.2-2-2.5-1.8,1.8h0ZM1230.4,185.5l1-.4.4-.6-.8-.6h-1.6l-.6-.6-.8.2v1h1l1.4,1h0ZM1229.8,187h-.6l-.4.6v.4l1,.4.6-.2v-.6l-.6-.6h0ZM1230.8,206.6l-.4-.6-.8.2-.6.6-.2.8.6.4h.8l.6-1.4ZM1230.6,215.1l-1-.4-.6.6.2.4.6.2.6-.2.2-.6h0ZM1230.8,176.1l1-.6.2-.8-.2-.6h-.4l-.6,2h0ZM1232.1,182.1l.2,2.5,1.2,1,.6-.2-1.8-5.1-.8-.2-.6.2-.2.4.2.8h.6l.6.6h0ZM1231.7,170.8l1.4.8.4-.8-.8-.8-1,.4v.4h0ZM1232.3,178.4h.4l.4-.4-.2-.8-.4-.2-.4,1,.2.4ZM1232.5,199.4h.6l.4-.4v-.8l-1-.6-.4.4v.8l.4.6ZM1233.3,168l1,1h1.2v-.8l-1-.6-1.2.4h0ZM1236.6,170.6l-1.8,1.4.2.4-1.6,1.2.6,2.2,2.5-5.1h.1ZM1242.7,186.5l-.6.6-.4-1.6-.8-.6,1.4.2,1.4-2-.2-1.2-3.9,2,.6.8-.2,1.6,1.4-.4.6,1.4-.4.2-2.5-.8-2.5-2.7-.4-2.2-1.2.2-1,1,1.2,2.4,1-.6,1,.8-1.2,2.2,1,2h1l.4-.6-.4-.8.2-.6.6-.2,3.3,1,.4-.4,1.4,1.6-.2-1.2.4-.4v-.2l1,.2.6-3.7.4.8.2-1.8h-.6l-2.7,3.1h-.3ZM1235.3,181.2l.6-.4-.2-.6h-1l-.4.8,1,.2ZM1238.2,176.7l-1.8.6,1.8.4.6-3.1-1.2.6.6,1.6h0ZM1239.8,181l1.4-1.6-.4-1.6-1.2-.2-.2,1-2,2,2.4.4h0ZM1237.8,171.2l2.2,2.4,1.6,1.8-1-4.7-1.2-.8-1.4.6-.2.8h0ZM1238.6,168.4l.4.2.6-.2-.6-1-.4.4v.6ZM1240,190.2v-.4h-.6l-.4.4v.6l1-.6ZM1239.6,192.1l.4.4h.4v-.6l-.4-.2-.4.4h0ZM1239.8,165.5l1.8-.4.6-.8v-.6l-.4-.2-2,2ZM1241.5,177.6l-.2.6.2.4.8,2.4h.2l.2-.2.4-2.9-1.6-.2h0ZM1241.7,170.4h.6v-.6h-.8l.2.6h0ZM1242.1,161.4l.2.8h.4l.2-.2v-1l-.8.4h0ZM1242.3,174.1l.4,1h.8l.6-.6-.2-1.2h-.8l-.8.8ZM1247.6,200.6l-.4-1v-.4l-2.4,1-1.6-.8-.2.2v.2l.6.6,1.2.2,1,1,1.4-.2.4-.8ZM1243.9,195.5l.6.4.6-.2v-.4l-1.2.2ZM1257.4,194.5h1.6l-.4-1h-1.2l-.2-.2h-.2l.2-1,1-.6,1,.6-.2-1-1-.2.6-1h1v.2l1.2,1.2v1l.8.2.2-.4-.2-.8,2-1.4.6.8.8-.2-1.4-1h-.6l-.8.8-.4-.2-.2,1.2h-.8l-.2-.8-.6-.2,2-1.2.2-.8-.4-.2-1.2.8v-1h-.6l-.4.6-.6-.6h.2l.6-1,2.5.2.6.6,1-.2-1.2-.6.2-1.6-1.2-1-.6.2-.6-.4h.2l.2-.4-.4-.4-2.4,1,.4,1.4-.8,1-.2,1.4h-.4v.6l-3.5.4-.6.6.6.4h.8v.6l-.4.4-.8-.2-.6.4v1l-2,.8-.4-.4h-.6l-.4-.6-1-.2-.2-.4.2-.6,1-.4-.2-.2h-.2v-.8l2-.4v-1l-1.2-.2v-.2l-.2-.2.2-2.7-.8-1v-.4l-1-.4-.4.6,1.2,4.9-1,1.4h-.4l-.8.6h-.8l-.4.8.8,2.4-.8,1.2,1.6.4v1.8l1.6-2.4,1.4.2,1.8,2-.2.2v.4l-.6.2-.2.6,2.2.4,1.2,2.7.6-1.8-1.4-1.2-.2-.8-.8-.6v-.6l.4-.6v-.6l-.4-.6.4-1.6,2,2.5h2l.4-1.2h.2l.2-.2v.2ZM1245.7,174.7l1,.6.2-1-.4-.8-.4.2-.4,1h0ZM1245.8,156.9l.4.4.8-.6.4-1-1.6,1.2h0ZM1249.2,198.6l.6-1.2-.6-1.2-.6,1.2.6,1.2ZM1250.2,200.6l1.8-.4-.8-.6-2,.4v.8l.6.2.4-.4ZM1250,132.9l.4.4h.4l.4-.8-.2-.2-.8.2-.2.4h0ZM1252.9,202.5l-.4-.6-1-.4-1.2.4,1.8,1.4.6-.2.2-.6h0ZM1252.5,187.4l.4.8.4-.6.6-.4.8.2.8.8,1,.2-.4-1.2.6-1.4-.2-.4h-.6l-.6,1.2-1.6-.6-1.2,1.4h0ZM1252.7,129l1.4,1.6v.8l-.4.4.8.8.8-1-1.4-2.2v-1l-.6-1h-.4l-.2,1.6h0ZM1254.7,183.5v-.2l-.4-.2-.4.4v.8l.6.6,1.4-1-.2-.6-1,.2ZM1256.4,182.3l.4-.6-.4-.6-.8-.2-.6.2.4.8,1,.4h0ZM1255.3,138.6l1,.4,1-.2.2-1-.6-.6v-1.4l-1,.6-.6,2.2ZM1257.2,203.5l-.4-.6-.6-.2-.2.4.2.6-.2.4.2.2.6-.2.4-.6h0ZM1256.4,199.2l.6-.8-.6-.6-.2.8.2.6ZM1256.4,184.3l.6.2.4-.4-.4-.4-.6.6h0ZM1261.1,198l-1.6-.6-1,.4.2,1,2.4-.8h0ZM1290.5,172l-.8-2.5-4.3-13.3-1-2.9-3.9-11.6-1-2.5-2-1.4-2.5-.6-2.2.6-2,2-5.3,13.3-1.2,2.9-5.1,13.1-.6,2.9.6,2.4,2.2,1,2.7.4h12.3l9.2.6,2.5-.8,1.6-1.6.6-2h.2ZM1260.4,180l-1,1.6,1-.6v-1ZM1260.2,181.4l1,.4,1-1.2-2,.8ZM1265.5,198.6l-.4-.6-.6-.2-.4-2-.2-.2.4-2.5-.2-.4-.4-.2-2.4,3.9.2,1,1.2.2-.2-.6-.6-.2v-.2l1.2.4v.2h.2v.4l.4.4v.6l-.2.2v.2l.4.2,1.6-.6h0ZM1262.7,182.9l1,1,1-.4.6,1,.8-.6h.4l.2-.2-3.9-.8h0ZM1263.1,117.9l.2.4.6.2h2.9l.6-.6.2-1-1.4-1.2h-1l-2.2,2.2h.1ZM1264.1,181.6l.6.2,1-.6-1-.6-.6.2-.2.4.2.4h0ZM1264.7,186.1h.4l-.2-.6-.6-.4v.6l.4.4h0ZM1271.9,193.5l-.6-.4.2-1.6-6.1-.6-1.2.8,4.5-.2.6.8v.6l-.8.4.2,1.2,1.6-.2,1.4.6.2-1.4h0ZM1264.5,188.4l1,1.2.2-1.4v-1l-.4-.2-.8,1.4h0ZM1265.3,194.5h.6v-.4l-.4-.4h-.2l-.2.4.2.4ZM1267.6,195.9l-.4-.4h-.8l-.8.8,1,.4.8-.2.2-.6h0ZM1266.4,129.2v.2h.4l-.4-.4v-.2l-.6-.6v.4l.4.6h.2ZM1267,188.8l-.2,1.2,1.8.4.6-.2-.2-.4h-.8l-1.2-1h0ZM1267.8,192.7l-.2-.4-.2.2-.2.6h.4l.2-.4h0ZM1268.2,188l.6.2-.2-.6-.4-.4h-.2l.2.8ZM1269,131l.2.6h.6v-.4l-.6-.8v-.4l-.2.2v.8h0ZM1270.7,198.4l-.2-.4-.6-.2-.4.2-.2.4.2.6h1l.2-.6ZM1270.9,186.1l-.2.6.6.2-.4-1.8-1.2-.2,1.2,1.2ZM1270.7,108.8l.2.2h.4l.4-.4-.4-.4h-.4s-.2.6-.2.6ZM1271.9,122.4l-.8,1,1,1.2.6-1.2-.2-.6-.6-.4ZM1273.7,189.2v-.4l-1.2-.4-.6.6,1-.2.4.4h.4,0ZM1274.5,192.7l-.4-.6-.4.4.4.4.2-.2h.2ZM1274.1,113.9l.6.2.8-.4-.8-.2-.6.4ZM1277.2,127.5l-2-.4.6,1.2v2l1,.2.8-.8-.4-2.2ZM1278.8,186.5l-.4-.6v-.8l-.8,1.2.4.8h.6l.2-.6h0ZM1278.6,190.8l-.4-.4h-.4v.4l.6.2.2-.2h0ZM1280.5,185.9l.4-.4v-.4h-.6l.2.8h0ZM1282.1,191.9l-.2-.6h-1.2l-.2.2.2.2h.4l.2.4.6.2.2-.4h0ZM1284.1,131.4l1.4-.2.6.4h.6v-.6l-.8-.2-1-.2-.8.8h0ZM1290.7,125.9l-.2-.8h-2l.6,1,1.2.6s.4-.8.4-.8ZM1294.1,156.7l-1.6-1.6-.6.2-.2,1.2,1.6,1.6.8-.4v-1h0ZM1294.5,151.8l.6,1.2.6-1.4-.2-1.2-.8.2-.2,1.2ZM1298,167.1l-2.4-.2-1,2,2-.2,1.4-1.6ZM1304.1,178l2.2-.2.8.6.2,1.4,1,1,1.2-1.4-1-2.4,1.8-.4,1.4.8v2l1.2-.8v-1.8h1.8l.8,1.6-.4.2v.6l-.8,1v1.2l-1.4.8-.2,1.2h1l1-.8,3.7,2.2-1,1.2,1,1.2.6-2.5-.6-1-1-.2-.6-.6v-.6l-2.2.2-.4-1,1-.8-.2-1.4,3.1,2.4,1.6-.2-.2-.8-.6-.6-.8-.2-.4-.4,1.2-1-.4-.8-1-.2.4-1.2,2,.6,2.2,6.5.2-2.4,2.5-.8.4-2.5-.4-.8.2-1,.6.4.4-1-3.1-2.9-.8.4-.4.8-5.3.4v-.2l-1,.4-3.1-5.5-1.4-.2-.2,1.2.6,1.2-1,.4-.8-.2-.4-1.4-1.2-.6-1.4.8-2.5-2.7.2-.8-.4-1,.6-1-.2-1.2-.4-.4.8-.8h.8l1.4,1.2.2-1,1.2-.2,4.3,4.3,2.2.4,1.2,1v4.7l1.2-1.6,2.7-.2.6-.6-.4-1-2.4.2.2-2.4-.4-.6-3.1-.8-1.8.8v-.2l-.6-.4-.8-3.7,2.7-2.4h2.2l.8-2,.6-.4.2-1.8-1.4-.2-6.9,5.5-4.5-2-.6-1.2h-1.6l-.8,1.2.6,1.6h-5.1l.4,2.5-2.7,1.4v.2l2.7-.4,2.2,1,.8,2.2-1.8,3.9.8,1.2,5.7-2,.2,1-2.5,3.7,1.2,2.9-.2.2ZM1295.2,158.2l-.2,1.2.8.6h.4l.2-.2-1.2-1.6h0ZM1296.2,143.5l2,.4-.6-1-1-.2-.4.4v.4h0ZM1297.2,150.4h.6l.4-.4-.4-.8-.4-.2-.6,1,.4.4ZM1296.8,157.3l.6,1.2,2,.6,1.6-.8.2-1-2-1.8-1.2-.2-.6.8-.6,1.2ZM1298,152v1.4l.8,1h1.4l.6-.6-1-1.4-1.8-.4ZM1303.5,180.8l-2.5-4.9,2.2-2.9-1.2-.4-2.2,1.2-.2,1.4.8,1.4-.2,2.9,3.3,1.4h0ZM1300.3,142.2l.4.4h.4l.4-.4-.4-1-.4-.2-.4.4v.8ZM1300.7,150.4l1.2,1.6-.2.8.6,2,2,.4-1.4-2.2v-.2l1.2-.6,6.3,1.8-1.4-2.7-1.2,2-7.1-2.7v-.2ZM1302.3,146.9l-.8-1-.6,1,.2,1.2.6.2.4-.4.2-1h0ZM1303.7,135.9l-.8,2.7,1.4,2h1.4l1-1.4.8-.2-2.9-3.1.4-1.4-.6-1.4-.4-.2-.4.2-.4,1.2.6,1.6h0ZM1306.2,182.5l.4-1.4-2.2,1,1.8.4h0ZM1305.4,145.9l-.8,3.7,1,.8.8-.2.8-1v-2l-1.8-1.4h0ZM1310.5,165.7l-1.6-.4-3.5-2,.8,2.2h2l.2,2,2.4-.4.4-.4-.6-1h-.1ZM1316.2,186.7l-.2-.6h-6.7l-.4-.6-.8-.2-1.4.8.8,2.2.8-1.8h.2l.2,1.8-.2.2v.6h-.2l-1.6,1.4-.6-.2-.4.4,2.4,2.5.6-1-.4-1.2,2.9-2,.2-.6,4.7-1.8h0ZM1308.8,155.5h-.8l-.8.8h-.8l-.2.4.8,1,1.4-.2.6-1-.2-1ZM1307.6,142.5l-1,.8.2.6,2.7,3.1.4-1.6-2.4-2.9h.1ZM1310.3,182.3l-1.4-1.2-1.4,1,.6,1.8,2.4,1.4-.2-2.9h0ZM1312.3,195.3l.4-1-.8-1.4-1.6-.6v1.8l1,1.4,1-.2ZM1313.3,191.4l.6-.2.4-.8-.6-.4h-.4l-.6.4v.6l.6.4ZM1314.7,200.2l-1-2.2-1,1.6.2,1.2,1.2.2.6-.8h0ZM1313.1,153.5l2.5-1.2v-.6h-1.8l-.8,1.8h.1ZM1314.1,162l-.8.4.2,1.2.2.4.6-.2.4-1-.6-.8h0ZM1319.6,201l.4-1,2.4-.8-3.5-10.2-2-1,3.5,7.1-.6,1.2-1.2.6-1-1-1.2.4-.6.8,1.8,4.9,2-1h0ZM1316.2,163.1l.6.8h1.2l1.4,1.2.2-1.4-1-1.2v-1l-.6-.4-1.8,2h0ZM1316.6,193.1l.8.2.6-.8h-1.6l.2.6ZM1321.5,214.3l-.4-2.5h-1l-.4.6v1l.8.8,1,.2h0ZM1324.3,185.1l-2.5-.2-1.2,2.2,3.9-1.4-.2-.6h0ZM1322.3,191.6l.6-2.5-2.2.8.8,2.9.6.6.8-.6-.6-1.2h0ZM1322.9,202.3l-.4-.2h-.4l-.4,1h.4l.2.2.6-.4v-.6h0ZM1326.2,203.1l-.6-.8-1,.2-.6.6.8,1.6,1,.2.4-1.8h0ZM1325.8,189.4l-.4.2-.4.8.2.8.8-.4.2-1-.4-.4h0ZM1326.6,182.1l-1,.4-.4.8.4.6,1-1.8ZM1327.2,199.8l.8-.4v-1l-.4-1.4-1.6-.4,1.2,1.6-.4,1,.4.6h0ZM1328.6,208.4l.2-.4-.2-1h-.6l-.2.8.4.6h.4,0ZM1329.9,214.1l-.6-1.6-.2-.4h-.6l.4,1-.6.8v.8l.8.2.8-.8h0ZM1331.5,192.3l-.6-2.2-.4,1.6-.6,1.4h-1l.2,1.2,2.4-2ZM1337,203.9l-2.2-.2-1,1,.6,1,.8-.2.4-1,1.4-.6h0ZM1338.8,207.2l-.2-.4h-.4l-.8,1,1,.2.4-.2v-.6Z"/>
    <path class="st3" d="M1509.1,230.2l-.8,1.8-2.5.8h-13.7l-10.8-.2h-3.1l-8.8.4h-2.5l-1.8-.8-1.6-1.6-6.3-8.8-1.8-2.4-6.3-8.4-1.8-2.4-5.5-9-1.8-2.4-6.3-8.4-1.4-1.6-1.2-.6-2.4-.2-6.3-.4-2.5.2-1.6,1.2-.6,2.5-.4,10.8.2,3.1.8,11,.2,3.1.2,4.7v3.1l-.2,3.1-.4,2.4-1,1-2.2.6h-3.1l-9.4-.6-9,.6h-3.1l-9-.6-2.4-.4-1.2-.8-.4-2-.2-2.7-.2-2.9.4-5.1.2-3.1.8-10.6v-3.1l-.6-10.6-.2-3.1-.2-10.4v-3.1l.6-10.6v-3.1l-.6-10.6v-3.1l.6-10.6v-3.1l.4-10.4v-3.1l-.2-10.6v-3.1l-.4-6.5.2-2.9.2-1.2.6-2.5,1.2-1.6,2.4-.6,1.6-.2,2.9-.2,8.8.4,23.3.8,13.3-.8h3.1l12.9.8h7.4l3.3.2,2.9.6,4.1,1.2,2.9,1,2.9,1.2,3.1,1.2,2.9,1.4,2.5,1.6,3.7,2.5,2.2,1.8,2,2,2,2.4,2.7,3.9,1.8,2.5,2.4,3.7,1.4,2.7,1.4,2.9,1,3.1.6,3.1.2,3.1.4,4.3v3.1l-.2,3.1-.4,3.3-.6,3.3-.8,3.1-1.2,2.9-1.4,2.9-1.8,2.9-1.8,2.5-1.8,2.4-1.8,2.2-3.1,3.1-2.2,1.8-3.9,2.2-2.4,1.4-2.5,1.4-2.5.6-1.6.6.8,1.6,7.1,10,1.8,2.4,7.1,9.6,2,2.4,7.1,9.8,2,2.4,6.1,7.1,1.8,2.2,1,2.2.3-.2ZM1383.8,112l.8.6.4-.2.4-.4-.2-.2-1.4.2h0ZM1385.4,130l.8-.4.2-.8-.6-.2-.8.2-.4-.2-.4.2.2.8,1,.4h0ZM1385.6,123.9l.2.6.8.4.8-.4.6-1.4-.8-1.4s-1.6,2.2-1.6,2.2ZM1386,96.9l.8,1.2.4-1-.2-1.2-.4-.2-.4.2-.2,1h0ZM1387,109.8l-1,1.6,2,.6-.2,2.4h.2l.8-2,1.4-1,1.8.2,2,2.5,1.2-.2.4-1.8-.4-.6.6-2.4,1.2,1v.6l.2-.2,1,2.2,1.6.6.6-.2v-.2h.4l.6-1.4.6-.4,1,.4,1.2-.4-.6-1.4h-1.6l-.2-.2h-.2l.4-1.4,1.2-.6,1.2.8-.2-1.2-1-.6h-.2l.8-1.2h.2v.6l.4.2.4-.6v-.2h.2l1.8,2-.2,1.2,1,.6v-1.8l2.7-1.6.6,1,1.2-.2-1.6-1.4h-.8l-.6.8-1-.2-.6.8v.8h-.8l-.4-1-.8-.4,2.5-1.4.6-1-.6-.2-1.6.8-.2-1.2h-.8l-.4.6-.6-.6v-.2l1-1.2.6.4,1.6-.4,1.2.4.6.8,1.4-.2-1.6-1,.4-2-1.6-1.2h-.8l-.6-.6h.4l.2-.4-.6-.6-3.1,1.2.4,1.2-1.6,3.7h-.2v.8l-4.9.2-.6.8.6.6h1v.8l-.4.6-1-.4-1,.6v1.4l-2.7.8-.4-.6h-.8l-.4-.8-1.4-.2-.2-.6.2-.8,1.4-.4-.6-.4.2-1,2.5-.6v-1.2l-1.4-.2-.6-.6-.2-2.2.8-1.4-1-1.4v-.6l-1.4-.6-.6.8,1.4,6.7-2.9,2.4h-1l-.6,1,1,3.1v.4ZM1392.5,211.9h-.8l-.8.4-1.4-.2-.6-.6v-.8l.8-.4-.2-1.4-3.3-.2v1.4l.6.4-.2,1.6,5.7.6.2-.8h0ZM1387.6,101.8l-.8-.2-.4.8.2.8-.2.4.2.4,1-.2.4-1-.4-1h0ZM1387.6,157.3l.2-.4-.2-.4h-1l-.2.2.2.4,1,.2ZM1387.4,160.2l.2-.8-.8.2-.4.6v.2l.4.2.6-.4h0ZM1387.2,179.2h-.2l-.4.2v.4l.2.2.6-.4v-.2l-.2-.2ZM1410.1,119.4l-.8-.4-6.1,1.2-1.6-1.2-.8-2.4-.8-.6-2.7,1-1.6-1-.6,1.8h-2.2v.2l1.8.6,1,1.2-.2,1.8-2.4,2-.2-.2h-.4l-1.2-1-.4,2.5-3.5,1.4,2.4.8,2.9-2.7,4.9.6-.2.8-2.9,1.6-.2,2.2,1.6.8.2.4-.4,1,.4,1,1.2-.6v-1.4l.2-.2v-.2l1.2.2.6,1.2-.6,1.2,1.2-.2.4-1.2,1.2.6v1.2l-1.4.8-.4.8h-1.2l-.4.8h1.6l1.6,2.5-1,.6.2,1,1.2-1.4v-.8l-.8-1,.2-.6-.6-.4h-.8v-.8l1-.2.2-.8,1.8,2.7h.4l.4-.6-.8-.8v-.6h1v-.8l-.6-.4.2-.4.6-.2,1,1-.2.8.4,1.2-1,1.6v1.2l1-1.4,1.8.4,1-1.6v-.6l.4-.6.4.4.6-.4-1.2-2.9-1.6.4-2.9-1.4v-.2h-.6l-.4-4.5-.8-.6-.4.6v1h-.8l-.4-.4.2-1-.6-.8h-1.2l-.2-3.5.6-.4.2-1.2.6-.4,1.2,1.6.4-.6.8.2.6,2.4h1.2l.2-1.4.4-.4,3.3.4,2.4-2.2h-.2ZM1390.5,113.7v-.4l-.2-.2h-.2l-.8.6v1l-.2.2v.2l-1.2,1.4.2,1.6,1,.6.8-.6h.8l-1-2.9.2-.2.8,1.2.8-1.4-.8-1.6-.2.6h0ZM1389.1,215.7l-.2-1.4-.4-.4-.6.6.2,1.6h.4l.6-.4h0ZM1389.7,120.4l-1,.2.8,3.3.6-1-.4-2.5ZM1389.7,152.4l.2,1h.6l3.1-.8-1-.8-2.9.6h0ZM1390.1,157.6l.4.8,1,.4.2-.8-.6-.6-1,.2h0ZM1392.1,129.2h-1.8l1,.8.8-.8ZM1390.3,138.2l.4.6.4,1.4.8-.4v-.8l2.5-.4.2-.2v-.2l3.1.6.4-.2.2-.4-4.3-2.2v-.4l-.4-.4h-1.2l-.2,1.6,1.2-.8-1,1.6h-.2l-.6.4h-.6l-.4-.4-.4.6h0ZM1390.3,145.7l.2.6.6.4.8-1-.2-.6-.6-.2-.6.2-.2.6h0ZM1395.2,104.1h-.8l-1,1-2.5,1.8,1.8.2.8-1.4,1.2.6.8-1.8-.2-.4h-.1ZM1391.1,132.2l-.2,1.2,1,1.8.8-2-.4-1.2-1.2.2h0ZM1391.7,161.4h-.6l-.2.2v.6l.4.2.4-.2.2-.4-.2-.4h0ZM1390.9,182.1l.4.6h.4l.2-.4-.4-.4-.6.2h0ZM1392.9,164.5l-.8-.8-1-.2v.6l.6.6,1.2-.2h0ZM1393.6,156.7l1-.2.2-.8-.4-.8-1.6-.6-1.6.6,2.4,1.8ZM1391.5,120.6l1.4.6,1.4-.6-1.4-.8-1.4.8ZM1392.5,115.9l1-.8-.4-.6-.2-.8-.4-.2-.6.8.6,1.6ZM1392.5,179.4h-.4l-.2.8.2.2.6-.4v-.4l-.2-.2h0ZM1394,193.5l1.6.6.6-.2v-.8l-1.4-.4.6-1.4-.2-.6-1.6-1.2h-1.2l1.6,1.8-1.2,2.7,1.2-.6h0ZM1393.1,101.2l.8.2.4-.2.2-.4-.6-.4h-.8v.8ZM1398.7,154.5l-2.4-.2.8,1.6-2.9,2.2-1.2,1.8,1.4-.4,2,.8,1.2-1.2-2.4.2v-1.2l3.5-3.5h0ZM1394,162.7l1.4-1.2-.2-.6-1.2.2-1,1,1,.6h0ZM1393.3,167.6l.8.4,1.2-.2.4-.4v-.6l-.6-.4-.8.4-.8.2-.2.6ZM1393.8,140.4l-.4,2.4,1.4-.2v-1.2l-1-1ZM1394,98.4l.6,1,.8-.2.4-.8,1.4-.6-2.7-.8-.4.4v1h-.1ZM1396.4,218l-1,.4-.6-.6-.6.2.2.4,1.6.4.4-.8h0ZM1395.2,115.7l.2-.2-.2-1.4-.4.8s.4.8.4.8ZM1399.1,100.6l-2-.8-1.8,1.8.6,1,.4-.8,1.2-.4,3.3,1.6-.8-1.4.8-2.4-1-.2-.8,1.6h.1ZM1399.3,147.6l1-7.4-1-1.2v5.5l-.8.6h-.8l-.4-1-1.6.2.2,2-.6,1v.8h1.6l.6-.6,1.8.2h0ZM1398.4,163.7l.2-1.4-.8-.4-2,.6-.4.8,1,1.6h.8l1.2-1.2h0ZM1397.6,113.3v-.4l-1-1.2-.6.6-.2,2h.2l.6.4v.2l1,1,1.4.2.2-.6.8.6,2.2-1.6-3.3-.2-.8-1.2-.4.2h0ZM1396,140.8h.4l.6-.4-.2-.4-.4-.2-.6.4.2.6h0ZM1397.8,206.1h.8l1,.2v-.6h-.2l-.2-.2h-.2l2.5-5.3-.2-.2h-.4l-3.3,2.4h-.8l-.4,1,1.2.8v-.6l.6.2-.2.2.2,1.2-.4.6h-.4v.2h.2l.2.2h0ZM1398,175.1l.2-.2-.6-2.4-.6-.4-.2,1,.6,1-.2,1.6.4.8h.4l.2-.2-.2-1.2h0ZM1398.5,142.9l-.4-.4h-.6v.4l.4.2.6-.2ZM1398.2,150.4l-.6.4.4.4.4-.2.2-.2v-.4h-.4ZM1404.2,189.6l-.2-.8h-.6l-.2.6h-.6l-.4-.4-.4-2.5-.8-.2-.4-1.6-2.9,1,2.5,1,1.4,2.5-1,1.2-.2,1.4-1.2,1,1.6,1,1-1.6-.6-.4.2-1,1.8.2,1-1.4h0ZM1398.2,216.6l2.7,1.2.6.4-1.2-1.4-2-.4-.2.2h0ZM1404.2,161.8l-.2.4.4.4.8-.4v-1.4l-.2-.2-.2.8-.6.2v.2l-2.9-2h-1.6l-1,1,1,1.2,4.5-.2h0ZM1400.1,172.9l-1.2-.6.6,2.2.6-.2.2-.6-.2-.8h0ZM1401.9,219.8l-1-.8h-.6l1.2,1,.4-.2ZM1401.3,142.2l-.2,1.2-.4.8.2.8.8-.2.4-1.8.8-.6-1.6-.2h0ZM1405.2,158.6l-4.3-.4.2.6,1,.6h2l1.2-.8h0ZM1404,210.6l-1-.8-.6-.4-1.2.4,2.7,1.2v-.4h0ZM1404.8,140.8l.2-.4-1.6-1-1.6,1,2.9.4h0ZM1402.7,149.4l-.6.6v.4h.6l.6-1.6-.8-.6.2,1.2h0ZM1409.9,116.5h.2l.6-.4,1.6-.4-.6-.8-.8-.2-.6-1.4.2-1.4-.4-.4.8-3.1-.2-.6-.6-.2-1.6,2.5-1-.6h-1l.4,1.4-1.4-.8-1.4.6.2,1.2.8.2-1.4.6-.4-.4-.2,1-.8.6h.8v.2l.2-.2,2.2,1,1.2-1h-2v-.2l-.2-.2,1.2-1.4,1.8-.4.8-1.2-.6,1.8h-.6l-.4.4.2,1.4h1.6l-.2-.6-.6-.4v-.2l2.2,2-.2.8-.4.2.2.4-.6-.2-1,.8h2l.2-.2-.2-.2h0ZM1405,126.5l-1.4,3.1,1.2-.6,1.8.8.6-.2v-.8l-1.4-.8.8-1.8-1.8-1.6-.8.6.6.4.4.8h0ZM1403.6,143.7v.8l1-.6v-.4l-1,.2ZM1404.2,172.3l1.2,1-.2-.6-.8-.6-.2.2h0ZM1407.2,147.3l.4-1.6-1.6,1.6-.6-.4-.2.8,2-.4h0ZM1406.4,176.1l-.4-.6-.6-.6v.4l1,.8h0ZM1406.2,157.3l-.4.6v.2l.4.2.4-.4v-.4l-.4-.2h0ZM1406.2,140l.6-.2.6-.6-1.4.2.2.6h0ZM1409.7,168.6l-.8-1-1.6-.2-1.2,1,2.4.6,1.2-.4h0ZM1408.7,198.8l-1.2,1.6-.6-.4-.2.8h.8l1-.6.2-1.4h0ZM1409.5,127.7h.2l.2-.8-.2-.2h-1l-.8.6v.8l1.2.8.8-.2-.4-1h0ZM1408.7,141.4v.4l.4.2.4-.8.4-3.9-1.2,1,.4,1.4-1.2.6.8,1.2h0ZM1408.5,129.6l-.2.8v.2l.4.2.6-.6-.8-.6h0ZM1410.5,163.1l1.2.2v-.4l.2-.2-.4-.8.2-.4-.4-.2-1.4.2-.2.8.8.8h0ZM1412.9,158l-.6-.6-.8-.2-1,.4.2.8h.6l.6-.4h1ZM1411.1,129.6l.6.4.6-.2.2-1.8-1.2.8-.2.8ZM1411.3,100l.4.6h.4l.2-.2-.2-.6-.8-.6s0,.8,0,.8ZM1412.5,101.8l-1,1.8,1,1.6.6-3.1-.6-.2h0ZM1412.9,136.7l-.4-1.4-.4-1.2-.6,1.4,1.4,1.2ZM1412.9,139.6l-.2-.6-.6-.2-.4.2-.2.6.8,1.2.6-1.2h0ZM1412.7,168.6l-.4-1.6-.8.8,1.2.8h0ZM1412.9,111.6l-.2-.8-.2-.2-.4.2-.2.8.4.2.6-.2h0ZM1413.6,134.5l-.8-.6-1-.6.8,1.2h1ZM1412.9,160.6l-.2-.2-.8.4.6.4h.4v-.6h0ZM1415,113.7l-.4-.8h-1.2l-1,1,2.4.6s.2-.8.2-.8ZM1414.4,105.9l2.2.6.8-.2-.2-.8-1.8-.4-.6-.8s-.4,1.6-.4,1.6ZM1415.2,110l.4-.6-.2-.6-.6.4v.6l.4.2h0ZM1417.6,172l-.8-.4-1,.2-.4.2.6,1,1.4-.6.2-.4h0ZM1416,102.6l.4.6.6.2v-.6l-.6-.6-.4.2v.2ZM1419.9,163.9l-1.2-1-.8-.4-.6.2-.2.6.4.8,1.2.6,1.2-.8h0ZM1417.6,112l2.2-.2,1,.6h.8l.2-1.6-.6-.6.4-2-3.7-.2.6,1v1l-.8.2v1.8h0ZM1417.6,113.7l.2.8,1.4.8.6-.8-.4-.8h-1.8,0ZM1453.2,155.7l2.5-1,2.4-1.4,2-2.4,1.4-2.9.8-3.1.2-3.1-.2-3.3-.4-3.3-.8-2.9-1.4-2.9-1.8-2.4-2.2-1.8-2.7-1.2-4.3-1-3.1-.4-9.8-.2h-3.1l-10,.6-2.4.2-1.4.6-1.2,1.2-.2,2.2.2,4.5.4,3.1.4,3.3.2,3.3-.4,10.8.2,2.2.4,1.2,1.4.6,2.4.4,10.2.8h3.1l12.9-.8,4.3-.8h0ZM1418.5,99l1.6,1.8-.4.8.8.2-.4-2.4-1.6-.4ZM1425.6,166.3l.2-.2-.8-.8h-1.2l-1.2-1.2-1.6.2-.4.8,1.8,1.2,1.4-.6,1.8.8v-.2h0ZM1421.1,104.7l1.4-.2.6.6h.6v-.6l-1.8-.6-.8.8h0ZM1423.8,109l-.4.2.4.8.4-.4v-.4l-.4-.2ZM1424.6,107.9l.2.6.6.2.6-.2.4-.6-.2-.6-.8-.2-.6.2-.2.6ZM1427.2,171.2l-.8-.4-.6.2v.4l1.4-.2ZM1427.6,161.6l-1,.2-.4,2.7,1.4-2v-1h0ZM1428.7,101.4l.4,1h1v-.8l-.4-.6v-1.2l-1,1.6ZM1428.7,107.1l.2.4h.8l.2-.2-.2-.4-.8-.2s-.2.4-.2.4ZM1430.9,113.7l-1.4-.2-.2.8.2.4.6.2.8-.2.6-.6s-.6-.4-.6-.4ZM1430.7,167.1l.4-.6-.4-.4-.6.4-.2.8.8-.2h0ZM1430.1,169.6l.6.4.8-.2-.4-.8-.8-.2-.2.8ZM1432.5,174.7l-.8-.6-.8.2-.4.8.2.6,1-.2.8-.8h0ZM1432.3,99.8l.4,1.2.2-.4.2-.2v-.4l-.8-.2h0ZM1434.2,108.2l-1.6-.2-.2.4.8.2.4.6.6.2.4-.4-.4-.8h0ZM1437.9,166.7l-.6-.4-.4.4.2.4h.6l.2-.4h0ZM1439.3,161.6l-.4-.2h-.2l-.2.2.4.6h.4v-.6h0ZM1440.1,167.2h.4l.2-.2-.2-.4-.8-.2-.2.4.6.4ZM1441.9,180.6l-1.2.2-.2,1.4,1.4-1.6h0ZM1443.8,171.6l-.4.8-2.7.6,1,.4.4,1.2v.4l.4.2.2-.2h.2l-.2-1.4,1.4-.2.2-.2.2-1.8-.6-1-.2.6.2.6h0ZM1442.5,181.8l-.2-1.8-.4,1,.6.8ZM1442.5,176.9h.6v-.8l-.8.4.2.4h0ZM1445.6,185.5l-1.6.4-1-.4.2,1h2l.4-1ZM1444,175.7l-.2.4.4.4,1.4-1.2-.6-.6-.8-.2-.4.4.2.8h0ZM1445.8,177.8l-.4-.4h-.2l-1,.2v.6l.6.4,1-.8ZM1446.8,187.2h-.2l-.2.2v.4h.4v-.6h0ZM1448.3,177.8h.6l.4-.8.4-.4v-.8l-1.2-.4-.6.4-.2,1.2.6.8h0ZM1458.3,173.3l.8-1.8-1.4-2.2-1.6.4-.4.4v.4l.4.2,1.2,2-.6.4-.2,1.2-.8.2-.8,1h-.6l-.4-.6-2,1,1.4-.2-.8,1.6,1,1-.6.4-1.2-.2v.6l.4.6v1.2l-1.2.6-1-.8h-.8l-.6.4v.6l1.2.8,1.6.6,2.2-2,2-.4.2-.8-.6-.8-1,.2-.2-1,1.8-.4.8-1.6-.4-.8,2.7-1.2-.2-.4h-.2l-.2-.6h0ZM1453.2,197l-.2-.4,1.4-2.5,3.1-1.6.6-1-1-1.2-1,1.2h-.8v-.4l-.2-.2.2-1.4,2-.8,1.4-4.9,2,1.2-1,.8-.2.6.2.2v.8h.6l.8,1.2-.8.6-.8-.2.2,2.9-1,1.2.2.6.8-.8h.2l.2.2,1.2.2.2-1.2-.4-.2,2-.8,2.2,2.5-1,.2-.2,1.2,1.2-.6v-.2l1.4-.4.8.4,1-.2.2-.8-.2-.4.6-1.6-.8.4-.8-.4-.4-.8-1-.6,1,2.7-1.2-.2-1.8-3.9.6-1h-1.2l-.4-.4v-.4l.6-.6v-.6h-.6l-.2-.6.6-1h.4l1,1-.6-2.2h-1.2l-.4-.4h-.8l-.2-.6,1.2-.6.6-1.2-.6-.4v-.4l-.4-.4-.4.4.2,1-.6,1-1.8-.4-1.8.6.2,1.6-.4.4-1.8.4v.2h-.2l-1.8-1.8-.2.4.2.8h-.6l-.4.4,2.7,3.3-.4.8-3.7-2.5-3.1,5.5.2,1.4.6.6.2-.2-.2-.2v-.2l2.5-1.4.4,1.2-.8.2-.8,1.8.4,1,.8.4v.4h.2l.2,1,.6.4.2-.2h.1ZM1451.5,166.1l.8-.4,1.8,1.2h1.6l-.6-1.6-.8,1-3.9-1.6.6.8.2,1.6,1.2.4-.8-1.4h0ZM1450.7,175.7l-.2,1.4.4.2.6-.6v-1h-.8ZM1452.3,173.9l-.2-.2v-.2h-.8l-.6.6,1.6-.2h0ZM1452.3,170.8l-.2-1-1-.2.2.8.6.6.4-.2h0ZM1453.4,194.1l-1.4-.8h.4l.2-.2h.2l.2.2h.2l.2.2v.6h0ZM1454,179.6h.2v.2l-.8,1v-.4l-1-1,.4-.2.2-.2,1,.6h0ZM1454.4,192.9h-.6v-1.2h.8l-.2,1.2h0ZM1454.8,196.3l-.2-.2-.2-.4-.4.2.2.4.6.2v-.2ZM1455.4,196.1l1.4.6.6.6-.8,1.8.4.4-.2.6h.8l.4-.4.8.2,1.6-1,.6.2.4-.2v-.4l-.4-.2-1.6.6-1-.4-.6-.8,1.8-.8,1.8.4-.4-1.4-1.4-.8-.8.6-3.5-.4.2.8h-.1ZM1457.7,204.7l-.4-1-.8-.8v-.8l-.8-.6.2,1.4.4.2v1.2l1.4.4h0ZM1458.9,206.6l-1.8.8,1.2-.2.6-.6h0ZM1457.5,176.9l-.2,1,.2,1,.2-.2h.4v-1l-.6-.8ZM1459.3,168.4h.2l.2-.4-.6-.6-.2.4.4.6ZM1459.3,175.9l.6,1h.6l.2-.6-.6-1-.6.2-.2.4h0ZM1459.5,201.4l.2.2h.2l.2-.8-.2-.2h-.4v.8h0ZM1461.1,208l.6-.4h-1.4l-.6,1.4.4,1.4.8.4.4-.6-.2-2.2h0ZM1460.9,170l-.2-.4h-.4l-.2.2v.4l.4.2.4-.4h0ZM1461.9,174.1h-.6l.4.6h.8l-.6-.6h0ZM1461.7,203.7l2,2h.6v-1l-.4-.2v-.6l1.2-.8-.4-.4-2.4-.4-.6.4v1h0ZM1463,209.2l-.4-.4-.6.2v.4l.4.2.6-.4ZM1462.6,176.5l.4,1.6.2.4h.4l-.4-2h-.6ZM1475,218.6v-.4l.2-.2.8-1-1.2-2.2.2-.6-.4-.6.2-.6-.6-1.6-3.7-2.5-.6.4h-.2v.2l-.8-.6-.2-4.3.8-.4.6.2.4-.2v-.4l-1.2-.2-1,.4-.6-1,.6-.6,1.6-.2-.2-.8-2-.4v-.4l.6-.8-.2-1,.6-1.2-.4-1-2.2-1-.4.6v.4l1.2.4.2.8-.2.2-.6-.2-1.6.8-1.2-.4v-.4l-1-1.2.4,2.2h.8l.4,1-.2,1-.4.4,1,.4,1.4-1,1.6.6-.6,2.7h-1l-1,2.2.2.6h1.4l-.4,2,.8.8v.8l.6.4.6-1h.8l.4.4.2.8-.2.6.4,1,1.2.2.4.4-.8.8-.2.8.4.6,3.5.2,1,1.4-.2.6-3.3.6.4,2.4-1,1.6h.8l.2-.6.8,1.6,1,.2.4-.2v-.6l-.2-.2-.6.2-.4-.8.2-1.4-.4-.6,1.6-.6,1,.8v-.6l-.4-.6h-.1ZM1464.6,210.2l-.8-.2-.6.2v.4l.6.2.8-.6h0ZM1464.4,196.3h-.4v.6h.6v-.4l-.2-.2h0ZM1465.2,209.6l.4-.4v-.2l-1,.6h.6ZM1466.4,219.6l-.6-.8-.4-.4h-.2l-.2.6.6,1,.4.2.4-.6h0ZM1466,184.7l.8-.4.2-.6v-.2h-.2l-.6.4-.2.8h0ZM1466.6,159l.6.4,1.4-1.4-.4-1.2-.4,1.4-.8.2-.4.6h0ZM1467.2,186.8l-.6.2.2.2.6-.2v-.2h-.2ZM1466.8,204.9l1,1h-.4l-.6-1ZM1469.1,215.5l-.4-.6-.2.8.6,1v-1.2ZM1468.7,165.1l.4.8,1,.2,1-1.6-1-.2-.2.2h-.4l-.8.6ZM1469.5,185.3l-.6,1.6-.2.4.2.2h.4l1-3.5-1.6-.2.8,1.6h0ZM1469.5,190.4l.4-.2.2-.2-.4-.4h-.4l-.2.2.4.6h0ZM1471.3,195.5l-.6-.6h-.6l-1,1.2.4.4h1l.6-.4.2-.6h0ZM1470.7,197.8l-.8-.4-.4,2.7h.8l1-1.2-.6-1.2h0ZM1470.3,219.2h-.4l-.2.2v.4l.2.2.4-.4v-.4ZM1470.3,207l-.2.4.2.2h1.2l-1.4-2.4.2,1.8h0ZM1472.2,207.2h.4l1.8-1-.2-1.4-1.2-.4-.8,1.2v1.6h0ZM1473.2,151.2l.4,1.2,2,.8,1.6-1.4-3.1-1.2-.8.6h0ZM1474.2,120l.6.8.2-1-.2-1-.6.2v1ZM1474.2,202.9l.6.2.4-.4h.2l.6-.4.2-.8v-.2l-.2-.2-.6.2-.4,1h-.8v.6h0ZM1475.2,226.1l-.6-.2.4-1.8-.8.8.6,1.8.4-.6ZM1475.2,209.2l-.6.2-.2.6.2.2,1-.6-.4-.4ZM1476,205.1l-.2-.4-.8-.2v.6l.4.4.6-.4h0ZM1476.2,207.4l.6.2-.2-.6-.6-.6.2,1h0ZM1480.5,227.6l-3.1-1.2-.8.4-.2,1,.4.4,3.7-.6h0ZM1476.6,144.3l.6.4.8-.2.6-1v-.2l.8-.8-.6-.8v.2h-.6v.8l-.4.2-.2.4-.8.2-.2.8h0ZM1477,218l-.4,1,.6.2.6-.2.2-.8-.4-.4-.6.2h0ZM1476.8,203.9l.4.4.4,1.8,1-1.2-.4-1.2v-.2l-1-.2-.4.6h0ZM1479.9,219l-1.6,1.4h-.2l-.8.6-.2.6h1.6l-.2-1,1.2-.4.2-1.2h0ZM1477.9,213.1h.4v-1l-1-.2v.8l.6.4ZM1477.7,225.3h-.2l-.2.6.2.6.4-.4v-.6l-.2-.2h0ZM1479.1,229.4h-.6v.4l.4.2.2-.2v-.4ZM1479.1,208.4l.8.8v.6l.8-.8-1.4-1.4-.2.8h0ZM1480.1,211v-.6l-.2-.2-.4.4.2.4h.4ZM1479.7,221.5l-.2,1.2h.2l.2-.2-.2-1ZM1481.1,224.3l-.8-.6h-.4l-.2.2,1.4,2v-1.6h0ZM1481.7,212.1l-.6-.4-.6-.2.6,1.8.6-.4v-.8h0ZM1480.9,128.4l.6.8,1-.2,1.2.8v-1l-.8-1.8-.6-.2-1,.6-.4,1h0ZM1483,151.6l-.2-1.2-1.6.2.6,1.2.6.2.6-.4ZM1483.4,141.2l-.2-.2h-.8l-.2.2h-.2v.2h1.4v-.2h0ZM1483.2,211.9l-.8.6.6-.2.2-.4h0ZM1487.7,130.8l.4.8,4.7,1.2v-.4l.2-.2-1.2-1-1.6-.2-.6.2-.8-1.2-1,.2-.2.6h0ZM1489.3,158.2l-.6.6v.8l.6-1.4h0ZM1489.5,214.9l-.4-.6h-.2l-.2.2.2.8.6-.4ZM1492.2,150.6l-.4-2.9v-.6l-.4-.2-.6.4v.8l-.8,1.2h-.2l-.6.4.2,1,.6.6h1.8l.2-.6h.2ZM1489.7,126.7l.4.8h.2l.2-.8-.2-.4h-.4l-.2.4ZM1493.6,142l.2.6h.4l.4-.6-.2-.4h-.6l-.2.4h0Z"/>
    <path class="st3" d="M1566.9,201.5v3.1l-.8,10.6v3.1l-.2,10.8v2.2l-.6,1-1.6.6-2.7.2-10-.2h-12.2l-9.8-.8-1.2-.4-.6-.6v-2l-.4-4.9v-3.1l-.2-2.9v-2.9l-.6-10.6.2-3.1.6-10.6.2-3.1-.6-10.8v-3.1l-.2-10.6v-16.9l-.2-10.8v-3.1l.2-10.6v-16.9l-.4-10.8.6-2.2,1.2-.8,2-.2h1.6l2.9-.2,4.7.2h3.1l9-.4h12.2l2.2.4.4,1.2.2,2.2.4,5.1.2,3.1v19.2l.2,10.6v3.1l-.2,10.8v3.1l.2,10.6v3.1l-.4,10.6v17.1l.6,10.6h0ZM1531.8,209.4l2,.6-.6-1.2-.2-2-1-.4-.6.8v.2l-.2.2.6,1.8h0ZM1534.6,223.1l-.6-.2-.6.6h.6l.6-.4h0ZM1533.8,120.8l2.2-.8-1.2-.6-1,1.4ZM1533.8,126.5l1.8,1.2,1-.8-2-.6-.6-1-.2,1.2h0ZM1534.2,154.5l1.2.6,1-.2-2.2-.4h0ZM1535.6,171.4l-.2-1v-.4l-.4-.4-.4.6.2,1.6.8-.4h0ZM1534.8,101.8l.4.4.4-.6-.2-.2h-.2l-.4.4h0ZM1536.7,108.6l-1.4.8-.4,1v.2l1-.4.2-.8,1.8-1.2v-.6l-.8-.4-.4,1.4h0ZM1535.6,159.8l.8-.2.2-.6,1-1.6.8-.2-1.4-.6-1.4.8-.4,1.6.4.8ZM1538.3,111l-.2,1-1-.2h-.8l-1,1.2.4.6h.4l.8-.6.6,2.7.6.4.4,1.4,1.6-.2.6.4h1.6l.4-.4-.2-.8-.6-.6-.6.2-.2.4-2.7-1.2-.4-2,.8-1,.2-1.4,1.2-.8-.4-.6-1-.4-1,1.4.6.4h-.1ZM1536.3,152.4v-4.1l-.6,1.2.2.6-.6,1.2,1,1.2h0ZM1550.1,143.9l-.2,2.4-1.8-1-.2,1.8,1.4.2.2-.2,1.6.4.6,1,1.2.4,2.2-2.4h-1.2l-.4-.8.2-1.2-.6-1-.4,2.5-1,1.2-.6-.6,1-5.7,1-.4-1.2-1v-.6l1.2-.6.2-.4-.6-.4.2-.8.6-.4h1v1l.4.6.4-.4.2-2-1.8-1.8.2-.6,1.4.2,1.2-.8v-1.8h-.6l-1.8,1.8-3.5-2-.6,1.6-.6.2-.8-.6h-1.4l-.4-2.4-.4-.4-.4.2v.6l-.2.2-.6-.4-.6.2.6,4.9-.8.4-2.2-4.7-6.1,3.3-.6,2.2.2.2.2-.2v-.2l1.8-.4,1.6.6v.6l-.4.6h-1.6l-1.2,1,.2,4.1h.4v-.4l2-1.6,1.8.4v.2l1.6-.6,1.6.4,1-.6.2-1-.4-.6-1.6.4-.8-.4,1.2-2,2.2.6,1.8-2.2.8-.8,1-.2.8-.8,1.2,1.4v.8l-1.8.8v.2l-.6.6.6.6v1.6h-1l-.6-.6-1.6,2.7-1.6.6-.4.8,1.2-.4,1.4,1.4.8-1-.2-.8.2-.2h.6l-.2.2.4.6,1.4.2.6,1.2-.2.3ZM1535.8,120.4v1.2l.8-2-.8.8ZM1536,129.6l.2.2.4-.4v-.2h-.6l-.2.4h.2ZM1536.3,214.3l.6.4.8-.8-1-1.2-.6,1,.2.6ZM1537.9,228.2l-.2-.2-.8.6.4.4h.4l.2-.8ZM1537.5,98.8h.8l.4,2,1.2-2-1.6-.6-.8.6ZM1538.3,159.2l-.6-.2-.2.2.2.4.8.2-.2-.6h0ZM1538.7,138.4l.2.2v.8l-.2.2-.8-1.4.2.2h.6ZM1537.9,161.2l.6.6.8-.2-.4-.6-.8-.2v.2l-.2.2ZM1538.1,96.7l1.4.4.2-.4-.2-.2-1.4.2ZM1538.7,106.5l.2-.2-.2-.6-.6-.2v.8s.6.2.6.2ZM1538.5,142.7l.2-.2v-.2l-.2-.6-.4.2v.4l.4.4h0ZM1540.5,145.5l2.2.4,1.6,1.6.4-1.6-.8-1.6h-1.2l-2.9-2.5v1.8l.6.6.2,1-1.8,1.2v.6l-.4.4.6.4h.8l.4.6,2.4.2.2.4h.6v-.2l.2-.2-.2-.4-2-.4-.8-2.2h0ZM1539.1,177l.6-.6v2.5l.6.4,1-.6-.2-.4h-.4l1-2.9,1.8.4.4,1.4.4-1.6,1.8-.8.2-2.7.8-.4-.2-.8.8-1.2-1.8-5.9-1.2.2-.4-1.2.4-1-.6-.6,2-1.2.6-1.2,1.2.2.4.4h.6l-.2-.8-2-.6v-1.4l1.2-.2,1.4.8.4-.8-1-.6-.6-1.4,1.2-.4.4-1,1.4-1-.2-2.2-1.2-1.2-.8.8.8,1-.2.8-.2.2h-.2l-.4-.6-2-.2-.8-1v-2l-1,2.2.6.4-.2,1.2-1.4,1,.6,1,2.2-.2,1,1.6-2.2,2.2-1-.4-2.2,1.4-.2.6,1.4.8-1.6,1.6.2,1.2-.4.8.2.8h.8l.4-.4.6.4.2.6-.8,2.4,1,1v.6l-1.4.2-.6.8.2.6,3.1,2.4v2l-.6.4h-1.4l-2.2-1.6-1.6,3.1-1.4.2.8.6h0ZM1538.9,173.3l-.4.4.2.2h.6v-.6h-.4,0ZM1540.1,103.3h-.8l-.2.4.2.2h.6l.2-.2v-.4h0ZM1539.1,183.1l.8-.2-.2-.2-.2-.4,1.4-1.4-1.4.4-.4,1.8h0ZM1540.1,206.8h1l.2-.2,1,.2.6-.6-.6-.6-.8.4-2.2-.6.2.8.6.6h0ZM1543.8,113v-1.2l-.6.8-1,.8-2.7-1.2.6,1.2-.6,1.6.2.4h.8l.4-1.4,1.4.8,1.2-1.2.2.4,1.4.6v-.2h.2l.6-.4-.2-.8-1.8-.2h0ZM1541,119.2h-.2l-.2-.2-.8-.2-.4.6.4.6h1.6l-.4-.8ZM1540.5,137.8l.8.4-.6.4-.4.6-.6-.2v-.6l.6-.2.2-.4ZM1541,161.4v-.4l-.6-.2-.6.4,1.2.2ZM1539.9,169.2v1.2l.6-1v-1l-.6.8ZM1540.5,150.6l.2-.2.2-.8-.6.2-.2.8h.4ZM1543.8,187.4l-2-2.7.6-.2.4-.6v-.2l-.8.2-.2.8-1-.2-.8.8v.6l3.7,1.6h.1ZM1540.3,110.6l.2.2,2-.6v-.4l-.4-.6h-.2l-1.6,1.4ZM1540.9,188v.8h.4l.4-.4-.8-.4h0ZM1544.8,219l-.6-.2-.4.2-2.2-.2-.6.6-.2.8,1,1.4h.6l2.4-2.2v-.4h0ZM1541,100.2l1,.6.8-.2.4-.4-.2-1.6.4-.4-.2-.4h-.4l-1.8,2.4h0ZM1541,105.9l.2,1.2,2.2-.4-.8-.6-.8.8-.8-1h0ZM1542.2,155.9l.2-.8,1.8.2v-.4l-1.4-2-.8-.2h-1l.2,3.9.6.4.2-.6.4-.2-.2-.4h0ZM1549.7,122.4l-1,.6-.2-.2v.2h-.2v2l-.6.2-.4-.8-.8-.2-.4.6.2.8-.8,1-1.4-.2-1.2-1.8h-1l-.4.6,1,2.4v.2l6.1.6.8-.6-.2-1-1-.6.6-.8,1.8.6,1.6-1,.2-1,1.4-.2.6.4h.6l.2.4h.6l-.2-.8.2-.6,1.8-1.2v-2.7l-.8-.8-1.4.2-.4.4.4.4-.2,2.5h-.6l-1.2,1.2-.8-.4-1.4.6-.4-.6v-.8l-2.4-.2,1.2.6h.1ZM1543.4,118l-.2.8.6.6h.4l.2-.6-.4-.6.2-1-.4-.4-.6.2.2,1h0ZM1543.6,102.4h.8l.2-.8-.6-.4h-.2l-.2,1.2h0ZM1543.6,108.4l2.7-1.8v-.8l-.6-.8h-.6l-1.6,3.3h0ZM1546.1,120.4l-.4-.6-.6-.6h-.8l-.8,1v1.2l.6.4,2-1.4h0ZM1548.5,179l-2.2.4h-1.4l-.6.4,1.4,1,.6-1.2,1.2.6,1-1.2ZM1544.8,159.2l-.2-1.4.4.8v.6h-.2ZM1545.9,111.2l-.4-.4-.6.2v.8l.8-.2.2-.4ZM1545.4,167.2l-.2-.6.4-.4.2.2h.4l-.2.8h-.6ZM1546.9,176.7l-.6-.2-.4.2-.6.4.4.4,1.2.2.4-.4-.4-.6h0ZM1546.5,184.9l-.8-1.4h-.4l.2,2.7,1-1.4h0ZM1545.6,102.4l.2.8.4-.2h.2v-.8l-.4-.6-.4.8h0ZM1545.9,168.6l.4-.4.2,1h.2l-.6.8-.4-.4v-.4l.2-.2v-.4h0ZM1546.7,181.4l-.6.4-.2.6.2.2h.2l.4-.6v-.6h0ZM1547.9,121.2l-.6-.4-1.2,1,.2.6,1-.2.6-1ZM1546.7,162.2h-.4v.4l1,.8.4-.4v-2.7l-1,2h0ZM1547.3,125.3l.8,1.2v.4l-1.4.4.2-.8-.4-1,.8-.2ZM1546.7,107.7l.2.2.2-.2v-.6l-.4.4v.2h0ZM1547.3,148.2l-.4.4.4.4.4-.4v-.2l-.4-.2ZM1547.1,105.1l.4.4.4-.6-.2-.2-.6.2v.2h0ZM1548.1,119.2l1.6.8v-.4l-.6-.4h-1ZM1548.3,115.1l.6,1.4,1.4.2.8-.4.2.8.6-.2v-.8l-.8-.8-.2.8-.2-.6-1.8-1-.6.6ZM1548.5,163.5l2.5.2.6-1.4-.8-1.2-.6.2-1.8,1.8v.4h.1ZM1548.9,110.2l1.4-.6v-1.6l-1.4,2.2ZM1548.9,167.6h1.2v-.6l-.8-.2-.4.4v.4h0ZM1549.3,104.7l.6,1,.8.2.4-.2v-.2l-1.8-.8ZM1554,219.6l-.2-.6-.4-.2-.6-.2-3.3,3.5.4.4,1.4-.6,1-1.8,1.4-.2.4-.4h-.1ZM1550.7,172.5l.4-.4-.2-1-.4-.2-.4.2-.2.4.4.8.4.2h0ZM1550.1,155.3l.8.4,1.6-.6.2-1.6-.6-.8-2,2.5h0ZM1550.5,209.6l.2.4.4.2.6-.2-.2-1-.2-.2-.8.8ZM1551,98.3l.4-.6-.2-.4-.2,1h0ZM1551,101.4l1.2.2,1.2-.2.6.4,1-.2-1.2-.8-.2.2-1.4-.6-1.2,1ZM1551.6,127.7l.8.2.6-.8v-1s-1.4,1.6-1.4,1.6ZM1552.6,105.3v-.2l-.6.4.2.2v.2l.6-.4-.2-.2ZM1552,197.8l1.8,1v-.6l-.8-.6-1,.2h0ZM1553,150.6l-.8.4.2.6,1.8.8.4-.6v-1l-1.6-.2ZM1553,163.7l.4-.4-.8-.8-.4.6.2.4.6.2h0ZM1556.1,114.1l-2.7-3.9-.6,2.7.8,1v-1.6l.2-.2.8.2,2.5,3.1.4-2-1.4.6h0ZM1554.2,161h.8l.8-.8-.8-.4-.6.6-1.2-.2-.4.4.4.6,1-.2h0ZM1554.2,173.7l-.6-1.2v.8l-.6.6.2.6h.6l.4-.8h0ZM1553.2,171.4l.4.4.4-.6-.4-.4-.4.2v.4h0ZM1555,169.4l-1,1,1.4-.2-.6-2.2-.6.8.8.6h0ZM1555.8,165.1l.4-1.8-.6-.6-.8.2-.6,2.5,1.6-.4h0ZM1554.8,174.7h.6l.6-.4h-.6l-.6.4ZM1555.8,125.9l-.6.4-.2.6.6,1,.8-.4v-1.4l-.6-.2h0ZM1555.2,141v.4l.8.2v-.2l.2-.2-1-.2ZM1556.1,222.7l-.2-.4-.4-.2-.4.2v.2l.4.4h.4l.2-.2ZM1556.1,145.9l.4.2.2-.2v-.6l-.4-.2-.4.2.2.6h0ZM1556.9,138.6l.8-.4v-.2l-.2-.2h-.8l-.6.6.8.2h0ZM1559.3,214.9l-.6-.8-1,.2-.4.8-1.2.6,1,.6,1-.4.8.4.4-.4v-1h0ZM1556.5,105.9l.2.6.4.2.8-.4-.2-.6-.6-.2-.6.4h0ZM1557.7,131l.6-.6.2-1.4-.6-.2-.6,1.6v.6h.4ZM1560.7,140.4l-1.4-1.2-.2,1.8-1.8,1.6v.4l.2.2.6-.2,2.5-2.5h.1ZM1558.3,172.7l.4-.6-.4-.4-.4.2v.4l.4.4h0ZM1558.1,126.5l.6.4v-.8l-.6-.4v.8ZM1560.1,180.2l-.2-.2-.4.2-.2.8.4.2.4-.2v-.8h0ZM1559.5,118.8l.4.4.4-.2v-.6l-.2-.2-.4.2-.2.4h0ZM1559.5,121.6l.4.2.4-.2v-.4l-.4-.4-.4.2v.6Z"/>
    <path class="st3" d="M1726.7,154.1l.6,11.4v3.1l.4,25.9v3.3l-.2,1.6-.2,3.3-.6,9.4.2,11.4-.2,2.7-.8,2.4-1.6,2.2-2,1.4-1.8.6-2.7.2-10,.4-3.1.2-4.9.2h-3.1l-2.5-.6-2.4-1-2.4-1.8-1.8-2.5-2.9-5.7-1.8-2.5-7.6-9.6-2-2.4-7.6-9.4-1.8-2.5-6.9-10.2-1.8-2.4-7.6-9.4-2-2.4-7.3-9.6-1.8-1.6-1.4.6-.6,2.4-.4,9.8v3.1l.2,9.8v3.1l.2,11v3.1l-.6,11,.2,3.1,1.2,7.8.2,3.1-.6,2.5-1.4,1.4-1.4.4-2.4.4-1.6.2-3.3.2-9-.2h-3.1l-8,.4h-3.1l-2.9-.2-2.2-.4-1.6-1-.8-1.4-.4-2-.2-1.4v-2.9l.4-6.5.2-3.1-.6-10.4v-3.1l.4-23.9.2-3.1.6-10.4.2-3.1v-13.5l-.8-10.4v-3.1l.8-10.4-.2-3.1-.8-10.6-.2-3.1v-4.5l.2-2.9.4-2.9.4-2.2.6-1.4,1.2-.6,2.2-.4,5.9-.4,5.9.4h14.7l2.4.2,1,.8,1.2,1.8,8.2,8.8,2,2.4,7.3,9.4,2,2.4,7.3,9.6,2,2.4,7.1,9.8,1.8,2.4,7.4,9.4,2,2.4,7.1,9.8,1.6,1.4,1.6.2,1.4-1v-2.2l-1.4-8.2-.2-3.1.6-8.4v-3.1l-.8-12v-3.1l.8-12-.2-3.1-.6-7.3v-4.9l.6-2.5.8-1.6,1.4-.8,2.4-.4h1.8l3.3-.2,8.8.6h3.1l6.7-.4,2.9.2,4.5.2,2.2.4,1.4.6,1.2,1.4.4,2.7.2,1.8.2,3.3-.4,6.1-.4,3.1-.6,11.6-.2,3.1v29l-.4-.3ZM1601.6,173.5l-.6-1-.6.6.8.8.4-.4h0ZM1607.9,168.4l-.6-.8v1l.4.8.2-1ZM1610.4,205.5l-.4-.2-.4.2-.2,1,.6.2.4-.2v-1ZM1614.9,202.1l-1.8-1.2-2.7-2.7-.6.4.6,1.8,2.5,1.2.4.8-.2.8.6.6.6-.2.6-1.4h0ZM1610,178.4l1.2,2.2,2,1.4h.4l.4-.6-.6-.8.4-2.5-2-.8-1.8,1.2h0ZM1621,209.2l-.4-1-1-.4-.8-1.6-.6,3.5.4.4h1.4l1-1h0ZM1621.2,171.4l-1.4-.6-.8.4-.4.8,1.2.8,1-.4.4-1h0ZM1621.8,150.4l.8-.4.2-.4.4-.2.2-1.2-.8-.6-1,.4.2,2.4h0ZM1623.8,222.3l-.2-1.4-1,1-.2,1.2.6.2.8-1h0ZM1628.5,166.5l.4-1.2-1.4-1-2.4.8-.6,2.4,3.9-1h0ZM1626.9,189.6l-1.2-.8h-.4l-.2.6.2.8,1.2-.2.4-.4h0ZM1628.7,155.1l1.2.8-.2-.8-.2-1,.6-.6v-.8h-.8l-.6,2.4h0ZM1629.8,177l.2-.8.6-.8-.2-1-.4-.2-1.2,1.2v1.2l.2.2-.2,1.4.8.6.8-.8-.6-1h0ZM1646.9,159.8l-.6-.2-.4.2-.2.8.4.2.8-1h0ZM1650.8,161.6l-.8-.8-.8.6-.2.8-1,.8,1.2.2,1.6-1.6h0ZM1653.6,154.1l-.6-1,.4-.6-.2-.8h-.8l-.4.8,1.2,1.6h.4ZM1655.3,157.8l-.6-.8-.4.2v.8l.4.4.4-.2.2-.4ZM1657.5,170.6l-.4-1-.8.8-.8,1.4.8,1.8.2-2.7,1-.2h0ZM1659.2,166.9l-1.4-1.2v-.8l-.4-.6-.6.6,1,1.8,1.4.2ZM1659.4,160.8l-1-1.2h-.8l-.4.8.4,1,.6.4,1.2-1h0ZM1660.2,152.5l.8-.2.2-.6-.4-.8-1.8-.4.4,1.6.8.4ZM1661.6,160.2h-.8l-.2.4.4.8.4-.2.2-1ZM1661.6,172l-.4-.6-.6.6v.8l.4.2.4-.2.2-.8ZM1661.8,163.7l2,2.7,3.5,5.3,1.8.4-4.5-5.3.2-1.2,1-.8,1,.6,1-.6.2-.8-1.6-1.6-.4-1.6-.6-.6-1.6,1.2v.8l-2,1.4h0ZM1663,178l-.4-.4-.6.8v1l.8-.6.2-.8ZM1663.9,171.4l-.2,1.2,1.6-1-1.2-2.4-.8-.4-.6.6,1.2,2h0ZM1665.7,176.1l.4-2.4-2.9,2.2.2.6,2.4-.4h0ZM1681.8,193.9l2.7-.2v.2l1.8.6.8,1,1.4-.2,1.8-3.3,2.2-.4-.8-2.2,2-1.8v-.2l-2.4,1-2-.4-1.2-1.6.4-3.9-.8-.6-2,1-.2.8-2.4,1.2-.4-1,1.4-3.9-1.8-2.2-1.8.6-.8-.2-.4-1.2-1.2-.6-.8,1.6,1.4,1.6v.2l-1.4.8-1.4-.6-.4-1.6-1,1,.4,1.4h.2l-1.6.4-1-1,.2-.4-.2-.4.6-1-.2-1.2,1-1-.2-1.2-1.6,1.4-3.5-1.2.4-1.2-1.2-.8.2,2.4.8.6h1l.6,1,1.8-.8.6.8-.6,1,.4,1.2-1.4-1.2-2.5-.2-.4.4.2.8,1.4.2.4.4-.8,1,.6.8,1-.2-.2,1.2h-2v-.6l-1.6-1.2-.6-2.4-1.2-1,.4,2-2,1.2.2,2.4.6.6.2,1-.8-.2-.2,1,3.5,1.8,1.2-1.8,3.9-1.2v.2l.2.2.8-.6.4.4h.8l2.7,3.5,1.2-.2v-1l-.8-.8.6-.8h1l.4,1.2,1.2.2,1.2-.8,2.7,1.6v1l.6.6-.4,1,.8,1-.2,1-1,.2-1.4-.6.2.8-1.2.6-2.4-1.8-1,1,.8,2.2-1.6,1.8-2,.6-.2,2-.6.4.4,1.6h1.2l4.5-6.5.4-.3ZM1668.1,167.6l-.6.2-.4.6,1.4-.2-.4-.6ZM1668.3,161.2l1.4,1.6.4-1.2-.4-1.4h-1l-.4,1h0ZM1675.7,167.6l-2.2,2.4v.6l-3.5,2.5.2.6,5.9-1.6.4.4h.6l1.2-1-1.2-1.6-.4.6.2,1-.8-1.4.2-.4-.2-.4.2-.2.2-1,1.4-.4.2-.4-.2-.6-2.5-1.2-.2,1.2.6.8h0ZM1671,189.2l2-.6.8,2.5,2.9-.2.4-1.2-1,.2-1.2-.4-1.2-4.3-.8,1.8-2.4.8-.2.6.6.8h0ZM1670.8,169.6l.6.2.4-.2.4-.4-.6-.8-.8.8v.4ZM1671.2,165.7l1,1,1.6.2-.4-1.4-1.2-1-.8.4-.2.8ZM1675.3,193.5l-.8-.6-1,.2-1.4-.6,1.6,2.9h.6l.8-.8.2-1.2h0ZM1677.5,173.7l-2.4-.6.8,2.4,1.6.8,1-1.2-1-1.4ZM1676.9,192.5v1l.6.6.6-.6-.4-1-.4-.2-.4.2h0ZM1680.2,201.2l-2,1.6.2.4.4.2,1.2-.6.2-1.6h0ZM1679.6,190h1.2l3.9.8-1.2-1.6-1.8.4-.6-1.6-2.2,1.2.6.8h0ZM1679.4,175.9l1.8-1.4h-1.6l-.2,1.4h0ZM1682.4,175.3l3.1,3.7-1,3.1h1l.8-.6h.2l.8-.8-1.8-4.9-3.1-.6h0ZM1684.9,200.2l2,.4,4.7.4-1.4-1v-.8l-1-1.6h-1.8l1.8,1.6-.2.6-.8.6-3.3-1-2.4.6.6,1.6,1.2.8.6-2.2h0ZM1684.5,196.1l-1.2.6-.4,1,.6.8.6-.2.6-.8.6-.2.2-.4-1-.8h0ZM1688.1,208.6l-.2-.8-.8-.2-2.4-1.8.2,1.6,2.5,2,.6-.8h.1ZM1688.3,202.5l-.8-.4-.8.4-.4,1,.4,1.8,2,.8-.4-3.5h0ZM1693.2,216.6l-.6-2.4-.4-.4.2-2.2-1.6-1.4-1.4.2-.4,1.4-.6.4,3.3,2v1.4l1.2,1.2.2-.2h.1ZM1693.5,194.1l-.8-.8h-2l-1.2,1,.2,1,2.9,1,.4-1,.4-1.2h0ZM1690.2,186.1l2-.4.6-2-1.8.6-.8,1.8h0ZM1693.5,199l-.2-1.2-2.2-.4-.4.8,1.2.8h1.6ZM1691.8,203.1h-.4l-.4.4v1l.8.6.6-1-.6-1ZM1693.9,208.6l-.6-1-.4.2-.2.4,1,1,.2-.6h0ZM1693.7,192.5l1,.4-.2-1-1.2-.4v.4l.4.6h0ZM1694.7,201.4l.4-.4v-.4l-.4-.4-.6.2-.2.4.2.4.6.2ZM1694.3,153.1l.6,1,.2-.2v-.2l-.2-.2,3.9-.8.2.6-.2.8h-1l-1.8,2.2,1.4,3.1-.2.8.6.6.4-.2v-.4l.8-1,.2,1.4.8.8.2,1-2,1.4-.6,1.4,1.6.4.6.6,2.7.2.2.4.6.2.4-.6-2.5-.8-1-2.5,2.5.4,2,1.8.4-2-5.9-4.5.4-.8,6.7-2.4-.2-1.2-.8-.6-1.6,1-.8-.2-.2-.8.8-1.8,2.5-.2,1.2-2.9v.2l2-2.7-.4-1.2h-2.9l-1.6-2.7-.4.4.2.8-.2.2h-.8l-.6.4,2.4,5.1-.8.8-3.9-4.5-4.7,5.1h-.2v.2l-.8.6-.2,1.8v-.3ZM1697.1,205.9l-1-.2-1,.4,1,.6h.8l.2-.8ZM1697.5,194.9l.2.4h.4l.4-.6-.2-.4h-.2v-.6l-1.8-1-.6.4.2,1,1.6.8h0ZM1695.9,197.4l.4,2.4.6-.4-1-2ZM1696.7,170.2l-.6,1.6,1.2,1.4v-4.9l-.8,1.8.2.2h0ZM1696.1,177.8l.8.8.4-.4-.2-.4-.8-.2-.2.2h0ZM1696.9,179.6l-.2.2v.4l.6.6,1-.2-1.4-1ZM1696.9,127.8l.6.6.6-1h-1.2s0,.4,0,.4ZM1699.8,187.2l1.2-1.4-1.6-1.4-.2,2.4-2.2,1.8v.4l.4.2,2.4-2h0ZM1704.1,197.2l.8-.6,1.4-.6.2-3.1.8-.4.8-3.7-2.4-5.5-1.2.2-.6-1.4.4-1.2-.6-.6,2.9-2.2.2-.8,1.2.2.4.6h.8v-.2l.2-.2-1.2-1.2-1.4-.2-.2-1.6,1.4-.2,1.8.8.4-.8-2-2v-.4l1.4-.4.4-1.2,1.6-1.2-.2-2.5-.6-.2-.8-1.2-.8.4-.2.4,1,1.4-.2,1h-.4l-.6-.6-2.4-.2-1-3.5-1,2.7.6.4-.2,1.4-1.6,1.2.8,1h2.4l1.4,1.6-2.5,2.7-1.2-.6-2.9,2.4,1.8,1-1.8,2,.2,1.4-.4.8.2,1h.8l.8-.6.8,1.2-.2,1-.6.6-.2,1.2,1.2,1.2v.8l-1.4.2-.8,1,.2.8,2.5,1.2.4,1,.8.4.2,2.4-2.4.4-2.5-1.6-1.8,3.5-1.8.4,1,.6.8-.6v2.9l.6.4.8-.2.4-.4-.2-.6h-.6v-1l.8-.8.4-1.8h.8l.6.4h.6l.6,1.8.4-1.8h-.1ZM1698.4,123.7l-.6,1.4-.2.4.4.6h.8l.6-1.6,1.4.8.6-.2,1.4-2v-1.4l-1.8,2-3.3-1.4.8,1.4h-.1ZM1698.3,130.2l-.4.6.4.8h1l.8-.2-.8-1-1-.2h0ZM1705.1,137.6l-.6.4h-1.6l-.4-1.2-2-1.2-2.2,1-.6,2.2.2.6h.2v.2h.2v-.2l1.4.6-1.6.8,1.6.2,1.4-.6-.2-1,.6-.6,1.6.6,1-.4,2.2,1.2.2,2.9-.2.4,1,.6h.8l1-1,.2-1.4-.2-1.8-2.2-1.2-.2-.8.2-.4-.2-.4-.6-.2-.4.6h-.6ZM1698.8,155.5l.8.8v.4l-.2.2-1.4-1.4.8.2v-.2h0ZM1699.2,205.9l-.4-.8,1.6-1.6-1.6.4-.6,2.2,1-.2h0ZM1700.2,128.4v.2l.8.2.4-.4-.8-1.8-1,.2-.2.8-.6.4.4.8,1-.4h0ZM1699,167.6l.8-.2.2-.4-.2-.4-.4-.2-.6,1,.2.2h0ZM1698.8,180.2l.8.2.8-.4-.2-.2-.8-.2-.6.6h0ZM1703.9,211.2l-2.5-3.5h-1.2l-.8.8.2.8,4.3,2h0ZM1701,155.9l-.8-.2v-.6l.6-1,.4.4.6-.2-.8,1.6h0ZM1701.6,173.7l.2-.8,1-.2.4.4h.6v-.6l-.4-.2-1.2-2-.8-.2h-1.2l.2,4.7.8.4.6-1-.2-.6h0ZM1701.4,212.3l-.8-.6-.2.2.2.8h.4l.4-.4ZM1702,168.6l.2-.6v-.6h-.6v.6l.4.6ZM1702.4,207.6l.4-.6-.2-.4h-.2l-.6.4-.2.6h.8,0ZM1703.5,130.8l-1,1v1.4l.8.4,1.8-.8.4-.8-1-1.4-1,.2h0ZM1717.7,144.3h-.6l-.4.8-.2.6-1.4.8-1.8-1.8-2.4-.6-.6,3.3,1,1.2.2,1.2-2.4.8v.4l-.6.8.8.4v1.8l-1.4.2-.6-.6-1.8,3.3-1.8.6-.4,1,.6-.4h.8l1.6,1.4.8-1-.4-1,.2-.2,2.9,1,.4,4.3-2.2-1.4v2.2l1.8.2.2-.2,1.6.4.8,1.2,1.4.4,2.5-2.7h-1.4l-.6-1,.2-1.2-.6-1.4-1.4,4.9v-.2l-1-1,1-6.5,1.4-.6-1.4-1-.2-1,1.4-.6.4-.6-.8-.4.2-.8.8-.6h1.2l.4,2,.8-2.9-2.2-2v-.8l1.8.2,1.4-1-.2-.8.2-.6-.2-.6h.2ZM1707.7,161.2l-1.4-.4-1-.2-.8-1.2-.4,1.4,2.4,1.2,1.2-.8h0ZM1704.5,177.8l-.2-1.6.4.8.2.8h-.4ZM1709.2,201l-1.2.6-1.4-.2h-1.6l-.6.6v.2l1.8,1,.4-1.4,1.6.6,1-1.4h0ZM1706.1,187.2l-.6-.2h-.4l-.2-.2v-.2h.2l.4-.6,1,.2-.4.4v.6ZM1705.7,133.7l.2.6,1.2-.4.8-1-1-.4-1.2,1.2h0ZM1707.5,198.2l-.6-.2-1.2.6,1.2,1,1-.8-.4-.6ZM1707.1,208l-1-1.8-.4.2.2,2.9,1.2-1.4h0ZM1706.1,188.8l.6-.4.2,1,.2.2-.6.8-.6-.4v-.4l.2-.2v-.6h0ZM1708.1,178.8l-1.2,2.2-.4.4v.4l1.4.8.4-.8-.2-2.9h0ZM1707.3,203.7l-.6.6-.2.8h.4l.4-.6v-.8h0ZM1707.1,165.3l.4.4.4-.2v-.6l-.4-.2-.4.2v.4h0ZM1707.5,128.4l1.2,1.2v-1l-.2-1,.2-.2,1,.2,1.6,1.8-2.9-4.1-.8,3.1h0ZM1708.8,131.4l.8.2.2-.6-1.8-.4.8.8ZM1713.5,133.5l-.4.6-2.5.8-1.2.4-.6,1v.2h.2v2.7l.6.4,1-.2.4-2.7,1.4-.8,1.6.8.2.8.6.4.6-.6.2-1h.2l.2-1-.2-.4.8-1-.4-1.4-1.2-.2-.8,1-.6.2h0ZM1712.8,181.4l-1-1.4-2.7,2.4v.4l2.9.2.8-1.6h0ZM1709.6,187.6h1.4v-.8l-1-.2-.6.6.2.4ZM1710.8,196.8l-.2-1.2-.6-1-.6,2.2.4.4,1-.4h0ZM1713.1,170l-1,.6-1.4,2.4,1,.6,1.8-.8.2-1.8-.6-1ZM1712.4,192.3l-.4-.6-.6-.2-.4.2-.2.6.4.8.6.2.6-1ZM1711.4,127.8l.4.2.4-.2.2-1-1-1v2ZM1713.1,129l-1.8.8,1.4,1.6.4-2.4h0ZM1712.8,177.6l.8-.6.4-1.2h1l-3.3-1v.2h.2v3.7l1-.2v-1h0ZM1713.7,138.8l-.4-1.4h-.8l-.4.6v.8l.4.6.6.2.6-.8h0ZM1713.3,140l-.6,2.4h.8l.4-1.2-.6-1.2h0ZM1713.5,134.9l-.2-.4.8-.2h.8l.2.2-.2,1.6-.8.4-.2-1.4-.4-.2h0ZM1715.5,169.4l.6-.6-.2-1.2-.8-.4-1.8.6.2.8,2,.8h0ZM1713.7,182.7l.6.2.4-.2v-.4l-.8-.8-.4.6.2.6h0ZM1715.5,179.6l.2.2h1l.8-.8v-.6l-2.2.6-.6-.4-.6.6.4.6,1-.2h0ZM1715.3,199l-.4-.6-.4.2-.2,1,.4.2.4-.2.2-.6h0ZM1714.9,143.3l.4-.4v-.4l-.8.4.4.4ZM1715.1,191.4l-.4.2v.4l.4.4.4-.4v-.6h-.4ZM1715.9,194.7l-.2-.8-.6-.6v1l-.4.6v.8h.8l.4-1h0ZM1717.3,190.4l-.6-2.5-.8,1,.8.8-1,1.2,1.6-.4h0ZM1718,182.3l-.8-.6-1,.2-.4,3.1,1.8-.6.4-2.2h0ZM1716.7,137.6l-.6.2v.6l.4.4h.4l.2-.4-.4-.8ZM1716.3,142.4l.4.2.4-.4v-.4l-.4-.4-.4.2-.2.4.2.4ZM1717.7,156.7v-.2l-1-.4v.4l1,.2ZM1718.6,161.6l-.2-.4-.4-.2-.4.2-.2.4.2.4.6.2.4-.6h0ZM1719.4,152.7l-.2-.6-.8.2-.8.8,1,.2.8-.6h0ZM1719.4,144.3l1-2.4-.8-.4-.4,1-.4,1.2.2.4.4.2h0ZM1721.2,192.7l-.4-.4-.4.2v.4l.4.4.4-.6h0Z"/>
    <path class="st3" d="M1909.2,230l-1.4,2.2-2.2,1-2.5.4h-2.7l-4.5-.4-2.9-.2h-8.8l-12.2.8-2.5-.8-1.2-1.6-1-2.2-6.1-16.5-1.4-2-1.8-.4-2.4-.2-11.8-.8h-3.1l-14.7-.4-11.8-.2h-2.9l-2.9.2h-9l-2.5.4-1.6,1-1.2,2.4-4.5,13.3-1.2,3.1-2.2,2.5-2.9,1.2-3.1-.2-11.4-.6h-3.1l-12.2.8-2.5.2-2.4-1.2-1.6-2.2.2-2.5.4-1.6,1.2-3.1,2.7-6.1,1.2-2.9,4.9-11,1.2-2.7,5.1-11,1.2-2.9,4.5-10.6,1.2-2.9,5.3-11,1.2-2.7,7.1-16.1,5.5-11.8,1.4-3.1,4.3-8.8,1.4-3.1,3.7-9,1.2-2.9,3.5-8,1-2.2,2-1.2,2.9-.6,9-.4h15.3l9,.2,3.3.6,2.2,1.6,1,2.5,2.7,7.6,1.2,2.9,4.9,9.2,1.2,2.7,4.3,9.6,1.2,2.7,3.5,10,1.2,2.7,4.3,9.4,1.2,2.7,4.3,9.6,1.2,2.7,3.9,9.8,1.2,2.7,6.1,12.2,4.7,9.2,1.4,2.7,5.3,12.3,3.9,9.8.6,2.7-.2.5ZM1770.2,205.9l-.8-.4-.4.2v.4l.4.4.8-.2v-.4ZM1795.5,197.4l.6.4v.2l.6.4,1.2-.6v-.4l-.4-.4-.6.4h-.2l-.2-.8-.8-.8v-.6l.6-.8h.8l1-2-.6-.4-2.2.6.4-.8-.2-.4-.8.2-.8.8.6.4.8-.2.4.6v.2l-.8.2-1,1-2.5-2.7-.4,1.6,1.2,2.5-.4,1.2-2.2-3.5.2-2.5-.6-1.2h-1.2l-2.4-1.4-2.9,2,.8,3.5-.2.2-2.4-2.7-2.9-.2-2.9-2.5v-2l1.6-1,.4,1,1,.4.8-.6-1.4-2,2-1.2-.4-.2-.4-.8-.8-.4-.2-.8-1-.2-.2.6.2.6-2.5,2.5-.2,2.5-1.2,1.6,1.6,1.8-.2.2v-.2h-.8l-3.1,2.2,1.2,1,2-1.6,1.2.2,1.4-1,3.1,1.4.4,1.6,1.6.4-.2.2v.2l3.9,1.4.8-.8v-1.2l.2.2.2-.2,3.1.4.8,1.4-1,1.4-1-.4-.4-.8h-.6l1.8,5.9-.4.2-.2.4-.6-.6-.8-.2-.2.2v-.2h-2.4l-3.1-4.3-.6,1.4-1.4.6-.2,1.2.6,1,1.2.2.8-.6-.2-.6.4-.6,2.9,2.9,1.4-.2,1,1.2,1.6.2,1-.8.6,1.4.2-.2h.2l-.2-1-.6-.6.4-1.6,1.2-.8.8-2h1.2l-.2.8.2.2.6-.4.2-.6h-.4l2-1.8h-.3ZM1771.6,215.9l-1.2,1.2.4.6.6-.6.2-1.2ZM1772,211.7l-.2-.4-.4-.2h-.4l-.4.4.2.4.4.2.8-.4ZM1775.3,194.5l.4-.4-.2-.6h-.6l-1.2,2-1-.2-.6.6v2h1l.4-.6,3.3.4-1.6-3.1h0ZM1779.2,205.1l-.8-1-1.2-.2-3.7-2-1,.2v.6l5.1,2,.8,1.8.8-1.4h0ZM1776.5,207.2l-2.4-.6-.8,1.8-.2.6.4.4,1.4-1.6h.8l.8-.6h0ZM1774.7,199l-.4.4v.6l.6.8.6-.2v-.8l-.8-.8h0ZM1778.8,211.5l-.4-1h-.2l-.2,1,.6.2.2-.2ZM1778.6,179l.6,2,1.4,1.6,1.6-1v-1.8l-3.3-1.4-.2.6h0ZM1780,177.2l.2,1.4.4-1.2,1.8.8,1.4-.2-2-2.5-1.8,1.8h0ZM1782.9,185.5l1-.4.4-.6-.8-.6h-1.6l-.6-.6-.8.2v1h1l1.4,1h0ZM1782.3,187h-.6l-.4.6v.4l1,.4.6-.2v-.6l-.6-.6h0ZM1783.3,206.6l-.4-.6-.8.2-.6.6-.2.8.6.4h.8l.6-1.4ZM1783.1,215.1l-1-.4-.6.6.2.4.6.2.6-.2.2-.6h0ZM1783.3,176.1l1-.6.2-.8-.2-.6h-.4l-.6,2h0ZM1784.7,182.1l.2,2.5,1.2,1,.6-.2-1.8-5.1-.8-.2-.6.2-.2.4.2.8h.6l.6.6h0ZM1784.3,170.8l1.4.8.4-.8-.8-.8-1,.4v.4h0ZM1784.9,178.4h.4l.4-.4-.2-.8-.4-.2-.4,1,.2.4ZM1785.1,199.4h.6l.4-.4v-.8l-1-.6-.4.4v.8l.4.6ZM1785.9,168l1,1h1.2v-.8l-1-.6-1.2.4h0ZM1789.2,170.6l-1.8,1.4.2.4-1.6,1.2.6,2.2,2.5-5.1h.1ZM1795.3,186.5l-.6.6-.4-1.6-.8-.6,1.4.2,1.4-2-.2-1.2-3.9,2,.6.8-.2,1.6,1.4-.4.6,1.4-.4.2-2.5-.8-2.5-2.7-.4-2.2-1.2.2-1,1,1.2,2.4,1-.6,1,.8-1.2,2.2,1,2h1l.4-.6-.4-.8.2-.6.6-.2,3.3,1,.4-.4,1.4,1.6-.2-1.2.4-.4v-.2l1,.2.6-3.7.4.8.2-1.8h-.6l-2.7,3.1h-.3ZM1787.8,181.2l.6-.4-.2-.6h-1l-.4.8,1,.2ZM1790.8,176.7l-1.8.6,1.8.4.6-3.1-1.2.6.6,1.6h0ZM1792.3,181l1.4-1.6-.4-1.6-1.2-.2-.2,1-2,2,2.4.4h0ZM1790.4,171.2l2.2,2.4,1.6,1.8-1-4.7-1.2-.8-1.4.6-.2.8h0ZM1791.2,168.4l.4.2.6-.2-.6-1-.4.4v.6ZM1792.5,190.2v-.4h-.6l-.4.4v.6l1-.6ZM1792.1,192.1l.4.4h.4v-.6l-.4-.2-.4.4h0ZM1792.3,165.5l1.8-.4.6-.8v-.6l-.4-.2-2,2ZM1794.1,177.6l-.2.6.2.4.8,2.4h.2l.2-.2.4-2.9-1.6-.2h0ZM1794.3,170.4h.6v-.6h-.8l.2.6h0ZM1794.7,161.4l.2.8h.4l.2-.2v-1l-.8.4h0ZM1794.9,174.1l.4,1h.8l.6-.6-.2-1.2h-.8l-.8.8ZM1800.2,200.6l-.4-1v-.4l-2.4,1-1.6-.8-.2.2v.2l.6.6,1.2.2,1,1,1.4-.2.4-.8ZM1796.5,195.5l.6.4.6-.2v-.4l-1.2.2ZM1810,194.5h1.6l-.4-1h-1.2l-.2-.2h-.2l.2-1,1-.6,1,.6-.2-1-1-.2.6-1h1v.2l1.2,1.2v1l.8.2.2-.4-.2-.8,2-1.4.6.8.8-.2-1.4-1h-.6l-.8.8-.4-.2-.2,1.2h-.8l-.2-.8-.6-.2,2-1.2.2-.8-.4-.2-1.2.8v-1h-.6l-.4.6-.6-.6h.2l.6-1,2.5.2.6.6,1-.2-1.2-.6.2-1.6-1.2-1-.6.2-.6-.4h.2l.2-.4-.4-.4-2.4,1,.4,1.4-.8,1-.2,1.4h-.4v.6l-3.5.4-.6.6.6.4h.8v.6l-.4.4-.8-.2-.6.4v1l-2,.8-.4-.4h-.6l-.4-.6-1-.2-.2-.4.2-.6,1-.4-.2-.2h-.2v-.8l2-.4v-1l-1.2-.2v-.2l-.2-.2.2-2.7-.8-1v-.4l-1-.4-.4.6,1.2,4.9-1,1.4h-.4l-.8.6h-.8l-.4.8.8,2.4-.8,1.2,1.6.4v1.8l1.6-2.4,1.4.2,1.8,2-.2.2v.4l-.6.2-.2.6,2.2.4,1.2,2.7.6-1.8-1.4-1.2-.2-.8-.8-.6v-.6l.4-.6v-.6l-.4-.6.4-1.6,2,2.5h2l.4-1.2h.2l.2-.2v.2ZM1798.2,174.7l1,.6.2-1-.4-.8-.4.2-.4,1h0ZM1798.4,156.9l.4.4.8-.6.4-1-1.6,1.2h0ZM1801.7,198.6l.6-1.2-.6-1.2-.6,1.2.6,1.2ZM1802.7,200.6l1.8-.4-.8-.6-2,.4v.8l.6.2.4-.4ZM1802.5,132.9l.4.4h.4l.4-.8-.2-.2-.8.2-.2.4h0ZM1805.5,202.5l-.4-.6-1-.4-1.2.4,1.8,1.4.6-.2.2-.6h0ZM1805.1,187.4l.4.8.4-.6.6-.4.8.2.8.8,1,.2-.4-1.2.6-1.4-.2-.4h-.6l-.6,1.2-1.6-.6-1.2,1.4h0ZM1805.3,129l1.4,1.6v.8l-.4.4.8.8.8-1-1.4-2.2v-1l-.6-1h-.4l-.2,1.6h0ZM1807.2,183.5v-.2l-.4-.2-.4.4v.8l.6.6,1.4-1-.2-.6-1,.2ZM1809,182.3l.4-.6-.4-.6-.8-.2-.6.2.4.8,1,.4h0ZM1807.8,138.6l1,.4,1-.2.2-1-.6-.6v-1.4l-1,.6-.6,2.2ZM1809.8,203.5l-.4-.6-.6-.2-.2.4.2.6-.2.4.2.2.6-.2.4-.6h0ZM1809,199.2l.6-.8-.6-.6-.2.8.2.6ZM1809,184.3l.6.2.4-.4-.4-.4-.6.6h0ZM1813.7,198l-1.6-.6-1,.4.2,1,2.4-.8h0ZM1843.1,172l-.8-2.5-4.3-13.3-1-2.9-3.9-11.6-1-2.5-2-1.4-2.5-.6-2.2.6-2,2-5.3,13.3-1.2,2.9-5.1,13.1-.6,2.9.6,2.4,2.2,1,2.7.4h12.3l9.2.6,2.5-.8,1.6-1.6.6-2h.2ZM1812.9,180l-1,1.6,1-.6v-1ZM1812.7,181.4l1,.4,1-1.2-2,.8ZM1818,198.6l-.4-.6-.6-.2-.4-2-.2-.2.4-2.5-.2-.4-.4-.2-2.4,3.9.2,1,1.2.2-.2-.6-.6-.2v-.2l1.2.4v.2h.2v.4l.4.4v.6l-.2.2v.2l.4.2,1.6-.6h0ZM1815.3,182.9l1,1,1-.4.6,1,.8-.6h.4l.2-.2-3.9-.8h0ZM1815.7,117.9l.2.4.6.2h2.9l.6-.6.2-1-1.4-1.2h-1l-2.2,2.2h.1ZM1816.6,181.6l.6.2,1-.6-1-.6-.6.2-.2.4.2.4h0ZM1817.2,186.1h.4l-.2-.6-.6-.4v.6l.4.4h0ZM1824.5,193.5l-.6-.4.2-1.6-6.1-.6-1.2.8,4.5-.2.6.8v.6l-.8.4.2,1.2,1.6-.2,1.4.6.2-1.4h0ZM1817,188.4l1,1.2.2-1.4v-1l-.4-.2-.8,1.4h0ZM1817.8,194.5h.6v-.4l-.4-.4h-.2l-.2.4.2.4ZM1820.2,195.9l-.4-.4h-.8l-.8.8,1,.4.8-.2.2-.6h0ZM1819,129.2v.2h.4l-.4-.4v-.2l-.6-.6v.4l.4.6h.2ZM1819.6,188.8l-.2,1.2,1.8.4.6-.2-.2-.4h-.8l-1.2-1h0ZM1820.4,192.7l-.2-.4-.2.2-.2.6h.4l.2-.4h0ZM1820.8,188l.6.2-.2-.6-.4-.4h-.2l.2.8ZM1821.5,131l.2.6h.6v-.4l-.6-.8v-.4l-.2.2v.8h0ZM1823.3,198.4l-.2-.4-.6-.2-.4.2-.2.4.2.6h1l.2-.6ZM1823.5,186.1l-.2.6.6.2-.4-1.8-1.2-.2,1.2,1.2ZM1823.3,108.8l.2.2h.4l.4-.4-.4-.4h-.4s-.2.6-.2.6ZM1824.5,122.4l-.8,1,1,1.2.6-1.2-.2-.6-.6-.4ZM1826.2,189.2v-.4l-1.2-.4-.6.6,1-.2.4.4h.4,0ZM1827,192.7l-.4-.6-.4.4.4.4.2-.2h.2ZM1826.6,113.9l.6.2.8-.4-.8-.2-.6.4ZM1829.8,127.5l-2-.4.6,1.2v2l1,.2.8-.8-.4-2.2ZM1831.3,186.5l-.4-.6v-.8l-.8,1.2.4.8h.6l.2-.6h0ZM1831.2,190.8l-.4-.4h-.4v.4l.6.2.2-.2h0ZM1833.1,185.9l.4-.4v-.4h-.6l.2.8h0ZM1834.7,191.9l-.2-.6h-1.2l-.2.2.2.2h.4l.2.4.6.2.2-.4h0ZM1836.6,131.4l1.4-.2.6.4h.6v-.6l-.8-.2-1-.2-.8.8h0ZM1843.3,125.9l-.2-.8h-2l.6,1,1.2.6s.4-.8.4-.8ZM1846.6,156.7l-1.6-1.6-.6.2-.2,1.2,1.6,1.6.8-.4v-1h0ZM1847,151.8l.6,1.2.6-1.4-.2-1.2-.8.2-.2,1.2ZM1850.6,167.1l-2.4-.2-1,2,2-.2,1.4-1.6ZM1856.6,178l2.2-.2.8.6.2,1.4,1,1,1.2-1.4-1-2.4,1.8-.4,1.4.8v2l1.2-.8v-1.8h1.8l.8,1.6-.4.2v.6l-.8,1v1.2l-1.4.8-.2,1.2h1l1-.8,3.7,2.2-1,1.2,1,1.2.6-2.5-.6-1-1-.2-.6-.6v-.6l-2.2.2-.4-1,1-.8-.2-1.4,3.1,2.4,1.6-.2-.2-.8-.6-.6-.8-.2-.4-.4,1.2-1-.4-.8-1-.2.4-1.2,2,.6,2.2,6.5.2-2.4,2.5-.8.4-2.5-.4-.8.2-1,.6.4.4-1-3.1-2.9-.8.4-.4.8-5.3.4v-.2l-1,.4-3.1-5.5-1.4-.2-.2,1.2.6,1.2-1,.4-.8-.2-.4-1.4-1.2-.6-1.4.8-2.5-2.7.2-.8-.4-1,.6-1-.2-1.2-.4-.4.8-.8h.8l1.4,1.2.2-1,1.2-.2,4.3,4.3,2.2.4,1.2,1v4.7l1.2-1.6,2.7-.2.6-.6-.4-1-2.4.2.2-2.4-.4-.6-3.1-.8-1.8.8v-.2l-.6-.4-.8-3.7,2.7-2.4h2.2l.8-2,.6-.4.2-1.8-1.4-.2-6.9,5.5-4.5-2-.6-1.2h-1.6l-.8,1.2.6,1.6h-5.1l.4,2.5-2.7,1.4v.2l2.7-.4,2.2,1,.8,2.2-1.8,3.9.8,1.2,5.7-2,.2,1-2.5,3.7,1.2,2.9-.2.2ZM1847.8,158.2l-.2,1.2.8.6h.4l.2-.2-1.2-1.6h0ZM1848.8,143.5l2,.4-.6-1-1-.2-.4.4v.4h0ZM1849.8,150.4h.6l.4-.4-.4-.8-.4-.2-.6,1,.4.4ZM1849.4,157.3l.6,1.2,2,.6,1.6-.8.2-1-2-1.8-1.2-.2-.6.8-.6,1.2ZM1850.6,152v1.4l.8,1h1.4l.6-.6-1-1.4-1.8-.4ZM1856,180.8l-2.5-4.9,2.2-2.9-1.2-.4-2.2,1.2-.2,1.4.8,1.4-.2,2.9,3.3,1.4h0ZM1852.9,142.2l.4.4h.4l.4-.4-.4-1-.4-.2-.4.4v.8ZM1853.3,150.4l1.2,1.6-.2.8.6,2,2,.4-1.4-2.2v-.2l1.2-.6,6.3,1.8-1.4-2.7-1.2,2-7.1-2.7v-.2ZM1854.9,146.9l-.8-1-.6,1,.2,1.2.6.2.4-.4.2-1h0ZM1856.2,135.9l-.8,2.7,1.4,2h1.4l1-1.4.8-.2-2.9-3.1.4-1.4-.6-1.4-.4-.2-.4.2-.4,1.2.6,1.6h0ZM1858.8,182.5l.4-1.4-2.2,1,1.8.4h0ZM1858,145.9l-.8,3.7,1,.8.8-.2.8-1v-2l-1.8-1.4h0ZM1863.1,165.7l-1.6-.4-3.5-2,.8,2.2h2l.2,2,2.4-.4.4-.4-.6-1h-.1ZM1868.8,186.7l-.2-.6h-6.7l-.4-.6-.8-.2-1.4.8.8,2.2.8-1.8h.2l.2,1.8-.2.2v.6h-.2l-1.6,1.4-.6-.2-.4.4,2.4,2.5.6-1-.4-1.2,2.9-2,.2-.6,4.7-1.8h0ZM1861.3,155.5h-.8l-.8.8h-.8l-.2.4.8,1,1.4-.2.6-1-.2-1ZM1860.2,142.5l-1,.8.2.6,2.7,3.1.4-1.6-2.4-2.9h.1ZM1862.9,182.3l-1.4-1.2-1.4,1,.6,1.8,2.4,1.4-.2-2.9h0ZM1864.9,195.3l.4-1-.8-1.4-1.6-.6v1.8l1,1.4,1-.2ZM1865.8,191.4l.6-.2.4-.8-.6-.4h-.4l-.6.4v.6l.6.4ZM1867.2,200.2l-1-2.2-1,1.6.2,1.2,1.2.2.6-.8h0ZM1865.6,153.5l2.5-1.2v-.6h-1.8l-.8,1.8h.1ZM1866.6,162l-.8.4.2,1.2.2.4.6-.2.4-1-.6-.8h0ZM1872.1,201l.4-1,2.4-.8-3.5-10.2-2-1,3.5,7.1-.6,1.2-1.2.6-1-1-1.2.4-.6.8,1.8,4.9,2-1h0ZM1868.8,163.1l.6.8h1.2l1.4,1.2.2-1.4-1-1.2v-1l-.6-.4-1.8,2h0ZM1869.2,193.1l.8.2.6-.8h-1.6l.2.6ZM1874.1,214.3l-.4-2.5h-1l-.4.6v1l.8.8,1,.2h0ZM1876.8,185.1l-2.5-.2-1.2,2.2,3.9-1.4-.2-.6h0ZM1874.9,191.6l.6-2.5-2.2.8.8,2.9.6.6.8-.6-.6-1.2h0ZM1875.4,202.3l-.4-.2h-.4l-.4,1h.4l.2.2.6-.4v-.6h0ZM1878.8,203.1l-.6-.8-1,.2-.6.6.8,1.6,1,.2.4-1.8h0ZM1878.4,189.4l-.4.2-.4.8.2.8.8-.4.2-1-.4-.4h0ZM1879.2,182.1l-1,.4-.4.8.4.6,1-1.8ZM1879.8,199.8l.8-.4v-1l-.4-1.4-1.6-.4,1.2,1.6-.4,1,.4.6h0ZM1881.1,208.4l.2-.4-.2-1h-.6l-.2.8.4.6h.4,0ZM1882.5,214.1l-.6-1.6-.2-.4h-.6l.4,1-.6.8v.8l.8.2.8-.8h0ZM1884.1,192.3l-.6-2.2-.4,1.6-.6,1.4h-1l.2,1.2,2.4-2ZM1889.6,203.9l-2.2-.2-1,1,.6,1,.8-.2.4-1,1.4-.6h0ZM1891.3,207.2l-.2-.4h-.4l-.8,1,1,.2.4-.2v-.6Z"/>
  </g>
  <g>
    <path class="st3" d="M510.2,350.4l32.6-71.3h7.4l32.6,71.3h-7.9l-30-66.9h3.1l-30,66.9h-7.8,0ZM523,331.3l2.2-6.1h41.5l2.2,6.1h-46,0Z"/>
    <path class="st3" d="M605,350.4v-64.8h-25.1v-6.5h57.7v6.5h-25.1v64.8h-7.5Z"/>
    <path class="st3" d="M676.3,350.4v-71.3h6.2l32.6,55.6h-3.3l32.3-55.6h6.2v71.3h-7.2v-60h1.7l-29.8,50.9h-3.6l-30-50.9h1.9v60h-7.2.2Z"/>
    <path class="st3" d="M762.2,350.4l32.6-71.3h7.4l32.6,71.3h-7.9l-30-66.9h3.1l-30,66.9h-7.8,0ZM775,331.3l2.2-6.1h41.5l2.2,6.1h-46,0Z"/>
    <path class="st3" d="M846.6,350.4v-71.3h6.2l49.2,61.9h-3.3v-61.9h7.4v71.3h-6.2l-49.1-61.9h3.3v61.9h-7.5Z"/>
    <path class="st3" d="M937,350.4h-7.5v-71.3h7.5v71.3h0ZM982.4,317.5h-46.2v-6.6h46.2v6.6ZM981.6,279.1h7.4v71.3h-7.4v-71.3h0Z"/>
    <path class="st3" d="M1000.9,350.4l32.6-71.3h7.4l32.6,71.3h-7.9l-30-66.9h3.1l-30,66.9h-7.8,0ZM1013.7,331.3l2.2-6.1h41.5l2.2,6.1h-46,.1Z"/>
    <path class="st3" d="M1095.6,350.4v-64.8h-25.1v-6.5h57.7v6.5h-25.1v64.8h-7.5Z"/>
    <path class="st3" d="M1155.1,350.4v-64.8h-25.1v-6.5h57.7v6.5h-25.1v64.8h-7.5Z"/>
    <path class="st3" d="M1184.8,350.4l32.6-71.3h7.4l32.6,71.3h-7.9l-30-66.9h3.1l-30,66.9h-7.8,0ZM1197.6,331.3l2.2-6.1h41.5l2.2,6.1h-46,.1Z"/>
    <path class="st3" d="M1269.3,350.4v-71.3h6.2l49.2,61.9h-3.3v-61.9h7.4v71.3h-6.2l-49.1-61.9h3.3v61.9h-7.5Z"/>
    <path class="st3" d="M1386.3,350.4h-7.5v-71.3h7.5v71.3h0ZM1431.7,317.5h-46.2v-6.6h46.2v6.6ZM1431,279.1h7.4v71.3h-7.4v-71.3h0Z"/>
    <path class="st3" d="M1450.2,350.4l32.6-71.3h7.4l32.6,71.3h-7.9l-30-66.9h3.1l-30,66.9h-7.8,0ZM1463,331.3l2.2-6.1h41.5l2.2,6.1h-46,.1Z"/>
    <path class="st3" d="M1534.7,350.4v-71.3h26.7c6,0,11.2,1,15.6,2.9,4.3,1.9,7.7,4.7,10,8.4,2.3,3.6,3.5,8,3.5,13.2s-1.2,9.4-3.5,13-5.7,6.4-10,8.4c-4.3,1.9-9.5,2.9-15.6,2.9h-22.5l3.4-3.5v26.1h-7.6ZM1542.2,324.9l-3.4-3.6h22.3c7.1,0,12.5-1.6,16.3-4.7,3.7-3.1,5.6-7.5,5.6-13.1s-1.9-10.1-5.6-13.2-9.1-4.7-16.3-4.7h-22.3l3.4-3.6v42.9h0ZM1583.4,350.4l-18.3-25.9h8.2l18.4,25.9h-8.3,0Z"/>
    <path class="st3" d="M1608.3,350.4v-71.3h30.8c7.9,0,14.1,1.6,18.5,4.8,4.4,3.2,6.6,7.7,6.6,13.6s-.9,7.1-2.7,9.8c-1.8,2.6-4.2,4.7-7.3,6-3.1,1.4-6.5,2-10.1,2l1.7-2.4c4.5,0,8.5.7,11.8,2.1s5.9,3.5,7.7,6.2c1.8,2.8,2.8,6.2,2.8,10.2,0,6-2.2,10.7-6.7,14.1-4.4,3.3-11.2,5-20.1,5h-33ZM1615.9,344.2h25.2c6.2,0,11-1.1,14.4-3.2,3.3-2.1,5-5.6,5-10.2s-1.7-8-5-10.1-8.1-3.2-14.4-3.2h-26v-6.2h23.5c5.7,0,10.1-1.1,13.3-3.3,3.2-2.2,4.7-5.4,4.7-9.7s-1.6-7.6-4.7-9.7c-3.2-2.1-7.6-3.2-13.3-3.2h-22.7v58.9h0Z"/>
    <path class="st3" d="M1716.3,351c-5.4,0-10.3-.9-14.9-2.7-4.6-1.8-8.6-4.3-11.9-7.6-3.4-3.3-6-7.1-7.8-11.5-1.9-4.4-2.8-9.2-2.8-14.4s.9-10,2.8-14.4,4.5-8.2,7.8-11.5c3.4-3.3,7.3-5.8,11.9-7.6,4.5-1.8,9.5-2.7,15-2.7s10.3.9,14.9,2.7c4.6,1.8,8.5,4.3,11.9,7.6,3.4,3.3,6,7.1,7.8,11.5,1.9,4.4,2.8,9.2,2.8,14.5s-.9,10.1-2.8,14.5-4.5,8.3-7.8,11.5c-3.4,3.3-7.3,5.8-11.9,7.6-4.6,1.8-9.5,2.7-14.9,2.7v-.2ZM1716.3,344.3c4.3,0,8.2-.7,11.9-2.2,3.6-1.5,6.8-3.5,9.5-6.2s4.8-5.8,6.3-9.4,2.2-7.5,2.2-11.8-.7-8.2-2.2-11.8c-1.5-3.6-3.6-6.7-6.3-9.4-2.7-2.7-5.8-4.8-9.5-6.2-3.6-1.5-7.6-2.2-11.9-2.2s-8.3.7-11.9,2.2c-3.7,1.5-6.8,3.5-9.5,6.2s-4.8,5.8-6.3,9.4-2.3,7.5-2.3,11.8.8,8.1,2.3,11.7,3.6,6.7,6.3,9.4c2.7,2.7,5.9,4.8,9.5,6.2,3.7,1.5,7.6,2.2,11.9,2.2h0Z"/>
    <path class="st3" d="M1799.4,351c-9.1,0-16.3-2.6-21.5-7.8-5.2-5.2-7.8-13-7.8-23.2v-40.9h7.5v40.6c0,8.4,1.9,14.6,5.7,18.6,3.8,4,9.2,6,16.1,6s12.4-2,16.2-6c3.8-4,5.7-10.2,5.7-18.6v-40.6h7.3v40.9c0,10.3-2.6,18-7.8,23.2-5.2,5.2-12.3,7.8-21.4,7.8h0Z"/>
    <path class="st3" d="M1851.3,350.4v-71.3h26.7c6,0,11.2,1,15.6,2.9,4.3,1.9,7.7,4.7,10,8.4,2.3,3.6,3.5,8,3.5,13.2s-1.2,9.4-3.5,13-5.7,6.4-10,8.4c-4.3,1.9-9.5,2.9-15.6,2.9h-22.5l3.4-3.5v26.1h-7.6ZM1858.9,324.9l-3.4-3.6h22.3c7.1,0,12.5-1.6,16.3-4.7,3.7-3.1,5.6-7.5,5.6-13.1s-1.9-10.1-5.6-13.2-9.1-4.7-16.3-4.7h-22.3l3.4-3.6v42.9h0ZM1900,350.4l-18.3-25.9h8.2l18.4,25.9h-8.3,0Z"/>
  </g>
  <g>
    <circle class="st1" cx="224.5" cy="222.1" r="207.2"/>
    <g>
      <path class="st4" d="M333.8,56.6h0c-7.5-.6-14.9-1.9-22.3-3.1-3.7-.6-7.4-1.1-11-1.4-1.8,0-3.7-.2-5.5-.2s-3.7,0-5.5,0c-3.6.2-7.3.7-10.9,1.3-.9,0-1.8.3-2.7.5s-1.8.4-2.7.6c-1.8.4-3.6.9-5.4,1.3l-9,2.3,6.5-6.8c1.5-1.6,2.8-3.3,4-5.1h-.4c-2.2.3-4.4.5-6.6.5-4.4.2-8.7,0-13,0-4.2,0-8.4-.2-12.4,0-1.1,0-2.2,0-3.2.2l-1,7.7c3.3,1.3,6.6,2.6,9.9,4.2,18.5,8.7,35.7,22,49.2,39.3,6.8,8.6,12.6,18.1,17.3,28.3,4.7,10.2,8.4,21,10.7,32.2,4.8,22.3,4.3,46-1.4,67.9l-1.4,5.3-4.8-1.1c-4.8-1.1-9.7-1.9-14.5-2.5.2-.6.4-1.3.6-1.9.4-1.4.9-3,1.4-4.6.4-1.6.9-3.3,1.3-5.1s.8-3.7,1.2-5.6c.4-1.9.7-4,1-6.1s.5-4.2.8-6.4c.1-2.2.4-4.4.4-6.7s.2-4.6.1-6.9v-3.5c0-1.2-.1-2.4-.2-3.6,0-2.4-.3-4.8-.5-7.2-.3-2.4-.5-4.8-.9-7.2-.7-4.8-1.6-9.5-2.7-14.1s-2.4-9.1-3.8-13.4-2.9-8.3-4.6-12.1c-.8-1.9-1.7-3.7-2.5-5.5-.9-1.7-1.7-3.4-2.6-5-1.7-3.2-3.5-5.9-5.1-8.4-1.7-2.4-3.2-4.4-4.6-6-.7-.8-1.3-1.5-1.9-2-.6-.6-1.1-1.1-1.5-1.4-.8-.7-1.3-1.1-1.3-1.1,0,0,.4.4,1.2,1.2.4.4.9.9,1.4,1.5s1.1,1.3,1.7,2.1c1.3,1.6,2.6,3.7,4.1,6.2,1.4,2.5,3,5.3,4.4,8.6.8,1.6,1.4,3.3,2.2,5.1.7,1.8,1.4,3.6,2.1,5.5,1.4,3.8,2.6,7.9,3.7,12.2s2,8.7,2.8,13.3c.7,4.6,1.3,9.2,1.6,13.9.2,2.3.3,4.7.4,7,0,2.3.1,4.6,0,6.9v3.4c0,1.1-.1,2.3-.2,3.4,0,2.2-.4,4.4-.6,6.6-.2,2.2-.6,4.3-.9,6.3-.4,2-.7,4.1-1.1,6-.5,1.9-.9,3.8-1.3,5.6-.5,1.8-1,3.5-1.5,5.2-.5,1.6-1.1,3.2-1.5,4.7-.5,1.5-1.1,2.8-1.6,4.1-.3.6-.5,1.3-.7,1.9-.3.6-.5,1.1-.7,1.7-.1.3-.2.5-.3.7-7.3-.4-14.7-.2-22,.4-7.8.7-15.6,2-23.3,3.8s-15.3,4.2-22.8,7c-14.9,5.7-29.4,13.2-43,22.3-13.5,9.1-26.2,19.7-37.6,32.1,0,0-.4.2-1.2.5.4-.2.8-.3,1.1-.5,5.7-8.7,74.1-127,71.6-199l-47.8,143.6c-8.2,3.1-16.2,7.4-23.8,12.2-7.7,4.8-15,10.2-22,16.1s-13.7,12.2-19.8,19c-2,2.2-15.7,20.3-17.6,22.7,28.1-89.8,100.1-189.7,130.9-216.1-1.2-20.7-8.6-37.4-25.6-46,4-.5,9.8.4,14.7,1s9.8,1.4,14.7,2.5c5,1.1,9.9,2.5,14.7,4.2l6.8-29.1C117,17.9,26.2,112.5,26.2,222c-.7,35.6,11.2,72.7,24.9,96.3,19.2-3.9,96.3-10.6,144.6-24.3,37.7-10.7,48.7-27.9,60.1-37,17.7-14.2,116.5-13.7,116.5-13.7,0,0-55.8,49-133.2,75.5-18.8,6.4-48.8,15.3-94.2,4.8-5.9-1.4-11.9-2.7-17.4-3.8-1.4-.3-2.7-.5-4.3-.7-1.5-.2-2.9-.4-4.4-.7-2.9-.4-5.7-.7-8.5-1.1-11.3-1.1-22.4-1.5-33-1.1-9.2.3-17.9,1-26.2,2.1,33.9,60.8,98.8,102,173.4,102,129.9,0,198.3-105.9,198.3-198.3s-35.4-129.9-89-165.4h0ZM192.5,366.5h.3-.3Z"/>
      <path class="st2" d="M236.7,38.2c4.4,0,8.8.4,13,.8s8.4.7,12.4.8c2,0,4.1,0,6.1,0,1,0,2-.2,3-.3s2-.3,3-.4l6-1-2.5,5.3c-1,2.1-2.2,4.1-3.5,6,.3,0,.5,0,.8,0,.9,0,1.9-.3,2.8-.4,3.8-.5,7.6-.7,11.5-.7s3.8,0,5.7.2c1.9,0,3.8.3,5.7.6,3.8.5,7.5,1.3,11.2,2.1,6.4,1.4,12.7,2.9,19.2,3.9-27.6-17.6-59.8-28.6-94.5-30.7l-1.8,14.1h1.9,0Z"/>
      <path class="st0" d="M368.1,315.9c15.2-7.6,28.5-12.1,28.4-13.4,0-1.5-4.9-1.6-9.5-1.5-6.1.1-17.4,4.4-33.3,11.6-13.7,6.3-29.2,13.9-42.4,21.5-11.9.2-23.3.5-34.3.9,16.1-9.3,29.6-15.8,34.2-17.7,8.7-2.3,10.9-3,10.9-4.5,0-2.4-4.4-3.7-10.3-3.6-9,.2-26.6,8.3-46.1,19.4l-13,7.5c-10.2.7-20.2,1.4-29.6,2.4-1.8.2-3.7.4-5.5.8,13.5-11.2,27.4-22.4,42.3-28.4s2.9-1.2,4-1.7c-3.8-1.5-11.2-3.5-18-3.4-11.7.2-28.9,8.8-83.1,38.1,13.4-21.8,27.9-29.7,27.8-31.7,0-1.8-3.5-3.1-12.7-2.9-7.5.1-9.2.6-17.4,4.1-28,11.7-76.2,48.8-76.2,48.8.3.3,0,0,0,0,0,0,32.9-14,71.2-32.9-14.3,14.3-20.8,29.8-20.8,33.2s3.2,3.1,8.8,3c7.1-.1,25-17.1,65-34.1-8.2,6.1-23.2,19.2-24.3,27.4-2.1,15.6,25.1,16.1,41.1,7.8,11.7-6,17.2-10.2,38.6-24,12.6-.6,25.3-1.1,36-1.4-11,7.4-18.2,14.5-18.1,20.1,0,4.5,9.2,8,21.5,7.7,27-.5,67.7-22,67.7-22,0,0-40.4,12.3-61.5,12.7-3.2,0-4.9-.5-4.9-2.6-.2-8,36.2-27.9,63.4-41.3h.1ZM204.3,355.3c0-2.2,2.3-5.4,6-9.2h.9c3.6,0,6.8-.5,12.9-1,4.4-.4,9.7-.8,15.5-1.1-6.4,3.8-12.3,8.4-18.1,11.2-4.5,2.1-9,2.7-11.8,2.7s-5.4-.9-5.4-2.6h0Z"/>
    </g>
  </g>
</svg>