<?xml version="1.0" encoding="UTF-8"?><svg id="Layer_1" xmlns="http://www.w3.org/2000/svg" width="498.88" height="498.88" xmlns:xlink="http://www.w3.org/1999/xlink" viewBox="0 0 498.88 498.88"><defs><style>.cls-1{fill:none;}.cls-2{fill:url(#linear-gradient);}.cls-3{clip-path:url(#clippath);}</style><clipPath id="clippath"><path class="cls-1" d="M250,0C112.55,0,1.12,111.43,1.12,248.88c0,116.99,80.71,215.12,189.49,241.75,5.18,1.13,10.55,1.73,16.07,1.73,41.34,0,75.22-33.51,75.22-74.85v-181.82l85.06,80.71v-72.61l-116.96-110.5-116.96,110.5v72.61l85.06-80.36v156.68c0,18.24-14.78,33.02-33.02,33.02-4.79,0-9.33-1.02-13.44-2.85h0c-66.3-29.89-112.44-96.56-112.44-174.01,0-105.38,85.43-190.81,190.81-190.81s190.81,85.43,190.81,190.81c0,91.33-64.17,167.68-149.89,186.41-5.97,28.42-25.95,51.68-52.39,62.21,3.8.17,7.63.26,11.47.26,137.45,0,248.88-111.43,248.88-248.88S387.45,0,250,0Z"/></clipPath><linearGradient id="linear-gradient" x1="0" y1="498.88" x2="498.88" y2="0" gradientUnits="userSpaceOnUse"><stop offset=".15" stop-color="#54b948"/><stop offset=".85" stop-color="#39bfb0"/></linearGradient></defs><g class="cls-3"><rect class="cls-2" width="498.88" height="498.88"/></g></svg>