<?xml version="1.0" encoding="UTF-8"?><svg id="Layer_1" xmlns="http://www.w3.org/2000/svg" width="1000" height="300" xmlns:xlink="http://www.w3.org/1999/xlink" viewBox="0 0 1000 300"><defs><style>.cls-1{clip-path:url(#clippath-6);}.cls-2{clip-path:url(#clippath-7);}.cls-3{clip-path:url(#clippath-4);}.cls-4{fill:#fff;}.cls-5{fill:none;}.cls-6{clip-path:url(#clippath-1);}.cls-7{clip-path:url(#clippath-5);}.cls-8{clip-path:url(#clippath-3);}.cls-9{clip-path:url(#clippath-2);}.cls-10{fill:url(#linear-gradient);}.cls-11{clip-path:url(#clippath);}</style><clipPath id="clippath"><path class="cls-5" d="M410.24,81.73c0,22.21-13.57,38.7-39.63,38.7s-39.77-16.49-39.77-38.7V23.88h20.75v57.06c0,11.57,7.98,20.35,19.02,20.35s18.89-8.78,18.89-20.35V23.88h20.75v57.85Z"/></clipPath><linearGradient id="linear-gradient" x1="175" y1="475" x2="825" y2="-175" gradientUnits="userSpaceOnUse"><stop offset="0" stop-color="#54b948"/><stop offset="1" stop-color="#39bfb0"/></linearGradient><clipPath id="clippath-1"><path class="cls-5" d="M429.39,23.88h34.98c19.55,0,35.78,6.25,35.78,28.59s-15.03,28.86-34.84,28.86h-15.16v36.71h-20.75V23.88ZM450.14,63.78h13.83c7.31,0,14.63-2.53,14.63-11.3,0-9.71-9.84-11.04-17.82-11.04h-10.64v22.34Z"/></clipPath><clipPath id="clippath-2"><path class="cls-5" d="M531.4,42.23h-26.87v-18.35h74.48v18.35h-26.87v75.81h-20.75V42.23Z"/></clipPath><clipPath id="clippath-3"><path class="cls-5" d="M589.52,23.88h36.44c19.28,0,35.51,6.65,35.51,28.59,0,13.17-7.05,23.41-20.35,25.8l23.94,39.77h-24.87l-19.68-37.64h-10.24v37.64h-20.75V23.88ZM610.27,62.85h12.24c7.58,0,17.42-.27,17.42-10.51,0-9.44-8.51-10.91-16.09-10.91h-13.57v21.41Z"/></clipPath><clipPath id="clippath-4"><path class="cls-5" d="M706.69,23.88h17.16l40.96,94.16h-23.41l-8.11-19.95h-36.57l-7.85,19.95h-22.88l40.7-94.16ZM714.67,51.28l-11.44,29.26h23.01l-11.57-29.26Z"/></clipPath><clipPath id="clippath-5"><path class="cls-5" d="M774.26,23.88h31.12c30.32,0,55.73,12.9,55.73,47.35,0,30.46-24.87,46.81-52.93,46.81h-33.91V23.88ZM795.01,98.89h10.77c19.28,0,33.78-7.31,33.78-28.73,0-18.49-14.76-27.13-32.32-27.13h-12.24v55.86Z"/></clipPath><clipPath id="clippath-6"><path class="cls-5" d="M876,23.88h63.97v19.15h-43.22v17.56h40.83v19.15h-40.83v19.15h45.62v19.15h-66.36V23.88Z"/></clipPath><clipPath id="clippath-7"><path class="cls-5" d="M163.71,2.96C82.5,2.96,16.67,68.79,16.67,150c0,69.11,47.68,127.09,111.95,142.82,3.06.67,6.24,1.02,9.49,1.02,24.42,0,44.44-19.8,44.44-44.22v-107.42l50.25,47.68v-42.9l-69.1-65.28-69.1,65.28v42.9l50.25-47.48v92.57c0,10.77-8.73,19.51-19.51,19.51-2.83,0-5.51-.6-7.94-1.68h0c-39.17-17.66-66.43-57.05-66.43-102.81,0-62.26,50.47-112.73,112.73-112.73s112.73,50.47,112.73,112.73c0,53.96-37.91,99.06-88.55,110.13-3.53,16.79-15.33,30.53-30.95,36.76,2.25.1,4.51.15,6.78.15,81.21,0,147.04-65.83,147.04-147.04S244.92,2.96,163.71,2.96Z"/></clipPath></defs><g class="cls-11"><rect class="cls-10" width="1000" height="300"/></g><g class="cls-6"><rect class="cls-10" width="1000" height="300"/></g><g class="cls-9"><rect class="cls-10" width="1000" height="300"/></g><g class="cls-8"><rect class="cls-10" width="1000" height="300"/></g><g class="cls-3"><rect class="cls-10" width="1000" height="300"/></g><g class="cls-7"><rect class="cls-10" width="1000" height="300"/></g><g class="cls-1"><rect class="cls-10" width="1000" height="300"/></g><path class="cls-4" d="M334.95,143.52h44.84l30.97,87.78h.38l31.16-87.78h44.65v134.52h-29.64v-103.17h-.38l-35.34,103.17h-22.61l-34.01-103.17h-.38v103.17h-29.64v-134.52Z"/><path class="cls-4" d="M514.87,143.52h91.39v27.36h-61.75v25.08h58.33v27.36h-58.33v27.36h65.17v27.36h-94.81v-134.52Z"/><path class="cls-4" d="M632.86,143.52h44.46c43.32,0,79.61,18.43,79.61,67.64,0,43.51-35.53,66.88-75.62,66.88h-48.45v-134.52ZM662.5,250.68h15.39c27.55,0,48.26-10.45,48.26-41.04,0-26.41-21.09-38.76-46.17-38.76h-17.48v79.8Z"/><path class="cls-4" d="M776.12,143.52h29.64v134.52h-29.64v-134.52Z"/><path class="cls-4" d="M876.44,143.52h24.51l58.52,134.52h-33.44l-11.59-28.5h-52.25l-11.21,28.5h-32.68l58.14-134.52ZM887.84,182.66l-16.34,41.8h32.87l-16.53-41.8Z"/><rect class="cls-5" x="648.42" y="208.94" width="74.8" height="9.09"/><g class="cls-2"><rect class="cls-10" width="1000" height="300"/></g></svg>